<?xml version="1.0" encoding="utf-8"?>
<!-- Generator: Adobe Illustrator 18.1.0, SVG Export Plug-In . SVG Version: 6.00 Build 0)  -->
<svg version="1.1" id="Layer_1" xmlns="http://www.w3.org/2000/svg" xmlns:xlink="http://www.w3.org/1999/xlink" x="0px" y="0px"
	 viewBox="0 0 612 792" enable-background="new 0 0 612 792" xml:space="preserve">
<g id="h3hEbN.tif_1_">
	<g>
		<g>
			<path fill="#F05B6E" d="M321.8,207.7c3.8-5.6,7.3-10.9,11.1-16.2c16.4-21.7,36.3-39.1,61.1-50.7c13.9-6.6,28.5-10.9,43.9-12.4
				c28.3-3,55.3,1,80.8,13.6c36.3,18.2,60.3,47.2,71.7,86.3c4,13.6,5.6,27.5,5.6,41.9c0,13.4-0.8,26.5-2.3,39.9
				c-4.5,39.4-18.7,75-43.4,106c-13.4,16.9-28.3,32.6-43.9,47.2c-20.9,19.9-42.9,38.6-64.9,57.5c-40.5,34.9-80.4,70.2-119,106.8
				c-0.3,0.3-0.5,0.3-0.8,0.5c-0.3-0.3-0.8-0.5-1-0.8c-37.6-35.8-76.7-70.2-116.1-104.2c-24.5-21.2-49-42.1-72.2-64.4
				c-15.6-15.1-30.8-31-43.7-48.7c-18.2-24.7-30.3-52.2-36.1-82.3c-4-21.7-5.8-43.7-4.8-65.6c1.3-32.3,12.1-61.3,33.1-86.1
				c17.9-21.2,40.6-35.3,67.4-43.2c15.9-4.5,31.8-6.3,48.2-5.6c29,1.5,55.3,11.4,78.7,28.5c18.2,13.4,32.8,30,44.9,49
				C320.5,206.2,321,206.9,321.8,207.7z"/>
		</g>
	</g>
</g>
<g id="PEVfCh.tif">
	<g>
		<path fill="#FCE32D" d="M260.6,263c-3.2,2.3-6.2,4.7-9.6,7c-3.7,2.7-7,5.4-10.7,7.9c-1,0.7-1.2,1.3-0.8,2.3
			c2.7,7.9,5.2,15.8,7.7,24.3c-1.7-1.2-3-2.2-4.2-3c-5.2-3.9-10.7-7.9-15.9-11.9c-1-0.8-1.8-0.8-2.9,0c-6,4.5-12.1,9.1-18.1,13.4
			c-0.5,0.3-1,0.7-2,1.3c2-6,3.7-11.6,5.4-17c0.8-2.3,1.5-4.7,2.3-7c0.5-1.3,0.2-2-0.8-2.7c-6.2-4.5-12.6-9.2-18.8-13.9
			c-0.5-0.3-0.8-0.7-1.7-1.3c2.2,0,3.9,0,5.5,0c6.5,0,13.1,0,19.6,0c1.3,0,1.8-0.5,2.3-1.7c2.3-7.6,4.9-15.1,7-22.5
			c0.2-0.5,0.3-0.8,0.7-1.7c1.5,4.9,3,9.4,4.5,13.9c1,3.4,2.2,6.7,3.2,10.2c0.5,1.5,1.2,1.8,2.7,1.8c7.4-0.2,15.1,0,22.5,0
			c0.7,0,1.2,0,1.8,0C260.6,262.7,260.6,262.8,260.6,263z"/>
	</g>
</g>
<g id="PEVfCh.tif_1_">
	<g>
		<path fill="#FCE32D" d="M358.3,263c-3.2,2.3-6.2,4.7-9.6,7c-3.7,2.7-7,5.4-10.7,7.9c-1,0.7-1.2,1.3-0.8,2.3
			c2.7,7.9,5.2,15.8,7.7,24.3c-1.7-1.2-3-2.2-4.2-3c-5.2-3.9-10.7-7.9-15.9-11.9c-1-0.8-1.8-0.8-2.9,0c-6,4.5-12.1,9.1-18.1,13.4
			c-0.5,0.3-1,0.7-2,1.3c2-6,3.7-11.6,5.4-17c0.8-2.3,1.5-4.7,2.3-7c0.5-1.3,0.2-2-0.8-2.7c-6.2-4.5-12.6-9.2-18.8-13.9
			c-0.5-0.3-0.8-0.7-1.7-1.3c2.2,0,3.9,0,5.5,0c6.5,0,13.1,0,19.6,0c1.3,0,1.8-0.5,2.3-1.7c2.3-7.6,4.9-15.1,7-22.5
			c0.2-0.5,0.3-0.8,0.7-1.7c1.5,4.9,3,9.4,4.5,13.9c1,3.4,2.2,6.7,3.2,10.2c0.5,1.5,1.2,1.8,2.7,1.8c7.4-0.2,15.1,0,22.5,0
			c0.7,0,1.2,0,1.8,0C358.3,262.7,358.3,262.8,358.3,263z"/>
	</g>
</g>
<g id="PEVfCh.tif_2_">
	<g>
		<path fill="#FCE32D" d="M418.6,232.1c-0.3,0.7-0.5,0.8-0.5,1.2c-2.7,8.7-5.4,17.1-8.1,25.8c-0.5,1.5-1,2-2.7,2
			c-8.6-0.2-17.3,0-26,0c-0.7,0-1.2,0-1.8,0c0.3,0.8,1,1.2,1.5,1.7c7,5.2,14.3,10.6,21.3,15.8c1,0.7,1.3,1.3,0.8,2.5
			c-2,6.2-4,12.4-5.9,18.5c-0.8,2.9-1.8,5.5-2.9,8.9c8.4-6.2,16.3-12.1,24.3-17.6c8.1,5.9,15.8,11.7,24.3,17.8
			c-3.2-10.1-6.2-19.5-9.2-29c8.1-6,16.1-11.9,24.2-17.8c0-0.2,0-0.3-0.2-0.5c-0.7,0-1.3,0-2,0c-8.6,0-17,0-25.7,0
			c-1.8,0-2.5-0.5-3-2.2c-0.7-2.7-1.7-5.2-2.5-7.9C422.8,245,420.8,238.7,418.6,232.1z"/>
		<path fill="#FCE32D" d="M453.5,263c-3.2,2.3-6.2,4.7-9.6,7c-3.7,2.7-7,5.4-10.7,7.9c-1,0.7-1.2,1.3-0.8,2.3
			c2.7,7.9,5.2,15.8,7.7,24.3c-1.7-1.2-3-2.2-4.2-3c-5.2-3.9-10.7-7.9-15.9-11.9c-1-0.8-1.8-0.8-2.9,0c-6,4.5-12.1,9.1-18.1,13.4
			c-0.5,0.3-1,0.7-2,1.3c2-6,3.7-11.6,5.4-17c0.8-2.3,1.5-4.7,2.3-7c0.5-1.3,0.2-2-0.8-2.7c-6.2-4.5-12.6-9.2-18.8-13.9
			c-0.5-0.3-0.8-0.7-1.7-1.3c2.2,0,3.9,0,5.5,0c6.5,0,13.1,0,19.6,0c1.3,0,1.8-0.5,2.3-1.7c2.3-7.6,4.9-15.1,7-22.5
			c0.2-0.5,0.3-0.8,0.7-1.7c1.5,4.9,3,9.4,4.5,13.9c1,3.4,2.2,6.7,3.2,10.2c0.5,1.5,1.2,1.8,2.7,1.8c7.4-0.2,15.1,0,22.5,0
			c0.7,0,1.2,0,1.8,0C453.3,262.7,453.5,262.8,453.5,263z"/>
	</g>
</g>
<g enable-background="new    ">
	<path fill="#FFFFFF" d="M237.7,429.1V357c-2.9,2-7.2,3.9-9.4,4.3v-7c3-1.1,8.7-4.2,11.8-9.2h5v84H237.7z"/>
	<path fill="#FFFFFF" d="M286.9,429.1V403l-18.4-58h8.3l13.8,50.4c6-21.8,7.7-28.6,13.8-50.4h7.8l-17.8,58v26.1H286.9z"/>
	<path fill="#FFFFFF" d="M314.2,402.2l0-8.2c0.1-20.8,6.8-24.7,16.1-24.7c10.6,0,14.7,7.4,14.7,23.1c0,2.4,0,3.7-0.1,6h-23.4v8.9
		c0,15.8,3.3,18.1,8.7,18.1c3.8,0,7.7-2.7,7.8-13.9v-0.4h6.8v0.3c-0.9,10.1-3.6,18.9-14.5,18.9C318.4,430.4,314,424.2,314.2,402.2z
		 M321.6,394.8h16.2v-0.1c-0.1-8.9,1-20.5-7.1-20.5c-9,0-9.1,7.1-9.1,20.5V394.8z"/>
	<path fill="#FFFFFF" d="M377.8,429.1l-0.9-7.1c-3.3,5.8-8.5,8.4-12.4,8.4c-5.7,0-11.6-4.8-11.6-13c0-7.6,0.3-14.6,23.4-24.1v-0.5
		c0-17.1-3.6-18.6-7.2-18.6c-2.9,0-6.9,1.1-7.5,11.1v0.3h-7.6c0.8-10.2,6.3-16.4,14.8-16.4c12.4,0,14.8,10.2,14.8,18.2v28.1
		c0,6.9,0.9,13.5,0.9,13.5H377.8z M376.4,417.2v-20.6c-10.1,7-16,11.5-16,19.5c0,6.1,3.2,8.3,5.9,8.3
		C370,424.3,374.2,421.4,376.4,417.2z"/>
	<path fill="#FFFFFF" d="M396.1,429.1v-58.5h7.3v8.3c2-6.6,7.9-9.1,12.3-9.2h0.1v7.4c0,0-0.7-0.2-1.3-0.2c-5.6,0-11.2,1.7-11.2,8.6
		v43.7H396.1z"/>
</g>
</svg>
