<?xml version="1.0" encoding="utf-8"?>
<!-- Generator: Adobe Illustrator 18.1.0, SVG Export Plug-In . SVG Version: 6.00 Build 0)  -->
<svg version="1.1" id="Layer_1" xmlns="http://www.w3.org/2000/svg" xmlns:xlink="http://www.w3.org/1999/xlink" x="0px" y="0px"
	 viewBox="0 0 612 792" enable-background="new 0 0 612 792" xml:space="preserve">
<g id="h3hEbN.tif_1_">
	<g>
		<g>
			<path fill="#F05B6E" d="M321.8,207.7c3.8-5.6,7.3-10.9,11.1-16.2c16.4-21.7,36.3-39.1,61.1-50.7c13.9-6.6,28.5-10.9,43.9-12.4
				c28.3-3,55.3,1,80.8,13.6c36.3,18.2,60.3,47.2,71.7,86.3c4,13.6,5.6,27.5,5.6,41.9c0,13.4-0.8,26.5-2.3,39.9
				c-4.5,39.4-18.7,75-43.4,106c-13.4,16.9-28.3,32.6-43.9,47.2c-20.9,19.9-42.9,38.6-64.9,57.5C401,555.7,361.1,591,322.5,627.6
				c-0.3,0.3-0.5,0.3-0.8,0.5c-0.3-0.3-0.8-0.5-1-0.8c-37.6-35.8-76.7-70.2-116.1-104.2c-24.5-21.2-49-42.1-72.2-64.4
				c-15.6-15.1-30.8-31-43.7-48.7c-18.2-24.7-30.3-52.2-36.1-82.3c-4-21.7-5.8-43.7-4.8-65.6c1.3-32.3,12.1-61.3,33.1-86.1
				c17.9-21.2,40.6-35.3,67.4-43.2c15.9-4.5,31.8-6.3,48.2-5.6c29,1.5,55.3,11.4,78.7,28.5c18.2,13.4,32.8,30,44.9,49
				C320.5,206.2,321,206.9,321.8,207.7z"/>
		</g>
	</g>
</g>
<g id="PEVfCh.tif">
	<g>
		<path fill="#FCE32D" d="M225.6,292.5c-8.7,6.5-17.5,12.9-26.5,19.5c0.2-0.8,0.2-1.2,0.3-1.5c3-9.7,6-19.1,9.2-28.7
			c0.5-1.3,0.2-1.8-0.8-2.7c-7.9-5.7-15.6-11.6-23.5-17.1c-0.7-0.5-1.3-1-2.3-1.8c1.2,0,1.7,0,2.3,0c9.7,0,19.5,0,29.2,0
			c1.5,0,2.2-0.5,2.5-1.8c3.2-10.1,6.2-19.8,9.7-29.9c1,2.9,1.8,5.9,2.9,8.7c2.3,7.2,4.5,14.4,6.7,21.3c0.3,1.2,1,1.7,2.3,1.7
			c9.7,0,19.6,0,29.4,0c0.7,0,1.2,0,1.8,0c0,0.2,0,0.2,0.2,0.3c-4.2,3-8.2,6-12.4,9.2c-4.4,3.2-8.7,6.5-13.1,9.6
			c-1.2,0.8-1.3,1.7-0.8,2.9c3.2,9.7,6.2,19.3,9.2,28.9c0,0.2,0.2,0.5,0.3,1.3C243.4,305.5,234.6,298.9,225.6,292.5z M225.7,232.1
			c-0.3,0.7-0.5,0.8-0.5,1.2c-2.7,8.7-5.4,17.1-8.1,25.8c-0.5,1.5-1,2-2.7,2c-8.6-0.2-17.3,0-26,0c-0.7,0-1.2,0-1.8,0
			c0.3,0.8,1,1.2,1.5,1.7c7,5.2,14.3,10.6,21.3,15.8c1,0.7,1.3,1.3,0.8,2.5c-2,6.2-4,12.4-5.9,18.5c-0.8,2.9-1.8,5.5-2.9,8.9
			c8.4-6.2,16.3-12.1,24.3-17.6c8.1,5.9,15.8,11.7,24.3,17.8c-3.2-10.1-6.2-19.5-9.2-29c8.1-6,16.1-11.9,24.2-17.8
			c0-0.2,0-0.3-0.2-0.5c-0.7,0-1.3,0-2,0c-8.6,0-17,0-25.7,0c-1.8,0-2.5-0.5-3-2.2c-0.7-2.7-1.7-5.2-2.5-7.9
			C229.9,245,227.9,238.7,225.7,232.1z"/>
		<path fill="#FCE32D" d="M225.7,232.1c2.2,6.5,4.2,12.9,6,19c0.8,2.5,1.7,5.2,2.5,7.9c0.5,1.7,1.2,2.2,3,2.2c8.6-0.2,17,0,25.7,0
			c0.7,0,1.3,0,2,0c0,0.2,0,0.3,0.2,0.5c-8.1,6-15.9,11.9-24.2,17.8c3,9.6,6,19,9.2,29c-8.4-6.2-16.1-11.9-24.3-17.8
			c-7.9,5.9-15.8,11.6-24.3,17.6c1-3.4,1.8-6.2,2.9-8.9c2-6.2,4-12.4,5.9-18.5c0.3-1.2,0.2-1.8-0.8-2.5c-7-5.2-14.3-10.6-21.3-15.8
			c-0.5-0.3-1.2-0.8-1.5-1.7c0.7,0,1.2,0,1.8,0c8.6,0,17.3,0,26,0c1.7,0,2.2-0.5,2.7-2c2.7-8.7,5.4-17.1,8.1-25.8
			C225.4,233,225.6,232.8,225.7,232.1z M260.6,263c0-0.2-0.2-0.3-0.2-0.3c-0.7,0-1.2,0-1.8,0c-7.4,0-15.1,0-22.5,0
			c-1.5,0-2.3-0.3-2.7-1.8c-1-3.4-2.2-6.9-3.2-10.2c-1.5-4.5-2.9-9.1-4.5-13.9c-0.3,0.8-0.5,1.2-0.7,1.7c-2.3,7.6-4.9,15.1-7,22.5
			c-0.3,1.2-1,1.7-2.3,1.7c-6.5,0-13.1,0-19.6,0c-1.7,0-3.5,0-5.5,0c0.8,0.7,1.2,1,1.7,1.3c6.2,4.7,12.6,9.4,18.8,13.9
			c1,0.8,1.3,1.5,0.8,2.7c-0.8,2.3-1.5,4.7-2.3,7c-1.8,5.5-3.5,11.1-5.4,17c1-0.7,1.5-1,2-1.3c6-4.5,12.3-8.9,18.1-13.4
			c1-0.8,1.8-0.8,2.9,0c5.2,4,10.7,7.9,15.9,11.9c1.3,0.8,2.5,1.8,4.2,3c-2.7-8.6-5.2-16.3-7.7-24.3c-0.3-1.2-0.2-1.7,0.8-2.3
			c3.7-2.5,7-5.2,10.7-7.9C254.4,267.7,257.5,265.4,260.6,263z"/>
		<path fill="#FCE32D" d="M260.6,263c-3.2,2.3-6.2,4.7-9.6,7c-3.7,2.7-7,5.4-10.7,7.9c-1,0.7-1.2,1.3-0.8,2.3
			c2.7,7.9,5.2,15.8,7.7,24.3c-1.7-1.2-3-2.2-4.2-3c-5.2-3.9-10.7-7.9-15.9-11.9c-1-0.8-1.8-0.8-2.9,0c-6,4.5-12.1,9.1-18.1,13.4
			c-0.5,0.3-1,0.7-2,1.3c2-6,3.7-11.6,5.4-17c0.8-2.3,1.5-4.7,2.3-7c0.5-1.3,0.2-2-0.8-2.7c-6.2-4.5-12.6-9.2-18.8-13.9
			c-0.5-0.3-0.8-0.7-1.7-1.3c2.2,0,3.9,0,5.5,0c6.5,0,13.1,0,19.6,0c1.3,0,1.8-0.5,2.3-1.7c2.3-7.6,4.9-15.1,7-22.5
			c0.2-0.5,0.3-0.8,0.7-1.7c1.5,4.9,3,9.4,4.5,13.9c1,3.4,2.2,6.7,3.2,10.2c0.5,1.5,1.2,1.8,2.7,1.8c7.4-0.2,15.1,0,22.5,0
			c0.7,0,1.2,0,1.8,0C260.6,262.7,260.6,262.8,260.6,263z"/>
	</g>
</g>
<g id="PEVfCh.tif_1_">
	<g>
		<path fill="#FCE32D" d="M323.2,292.5c-8.7,6.5-17.5,12.9-26.5,19.5c0.2-0.8,0.2-1.2,0.3-1.5c3-9.7,6-19.1,9.2-28.7
			c0.5-1.3,0.2-1.8-0.8-2.7c-7.9-5.7-15.6-11.6-23.5-17.1c-0.7-0.5-1.3-1-2.3-1.8c1.2,0,1.7,0,2.3,0c9.7,0,19.5,0,29.2,0
			c1.5,0,2.2-0.5,2.5-1.8c3.2-10.1,6.2-19.8,9.7-29.9c1,2.9,1.8,5.9,2.9,8.7c2.3,7.2,4.5,14.4,6.7,21.3c0.3,1.2,1,1.7,2.3,1.7
			c9.7,0,19.6,0,29.4,0c0.7,0,1.2,0,1.8,0c0,0.2,0,0.2,0.2,0.3c-4.2,3-8.2,6-12.4,9.2c-4.4,3.2-8.7,6.5-13.1,9.6
			c-1.2,0.8-1.3,1.7-0.8,2.9c3.2,9.7,6.2,19.3,9.2,28.9c0,0.2,0.2,0.5,0.3,1.3C340.9,305.5,332.1,298.9,323.2,292.5z M323.4,232.1
			c-0.3,0.7-0.5,0.8-0.5,1.2c-2.7,8.7-5.4,17.1-8.1,25.8c-0.5,1.5-1,2-2.7,2c-8.6-0.2-17.3,0-26,0c-0.7,0-1.2,0-1.8,0
			c0.3,0.8,1,1.2,1.5,1.7c7,5.2,14.3,10.6,21.3,15.8c1,0.7,1.3,1.3,0.8,2.5c-2,6.2-4,12.4-5.9,18.5c-0.8,2.9-1.8,5.5-2.9,8.9
			c8.4-6.2,16.3-12.1,24.3-17.6c8.1,5.9,15.8,11.7,24.3,17.8c-3.2-10.1-6.2-19.5-9.2-29c8.1-6,16.1-11.9,24.2-17.8
			c0-0.2,0-0.3-0.2-0.5c-0.7,0-1.3,0-2,0c-8.6,0-17,0-25.7,0c-1.8,0-2.5-0.5-3-2.2c-0.7-2.7-1.7-5.2-2.5-7.9
			C327.6,245,325.6,238.7,323.4,232.1z"/>
		<path fill="#FCE32D" d="M323.4,232.1c2.2,6.5,4.2,12.9,6,19c0.8,2.5,1.7,5.2,2.5,7.9c0.5,1.7,1.2,2.2,3,2.2c8.6-0.2,17,0,25.7,0
			c0.7,0,1.3,0,2,0c0,0.2,0,0.3,0.2,0.5c-8.1,6-15.9,11.9-24.2,17.8c3,9.6,6,19,9.2,29c-8.4-6.2-16.1-11.9-24.3-17.8
			c-7.9,5.9-15.8,11.6-24.3,17.6c1-3.4,1.8-6.2,2.9-8.9c2-6.2,4-12.4,5.9-18.5c0.3-1.2,0.2-1.8-0.8-2.5c-7-5.2-14.3-10.6-21.3-15.8
			c-0.5-0.3-1.2-0.8-1.5-1.7c0.7,0,1.2,0,1.8,0c8.6,0,17.3,0,26,0c1.7,0,2.2-0.5,2.7-2c2.7-8.7,5.4-17.1,8.1-25.8
			C323.1,233,323.2,232.8,323.4,232.1z M358.3,263c0-0.2-0.2-0.3-0.2-0.3c-0.7,0-1.2,0-1.8,0c-7.4,0-15.1,0-22.5,0
			c-1.5,0-2.3-0.3-2.7-1.8c-1-3.4-2.2-6.9-3.2-10.2c-1.5-4.5-2.9-9.1-4.5-13.9c-0.3,0.8-0.5,1.2-0.7,1.7c-2.3,7.6-4.9,15.1-7,22.5
			c-0.3,1.2-1,1.7-2.3,1.7c-6.5,0-13.1,0-19.6,0c-1.7,0-3.5,0-5.5,0c0.8,0.7,1.2,1,1.7,1.3c6.2,4.7,12.6,9.4,18.8,13.9
			c1,0.8,1.3,1.5,0.8,2.7c-0.8,2.3-1.5,4.7-2.3,7c-1.8,5.5-3.5,11.1-5.4,17c1-0.7,1.5-1,2-1.3c6-4.5,12.3-8.9,18.1-13.4
			c1-0.8,1.8-0.8,2.9,0c5.2,4,10.7,7.9,15.9,11.9c1.3,0.8,2.5,1.8,4.2,3c-2.7-8.6-5.2-16.3-7.7-24.3c-0.3-1.2-0.2-1.7,0.8-2.3
			c3.7-2.5,7-5.2,10.7-7.9C351.9,267.7,355.1,265.4,358.3,263z"/>
		<path fill="#FCE32D" d="M358.3,263c-3.2,2.3-6.2,4.7-9.6,7c-3.7,2.7-7,5.4-10.7,7.9c-1,0.7-1.2,1.3-0.8,2.3
			c2.7,7.9,5.2,15.8,7.7,24.3c-1.7-1.2-3-2.2-4.2-3c-5.2-3.9-10.7-7.9-15.9-11.9c-1-0.8-1.8-0.8-2.9,0c-6,4.5-12.1,9.1-18.1,13.4
			c-0.5,0.3-1,0.7-2,1.3c2-6,3.7-11.6,5.4-17c0.8-2.3,1.5-4.7,2.3-7c0.5-1.3,0.2-2-0.8-2.7c-6.2-4.5-12.6-9.2-18.8-13.9
			c-0.5-0.3-0.8-0.7-1.7-1.3c2.2,0,3.9,0,5.5,0c6.5,0,13.1,0,19.6,0c1.3,0,1.8-0.5,2.3-1.7c2.3-7.6,4.9-15.1,7-22.5
			c0.2-0.5,0.3-0.8,0.7-1.7c1.5,4.9,3,9.4,4.5,13.9c1,3.4,2.2,6.7,3.2,10.2c0.5,1.5,1.2,1.8,2.7,1.8c7.4-0.2,15.1,0,22.5,0
			c0.7,0,1.2,0,1.8,0C358.3,262.7,358.3,262.8,358.3,263z"/>
	</g>
</g>
<g id="PEVfCh.tif_2_">
	<g>
		<path fill="#FCE32D" d="M418.4,292.5c-8.7,6.5-17.5,12.9-26.5,19.5c0.2-0.8,0.2-1.2,0.3-1.5c3-9.7,6-19.1,9.2-28.7
			c0.5-1.3,0.2-1.8-0.8-2.7c-7.9-5.7-15.6-11.6-23.5-17.1c-0.7-0.5-1.3-1-2.3-1.8c1.2,0,1.7,0,2.3,0c9.7,0,19.5,0,29.2,0
			c1.5,0,2.2-0.5,2.5-1.8c3.2-10.1,6.2-19.8,9.7-29.9c1,2.9,1.8,5.9,2.9,8.7c2.3,7.2,4.5,14.4,6.7,21.3c0.3,1.2,1,1.7,2.3,1.7
			c9.7,0,19.6,0,29.4,0c0.7,0,1.2,0,1.8,0c0,0.2,0,0.2,0.2,0.3c-4.2,3-8.2,6-12.4,9.2c-4.4,3.2-8.7,6.5-13.1,9.6
			c-1.2,0.8-1.3,1.7-0.8,2.9c3.2,9.7,6.2,19.3,9.2,28.9c0,0.2,0.2,0.5,0.3,1.3C436,305.5,427.3,298.9,418.4,292.5z M418.6,232.1
			c-0.3,0.7-0.5,0.8-0.5,1.2c-2.7,8.7-5.4,17.1-8.1,25.8c-0.5,1.5-1,2-2.7,2c-8.6-0.2-17.3,0-26,0c-0.7,0-1.2,0-1.8,0
			c0.3,0.8,1,1.2,1.5,1.7c7,5.2,14.3,10.6,21.3,15.8c1,0.7,1.3,1.3,0.8,2.5c-2,6.2-4,12.4-5.9,18.5c-0.8,2.9-1.8,5.5-2.9,8.9
			c8.4-6.2,16.3-12.1,24.3-17.6c8.1,5.9,15.8,11.7,24.3,17.8c-3.2-10.1-6.2-19.5-9.2-29c8.1-6,16.1-11.9,24.2-17.8
			c0-0.2,0-0.3-0.2-0.5c-0.7,0-1.3,0-2,0c-8.6,0-17,0-25.7,0c-1.8,0-2.5-0.5-3-2.2c-0.7-2.7-1.7-5.2-2.5-7.9
			C422.8,245,420.8,238.7,418.6,232.1z"/>
		<path fill="#FCE32D" d="M418.6,232.1c2.2,6.5,4.2,12.9,6,19c0.8,2.5,1.7,5.2,2.5,7.9c0.5,1.7,1.2,2.2,3,2.2c8.6-0.2,17,0,25.7,0
			c0.7,0,1.3,0,2,0c0,0.2,0,0.3,0.2,0.5c-8.1,6-15.9,11.9-24.2,17.8c3,9.6,6,19,9.2,29c-8.4-6.2-16.1-11.9-24.3-17.8
			c-7.9,5.9-15.8,11.6-24.3,17.6c1-3.4,1.8-6.2,2.9-8.9c2-6.2,4-12.4,5.9-18.5c0.3-1.2,0.2-1.8-0.8-2.5c-7-5.2-14.3-10.6-21.3-15.8
			c-0.5-0.3-1.2-0.8-1.5-1.7c0.7,0,1.2,0,1.8,0c8.6,0,17.3,0,26,0c1.7,0,2.2-0.5,2.7-2c2.7-8.7,5.4-17.1,8.1-25.8
			C418.2,233,418.2,232.8,418.6,232.1z M453.5,263c0-0.2-0.2-0.3-0.2-0.3c-0.7,0-1.2,0-1.8,0c-7.4,0-15.1,0-22.5,0
			c-1.5,0-2.3-0.3-2.7-1.8c-1-3.4-2.2-6.9-3.2-10.2c-1.5-4.5-2.9-9.1-4.5-13.9c-0.3,0.8-0.5,1.2-0.7,1.7c-2.3,7.6-4.9,15.1-7,22.5
			c-0.3,1.2-1,1.7-2.3,1.7c-6.5,0-13.1,0-19.6,0c-1.7,0-3.5,0-5.5,0c0.8,0.7,1.2,1,1.7,1.3c6.2,4.7,12.6,9.4,18.8,13.9
			c1,0.8,1.3,1.5,0.8,2.7c-0.8,2.3-1.5,4.7-2.3,7c-1.8,5.5-3.5,11.1-5.4,17c1-0.7,1.5-1,2-1.3c6-4.5,12.3-8.9,18.1-13.4
			c1-0.8,1.8-0.8,2.9,0c5.2,4,10.7,7.9,15.9,11.9c1.3,0.8,2.5,1.8,4.2,3c-2.7-8.6-5.2-16.3-7.7-24.3c-0.3-1.2-0.2-1.7,0.8-2.3
			c3.7-2.5,7-5.2,10.7-7.9C446.9,267.7,450.3,265.4,453.5,263z"/>
		<path fill="#FCE32D" d="M453.5,263c-3.2,2.3-6.2,4.7-9.6,7c-3.7,2.7-7,5.4-10.7,7.9c-1,0.7-1.2,1.3-0.8,2.3
			c2.7,7.9,5.2,15.8,7.7,24.3c-1.7-1.2-3-2.2-4.2-3c-5.2-3.9-10.7-7.9-15.9-11.9c-1-0.8-1.8-0.8-2.9,0c-6,4.5-12.1,9.1-18.1,13.4
			c-0.5,0.3-1,0.7-2,1.3c2-6,3.7-11.6,5.4-17c0.8-2.3,1.5-4.7,2.3-7c0.5-1.3,0.2-2-0.8-2.7c-6.2-4.5-12.6-9.2-18.8-13.9
			c-0.5-0.3-0.8-0.7-1.7-1.3c2.2,0,3.9,0,5.5,0c6.5,0,13.1,0,19.6,0c1.3,0,1.8-0.5,2.3-1.7c2.3-7.6,4.9-15.1,7-22.5
			c0.2-0.5,0.3-0.8,0.7-1.7c1.5,4.9,3,9.4,4.5,13.9c1,3.4,2.2,6.7,3.2,10.2c0.5,1.5,1.2,1.8,2.7,1.8c7.4-0.2,15.1,0,22.5,0
			c0.7,0,1.2,0,1.8,0C453.3,262.7,453.5,262.8,453.5,263z"/>
	</g>
</g>
<text transform="matrix(1 0 0 1 178.3667 454.3975)" fill="#FFFFFF" font-family="'Oswald-Light'" font-size="142.2643">1 Year</text>
</svg>
