<?xml version="1.0" encoding="utf-8"?>
<!-- Generator: Adobe Illustrator 18.1.0, SVG Export Plug-In . SVG Version: 6.00 Build 0)  -->
<svg version="1.1" id="Layer_1" xmlns="http://www.w3.org/2000/svg" xmlns:xlink="http://www.w3.org/1999/xlink" x="0px" y="0px"
	 viewBox="0 0 792 612" enable-background="new 0 0 792 612" xml:space="preserve">
<g id="h3hEbN.tif_1_">
	<g>
		<g>
			<path fill="#F05B6E" d="M424.1,99.4c4.6-6.8,8.9-13.3,13.5-19.7c20-26.4,44.2-47.6,74.4-61.7c16.9-8,34.7-13.3,53.5-15.1
				c34.5-3.7,67.3,1.2,98.4,16.6c44.2,22.2,73.4,57.5,87.3,105.1c4.9,16.6,6.8,33.5,6.8,51c0,16.3-1,32.3-2.8,48.6
				c-5.5,48-22.8,91.3-52.9,129.1c-16.3,20.6-34.5,39.7-53.5,57.5c-25.5,24.2-52.2,47-79,70c-49.3,42.5-97.9,85.5-144.9,130.1
				c-0.4,0.4-0.6,0.4-1,0.6c-0.4-0.4-1-0.6-1.2-1c-45.8-43.6-93.4-85.5-141.4-126.9c-29.8-25.8-59.7-51.3-87.9-78.4
				c-19-18.4-37.5-37.8-53.2-59.3c-22.2-30.1-36.9-63.6-44-100.2c-4.9-26.4-7.1-53.2-5.8-79.9C92,126.3,105.2,91,130.7,60.8
				c21.8-25.8,49.4-43,82.1-52.6c19.4-5.5,38.7-7.7,58.7-6.8c35.3,1.8,67.3,13.9,95.8,34.7c22.2,16.3,39.9,36.5,54.7,59.7
				C422.5,97.6,423.1,98.4,424.1,99.4z"/>
		</g>
	</g>
</g>
<g id="PEVfCh.tif">
	<g>
		<path fill="#FCE32D" d="M349.6,166.7c-3.9,2.8-7.6,5.7-11.7,8.5c-4.5,3.3-8.5,6.6-13,9.6c-1.2,0.9-1.5,1.6-1,2.8
			c3.3,9.6,6.3,19.2,9.4,29.6c-2.1-1.5-3.7-2.7-5.1-3.7c-6.3-4.7-13-9.6-19.4-14.5c-1.2-1-2.2-1-3.5,0c-7.3,5.5-14.7,11.1-22,16.3
			c-0.6,0.4-1.2,0.9-2.4,1.6c2.4-7.3,4.5-14.1,6.6-20.7c1-2.8,1.8-5.7,2.8-8.5c0.6-1.6,0.2-2.4-1-3.3c-7.6-5.5-15.3-11.2-22.9-16.9
			c-0.6-0.4-1-0.9-2.1-1.6c2.7,0,4.7,0,6.7,0c7.9,0,16,0,23.9,0c1.6,0,2.2-0.6,2.8-2.1c2.8-9.3,6-18.4,8.5-27.4
			c0.2-0.6,0.4-1,0.9-2.1c1.8,6,3.7,11.4,5.5,16.9c1.2,4.1,2.7,8.2,3.9,12.4c0.6,1.8,1.5,2.2,3.3,2.2c9-0.2,18.4,0,27.4,0
			c0.9,0,1.5,0,2.2,0C349.6,166.4,349.6,166.5,349.6,166.7z"/>
	</g>
</g>
<g id="PEVfCh.tif_1_">
	<g>
		<path fill="#FCE32D" d="M468.5,166.7c-3.9,2.8-7.6,5.7-11.7,8.5c-4.5,3.3-8.5,6.6-13,9.6c-1.2,0.9-1.5,1.6-1,2.8
			c3.3,9.6,6.3,19.2,9.4,29.6c-2.1-1.5-3.7-2.7-5.1-3.7c-6.3-4.7-13-9.6-19.4-14.5c-1.2-1-2.2-1-3.5,0c-7.3,5.5-14.7,11.1-22,16.3
			c-0.6,0.4-1.2,0.9-2.4,1.6c2.4-7.3,4.5-14.1,6.6-20.7c1-2.8,1.8-5.7,2.8-8.5c0.6-1.6,0.2-2.4-1-3.3c-7.6-5.5-15.3-11.2-22.9-16.9
			c-0.6-0.4-1-0.9-2.1-1.6c2.7,0,4.7,0,6.7,0c7.9,0,16,0,23.9,0c1.6,0,2.2-0.6,2.8-2.1c2.8-9.3,6-18.4,8.5-27.4
			c0.2-0.6,0.4-1,0.9-2.1c1.8,6,3.7,11.4,5.5,16.9c1.2,4.1,2.7,8.2,3.9,12.4c0.6,1.8,1.5,2.2,3.3,2.2c9-0.2,18.4,0,27.4,0
			c0.9,0,1.5,0,2.2,0C468.5,166.4,468.5,166.5,468.5,166.7z"/>
	</g>
</g>
<g id="PEVfCh.tif_2_">
	<g>
		<path fill="#FCE32D" d="M542,129.1c-0.4,0.9-0.6,1-0.6,1.5c-3.3,10.6-6.6,20.8-9.9,31.4c-0.6,1.8-1.2,2.4-3.3,2.4
			c-10.5-0.2-21.1,0-31.7,0c-0.9,0-1.5,0-2.2,0c0.4,1,1.2,1.5,1.8,2.1c8.5,6.3,17.4,12.9,25.9,19.2c1.2,0.9,1.6,1.6,1,3
			c-2.4,7.6-4.9,15.1-7.2,22.5c-1,3.5-2.2,6.7-3.5,10.8c10.2-7.6,19.9-14.7,29.6-21.4c9.9,7.2,19.2,14.2,29.6,21.7
			c-3.9-12.3-7.6-23.7-11.2-35.3c9.9-7.3,19.6-14.5,29.5-21.7c0-0.2,0-0.4-0.2-0.6c-0.9,0-1.6,0-2.4,0c-10.5,0-20.7,0-31.3,0
			c-2.2,0-3-0.6-3.7-2.7c-0.9-3.3-2.1-6.3-3-9.6C547.1,144.8,544.7,137.1,542,129.1z"/>
		<path fill="#FCE32D" d="M584.5,166.7c-3.9,2.8-7.6,5.7-11.7,8.5c-4.5,3.3-8.5,6.6-13,9.6c-1.2,0.9-1.5,1.6-1,2.8
			c3.3,9.6,6.3,19.2,9.4,29.6c-2.1-1.5-3.7-2.7-5.1-3.7c-6.3-4.7-13-9.6-19.4-14.5c-1.2-1-2.2-1-3.5,0c-7.3,5.5-14.7,11.1-22,16.3
			c-0.6,0.4-1.2,0.9-2.4,1.6c2.4-7.3,4.5-14.1,6.6-20.7c1-2.8,1.8-5.7,2.8-8.5c0.6-1.6,0.2-2.4-1-3.3c-7.6-5.5-15.3-11.2-22.9-16.9
			c-0.6-0.4-1-0.9-2.1-1.6c2.7,0,4.7,0,6.7,0c7.9,0,16,0,23.9,0c1.6,0,2.2-0.6,2.8-2.1c2.8-9.3,6-18.4,8.5-27.4
			c0.2-0.6,0.4-1,0.9-2.1c1.8,6,3.7,11.4,5.5,16.9c1.2,4.1,2.7,8.2,3.9,12.4c0.6,1.8,1.5,2.2,3.3,2.2c9-0.2,18.4,0,27.4,0
			c0.9,0,1.5,0,2.2,0C584.2,166.4,584.5,166.5,584.5,166.7z"/>
	</g>
</g>
<g enable-background="new    ">
	<path fill="#FFFFFF" d="M321.7,369v-87.8c-3.5,2.4-8.8,4.7-11.4,5.2v-8.5c3.7-1.3,10.6-5.1,14.4-11.2h6.1V369L321.7,369L321.7,369z
		"/>
	<path fill="#FFFFFF" d="M381.6,369v-31.8l-22.4-70.6h10.1l16.8,61.4c7.3-26.5,9.4-34.8,16.8-61.4h9.5l-21.7,70.6V369H381.6z"/>
	<path fill="#FFFFFF" d="M414.8,336.2v-10c0.1-25.3,8.3-30.1,19.6-30.1c12.9,0,17.9,9,17.9,28.1c0,2.9,0,4.5-0.1,7.3h-28.5v10.8
		c0,19.2,4,22,10.6,22c4.6,0,9.4-3.3,9.5-16.9v-0.5h8.3v0.4c-1.1,12.3-4.4,23-17.7,23C420,370.6,414.6,363,414.8,336.2z
		 M423.9,327.2h19.7v-0.1c-0.1-10.8,1.2-25-8.6-25c-11,0-11.1,8.6-11.1,25V327.2z"/>
	<path fill="#FFFFFF" d="M492.3,369l-1.1-8.6c-4,7.1-10.4,10.2-15.1,10.2c-6.9,0-14.1-5.8-14.1-15.8c0-9.3,0.4-17.8,28.5-29.3v-0.6
		c0-20.8-4.4-22.7-8.8-22.7c-3.5,0-8.4,1.3-9.1,13.5v0.4h-9.3c1-12.4,7.7-20,18-20c15.1,0,18,12.4,18,22.2v34.2
		c0,8.4,1.1,16.4,1.1,16.4h-8.2V369z M490.6,354.5v-25.1c-12.3,8.5-19.5,14-19.5,23.7c0,7.4,3.9,10.1,7.2,10.1
		C482.8,363.2,487.9,359.6,490.6,354.5z"/>
	<path fill="#FFFFFF" d="M514.6,369v-71.2h8.9v10.1c2.4-8,9.6-11.1,15-11.2h0.1v9c0,0-0.9-0.2-1.6-0.2c-6.8,0-13.6,2.1-13.6,10.5
		v53.2h-8.8V369z"/>
</g>
</svg>
