<?xml version="1.0" encoding="utf-8"?>
<!-- Generator: Adobe Illustrator 18.1.0, SVG Export Plug-In . SVG Version: 6.00 Build 0)  -->
<svg version="1.1" id="Layer_1" xmlns="http://www.w3.org/2000/svg" xmlns:xlink="http://www.w3.org/1999/xlink" x="0px" y="0px"
	 viewBox="124 348 364 96" enable-background="new 124 348 364 96" xml:space="preserve">
<rect x="124" y="348" fill="#D1D3D4" width="364" height="96"/>
<text transform="matrix(0.9906 0 0 1 269.4471 417.9387)" fill="#58595B" font-family="'Lobster1.4'" font-size="55.627">6 Months</text>
<g id="PEVfCh.tif">
	<g>
		<path fill="#58595B" d="M168.1,410.6c-5.2,3.9-10.4,7.7-15.8,11.6c0.1-0.5,0.1-0.7,0.2-0.9c1.8-5.8,3.6-11.4,5.5-17.1
			c0.3-0.8,0.1-1.1-0.5-1.6c-4.7-3.4-9.3-6.9-14-10.2c-0.4-0.3-0.8-0.6-1.4-1.1c0.7,0,1,0,1.4,0c5.8,0,11.6,0,17.4,0
			c0.9,0,1.3-0.3,1.5-1.1c1.9-6,3.7-11.8,5.8-17.8c0.6,1.7,1.1,3.5,1.7,5.2c1.4,4.3,2.7,8.6,4,12.7c0.2,0.7,0.6,1,1.4,1
			c5.8,0,11.7,0,17.5,0c0.4,0,0.7,0,1.1,0c0,0.1,0,0.1,0.1,0.2c-2.5,1.8-4.9,3.6-7.4,5.5c-2.6,1.9-5.2,3.9-7.8,5.7
			c-0.7,0.5-0.8,1-0.5,1.7c1.9,5.8,3.7,11.5,5.5,17.2c0,0.1,0.1,0.3,0.2,0.8C178.6,418.3,173.4,414.4,168.1,410.6z M168.2,374.6
			c-0.2,0.4-0.3,0.5-0.3,0.7c-1.6,5.2-3.2,10.2-4.8,15.4c-0.3,0.9-0.6,1.2-1.6,1.2c-5.1-0.1-10.3,0-15.5,0c-0.4,0-0.7,0-1.1,0
			c0.2,0.5,0.6,0.7,0.9,1c4.2,3.1,8.5,6.3,12.7,9.4c0.6,0.4,0.8,0.8,0.5,1.5c-1.2,3.7-2.4,7.4-3.5,11c-0.5,1.7-1.1,3.3-1.7,5.3
			c5-3.7,9.7-7.2,14.5-10.5c4.8,3.5,9.4,7,14.5,10.6c-1.9-6-3.7-11.6-5.5-17.3c4.8-3.6,9.6-7.1,14.4-10.6c0-0.1,0-0.2-0.1-0.3
			c-0.4,0-0.8,0-1.2,0c-5.1,0-10.1,0-15.3,0c-1.1,0-1.5-0.3-1.8-1.3c-0.4-1.6-1-3.1-1.5-4.7C170.6,382.3,169.5,378.5,168.2,374.6z"
			/>
		<path fill="#FFFFFF" d="M168.2,374.6c1.3,3.9,2.5,7.7,3.6,11.3c0.5,1.5,1,3.1,1.5,4.7c0.3,1,0.7,1.3,1.8,1.3
			c5.1-0.1,10.1,0,15.3,0c0.4,0,0.8,0,1.2,0c0,0.1,0,0.2,0.1,0.3c-4.8,3.6-9.5,7.1-14.4,10.6c1.8,5.7,3.6,11.3,5.5,17.3
			c-5-3.7-9.6-7.1-14.5-10.6c-4.7,3.5-9.4,6.9-14.5,10.5c0.6-2,1.1-3.7,1.7-5.3c1.2-3.7,2.4-7.4,3.5-11c0.2-0.7,0.1-1.1-0.5-1.5
			c-4.2-3.1-8.5-6.3-12.7-9.4c-0.3-0.2-0.7-0.5-0.9-1c0.4,0,0.7,0,1.1,0c5.1,0,10.3,0,15.5,0c1,0,1.3-0.3,1.6-1.2
			c1.6-5.2,3.2-10.2,4.8-15.4C168,375.1,168.1,375,168.2,374.6z M188.9,393c0-0.1-0.1-0.2-0.1-0.2c-0.4,0-0.7,0-1.1,0
			c-4.4,0-9,0-13.4,0c-0.9,0-1.4-0.2-1.6-1.1c-0.6-2-1.3-4.1-1.9-6.1c-0.9-2.7-1.7-5.4-2.7-8.3c-0.2,0.5-0.3,0.7-0.4,1
			c-1.4,4.5-2.9,9-4.2,13.4c-0.2,0.7-0.6,1-1.4,1c-3.9,0-7.8,0-11.7,0c-1,0-2.1,0-3.3,0c0.5,0.4,0.7,0.6,1,0.8
			c3.7,2.8,7.5,5.6,11.2,8.3c0.6,0.5,0.8,0.9,0.5,1.6c-0.5,1.4-0.9,2.8-1.4,4.2c-1.1,3.3-2.1,6.6-3.2,10.1c0.6-0.4,0.9-0.6,1.2-0.8
			c3.6-2.7,7.3-5.3,10.8-8c0.6-0.5,1.1-0.5,1.7,0c3.1,2.4,6.4,4.7,9.5,7.1c0.8,0.5,1.5,1.1,2.5,1.8c-1.6-5.1-3.1-9.7-4.6-14.5
			c-0.2-0.7-0.1-1,0.5-1.4c2.2-1.5,4.2-3.1,6.4-4.7C185.2,395.8,187.1,394.4,188.9,393z"/>
		<path fill="#58595B" d="M188.9,393c-1.9,1.4-3.7,2.8-5.7,4.2c-2.2,1.6-4.2,3.2-6.4,4.7c-0.6,0.4-0.7,0.8-0.5,1.4
			c1.6,4.7,3.1,9.4,4.6,14.5c-1-0.7-1.8-1.3-2.5-1.8c-3.1-2.3-6.4-4.7-9.5-7.1c-0.6-0.5-1.1-0.5-1.7,0c-3.6,2.7-7.2,5.4-10.8,8
			c-0.3,0.2-0.6,0.4-1.2,0.8c1.2-3.6,2.2-6.9,3.2-10.1c0.5-1.4,0.9-2.8,1.4-4.2c0.3-0.8,0.1-1.2-0.5-1.6c-3.7-2.7-7.5-5.5-11.2-8.3
			c-0.3-0.2-0.5-0.4-1-0.8c1.3,0,2.3,0,3.3,0c3.9,0,7.8,0,11.7,0c0.8,0,1.1-0.3,1.4-1c1.4-4.5,2.9-9,4.2-13.4c0.1-0.3,0.2-0.5,0.4-1
			c0.9,2.9,1.8,5.6,2.7,8.3c0.6,2,1.3,4,1.9,6.1c0.3,0.9,0.7,1.1,1.6,1.1c4.4-0.1,9,0,13.4,0c0.4,0,0.7,0,1.1,0
			C188.9,392.8,188.9,392.9,188.9,393z"/>
	</g>
</g>
<g id="PEVfCh.tif_1_">
	<g>
		<path fill="#58595B" d="M229.1,410.3c-5.2,3.9-10.4,7.7-15.8,11.6c0.1-0.5,0.1-0.7,0.2-0.9c1.8-5.8,3.6-11.4,5.5-17.1
			c0.3-0.8,0.1-1.1-0.5-1.6c-4.7-3.4-9.3-6.9-14-10.2c-0.4-0.3-0.8-0.6-1.4-1.1c0.7,0,1,0,1.4,0c5.8,0,11.6,0,17.4,0
			c0.9,0,1.3-0.3,1.5-1.1c1.9-6,3.7-11.8,5.8-17.8c0.6,1.7,1.1,3.5,1.7,5.2c1.4,4.3,2.7,8.6,4,12.7c0.2,0.7,0.6,1,1.4,1
			c5.8,0,11.7,0,17.5,0c0.4,0,0.7,0,1.1,0c0,0.1,0,0.1,0.1,0.2c-2.5,1.8-4.9,3.6-7.4,5.5c-2.6,1.9-5.2,3.9-7.8,5.7
			c-0.7,0.5-0.8,1-0.5,1.7c1.9,5.8,3.7,11.5,5.5,17.2c0,0.1,0.1,0.3,0.2,0.8C239.6,418,234.4,414.1,229.1,410.3z M229.2,374.3
			c-0.2,0.4-0.3,0.5-0.3,0.7c-1.6,5.2-3.2,10.2-4.8,15.4c-0.3,0.9-0.6,1.2-1.6,1.2c-5.1-0.1-10.3,0-15.5,0c-0.4,0-0.7,0-1.1,0
			c0.2,0.5,0.6,0.7,0.9,1c4.2,3.1,8.5,6.3,12.7,9.4c0.6,0.4,0.8,0.8,0.5,1.5c-1.2,3.7-2.4,7.4-3.5,11c-0.5,1.7-1.1,3.3-1.7,5.3
			c5-3.7,9.7-7.2,14.5-10.5c4.8,3.5,9.4,7,14.5,10.6c-1.9-6-3.7-11.6-5.5-17.3c4.8-3.6,9.6-7.1,14.4-10.6c0-0.1,0-0.2-0.1-0.3
			c-0.4,0-0.8,0-1.2,0c-5.1,0-10.1,0-15.3,0c-1.1,0-1.5-0.3-1.8-1.3c-0.4-1.6-1-3.1-1.5-4.7C231.6,382,230.5,378.2,229.2,374.3z"/>
		<path fill="#FFFFFF" d="M229.2,374.3c1.3,3.9,2.5,7.7,3.6,11.3c0.5,1.5,1,3.1,1.5,4.7c0.3,1,0.7,1.3,1.8,1.3
			c5.1-0.1,10.1,0,15.3,0c0.4,0,0.8,0,1.2,0c0,0.1,0,0.2,0.1,0.3c-4.8,3.6-9.5,7.1-14.4,10.6c1.8,5.7,3.6,11.3,5.5,17.3
			c-5-3.7-9.6-7.1-14.5-10.6c-4.7,3.5-9.4,6.9-14.5,10.5c0.6-2,1.1-3.7,1.7-5.3c1.2-3.7,2.4-7.4,3.5-11c0.2-0.7,0.1-1.1-0.5-1.5
			c-4.2-3.1-8.5-6.3-12.7-9.4c-0.3-0.2-0.7-0.5-0.9-1c0.4,0,0.7,0,1.1,0c5.1,0,10.3,0,15.5,0c1,0,1.3-0.3,1.6-1.2
			c1.6-5.2,3.2-10.2,4.8-15.4C229,374.8,229.1,374.7,229.2,374.3z M249.9,392.7c0-0.1-0.1-0.2-0.1-0.2c-0.4,0-0.7,0-1.1,0
			c-4.4,0-9,0-13.4,0c-0.9,0-1.4-0.2-1.6-1.1c-0.6-2-1.3-4.1-1.9-6.1c-0.9-2.7-1.7-5.4-2.7-8.3c-0.2,0.5-0.3,0.7-0.4,1
			c-1.4,4.5-2.9,9-4.2,13.4c-0.2,0.7-0.6,1-1.4,1c-3.9,0-7.8,0-11.7,0c-1,0-2.1,0-3.3,0c0.5,0.4,0.7,0.6,1,0.8
			c3.7,2.8,7.5,5.6,11.2,8.3c0.6,0.5,0.8,0.9,0.5,1.6c-0.5,1.4-0.9,2.8-1.4,4.2c-1.1,3.3-2.1,6.6-3.2,10.1c0.6-0.4,0.9-0.6,1.2-0.8
			c3.6-2.7,7.3-5.3,10.8-8c0.6-0.5,1.1-0.5,1.7,0c3.1,2.4,6.4,4.7,9.5,7.1c0.8,0.5,1.5,1.1,2.5,1.8c-1.6-5.1-3.1-9.7-4.6-14.5
			c-0.2-0.7-0.1-1,0.5-1.4c2.2-1.5,4.2-3.1,6.4-4.7C246.2,395.5,248.1,394.1,249.9,392.7z"/>
		<path fill="#58595B" d="M249.9,392.7c-1.9,1.4-3.7,2.8-5.7,4.2c-2.2,1.6-4.2,3.2-6.4,4.7c-0.6,0.4-0.7,0.8-0.5,1.4
			c1.6,4.7,3.1,9.4,4.6,14.5c-1-0.7-1.8-1.3-2.5-1.8c-3.1-2.3-6.4-4.7-9.5-7.1c-0.6-0.5-1.1-0.5-1.7,0c-3.6,2.7-7.2,5.4-10.8,8
			c-0.3,0.2-0.6,0.4-1.2,0.8c1.2-3.6,2.2-6.9,3.2-10.1c0.5-1.4,0.9-2.8,1.4-4.2c0.3-0.8,0.1-1.2-0.5-1.6c-3.7-2.7-7.5-5.5-11.2-8.3
			c-0.3-0.2-0.5-0.4-1-0.8c1.3,0,2.3,0,3.3,0c3.9,0,7.8,0,11.7,0c0.8,0,1.1-0.3,1.4-1c1.4-4.5,2.9-9,4.2-13.4c0.1-0.3,0.2-0.5,0.4-1
			c0.9,2.9,1.8,5.6,2.7,8.3c0.6,2,1.3,4,1.9,6.1c0.3,0.9,0.7,1.1,1.6,1.1c4.4-0.1,9,0,13.4,0c0.4,0,0.7,0,1.1,0
			C249.9,392.5,249.9,392.6,249.9,392.7z"/>
	</g>
</g>
</svg>
