<?xml version="1.0" encoding="utf-8"?>
<!-- Generator: Adobe Illustrator 18.1.0, SVG Export Plug-In . SVG Version: 6.00 Build 0)  -->
<svg version="1.1" id="Layer_1" xmlns="http://www.w3.org/2000/svg" xmlns:xlink="http://www.w3.org/1999/xlink" x="0px" y="0px"
	 viewBox="0 0 612 792" enable-background="new 0 0 612 792" xml:space="preserve">
<g id="h3hEbN.tif_1_">
	<g>
		<g>
			<path fill="#F05B6E" d="M318.8,217.7c3.8-5.6,7.3-10.9,11.1-16.2c16.4-21.7,36.3-39.1,61.1-50.7c13.9-6.6,28.5-10.9,43.9-12.4
				c28.3-3,55.3,1,80.8,13.6c36.3,18.2,60.3,47.2,71.7,86.3c4,13.6,5.6,27.5,5.6,41.9c0,13.4-0.8,26.5-2.3,39.9
				c-4.5,39.4-18.7,75-43.4,106c-13.4,16.9-28.3,32.6-43.9,47.2c-20.9,19.9-42.9,38.6-64.9,57.5c-40.5,34.9-80.4,70.2-119,106.8
				c-0.3,0.3-0.5,0.3-0.8,0.5c-0.3-0.3-0.8-0.5-1-0.8c-37.6-35.8-76.7-70.2-116.1-104.2c-24.5-21.2-49-42.1-72.2-64.4
				c-15.6-15.1-30.8-31-43.7-48.7c-18.2-24.7-30.3-52.2-36.1-82.3c-4-21.7-5.8-43.7-4.8-65.6c1.3-32.3,12.1-61.3,33.1-86.1
				c17.9-21.2,40.6-35.3,67.4-43.2c15.9-4.5,31.8-6.3,48.2-5.6c29,1.5,55.3,11.4,78.7,28.5c18.2,13.4,32.8,30,44.9,49
				C317.5,216.2,318,216.9,318.8,217.7z"/>
		</g>
	</g>
</g>
<g id="PEVfCh.tif">
	<g>
		<path fill="#FCE32D" d="M305.6,276c-3.2,2.3-6.2,4.7-9.6,7c-3.7,2.7-7,5.4-10.7,7.9c-1,0.7-1.2,1.3-0.8,2.3
			c2.7,7.9,5.2,15.8,7.7,24.3c-1.7-1.2-3-2.2-4.2-3c-5.2-3.9-10.7-7.9-15.9-11.9c-1-0.8-1.8-0.8-2.9,0c-6,4.5-12.1,9.1-18.1,13.4
			c-0.5,0.3-1,0.7-2,1.3c2-6,3.7-11.6,5.4-17c0.8-2.3,1.5-4.7,2.3-7c0.5-1.3,0.2-2-0.8-2.7c-6.2-4.5-12.6-9.2-18.8-13.9
			c-0.5-0.3-0.8-0.7-1.7-1.3c2.2,0,3.9,0,5.5,0c6.5,0,13.1,0,19.6,0c1.3,0,1.8-0.5,2.3-1.7c2.3-7.6,4.9-15.1,7-22.5
			c0.2-0.5,0.3-0.8,0.7-1.7c1.5,4.9,3,9.4,4.5,13.9c1,3.4,2.2,6.7,3.2,10.2c0.5,1.5,1.2,1.8,2.7,1.8c7.4-0.2,15.1,0,22.5,0
			c0.7,0,1.2,0,1.8,0C305.6,275.7,305.6,275.8,305.6,276z"/>
	</g>
</g>
<g id="PEVfCh.tif_1_">
	<g>
		<path fill="#FCE32D" d="M403.3,276c-3.2,2.3-6.2,4.7-9.6,7c-3.7,2.7-7,5.4-10.7,7.9c-1,0.7-1.2,1.3-0.8,2.3
			c2.7,7.9,5.2,15.8,7.7,24.3c-1.7-1.2-3-2.2-4.2-3c-5.2-3.9-10.7-7.9-15.9-11.9c-1-0.8-1.8-0.8-2.9,0c-6,4.5-12.1,9.1-18.1,13.4
			c-0.5,0.3-1,0.7-2,1.3c2-6,3.7-11.6,5.4-17c0.8-2.3,1.5-4.7,2.3-7c0.5-1.3,0.2-2-0.8-2.7c-6.2-4.5-12.6-9.2-18.8-13.9
			c-0.5-0.3-0.8-0.7-1.7-1.3c2.2,0,3.9,0,5.5,0c6.5,0,13.1,0,19.6,0c1.3,0,1.8-0.5,2.3-1.7c2.3-7.6,4.9-15.1,7-22.5
			c0.2-0.5,0.3-0.8,0.7-1.7c1.5,4.9,3,9.4,4.5,13.9c1,3.4,2.2,6.7,3.2,10.2c0.5,1.5,1.2,1.8,2.7,1.8c7.4-0.2,15.1,0,22.5,0
			c0.7,0,1.2,0,1.8,0C403.3,275.7,403.3,275.8,403.3,276z"/>
	</g>
</g>
<text transform="matrix(1 0 0 1 170.3647 436.3545)" fill="#FFFFFF" font-family="'Oswald-Light'" font-size="90">6 Months</text>
</svg>
