<?xml version="1.0" encoding="utf-8"?>
<!-- Generator: Adobe Illustrator 18.1.0, SVG Export Plug-In . SVG Version: 6.00 Build 0)  -->
<svg version="1.1" id="Layer_1" xmlns="http://www.w3.org/2000/svg" xmlns:xlink="http://www.w3.org/1999/xlink" x="0px" y="0px"
	 viewBox="0 0 792 612" enable-background="new 0 0 792 612" xml:space="preserve">
<g id="h3hEbN.tif_1_">
	<g>
		<g>
			<path fill="#F05B6E" d="M398.9,98.4c4.6-6.8,8.9-13.3,13.6-19.8c20-26.5,44.3-47.8,74.6-61.9c17-8.1,34.8-13.3,53.6-15.1
				c34.6-3.7,67.5,1.2,98.7,16.6c44.3,22.2,73.6,57.6,87.6,105.4c4.9,16.6,6.8,33.6,6.8,51.2c0,16.4-1,32.4-2.8,48.7
				c-5.5,48.1-22.8,91.6-53,129.5c-16.4,20.6-34.6,39.8-53.6,57.6c-25.5,24.3-52.4,47.1-79.3,70.2c-49.5,42.6-98.2,85.7-145.3,130.4
				c-0.4,0.4-0.6,0.4-1,0.6c-0.4-0.4-1-0.6-1.2-1c-45.9-43.7-93.7-85.7-141.8-127.3c-29.9-25.9-59.8-51.4-88.2-78.6
				c-19.1-18.4-37.6-37.9-53.4-59.5C92,315.3,77.2,281.7,70.1,245c-4.9-26.5-7.1-53.4-5.9-80.1c1.6-39.4,14.8-74.9,40.4-105.1
				C126.6,33.8,154.3,16.6,187,7c19.4-5.5,38.8-7.7,58.9-6.8C281.3,1.9,313.4,14,342,34.9c22.2,16.4,40.1,36.6,54.8,59.8
				C397.3,96.6,397.9,97.4,398.9,98.4z"/>
		</g>
	</g>
</g>
<g id="PEVfCh.tif">
	<g>
		<path fill="#FCE32D" d="M382.8,169.6c-3.9,2.8-7.6,5.7-11.7,8.5c-4.5,3.3-8.5,6.6-13.1,9.6c-1.2,0.9-1.5,1.6-1,2.8
			c3.3,9.6,6.4,19.3,9.4,29.7c-2.1-1.5-3.7-2.7-5.1-3.7c-6.4-4.8-13.1-9.6-19.4-14.5c-1.2-1-2.2-1-3.5,0
			c-7.3,5.5-14.8,11.1-22.1,16.4c-0.6,0.4-1.2,0.9-2.4,1.6c2.4-7.3,4.5-14.2,6.6-20.8c1-2.8,1.8-5.7,2.8-8.5c0.6-1.6,0.2-2.4-1-3.3
			c-7.6-5.5-15.4-11.2-23-17c-0.6-0.4-1-0.9-2.1-1.6c2.7,0,4.8,0,6.7,0c7.9,0,16,0,23.9,0c1.6,0,2.2-0.6,2.8-2.1
			c2.8-9.3,6-18.4,8.5-27.5c0.2-0.6,0.4-1,0.9-2.1c1.8,6,3.7,11.5,5.5,17c1.2,4.2,2.7,8.2,3.9,12.5c0.6,1.8,1.5,2.2,3.3,2.2
			c9-0.2,18.4,0,27.5,0c0.9,0,1.5,0,2.2,0C382.8,169.3,382.8,169.4,382.8,169.6z"/>
	</g>
</g>
<g id="PEVfCh.tif_1_">
	<g>
		<path fill="#FCE32D" d="M502.1,169.6c-3.9,2.8-7.6,5.7-11.7,8.5c-4.5,3.3-8.5,6.6-13.1,9.6c-1.2,0.9-1.5,1.6-1,2.8
			c3.3,9.6,6.4,19.3,9.4,29.7c-2.1-1.5-3.7-2.7-5.1-3.7c-6.4-4.8-13.1-9.6-19.4-14.5c-1.2-1-2.2-1-3.5,0
			c-7.3,5.5-14.8,11.1-22.1,16.4c-0.6,0.4-1.2,0.9-2.4,1.6c2.4-7.3,4.5-14.2,6.6-20.8c1-2.8,1.8-5.7,2.8-8.5c0.6-1.6,0.2-2.4-1-3.3
			c-7.6-5.5-15.4-11.2-23-17c-0.6-0.4-1-0.9-2.1-1.6c2.7,0,4.8,0,6.7,0c7.9,0,16,0,23.9,0c1.6,0,2.2-0.6,2.8-2.1
			c2.8-9.3,6-18.4,8.5-27.5c0.2-0.6,0.4-1,0.9-2.1c1.8,6,3.7,11.5,5.5,17c1.2,4.2,2.7,8.2,3.9,12.5c0.6,1.8,1.5,2.2,3.3,2.2
			c9-0.2,18.4,0,27.5,0c0.9,0,1.5,0,2.2,0C502.1,169.3,502.1,169.4,502.1,169.6z"/>
	</g>
</g>
<g enable-background="new    ">
	<path fill="#FFFFFF" d="M224.1,339.1V298c0-15.1,5.4-26.3,20.9-26.3c14.8,0,19.9,11.1,19.9,22.6v1.3h-7.6
		c-0.4-14.7-4.8-17.5-12.9-17.5c-7.6,0-12,3.8-12,19.5v17.5c3.3-1.6,7.6-2.4,13.2-2.4c15.4,0,21.4,11.6,21.4,26.6
		c0,15.5-6.1,27.4-21.9,27.4C230,366.9,224.1,356.6,224.1,339.1z M232.3,321.9v16.6c0,17.8,4.2,21.7,12.7,21.7
		c9.3,0,13.7-4.9,13.7-20.8c0-15.4-4.4-20.2-13.2-20.2C240.8,319.5,234.6,320.3,232.3,321.9z"/>
	<path fill="#FFFFFF" d="M296.6,365.5v-92.3h10l17.8,79.7c7.3-34.9,11-44.8,17.8-79.7h10v92.3H345v-73.9L328,365.5h-7.1l-17.1-73.9
		v73.9H296.6z"/>
	<path fill="#FFFFFF" d="M365.9,335v-3.3c0-15,0-31.9,17-31.9c17,0,17,17,17,31.9v3.3c0,16.1,0,31.9-17,31.9
		C365.9,366.9,365.9,351.1,365.9,335z M374,331.7v3.3c0,19.3,1.5,26.5,8.9,26.5c7.6,0,8.9-7.2,8.9-26.5v-3.3
		c0-19.1-1.1-26.5-8.9-26.5C375,305.2,374,312.6,374,331.7z"/>
	<path fill="#FFFFFF" d="M412.2,365.5v-64.2h8.1v6.1c3.5-5.3,8.8-7.6,13.7-7.6c5.7,0,12,4.9,12,15.3v50.6h-8.2V315
		c0-6.8-3.1-9.2-6.8-9.2c-3.3,0-7.4,2.4-10.6,6.5v53.2L412.2,365.5L412.2,365.5z"/>
	<path fill="#FFFFFF" d="M462.4,350.2v-44.6h-8.8v-4.5h8.8v-22.8h8.1v22.8h10.3v4.5h-10.3v44.2c0,6.5,0.2,10.5,5.5,10.5
		c1.6,0,3.2-0.1,4.8-0.5v5.5c-2.7,0.7-4.9,0.9-7,0.9C463.4,366.4,462.4,358.4,462.4,350.2z"/>
	<path fill="#FFFFFF" d="M491.2,365.5v-92.3h8.1v34.1c3.4-5.4,8.4-7.6,13.1-7.6c6,0,12.6,4.9,12.6,15.1v50.6h-8.2v-50.1
		c0-6.1-3.5-8.3-6.5-8.3c-3.5,0-7.7,2.1-11,5.1v53.2h-8.1V365.5z"/>
	<path fill="#FFFFFF" d="M534.7,349.4l6.2-2.1c1.8,5.6,6.1,13.8,12.6,13.8c5.9,0,8.4-4,8.4-9.5c0-5.1-5.6-11.1-11-15.9l-4.6-4
		c-5.7-5-10.7-9.9-10.7-16.6c0-9.9,6.6-15.3,16.1-15.3s14.4,7.9,16.5,16.4l-7.1,2.2c-0.9-5.4-3.8-12.7-9.8-12.7
		c-4.9,0-7.8,3.7-7.8,8.8c0,4.6,3.5,8.4,8.1,12.3l5.1,4.4c6.2,5.4,12.7,11.1,12.8,20.3c0,9.8-6.8,15.5-16.4,15.5
		C543.1,366.9,537,358.7,534.7,349.4z"/>
</g>
</svg>
