<?xml version="1.0" encoding="utf-8"?>
<!-- Generator: Adobe Illustrator 18.1.0, SVG Export Plug-In . SVG Version: 6.00 Build 0)  -->
<svg version="1.1" id="Layer_1" xmlns="http://www.w3.org/2000/svg" xmlns:xlink="http://www.w3.org/1999/xlink" x="0px" y="0px"
	 viewBox="191 311 230 170" enable-background="new 191 311 230 170" xml:space="preserve">
<rect x="191" y="311" fill="#D1D3D4" width="229.8" height="170.2"/>
<g id="PEVfCh.tif">
	<g>
		<path fill="#58595B" d="M275.3,369.9c-5.2,3.9-10.4,7.6-15.8,11.6c0.1-0.5,0.1-0.7,0.2-0.9c1.8-5.8,3.6-11.4,5.5-17.1
			c0.3-0.8,0.1-1.1-0.5-1.6c-4.7-3.4-9.3-6.9-14-10.2c-0.4-0.3-0.8-0.6-1.4-1.1c0.7,0,1,0,1.4,0c5.8,0,11.6,0,17.4,0
			c0.9,0,1.3-0.3,1.5-1.1c1.9-6,3.7-11.8,5.8-17.8c0.6,1.7,1.1,3.5,1.7,5.2c1.4,4.3,2.7,8.5,4,12.7c0.2,0.7,0.6,1,1.4,1
			c5.8,0,11.7,0,17.5,0c0.4,0,0.7,0,1.1,0c0,0.1,0,0.1,0.1,0.2c-2.5,1.8-4.9,3.6-7.4,5.5c-2.6,1.9-5.2,3.9-7.8,5.7
			c-0.7,0.5-0.8,1-0.5,1.7c1.9,5.8,3.7,11.5,5.5,17.2c0,0.1,0.1,0.3,0.2,0.8C285.8,377.5,280.6,373.7,275.3,369.9z M275.4,334
			c-0.2,0.4-0.3,0.5-0.3,0.7c-1.6,5.2-3.2,10.2-4.8,15.4c-0.3,0.9-0.6,1.2-1.6,1.2c-5.1-0.1-10.3,0-15.4,0c-0.4,0-0.7,0-1.1,0
			c0.2,0.5,0.6,0.7,0.9,1c4.2,3.1,8.5,6.3,12.7,9.3c0.6,0.4,0.8,0.8,0.5,1.5c-1.2,3.7-2.4,7.3-3.5,11c-0.5,1.7-1.1,3.3-1.7,5.3
			c5-3.7,9.7-7.1,14.5-10.5c4.8,3.5,9.4,6.9,14.5,10.6c-1.9-6-3.7-11.6-5.5-17.3c4.8-3.6,9.6-7,14.4-10.6c0-0.1,0-0.2-0.1-0.3
			c-0.4,0-0.8,0-1.2,0c-5.1,0-10.1,0-15.2,0c-1.1,0-1.5-0.3-1.8-1.3c-0.4-1.6-1-3.1-1.5-4.7C277.8,341.7,276.7,337.9,275.4,334z"/>
		<path fill="#FFFFFF" d="M275.4,334c1.3,3.9,2.5,7.6,3.6,11.3c0.5,1.5,1,3.1,1.5,4.7c0.3,1,0.7,1.3,1.8,1.3c5.1-0.1,10.1,0,15.2,0
			c0.4,0,0.8,0,1.2,0c0,0.1,0,0.2,0.1,0.3c-4.8,3.6-9.5,7-14.4,10.6c1.8,5.7,3.6,11.3,5.5,17.3c-5-3.7-9.6-7-14.5-10.6
			c-4.7,3.5-9.4,6.9-14.5,10.5c0.6-2,1.1-3.7,1.7-5.3c1.2-3.7,2.4-7.3,3.5-11c0.2-0.7,0.1-1.1-0.5-1.5c-4.2-3.1-8.5-6.3-12.7-9.3
			c-0.3-0.2-0.7-0.5-0.9-1c0.4,0,0.7,0,1.1,0c5.1,0,10.3,0,15.4,0c1,0,1.3-0.3,1.6-1.2c1.6-5.2,3.2-10.2,4.8-15.4
			C275.2,334.5,275.3,334.3,275.4,334z M296.1,352.3c0-0.1-0.1-0.2-0.1-0.2c-0.4,0-0.7,0-1.1,0c-4.4,0-8.9,0-13.4,0
			c-0.9,0-1.4-0.2-1.6-1.1c-0.6-2-1.3-4.1-1.9-6.1c-0.9-2.7-1.7-5.4-2.7-8.2c-0.2,0.5-0.3,0.7-0.4,1c-1.4,4.5-2.9,8.9-4.2,13.4
			c-0.2,0.7-0.6,1-1.4,1c-3.9,0-7.8,0-11.7,0c-1,0-2.1,0-3.3,0c0.5,0.4,0.7,0.6,1,0.8c3.7,2.8,7.5,5.6,11.2,8.2
			c0.6,0.5,0.8,0.9,0.5,1.6c-0.5,1.4-0.9,2.8-1.4,4.2c-1.1,3.3-2.1,6.6-3.2,10.1c0.6-0.4,0.9-0.6,1.2-0.8c3.6-2.7,7.3-5.3,10.8-7.9
			c0.6-0.5,1.1-0.5,1.7,0c3.1,2.4,6.4,4.7,9.5,7c0.8,0.5,1.5,1.1,2.5,1.8c-1.6-5.1-3.1-9.7-4.6-14.5c-0.2-0.7-0.1-1,0.5-1.4
			c2.2-1.5,4.2-3.1,6.4-4.7C292.4,355.2,294.3,353.7,296.1,352.3z"/>
		<path fill="#58595B" d="M296.1,352.3c-1.9,1.4-3.7,2.8-5.7,4.2c-2.2,1.6-4.2,3.2-6.4,4.7c-0.6,0.4-0.7,0.8-0.5,1.4
			c1.6,4.7,3,9.4,4.6,14.5c-1-0.7-1.8-1.3-2.5-1.8c-3.1-2.3-6.4-4.7-9.5-7c-0.6-0.5-1.1-0.5-1.7,0c-3.6,2.7-7.2,5.4-10.8,7.9
			c-0.3,0.2-0.6,0.4-1.2,0.8c1.2-3.6,2.2-6.9,3.2-10.1c0.5-1.4,0.9-2.8,1.4-4.2c0.3-0.8,0.1-1.2-0.5-1.6c-3.7-2.7-7.5-5.5-11.2-8.2
			c-0.3-0.2-0.5-0.4-1-0.8c1.3,0,2.3,0,3.3,0c3.9,0,7.8,0,11.7,0c0.8,0,1.1-0.3,1.4-1c1.4-4.5,2.9-8.9,4.2-13.4
			c0.1-0.3,0.2-0.5,0.4-1c0.9,2.9,1.8,5.6,2.7,8.2c0.6,2,1.3,4,1.9,6.1c0.3,0.9,0.7,1.1,1.6,1.1c4.4-0.1,8.9,0,13.4,0
			c0.4,0,0.7,0,1.1,0C296.1,352.2,296.1,352.3,296.1,352.3z"/>
	</g>
</g>
<g id="PEVfCh.tif_1_">
	<g>
		<path fill="#58595B" d="M333.4,369.9c-5.2,3.9-10.4,7.6-15.8,11.6c0.1-0.5,0.1-0.7,0.2-0.9c1.8-5.8,3.6-11.4,5.5-17.1
			c0.3-0.8,0.1-1.1-0.5-1.6c-4.7-3.4-9.3-6.9-14-10.2c-0.4-0.3-0.8-0.6-1.4-1.1c0.7,0,1,0,1.4,0c5.8,0,11.6,0,17.4,0
			c0.9,0,1.3-0.3,1.5-1.1c1.9-6,3.7-11.8,5.8-17.8c0.6,1.7,1.1,3.5,1.7,5.2c1.4,4.3,2.7,8.5,4,12.7c0.2,0.7,0.6,1,1.4,1
			c5.8,0,11.7,0,17.5,0c0.4,0,0.7,0,1.1,0c0,0.1,0,0.1,0.1,0.2c-2.5,1.8-4.9,3.6-7.4,5.5c-2.6,1.9-5.2,3.9-7.8,5.7
			c-0.7,0.5-0.8,1-0.5,1.7c1.9,5.8,3.7,11.5,5.5,17.2c0,0.1,0.1,0.3,0.2,0.8C343.9,377.5,338.7,373.7,333.4,369.9z M333.5,334
			c-0.2,0.4-0.3,0.5-0.3,0.7c-1.6,5.2-3.2,10.2-4.8,15.4c-0.3,0.9-0.6,1.2-1.6,1.2c-5.1-0.1-10.3,0-15.4,0c-0.4,0-0.7,0-1.1,0
			c0.2,0.5,0.6,0.7,0.9,1c4.2,3.1,8.5,6.3,12.7,9.3c0.6,0.4,0.8,0.8,0.5,1.5c-1.2,3.7-2.4,7.3-3.5,11c-0.5,1.7-1.1,3.3-1.7,5.3
			c5-3.7,9.7-7.1,14.5-10.5c4.8,3.5,9.4,6.9,14.5,10.6c-1.9-6-3.7-11.6-5.5-17.3c4.8-3.6,9.6-7,14.4-10.6c0-0.1,0-0.2-0.1-0.3
			c-0.4,0-0.8,0-1.2,0c-5.1,0-10.1,0-15.2,0c-1.1,0-1.5-0.3-1.8-1.3c-0.4-1.6-1-3.1-1.5-4.7C336,341.7,334.8,337.9,333.5,334z"/>
		<path fill="#FFFFFF" d="M333.5,334c1.3,3.9,2.5,7.6,3.6,11.3c0.5,1.5,1,3.1,1.5,4.7c0.3,1,0.7,1.3,1.8,1.3c5.1-0.1,10.1,0,15.2,0
			c0.4,0,0.8,0,1.2,0c0,0.1,0,0.2,0.1,0.3c-4.8,3.6-9.5,7-14.4,10.6c1.8,5.7,3.6,11.3,5.5,17.3c-5-3.7-9.6-7-14.5-10.6
			c-4.7,3.5-9.4,6.9-14.5,10.5c0.6-2,1.1-3.7,1.7-5.3c1.2-3.7,2.4-7.3,3.5-11c0.2-0.7,0.1-1.1-0.5-1.5c-4.2-3.1-8.5-6.3-12.7-9.3
			c-0.3-0.2-0.7-0.5-0.9-1c0.4,0,0.7,0,1.1,0c5.1,0,10.3,0,15.4,0c1,0,1.3-0.3,1.6-1.2c1.6-5.2,3.2-10.2,4.8-15.4
			C333.3,334.5,333.4,334.3,333.5,334z M354.3,352.3c0-0.1-0.1-0.2-0.1-0.2c-0.4,0-0.7,0-1.1,0c-4.4,0-8.9,0-13.4,0
			c-0.9,0-1.4-0.2-1.6-1.1c-0.6-2-1.3-4.1-1.9-6.1c-0.9-2.7-1.7-5.4-2.7-8.2c-0.2,0.5-0.3,0.7-0.4,1c-1.4,4.5-2.9,8.9-4.2,13.4
			c-0.2,0.7-0.6,1-1.4,1c-3.9,0-7.8,0-11.7,0c-1,0-2.1,0-3.3,0c0.5,0.4,0.7,0.6,1,0.8c3.7,2.8,7.5,5.6,11.2,8.2
			c0.6,0.5,0.8,0.9,0.5,1.6c-0.5,1.4-0.9,2.8-1.4,4.2c-1.1,3.3-2.1,6.6-3.2,10.1c0.6-0.4,0.9-0.6,1.2-0.8c3.6-2.7,7.3-5.3,10.8-7.9
			c0.6-0.5,1.1-0.5,1.7,0c3.1,2.4,6.4,4.7,9.5,7c0.8,0.5,1.5,1.1,2.5,1.8c-1.6-5.1-3.1-9.7-4.6-14.5c-0.2-0.7-0.1-1,0.5-1.4
			c2.2-1.5,4.2-3.1,6.4-4.7C350.5,355.2,352.4,353.7,354.3,352.3z"/>
		<path fill="#58595B" d="M354.3,352.3c-1.9,1.4-3.7,2.8-5.7,4.2c-2.2,1.6-4.2,3.2-6.4,4.7c-0.6,0.4-0.7,0.8-0.5,1.4
			c1.6,4.7,3,9.4,4.6,14.5c-1-0.7-1.8-1.3-2.5-1.8c-3.1-2.3-6.4-4.7-9.5-7c-0.6-0.5-1.1-0.5-1.7,0c-3.6,2.7-7.2,5.4-10.8,7.9
			c-0.3,0.2-0.6,0.4-1.2,0.8c1.2-3.6,2.2-6.9,3.2-10.1c0.5-1.4,0.9-2.8,1.4-4.2c0.3-0.8,0.1-1.2-0.5-1.6c-3.7-2.7-7.5-5.5-11.2-8.2
			c-0.3-0.2-0.5-0.4-1-0.8c1.3,0,2.3,0,3.3,0c3.9,0,7.8,0,11.7,0c0.8,0,1.1-0.3,1.4-1c1.4-4.5,2.9-8.9,4.2-13.4
			c0.1-0.3,0.2-0.5,0.4-1c0.9,2.9,1.8,5.6,2.7,8.2c0.6,2,1.3,4,1.9,6.1c0.3,0.9,0.7,1.1,1.6,1.1c4.4-0.1,8.9,0,13.4,0
			c0.4,0,0.7,0,1.1,0C354.3,352.2,354.3,352.3,354.3,352.3z"/>
	</g>
</g>
<text transform="matrix(0.9906 0 0 1 208.0542 435.9961)" fill="#58595B" font-family="'Lobster1.4'" font-size="54.9896">6 Months</text>
</svg>
