<?xml version="1.0" encoding="utf-8"?>
<!-- Generator: Adobe Illustrator 18.1.0, SVG Export Plug-In . SVG Version: 6.00 Build 0)  -->
<svg version="1.1" id="Layer_1" xmlns="http://www.w3.org/2000/svg" xmlns:xlink="http://www.w3.org/1999/xlink" x="0px" y="0px"
	 viewBox="0 0 612 792" enable-background="new 0 0 612 792" xml:space="preserve">
<g id="h3hEbN.tif_1_">
	<g>
		<g>
			<path fill="#F05B6E" d="M318.8,217.7c3.8-5.6,7.3-10.9,11.1-16.2c16.4-21.7,36.3-39.1,61.1-50.7c13.9-6.6,28.5-10.9,43.9-12.4
				c28.3-3,55.3,1,80.8,13.6c36.3,18.2,60.3,47.2,71.7,86.3c4,13.6,5.6,27.5,5.6,41.9c0,13.4-0.8,26.5-2.3,39.9
				c-4.5,39.4-18.7,75-43.4,106c-13.4,16.9-28.3,32.6-43.9,47.2c-20.9,19.9-42.9,38.6-64.9,57.5c-40.5,34.9-80.4,70.2-119,106.8
				c-0.3,0.3-0.5,0.3-0.8,0.5c-0.3-0.3-0.8-0.5-1-0.8c-37.6-35.8-76.7-70.2-116.1-104.2c-24.5-21.2-49-42.1-72.2-64.4
				c-15.6-15.1-30.8-31-43.7-48.7c-18.2-24.7-30.3-52.2-36.1-82.3c-4-21.7-5.8-43.7-4.8-65.6c1.3-32.3,12.1-61.3,33.1-86.1
				c17.9-21.2,40.6-35.3,67.4-43.2c15.9-4.5,31.8-6.3,48.2-5.6c29,1.5,55.3,11.4,78.7,28.5c18.2,13.4,32.8,30,44.9,49
				C317.5,216.2,318,216.9,318.8,217.7z"/>
		</g>
	</g>
</g>
<g id="PEVfCh.tif">
	<g>
		<path fill="#FCE32D" d="M305.6,276c-3.2,2.3-6.2,4.7-9.6,7c-3.7,2.7-7,5.4-10.7,7.9c-1,0.7-1.2,1.3-0.8,2.3
			c2.7,7.9,5.2,15.8,7.7,24.3c-1.7-1.2-3-2.2-4.2-3c-5.2-3.9-10.7-7.9-15.9-11.9c-1-0.8-1.8-0.8-2.9,0c-6,4.5-12.1,9.1-18.1,13.4
			c-0.5,0.3-1,0.7-2,1.3c2-6,3.7-11.6,5.4-17c0.8-2.3,1.5-4.7,2.3-7c0.5-1.3,0.2-2-0.8-2.7c-6.2-4.5-12.6-9.2-18.8-13.9
			c-0.5-0.3-0.8-0.7-1.7-1.3c2.2,0,3.9,0,5.5,0c6.5,0,13.1,0,19.6,0c1.3,0,1.8-0.5,2.3-1.7c2.3-7.6,4.9-15.1,7-22.5
			c0.2-0.5,0.3-0.8,0.7-1.7c1.5,4.9,3,9.4,4.5,13.9c1,3.4,2.2,6.7,3.2,10.2c0.5,1.5,1.2,1.8,2.7,1.8c7.4-0.2,15.1,0,22.5,0
			c0.7,0,1.2,0,1.8,0C305.6,275.7,305.6,275.8,305.6,276z"/>
	</g>
</g>
<g id="PEVfCh.tif_1_">
	<g>
		<path fill="#FCE32D" d="M403.3,276c-3.2,2.3-6.2,4.7-9.6,7c-3.7,2.7-7,5.4-10.7,7.9c-1,0.7-1.2,1.3-0.8,2.3
			c2.7,7.9,5.2,15.8,7.7,24.3c-1.7-1.2-3-2.2-4.2-3c-5.2-3.9-10.7-7.9-15.9-11.9c-1-0.8-1.8-0.8-2.9,0c-6,4.5-12.1,9.1-18.1,13.4
			c-0.5,0.3-1,0.7-2,1.3c2-6,3.7-11.6,5.4-17c0.8-2.3,1.5-4.7,2.3-7c0.5-1.3,0.2-2-0.8-2.7c-6.2-4.5-12.6-9.2-18.8-13.9
			c-0.5-0.3-0.8-0.7-1.7-1.3c2.2,0,3.9,0,5.5,0c6.5,0,13.1,0,19.6,0c1.3,0,1.8-0.5,2.3-1.7c2.3-7.6,4.9-15.1,7-22.5
			c0.2-0.5,0.3-0.8,0.7-1.7c1.5,4.9,3,9.4,4.5,13.9c1,3.4,2.2,6.7,3.2,10.2c0.5,1.5,1.2,1.8,2.7,1.8c7.4-0.2,15.1,0,22.5,0
			c0.7,0,1.2,0,1.8,0C403.3,275.7,403.3,275.8,403.3,276z"/>
	</g>
</g>
<g enable-background="new    ">
	<path fill="#FFFFFF" d="M175.7,414.8v-33.7c0-12.4,4.4-21.5,17.1-21.5c12.1,0,16.3,9.1,16.3,18.5v1.1h-6.2
		c-0.3-12-3.9-14.3-10.6-14.3c-6.2,0-9.8,3.1-9.8,16v14.3c2.7-1.3,6.2-2,10.8-2c12.6,0,17.5,9.5,17.5,21.8c0,12.7-5,22.4-17.9,22.4
		C180.5,437.5,175.7,429.1,175.7,414.8z M182.4,400.7v13.6c0,14.6,3.4,17.8,10.4,17.8c7.6,0,11.2-4,11.2-17
		c0-12.6-3.6-16.5-10.8-16.5C189.3,398.7,184.3,399.4,182.4,400.7z"/>
	<path fill="#FFFFFF" d="M235,436.4v-75.6h8.2l14.6,65.3c6-28.6,9-36.7,14.6-65.3h8.2v75.6h-5.9v-60.5l-14,60.5h-5.8l-14-60.5v60.5
		H235z"/>
	<path fill="#FFFFFF" d="M291.8,411.4v-2.7c0-12.3,0-26.1,13.9-26.1c13.9,0,13.9,13.9,13.9,26.1v2.7c0,13.2,0,26.1-13.9,26.1
		C291.8,437.5,291.8,424.6,291.8,411.4z M298.4,408.7v2.7c0,15.8,1.2,21.7,7.3,21.7c6.2,0,7.3-5.9,7.3-21.7v-2.7
		c0-15.6-0.9-21.7-7.3-21.7C299.2,387,298.4,393.1,298.4,408.7z"/>
	<path fill="#FFFFFF" d="M329.7,436.4v-52.6h6.6v5c2.9-4.3,7.2-6.2,11.2-6.2c4.7,0,9.8,4,9.8,12.5v41.4h-6.7v-41.5
		c0-5.6-2.5-7.5-5.6-7.5c-2.7,0-6.1,2-8.7,5.3v43.6H329.7z"/>
	<path fill="#FFFFFF" d="M370.8,423.9v-36.5h-7.2v-3.7h7.2V365h6.6v18.7h8.4v3.7h-8.4v36.2c0,5.3,0.2,8.6,4.5,8.6
		c1.3,0,2.6-0.1,3.9-0.4v4.5c-2.2,0.6-4,0.7-5.7,0.7C371.6,437.1,370.8,430.6,370.8,423.9z"/>
	<path fill="#FFFFFF" d="M394.4,436.4v-75.6h6.6v27.9c2.8-4.4,6.9-6.2,10.7-6.2c4.9,0,10.3,4,10.3,12.4v41.4h-6.7v-41
		c0-5-2.9-6.8-5.3-6.8c-2.9,0-6.3,1.7-9,4.2v43.6H394.4z"/>
	<path fill="#FFFFFF" d="M430,423.2l5.1-1.7c1.5,4.6,5,11.3,10.3,11.3c4.8,0,6.9-3.3,6.9-7.8c0-4.2-4.6-9.1-9-13l-3.8-3.3
		c-4.7-4.1-8.8-8.1-8.8-13.6c0-8.1,5.4-12.5,13.2-12.5s11.8,6.5,13.5,13.4l-5.8,1.8c-0.7-4.4-3.1-10.4-8-10.4c-4,0-6.4,3-6.4,7.2
		c0,3.8,2.9,6.9,6.6,10.1l4.2,3.6c5.1,4.4,10.4,9.1,10.5,16.6c0,8-5.6,12.7-13.4,12.7C436.9,437.5,431.9,430.8,430,423.2z"/>
</g>
</svg>
