<?xml version="1.0" encoding="utf-8"?>
<!-- Generator: Adobe Illustrator 18.1.0, SVG Export Plug-In . SVG Version: 6.00 Build 0)  -->
<svg version="1.1" id="Layer_1" xmlns="http://www.w3.org/2000/svg" xmlns:xlink="http://www.w3.org/1999/xlink" x="0px" y="0px"
	 viewBox="0 0 612 792" enable-background="new 0 0 612 792" xml:space="preserve">
<path fill="#F05B6E" stroke="#F05B6E" stroke-miterlimit="10" d="M-310.9,894c-0.1,0.1-0.1,0.1-0.1,0.1v-0.2
	C-310.9,893.9-310.9,894-310.9,894z"/>
<g>
	<defs>
		<path id="SVGID_1_" d="M505,252.4c-1.7,12.3-4.2,58.3-34.7,87.7c-27.8,26.8-122.4,111.4-128.5,116.7c-0.1,0.1-0.1,0.1-0.2,0.2
			c0,0-0.1-0.1-0.1-0.1c-6-5.4-100.6-90-128.5-116.7c-30.5-29.4-33-75.4-34.7-87.7c-1.7-12.3,3.8-82.6,69.5-91.9
			c62.7-8.9,91.4,41.8,93.9,46.3c2.2-4,30.8-55.3,93.9-46.4C501.2,169.8,506.7,240.1,505,252.4z"/>
	</defs>
	<clipPath id="SVGID_2_">
		<use xlink:href="#SVGID_1_"  overflow="visible"/>
	</clipPath>
	<g id="mZwJhu.tif" clip-path="url(#SVGID_2_)">
		
			<image overflow="visible" width="720" height="960" id="Layer_0_1_" xlink:href="88B043D0C57129BA.png"  transform="matrix(0.6972 0 0 0.6972 62 71.6667)">
		</image>
	</g>
</g>
<path fill="#F05B6E" stroke="#F05B6E" stroke-miterlimit="10" d="M-310.6,893.8v0.4c0,0-0.1-0.1-0.2-0.2
	C-310.8,894-310.7,893.9-310.6,893.8z"/>
</svg>
