<?xml version="1.0" encoding="utf-8"?>
<!-- Generator: Adobe Illustrator 18.1.0, SVG Export Plug-In . SVG Version: 6.00 Build 0)  -->
<svg version="1.1" id="Layer_1" xmlns="http://www.w3.org/2000/svg" xmlns:xlink="http://www.w3.org/1999/xlink" x="0px" y="0px"
	 viewBox="0 0 612 792" enable-background="new 0 0 612 792" xml:space="preserve">
<path fill="#808285" stroke="#808285" stroke-miterlimit="10" d="M470.1,730.6H101.6c-6.6,0-12-5.4-12-12V43.1c0-6.6,5.4-12,12-12
	h368.5c6.6,0,12,5.4,12,12v675.5C482.1,725.2,476.7,730.6,470.1,730.6z"/>
<path fill="#D1D3D4" stroke="#D1D3D4" stroke-miterlimit="10" d="M444.3,632.3H125.4c-6.6,0-12-5.4-12-12V122c0-6.6,5.4-12,12-12
	h318.9c6.6,0,12,5.4,12,12v498.3C456.3,626.9,450.9,632.3,444.3,632.3z"/>
<circle fill="#D1D3D4" stroke="#D1D3D4" stroke-miterlimit="10" cx="291" cy="682.9" r="32.4"/>
<path fill="none" stroke="#808285" stroke-width="2" stroke-miterlimit="10" d="M297.9,701.8h-14.2c-6.6,0-12-5.4-12-12v-13.4
	c0-6.6,5.4-12,12-12h14.2c6.6,0,12,5.4,12,12v13.4C309.9,696.4,304.5,701.8,297.9,701.8z"/>
<line fill="#D1D3D4" stroke="#D1D3D4" stroke-width="3" stroke-linecap="round" stroke-miterlimit="10" x1="231" y1="70" x2="345" y2="70"/>
<g id="h3hEbN.tif">
	<g>
		<path fill="#808285" stroke="#808285" stroke-miterlimit="10" d="M289.7,291.8c1.5-2.2,2.9-4.3,4.4-6.4
			c6.5-8.6,14.4-15.5,24.2-20.1c5.5-2.6,11.3-4.3,17.4-4.9c11.2-1.2,21.9,0.4,32,5.4c14.4,7.2,23.9,18.7,28.4,34.2
			c1.6,5.4,2.2,10.9,2.2,16.6c0,5.3-0.3,10.5-0.9,15.8c-1.8,15.6-7.4,29.7-17.2,42c-5.3,6.7-11.2,12.9-17.4,18.7
			c-8.3,7.9-17,15.3-25.7,22.8c-16,13.8-31.8,27.8-47.1,42.3c-0.1,0.1-0.2,0.1-0.3,0.2c-0.1-0.1-0.3-0.2-0.4-0.3
			c-14.9-14.2-30.4-27.8-46-41.3c-9.7-8.4-19.4-16.7-28.6-25.5c-6.2-6-12.2-12.3-17.3-19.3c-7.2-9.8-12-20.7-14.3-32.6
			c-1.6-8.6-2.3-17.3-1.9-26c0.5-12.8,4.8-24.3,13.1-34.1c7.1-8.4,16.1-14,26.7-17.1c6.3-1.8,12.6-2.5,19.1-2.2
			c11.5,0.6,21.9,4.5,31.2,11.3c7.2,5.3,13,11.9,17.8,19.4C289.2,291.2,289.4,291.5,289.7,291.8z"/>
	</g>
</g>
<circle fill="#D1D3D4" stroke="#D1D3D4" stroke-miterlimit="10" cx="284" cy="52" r="8.3"/>
<circle fill="#D1D3D4" stroke="#D1D3D4" stroke-miterlimit="10" cx="220.7" cy="70" r="4.3"/>
</svg>
