<?xml version="1.0" encoding="utf-8"?>
<!-- Generator: Adobe Illustrator 18.1.0, SVG Export Plug-In . SVG Version: 6.00 Build 0)  -->
<svg version="1.1" id="Layer_1" xmlns="http://www.w3.org/2000/svg" xmlns:xlink="http://www.w3.org/1999/xlink" x="0px" y="0px"
	 viewBox="-194 -104 1000 1000" enable-background="new -194 -104 1000 1000" xml:space="preserve">
<g>
	<path fill="#FFFFFF" d="M305.8,861c-63.6,0-125.2-12.4-183.2-37C66.5,800.3,16.1,766.4-27.1,723.1
		c-43.2-43.2-77.2-93.6-100.9-149.6c-24.5-58-37-119.7-37-183.2c0-63.6,12.4-125.2,37-183.2C-104.3,151-70.4,100.6-27.1,57.4
		C16.1,14.1,66.5-19.8,122.5-43.5c58-24.5,119.7-37,183.2-37c63.6,0,125.2,12.4,183.2,37C545-19.8,595.4,14.1,638.6,57.4
		c43.2,43.2,77.2,93.6,100.9,149.6c24.5,58,37,119.7,37,183.2c0,63.6-12.4,125.2-37,183.2c-23.7,56.1-57.7,106.4-100.9,149.6
		C595.4,766.4,545,800.3,489,824C431,848.6,369.3,861,305.8,861z"/>
	<path fill="#F05B6E" d="M305.8-68c61.9,0,121.9,12.1,178.4,36c54.6,23.1,103.6,56.1,145.7,98.2c42.1,42.1,75.1,91.1,98.2,145.7
		c23.9,56.5,36,116.5,36,178.4s-12.1,121.9-36,178.4c-23.1,54.6-56.1,103.6-98.2,145.7c-42.1,42.1-91.1,75.1-145.7,98.2
		c-56.5,23.9-116.5,36-178.4,36s-121.9-12.1-178.4-36c-54.6-23.1-103.6-56.1-145.7-98.2c-42.1-42.1-75.1-91.1-98.2-145.7
		c-23.9-56.5-36-116.5-36-178.4s12.1-121.9,36-178.4c23.1-54.6,56.1-103.6,98.2-145.7C23.8,24.1,72.8-8.9,127.4-32
		C183.9-55.9,243.9-68,305.8-68 M305.8-93C38.9-93-177.5,123.4-177.5,390.2S38.9,873.5,305.8,873.5S789,657.1,789,390.2
		S572.6-93,305.8-93L305.8-93z"/>
</g>
<polygon fill="#F05B6E" stroke="#F05B6E" stroke-width="20" stroke-linecap="round" stroke-linejoin="round" stroke-miterlimit="10" points="
	570.4,191.6 570.4,529.4 465.1,529.4 410,622.4 342.7,529.4 24.5,529.4 24.5,191.6 "/>
<line fill="#FFFFFF" stroke="#FFFFFF" stroke-width="20" stroke-linecap="round" stroke-linejoin="round" stroke-miterlimit="10" x1="391.7" y1="263.8" x2="514.1" y2="263.8"/>
<line fill="#FFFFFF" stroke="#FFFFFF" stroke-width="20" stroke-linecap="round" stroke-linejoin="round" stroke-miterlimit="10" x1="517.8" y1="312.8" x2="73.4" y2="312.8"/>
<line fill="#FFFFFF" stroke="#FFFFFF" stroke-width="20" stroke-linecap="round" stroke-linejoin="round" stroke-miterlimit="10" x1="516.5" y1="365.4" x2="72.2" y2="365.4"/>
<line fill="#FFFFFF" stroke="#FFFFFF" stroke-width="20" stroke-linecap="round" stroke-linejoin="round" stroke-miterlimit="10" x1="515.3" y1="415.6" x2="71" y2="415.6"/>
</svg>
