<?xml version="1.0" encoding="utf-8"?>
<!-- Generator: Adobe Illustrator 18.1.0, SVG Export Plug-In . SVG Version: 6.00 Build 0)  -->
<svg version="1.1" id="Layer_1" xmlns="http://www.w3.org/2000/svg" xmlns:xlink="http://www.w3.org/1999/xlink" x="0px" y="0px"
	 viewBox="-194 -104 1000 1000" enable-background="new -194 -104 1000 1000" xml:space="preserve">
<circle fill="#FFFFFF" cx="301.1" cy="384.7" r="459.8"/>
<g id="A2bxpo.tif">
	<g>
		<path fill="#F05B6E" d="M277.9-86.7c16.1,0,30.1,0,46.1,0c2,0,2,0,4,0c28.1,2,56.2,6,84.3,12c152.5,42.1,258.8,132.4,325,272.9
			c22.1,48.2,34.1,98.3,38.1,150.5c0,6,2,10,2,16.1c0,16.1,0,34.1,0,50.2c0,6-2,10-2,16.1c-4,42.1-12,84.3-28.1,124.4
			C703.3,669.7,629,756,520.7,812.2c-56.2,30.1-116.4,46.1-180.6,52.2c-6,0-10,2-16.1,2c-16.1,0-34.1,0-50.2,0c-2,0-2,0-4,0
			c-26.1-2-54.2-6-80.3-12c-138.4-34.1-242.8-114.4-311-240.8c-32.1-56.2-48.2-118.4-54.2-182.6c0-6-2-12-2-16.1
			c0-16.1,0-30.1,0-46.1c0-2,0-4,0-4c2-14,2-28.1,4-40.1c8-52.2,22.1-100.3,46.1-148.5C-69.2,67.8,13.1-6.4,123.4-52.6
			c44.1-18.1,90.3-28.1,136.4-32.1C265.9-84.7,271.9-86.7,277.9-86.7z M-133.4,390.8c0,240.8,194.6,435.4,437.4,435.4
			c238.8,0,433.4-194.6,433.4-435.4c0-238.8-194.6-435.4-437.4-433.4C59.2-42.6-133.4,150-133.4,390.8z"/>
		<path fill="#F05B6E" d="M197.7,124c6,8,14,16.1,20.1,24.1c6,10,12,18.1,18.1,28.1c4,6,4,14,2,20.1c0,2,0,4,2,6
			c20.1,50.2,38.1,100.3,58.2,150.5c2,4,4,8,6,14c-8,0-16.1,4-22.1,10c-4-12-8-22.1-12-32.1c-16.1-44.1-34.1-88.3-50.2-132.4
			c-2-2-2-6-6-6c-6-4-8-8-10-14c-6-16.1-6-34.1-6-52.2C195.6,132,195.6,128,197.7,124L197.7,124z"/>
		<path fill="#F05B6E" d="M326.1,390.8c24.1,4,46.1,10,68.2,14c62.2,14,126.4,26.1,188.6,40.1c2,0,2,0,4,0c6-4,14-4,20.1-2
			c22.1,4,40.1,16.1,58.2,28.1c-8,0-18.1,2-26.1,2c-14,0-26.1,0-40.1-2c-6-2-12-4-16.1-10c0-2-2-2-4-2
			c-62.2-14-126.4-26.1-188.6-40.1c-20.1-4-42.1-8-62.2-14c-4-2-6-2-4-6c0-2,0-2,2-4C326.1,394.8,326.1,392.8,326.1,390.8z"/>
		<path fill="#F05B6E" d="M300,410.9c-12,0-20.1-10-20.1-20.1c0-12,10-20.1,20.1-20.1c12,0,20.1,10,20.1,20.1
			C320,400.8,312,410.9,300,410.9z"/>
		<path fill="#F05B6E" d="M-123.4,398.8c0-6,0-12,0-18.1c2,0,2,0,4,0c16.1,0,34.1,0,50.2,0c6,0,10,8,8,12s-6,6-10,6
			c-16.1,0-30.1,0-46.1,0C-121.4,398.8-121.4,398.8-123.4,398.8z"/>
		<path fill="#F05B6E" d="M292-34.5c6,0,12,0,18.1,0c0,2,0,2,0,4c0,16.1,0,34.1,0,50.2c0,6-8,10-12,8s-6-6-6-10
			c0-16.1,0-30.1,0-46.1C292-30.5,292-32.5,292-34.5z"/>
		<path fill="#F05B6E" d="M310,816.2c-6,0-12,0-18.1,0c0-2,0-4,0-4c0-16.1,0-32.1,0-50.2c0-6,8-10,12-8s6,4,6,10
			c0,16.1,0,32.1,0,46.1C310,812.2,310,814.2,310,816.2z"/>
		<path fill="#F05B6E" d="M725.3,380.8c0,6,0,12,0,18.1c-2,0-2,0-4,0c-16.1,0-34.1,0-50.2,0c-6,0-10-8-8-12s4-6,10-6
			c16.1,0,30.1,0,46.1,0C723.3,380.8,723.3,380.8,725.3,380.8z"/>
		<path fill="#F05B6E" d="M85.3,23.6c2-2,4-2,8-4c4,8,10,18.1,14,26.1c4,8,10,16.1,14,24.1c2,2,2,6-2,6c-2,2-4,0-6-2
			c-10-16.1-18.1-32.1-28.1-48.2C85.3,25.7,85.3,25.7,85.3,23.6z"/>
		<path fill="#F05B6E" d="M-69.2,180.1c2-2,2-4,4-8c2,0,2,0,2,2c16.1,10,32.1,18.1,46.1,26.1c2,2,4,4,2,6c-2,2-4,2-8,2
			C-37.1,200.2-53.1,190.2-69.2,180.1z"/>
		<path fill="#F05B6E" d="M510.7,19.6c2,2,4,2,8,4c-2,4-4,6-6,8c-8,14-16.1,28.1-24.1,42.1c0,2-2,2-4,2c-2,0-2-2-4-2v-2
			C490.6,53.7,500.6,37.7,510.7,19.6z"/>
		<path fill="#F05B6E" d="M-65.2,605.5c-2-2-2-4-4-6c10-6,18.1-10,26.1-16.1c8-4,16.1-8,24.1-14c2-2,6,0,6,2c2,2,2,4-2,6
			C-31.1,587.4-47.1,595.5-65.2,605.5L-65.2,605.5z"/>
		<path fill="#F05B6E" d="M91.3,760c-2-2-4-2-8-4c6-10,12-20.1,18.1-32.1c4-6,8-12,12-20.1c2-2,4-4,6-2c2,2,4,4,2,6
			C111.4,725.9,101.3,743.9,91.3,760z"/>
		<path fill="#F05B6E" d="M667.1,174.1c2,2,2,4,4,8c-12,6-24.1,14-36.1,20.1c-6,4-10,6-16.1,10c-2,2-4,0-6-2s-2-4,2-6
			C633,194.2,649.1,184.2,667.1,174.1z"/>
		<path fill="#F05B6E" d="M671.2,599.5c-2,2-2,4-4,8c-4-2-8-6-14-8c-12-6-24.1-14-36.1-20.1c-4-2-4-4-2-6c2-2,4-2,8,0
			c16.1,8,30.1,18.1,46.1,26.1C669.2,597.5,669.2,597.5,671.2,599.5z"/>
		<path fill="#F05B6E" d="M516.7,756c-2,2-4,2-8,4c-6-10-12-20.1-16.1-28.1c-4-8-8-14-12-22.1c-2-2,0-6,2-6c2-2,4-2,6,2
			C496.6,721.9,506.6,739.9,516.7,756z"/>
		<path fill="#F05B6E" d="M304,433c-2-6-4-12-6-18.1c8,0,16.1-2,22.1-8c2,6,4,12,6,16.1C318,426.9,310,428.9,304,433z"/>
		<path fill="#F05B6E" d="M255.8,390.8c0-4,2-10,2-14c6,2,12,2,18.1,4c0,4,0,10-2,14C269.9,394.8,263.9,392.8,255.8,390.8z"/>
		<path fill="#F05B6E" d="M31.1,685.8c2,2,2,2,4,4c-6,6-12,12-18.1,20.1c-2,0-2-2-4-2C21.1,697.8,25.1,691.8,31.1,685.8z"/>
		<path fill="#F05B6E" d="M31.1,95.9c-6-6-12-12-18.1-20.1c2-2,2-2,4-4c6,6,12,12,18.1,20.1C35.1,91.9,33.1,93.9,31.1,95.9z"/>
		<path fill="#F05B6E" d="M615,103.9c2,2,2,2,4,4c-6,6-12,12-20.1,18.1c-2-2-2-2-2-4C602.9,115.9,609,109.9,615,103.9z"/>
		<path fill="#F05B6E" d="M-79.2,515.2c-8,2-16.1,6-24.1,8c0-2,0-2-2-4c8-2,16.1-6,24.1-8C-79.2,513.2-79.2,513.2-79.2,515.2z"/>
		<path fill="#F05B6E" d="M430.4-14.5c2,0,2,2,4,2c-2,8-6,16.1-8,24.1c-2,0-4,0-4-4C424.4-0.4,428.4-8.5,430.4-14.5z"/>
		<path fill="#F05B6E" d="M348.1,812.2c-2,0-4,0-4,0c0-8-2-16.1-2-26.1c2,2,4,2,4,2C346.1,796.1,346.1,804.1,348.1,812.2z"/>
		<path fill="#F05B6E" d="M422.4,770c2,0,2,0,4-2c0,0,0,0,0,2c2,6,4,14,6,20.1c2,4,0,4-4,4C428.4,788.1,424.4,780.1,422.4,770z"/>
		<path fill="#F05B6E" d="M472.5,780.1c-4-8-6-16.1-10-24.1c2,0,2-2,4-2c4,8,6,16.1,10,24.1C474.5,778,472.5,778,472.5,780.1z"/>
		<path fill="#F05B6E" d="M344.1-6.4c-2,0-2,0-4,0c0-8,2-16.1,2-26.1c2,0,4,0,4,2C346.1-22.5,346.1-14.5,344.1-6.4z"/>
		<path fill="#F05B6E" d="M596.9,659.7c2-2,2-2,2-4c6,6,12,12,20.1,18.1c0,2-2,2-2,4C609,669.7,602.9,665.7,596.9,659.7z"/>
		<path fill="#F05B6E" d="M647.1,637.6c0,2-2,2-2,4c-8-6-14-10-20.1-16.1c0-2,2-2,2-4C633,627.6,639.1,633.6,647.1,637.6z"/>
		<path fill="#F05B6E" d="M665.1,555.3c0-2,2-2,2-4c8,4,16.1,6,24.1,10c0,2-2,2-2,4C681.2,561.4,673.2,557.3,665.1,555.3z"/>
		<path fill="#F05B6E" d="M705.3,519.2c0,2,0,4-4,4c-8-2-14-4-22.1-8c0-2,0-4,4-4C691.2,515.2,699.3,517.2,705.3,519.2z"/>
		<path fill="#F05B6E" d="M699.3,428.9c8,0,16.1,2,24.1,2c0,4,0,4-4,4c-6,0-12-2-20.1-2C697.2,435,697.2,433,699.3,428.9z"/>
		<path fill="#F05B6E" d="M625,158.1c-2-2-2-2-2-4c8-6,14-10,20.1-16.1c2,2,2,2,2,4C639.1,148,633,152.1,625,158.1z"/>
		<path fill="#F05B6E" d="M-21,154.1c-2,2-2,2-2,4c-6-4-14-10-20.1-16.1c0-2,2-2,2-4C-35.1,144-29.1,148-21,154.1z"/>
		<path fill="#F05B6E" d="M582.9,71.8c2,2,2,2,4,4v2c-4,6-10,10-14,16.1c-2,2-4,2-6-2C572.8,85.8,576.9,79.8,582.9,71.8z"/>
		<path fill="#F05B6E" d="M5,122c-2,2-2,2-4,4c-6-6-12-12-20.1-18.1c2-2,2-2,4-4C-7,109.9-1,115.9,5,122z"/>
		<path fill="#F05B6E" d="M-95.3,346.7c-2,2-2,2-2,4c-8,0-16.1-2-26.1-2c0-2,0-2,0-4C-113.3,344.7-105.3,344.7-95.3,346.7z"/>
		<path fill="#F05B6E" d="M255.8,788.1c2,0,2,0,4,0c0,8-2,16.1-2,26.1c-2,0-4,0-4-4C255.8,802.1,255.8,796.1,255.8,788.1z"/>
		<path fill="#F05B6E" d="M213.7,806.1c-2,0-2,0-4,0c2-8,4-16.1,6-26.1c2,0,2,0,4,0C217.7,790.1,215.7,798.1,213.7,806.1z"/>
		<path fill="#F05B6E" d="M125.4,778c4-8,6-16.1,10-24.1c2,0,2,2,4,2c-4,8-6,14-10,22.1C129.4,778,127.4,778,125.4,778L125.4,778z"
			/>
		<path fill="#F05B6E" d="M255.8-6.4c0-8-2-18.1-2-26.1c2,0,2,0,4,0c0,8,2,16.1,2,26.1C259.9-8.5,257.8-6.4,255.8-6.4z"/>
		<path fill="#F05B6E" d="M534.7,713.8c2-2,2-2,4-2c6,8,10,14,16.1,20.1c-2,2-2,2-4,2C544.8,727.9,538.7,721.9,534.7,713.8z"/>
		<path fill="#F05B6E" d="M63.2,711.8c2,2,2,2,4,2c-6,6-10,14-16.1,20.1c-2-2-2-2-4-2C53.2,725.9,59.2,719.9,63.2,711.8z"/>
		<path fill="#F05B6E" d="M665.1,226.3c8-4,16.1-6,24.1-10c0,2,2,2,2,4c-8,4-16.1,6-24.1,10C667.1,228.3,665.1,226.3,665.1,226.3z"
			/>
		<path fill="#F05B6E" d="M586.9,703.8c-2,2-2,2-4,4c-6-6-12-12-18.1-20.1c2-2,2-2,4-4C574.9,691.8,580.9,697.8,586.9,703.8z"/>
		<path fill="#F05B6E" d="M-103.3,256.4c8,2,16.1,6,24.1,8c0,2,0,2-2,4c-8-2-16.1-4-22.1-8C-103.3,260.4-103.3,258.4-103.3,256.4
			L-103.3,256.4z"/>
		<path fill="#F05B6E" d="M681.2,268.4c0-2,0-2-2-4c8-2,14-4,22.1-8l2,2l-2,2C697.2,264.4,689.2,266.4,681.2,268.4z"/>
		<path fill="#F05B6E" d="M-13,675.7c-2-2-2-2-4-4c6-6,12-12,18.1-18.1c2,2,2,2,4,4C-1,665.7-7,669.7-13,675.7z"/>
		<path fill="#F05B6E" d="M67.2,65.8c0,0-2,2-4,2c-6-8-10-14-16.1-20.1c2-2,2-2,4-2C57.2,51.7,63.2,57.8,67.2,65.8z"/>
		<path fill="#F05B6E" d="M-121.4,437c0-2,0-2,0-4c8,0,18.1-2,26.1-2c0,2,0,2,0,4C-105.3,435-113.3,435-121.4,437z"/>
		<path fill="#F05B6E" d="M-89.3,475.1c-8,2-16.1,4-26.1,6c0-2-2-4,2-6c8-2,14-4,22.1-4C-89.3,473.1-89.3,473.1-89.3,475.1z"/>
		<path fill="#F05B6E" d="M699.3,350.7c-2-4,0-4,2-4c6,0,12-2,20.1-2c4,0,4,0,4,4C715.3,348.7,707.3,350.7,699.3,350.7z"/>
		<path fill="#F05B6E" d="M691.2,308.6c0-2,0-4,0-4c8-2,16.1-4,24.1-6c0,2,0,2,2,4C709.3,306.5,701.3,306.5,691.2,308.6z"/>
		<path fill="#F05B6E" d="M386.3-0.4c-2,0-2,0-4,0c2-8,2-16.1,4-24.1c0-2,2-2,4-2c0,0,0,0,2,2C390.3-16.5,388.3-8.5,386.3-0.4z"/>
		<path fill="#F05B6E" d="M-41.1,641.6c-2-2-2-2-2-4c6-6,14-10,20.1-16.1c2,2,2,2,2,4C-27.1,631.6-35.1,637.6-41.1,641.6z"/>
		<path fill="#F05B6E" d="M-89.3,304.5c0,2,0,2,0,4h-2c-6-2-14-4-20.1-4c-4,0-4-2-2-6C-107.3,300.5-97.3,302.5-89.3,304.5z"/>
		<path fill="#F05B6E" d="M215.7-26.5c2,8,4,16.1,6,24.1c-2,0-2,0-4,2c-2-8-4-16.1-6-26.1C211.7-26.5,213.7-26.5,215.7-26.5z"/>
		<path fill="#F05B6E" d="M-63.2,555.3c-8,4-16.1,6-24.1,10c0-2-2-2-2-4c8-4,16.1-6,24.1-10C-65.2,551.3-63.2,553.3-63.2,555.3z"/>
		<path fill="#F05B6E" d="M179.6,9.6c-2,0-2,0-4,2c-2-8-6-14-8-22.1c0,0,2-2,2-4c0,0,0,0,2,0C173.6-6.4,177.6,1.6,179.6,9.6z"/>
		<path fill="#F05B6E" d="M715.3,481.1c-8-2-16.1-4-24.1-6c0-2,0-2,0-4c8,2,16.1,4,24.1,4C715.3,477.1,717.3,479.1,715.3,481.1
			C717.3,479.1,717.3,481.1,715.3,481.1z"/>
		<path fill="#F05B6E" d="M-63.2,226.3c0,2-2,2-2,4c-8-4-16.1-6-24.1-10c0-2,2-2,2-4C-79.2,218.3-71.2,222.3-63.2,226.3z"/>
		<path fill="#F05B6E" d="M175.6,770c2,0,2,0,4,2c0,0,0,0,0,2c-2,8-4,14-6,20.1c0,0-2,2-4,2c0-2-2-2-2-4
			C169.6,784.1,173.6,778,175.6,770z"/>
		<path fill="#F05B6E" d="M125.4,1.6c2,0,2-2,4-2c4,8,6,16.1,10,24.1c-2,0-2,2-4,2C133.5,17.6,129.4,9.6,125.4,1.6z"/>
		<path fill="#F05B6E" d="M536.7,67.8c-2,0-2-2-4-2c6-8,10-14,16.1-20.1c2,0,2,2,4,2C546.8,53.7,542.8,61.8,536.7,67.8z"/>
		<path fill="#F05B6E" d="M472.5,1.6c2,0,2,2,4,2c-4,8-6,16.1-10,24.1c-2,0-2-2-4-2C464.5,15.6,468.5,9.6,472.5,1.6z"/>
		<path fill="#F05B6E" d="M382.2,782.1c2,0,2,0,4,0c2,8,4,16.1,6,24.1c-2,2-4,2-6-2C384.2,796.1,382.2,788.1,382.2,782.1z"/>
	</g>
</g>
</svg>
