<?xml version="1.0" encoding="utf-8"?>
<!-- Generator: Adobe Illustrator 18.1.0, SVG Export Plug-In . SVG Version: 6.00 Build 0)  -->
<svg version="1.1" id="Layer_1" xmlns="http://www.w3.org/2000/svg" xmlns:xlink="http://www.w3.org/1999/xlink" x="0px" y="0px"
	 viewBox="0 0 50 50" enable-background="new 0 0 50 50" xml:space="preserve">
<g id="A2bxpo.tif">
	<g>
		<path fill="#FFFFFF" d="M24.7,1.3c0.8,0,1.5,0,2.3,0c0.1,0,0.1,0,0.2,0c1.4,0.1,2.8,0.3,4.2,0.6C39,4,44.3,8.5,47.6,15.5
			c1.1,2.4,1.7,4.9,1.9,7.5c0,0.3,0.1,0.5,0.1,0.8c0,0.8,0,1.7,0,2.5c0,0.3-0.1,0.5-0.1,0.8c-0.2,2.1-0.6,4.2-1.4,6.2
			c-2.2,5.7-5.9,10-11.3,12.8c-2.8,1.5-5.8,2.3-9,2.6c-0.3,0-0.5,0.1-0.8,0.1c-0.8,0-1.7,0-2.5,0c-0.1,0-0.1,0-0.2,0
			c-1.3-0.1-2.7-0.3-4-0.6c-6.9-1.7-12.1-5.7-15.5-12c-1.6-2.8-2.4-5.9-2.7-9.1c0-0.3-0.1-0.6-0.1-0.8c0-0.8,0-1.5,0-2.3
			c0-0.1,0-0.2,0-0.2c0.1-0.7,0.1-1.4,0.2-2c0.4-2.6,1.1-5,2.3-7.4C7.4,9,11.5,5.3,17,3c2.2-0.9,4.5-1.4,6.8-1.6
			C24.1,1.4,24.4,1.3,24.7,1.3z M4.2,25.1c0,12,9.7,21.7,21.8,21.7c11.9,0,21.6-9.7,21.6-21.7c0-11.9-9.7-21.7-21.8-21.6
			C13.8,3.5,4.2,13.1,4.2,25.1z"/>
		<path fill="#FFFFFF" d="M20.7,11.8c0.3,0.4,0.7,0.8,1,1.2c0.3,0.5,0.6,0.9,0.9,1.4c0.2,0.3,0.2,0.7,0.1,1c0,0.1,0,0.2,0.1,0.3
			c1,2.5,1.9,5,2.9,7.5c0.1,0.2,0.2,0.4,0.3,0.7c-0.4,0-0.8,0.2-1.1,0.5c-0.2-0.6-0.4-1.1-0.6-1.6c-0.8-2.2-1.7-4.4-2.5-6.6
			c-0.1-0.1-0.1-0.3-0.3-0.3c-0.3-0.2-0.4-0.4-0.5-0.7c-0.3-0.8-0.3-1.7-0.3-2.6C20.6,12.2,20.6,12,20.7,11.8
			C20.7,11.8,20.7,11.8,20.7,11.8z"/>
		<path fill="#FFFFFF" d="M27.1,25.1c1.2,0.2,2.3,0.5,3.4,0.7c3.1,0.7,6.3,1.3,9.4,2c0.1,0,0.1,0,0.2,0c0.3-0.2,0.7-0.2,1-0.1
			c1.1,0.2,2,0.8,2.9,1.4c-0.4,0-0.9,0.1-1.3,0.1c-0.7,0-1.3,0-2-0.1c-0.3-0.1-0.6-0.2-0.8-0.5c0-0.1-0.1-0.1-0.2-0.1
			c-3.1-0.7-6.3-1.3-9.4-2c-1-0.2-2.1-0.4-3.1-0.7c-0.2-0.1-0.3-0.1-0.2-0.3c0-0.1,0-0.1,0.1-0.2C27.1,25.3,27.1,25.2,27.1,25.1z"/>
		<path fill="#FFFFFF" d="M25.8,26.1c-0.6,0-1-0.5-1-1c0-0.6,0.5-1,1-1c0.6,0,1,0.5,1,1C26.8,25.6,26.4,26.1,25.8,26.1z"/>
		<path fill="#FFFFFF" d="M4.7,25.5c0-0.3,0-0.6,0-0.9c0.1,0,0.1,0,0.2,0c0.8,0,1.7,0,2.5,0c0.3,0,0.5,0.4,0.4,0.6
			c-0.1,0.2-0.3,0.3-0.5,0.3c-0.8,0-1.5,0-2.3,0C4.8,25.5,4.8,25.5,4.7,25.5z"/>
		<path fill="#FFFFFF" d="M25.4,3.9c0.3,0,0.6,0,0.9,0c0,0.1,0,0.1,0,0.2c0,0.8,0,1.7,0,2.5c0,0.3-0.4,0.5-0.6,0.4
			c-0.2-0.1-0.3-0.3-0.3-0.5c0-0.8,0-1.5,0-2.3C25.4,4.1,25.4,4,25.4,3.9z"/>
		<path fill="#FFFFFF" d="M26.3,46.3c-0.3,0-0.6,0-0.9,0c0-0.1,0-0.2,0-0.2c0-0.8,0-1.6,0-2.5c0-0.3,0.4-0.5,0.6-0.4
			c0.2,0.1,0.3,0.2,0.3,0.5c0,0.8,0,1.6,0,2.3C26.3,46.1,26.3,46.2,26.3,46.3z"/>
		<path fill="#FFFFFF" d="M47,24.6c0,0.3,0,0.6,0,0.9c-0.1,0-0.1,0-0.2,0c-0.8,0-1.7,0-2.5,0c-0.3,0-0.5-0.4-0.4-0.6
			c0.1-0.2,0.2-0.3,0.5-0.3c0.8,0,1.5,0,2.3,0C46.9,24.6,46.9,24.6,47,24.6z"/>
		<path fill="#FFFFFF" d="M15.1,6.8c0.1-0.1,0.2-0.1,0.4-0.2c0.2,0.4,0.5,0.9,0.7,1.3c0.2,0.4,0.5,0.8,0.7,1.2
			c0.1,0.1,0.1,0.3-0.1,0.3c-0.1,0.1-0.2,0-0.3-0.1c-0.5-0.8-0.9-1.6-1.4-2.4C15.1,6.9,15.1,6.9,15.1,6.8z"/>
		<path fill="#FFFFFF" d="M7.4,14.6c0.1-0.1,0.1-0.2,0.2-0.4c0.1,0,0.1,0,0.1,0.1c0.8,0.5,1.6,0.9,2.3,1.3c0.1,0.1,0.2,0.2,0.1,0.3
			c-0.1,0.1-0.2,0.1-0.4,0.1C9,15.6,8.2,15.1,7.4,14.6z"/>
		<path fill="#FFFFFF" d="M36.3,6.6c0.1,0.1,0.2,0.1,0.4,0.2c-0.1,0.2-0.2,0.3-0.3,0.4c-0.4,0.7-0.8,1.4-1.2,2.1
			c0,0.1-0.1,0.1-0.2,0.1c-0.1,0-0.1-0.1-0.2-0.1c0,0,0-0.1,0-0.1C35.3,8.3,35.8,7.5,36.3,6.6z"/>
		<path fill="#FFFFFF" d="M7.6,35.8c-0.1-0.1-0.1-0.2-0.2-0.3c0.5-0.3,0.9-0.5,1.3-0.8c0.4-0.2,0.8-0.4,1.2-0.7
			c0.1-0.1,0.3,0,0.3,0.1c0.1,0.1,0.1,0.2-0.1,0.3C9.3,34.9,8.5,35.3,7.6,35.8C7.6,35.8,7.6,35.8,7.6,35.8z"/>
		<path fill="#FFFFFF" d="M15.4,43.5c-0.1-0.1-0.2-0.1-0.4-0.2c0.3-0.5,0.6-1,0.9-1.6c0.2-0.3,0.4-0.6,0.6-1
			c0.1-0.1,0.2-0.2,0.3-0.1c0.1,0.1,0.2,0.2,0.1,0.3C16.4,41.8,15.9,42.7,15.4,43.5z"/>
		<path fill="#FFFFFF" d="M44.1,14.3c0.1,0.1,0.1,0.2,0.2,0.4c-0.6,0.3-1.2,0.7-1.8,1c-0.3,0.2-0.5,0.3-0.8,0.5
			c-0.1,0.1-0.2,0-0.3-0.1c-0.1-0.1-0.1-0.2,0.1-0.3C42.4,15.3,43.2,14.8,44.1,14.3z"/>
		<path fill="#FFFFFF" d="M44.3,35.5c-0.1,0.1-0.1,0.2-0.2,0.4c-0.2-0.1-0.4-0.3-0.7-0.4c-0.6-0.3-1.2-0.7-1.8-1
			c-0.2-0.1-0.2-0.2-0.1-0.3c0.1-0.1,0.2-0.1,0.4,0c0.8,0.4,1.5,0.9,2.3,1.3C44.2,35.4,44.2,35.4,44.3,35.5z"/>
		<path fill="#FFFFFF" d="M36.6,43.3c-0.1,0.1-0.2,0.1-0.4,0.2c-0.3-0.5-0.6-1-0.8-1.4c-0.2-0.4-0.4-0.7-0.6-1.1
			c-0.1-0.1,0-0.3,0.1-0.3c0.1-0.1,0.2-0.1,0.3,0.1C35.6,41.6,36.1,42.5,36.6,43.3z"/>
		<path fill="#FFFFFF" d="M26,27.2c-0.1-0.3-0.2-0.6-0.3-0.9c0.4,0,0.8-0.1,1.1-0.4c0.1,0.3,0.2,0.6,0.3,0.8
			C26.7,26.9,26.3,27,26,27.2z"/>
		<path fill="#FFFFFF" d="M23.6,25.1c0-0.2,0.1-0.5,0.1-0.7c0.3,0.1,0.6,0.1,0.9,0.2c0,0.2,0,0.5-0.1,0.7
			C24.3,25.3,24,25.2,23.6,25.1z"/>
		<path fill="#FFFFFF" d="M12.4,39.8c0.1,0.1,0.1,0.1,0.2,0.2c-0.3,0.3-0.6,0.6-0.9,1c-0.1,0-0.1-0.1-0.2-0.1
			C11.9,40.4,12.1,40.1,12.4,39.8z"/>
		<path fill="#FFFFFF" d="M12.4,10.4c-0.3-0.3-0.6-0.6-0.9-1c0.1-0.1,0.1-0.1,0.2-0.2c0.3,0.3,0.6,0.6,0.9,1
			C12.6,10.2,12.5,10.3,12.4,10.4z"/>
		<path fill="#FFFFFF" d="M41.5,10.8c0.1,0.1,0.1,0.1,0.2,0.2c-0.3,0.3-0.6,0.6-1,0.9c-0.1-0.1-0.1-0.1-0.1-0.2
			C40.9,11.4,41.2,11.1,41.5,10.8z"/>
		<path fill="#FFFFFF" d="M6.9,31.3c-0.4,0.1-0.8,0.3-1.2,0.4c0-0.1,0-0.1-0.1-0.2c0.4-0.1,0.8-0.3,1.2-0.4
			C6.9,31.2,6.9,31.2,6.9,31.3z"/>
		<path fill="#FFFFFF" d="M32.3,4.9c0.1,0,0.1,0.1,0.2,0.1c-0.1,0.4-0.3,0.8-0.4,1.2c-0.1,0-0.2,0-0.2-0.2C32,5.6,32.2,5.2,32.3,4.9
			z"/>
		<path fill="#FFFFFF" d="M28.2,46.1c-0.1,0-0.2,0-0.2,0c0-0.4-0.1-0.8-0.1-1.3c0.1,0.1,0.2,0.1,0.2,0.1
			C28.1,45.3,28.1,45.7,28.2,46.1z"/>
		<path fill="#FFFFFF" d="M31.9,44c0.1,0,0.1,0,0.2-0.1c0,0,0,0,0,0.1c0.1,0.3,0.2,0.7,0.3,1c0.1,0.2,0,0.2-0.2,0.2
			C32.2,44.9,32,44.5,31.9,44z"/>
		<path fill="#FFFFFF" d="M34.4,44.5c-0.2-0.4-0.3-0.8-0.5-1.2c0.1,0,0.1-0.1,0.2-0.1c0.2,0.4,0.3,0.8,0.5,1.2
			C34.5,44.4,34.4,44.4,34.4,44.5z"/>
		<path fill="#FFFFFF" d="M28,5.3c-0.1,0-0.1,0-0.2,0c0-0.4,0.1-0.8,0.1-1.3c0.1,0,0.2,0,0.2,0.1C28.1,4.5,28.1,4.9,28,5.3z"/>
		<path fill="#FFFFFF" d="M40.6,38.5c0.1-0.1,0.1-0.1,0.1-0.2c0.3,0.3,0.6,0.6,1,0.9c0,0.1-0.1,0.1-0.1,0.2
			C41.2,39,40.9,38.8,40.6,38.5z"/>
		<path fill="#FFFFFF" d="M43.1,37.4c0,0.1-0.1,0.1-0.1,0.2c-0.4-0.3-0.7-0.5-1-0.8c0-0.1,0.1-0.1,0.1-0.2
			C42.4,36.9,42.7,37.2,43.1,37.4z"/>
		<path fill="#FFFFFF" d="M44,33.3c0-0.1,0.1-0.1,0.1-0.2c0.4,0.2,0.8,0.3,1.2,0.5c0,0.1-0.1,0.1-0.1,0.2
			C44.8,33.6,44.4,33.4,44,33.3z"/>
		<path fill="#FFFFFF" d="M46,31.5c0,0.1,0,0.2-0.2,0.2c-0.4-0.1-0.7-0.2-1.1-0.4c0-0.1,0-0.2,0.2-0.2C45.3,31.3,45.7,31.4,46,31.5z
			"/>
		<path fill="#FFFFFF" d="M45.7,27c0.4,0,0.8,0.1,1.2,0.1c0,0.2,0,0.2-0.2,0.2c-0.3,0-0.6-0.1-1-0.1C45.6,27.3,45.6,27.2,45.7,27z"
			/>
		<path fill="#FFFFFF" d="M42,13.5c-0.1-0.1-0.1-0.1-0.1-0.2c0.4-0.3,0.7-0.5,1-0.8c0.1,0.1,0.1,0.1,0.1,0.2
			C42.7,13,42.4,13.2,42,13.5z"/>
		<path fill="#FFFFFF" d="M9.8,13.3c-0.1,0.1-0.1,0.1-0.1,0.2c-0.3-0.2-0.7-0.5-1-0.8c0-0.1,0.1-0.1,0.1-0.2
			C9.1,12.8,9.4,13,9.8,13.3z"/>
		<path fill="#FFFFFF" d="M39.9,9.2C40,9.3,40,9.3,40.1,9.4c0,0,0,0.1,0,0.1c-0.2,0.3-0.5,0.5-0.7,0.8c-0.1,0.1-0.2,0.1-0.3-0.1
			C39.4,9.9,39.6,9.6,39.9,9.2z"/>
		<path fill="#FFFFFF" d="M11.1,11.7c-0.1,0.1-0.1,0.1-0.2,0.2c-0.3-0.3-0.6-0.6-1-0.9c0.1-0.1,0.1-0.1,0.2-0.2
			C10.5,11.1,10.8,11.4,11.1,11.7z"/>
		<path fill="#FFFFFF" d="M6.1,22.9C6,23,6,23,6,23.1c-0.4,0-0.8-0.1-1.3-0.1c0-0.1,0-0.1,0-0.2C5.2,22.8,5.6,22.8,6.1,22.9z"/>
		<path fill="#FFFFFF" d="M23.6,44.9c0.1,0,0.1,0,0.2,0c0,0.4-0.1,0.8-0.1,1.3c-0.1,0-0.2,0-0.2-0.2C23.6,45.6,23.6,45.3,23.6,44.9z
			"/>
		<path fill="#FFFFFF" d="M21.5,45.8c-0.1,0-0.1,0-0.2,0c0.1-0.4,0.2-0.8,0.3-1.3c0.1,0,0.1,0,0.2,0C21.7,45,21.6,45.4,21.5,45.8z"
			/>
		<path fill="#FFFFFF" d="M17.1,44.4c0.2-0.4,0.3-0.8,0.5-1.2c0.1,0,0.1,0.1,0.2,0.1c-0.2,0.4-0.3,0.7-0.5,1.1
			C17.3,44.4,17.2,44.4,17.1,44.4C17.1,44.4,17.1,44.4,17.1,44.4z"/>
		<path fill="#FFFFFF" d="M23.6,5.3c0-0.4-0.1-0.9-0.1-1.3c0.1,0,0.1,0,0.2,0c0,0.4,0.1,0.8,0.1,1.3C23.8,5.2,23.7,5.3,23.6,5.3z"/>
		<path fill="#FFFFFF" d="M37.5,41.2c0.1-0.1,0.1-0.1,0.2-0.1c0.3,0.4,0.5,0.7,0.8,1c-0.1,0.1-0.1,0.1-0.2,0.1
			C38,41.9,37.7,41.6,37.5,41.2z"/>
		<path fill="#FFFFFF" d="M14,41.1c0.1,0.1,0.1,0.1,0.2,0.1c-0.3,0.3-0.5,0.7-0.8,1c-0.1-0.1-0.1-0.1-0.2-0.1
			C13.5,41.8,13.8,41.5,14,41.1z"/>
		<path fill="#FFFFFF" d="M44,16.9c0.4-0.2,0.8-0.3,1.2-0.5c0,0.1,0.1,0.1,0.1,0.2c-0.4,0.2-0.8,0.3-1.2,0.5
			C44.1,17,44,16.9,44,16.9z"/>
		<path fill="#FFFFFF" d="M40.1,40.7c-0.1,0.1-0.1,0.1-0.2,0.2c-0.3-0.3-0.6-0.6-0.9-1c0.1-0.1,0.1-0.1,0.2-0.2
			C39.5,40.1,39.8,40.4,40.1,40.7z"/>
		<path fill="#FFFFFF" d="M5.7,18.4c0.4,0.1,0.8,0.3,1.2,0.4c0,0.1,0,0.1-0.1,0.2c-0.4-0.1-0.8-0.2-1.1-0.4
			C5.7,18.6,5.7,18.5,5.7,18.4C5.7,18.4,5.7,18.4,5.7,18.4z"/>
		<path fill="#FFFFFF" d="M44.8,19c0-0.1,0-0.1-0.1-0.2c0.4-0.1,0.7-0.2,1.1-0.4c0,0,0.1,0.1,0.1,0.1c0,0-0.1,0.1-0.1,0.1
			C45.6,18.8,45.2,18.9,44.8,19z"/>
		<path fill="#FFFFFF" d="M10.2,39.3c-0.1-0.1-0.1-0.1-0.2-0.2c0.3-0.3,0.6-0.6,0.9-0.9c0.1,0.1,0.1,0.1,0.2,0.2
			C10.8,38.8,10.5,39,10.2,39.3z"/>
		<path fill="#FFFFFF" d="M14.2,8.9C14.2,8.9,14.1,9,14,9c-0.3-0.4-0.5-0.7-0.8-1c0.1-0.1,0.1-0.1,0.2-0.1C13.7,8.2,14,8.5,14.2,8.9
			z"/>
		<path fill="#FFFFFF" d="M4.8,27.4c0-0.1,0-0.1,0-0.2c0.4,0,0.9-0.1,1.3-0.1c0,0.1,0,0.1,0,0.2C5.6,27.3,5.2,27.3,4.8,27.4z"/>
		<path fill="#FFFFFF" d="M6.4,29.3c-0.4,0.1-0.8,0.2-1.3,0.3c0-0.1-0.1-0.2,0.1-0.3c0.4-0.1,0.7-0.2,1.1-0.2
			C6.4,29.2,6.4,29.2,6.4,29.3z"/>
		<path fill="#FFFFFF" d="M45.7,23.1c-0.1-0.2,0-0.2,0.1-0.2c0.3,0,0.6-0.1,1-0.1c0.2,0,0.2,0,0.2,0.2C46.5,23,46.1,23.1,45.7,23.1z
			"/>
		<path fill="#FFFFFF" d="M45.3,21c0-0.1,0-0.2,0-0.2c0.4-0.1,0.8-0.2,1.2-0.3c0,0.1,0,0.1,0.1,0.2C46.2,20.9,45.8,20.9,45.3,21z"/>
		<path fill="#FFFFFF" d="M30.1,5.6c-0.1,0-0.1,0-0.2,0C30,5.2,30,4.8,30.1,4.4c0-0.1,0.1-0.1,0.2-0.1c0,0,0,0,0.1,0.1
			C30.3,4.8,30.2,5.2,30.1,5.6z"/>
		<path fill="#FFFFFF" d="M8.8,37.6c-0.1-0.1-0.1-0.1-0.1-0.2c0.3-0.3,0.7-0.5,1-0.8c0.1,0.1,0.1,0.1,0.1,0.2
			C9.5,37.1,9.1,37.4,8.8,37.6z"/>
		<path fill="#FFFFFF" d="M6.4,20.8c0,0.1,0,0.1,0,0.2c0,0-0.1,0-0.1,0c-0.3-0.1-0.7-0.2-1-0.2c-0.2,0-0.2-0.1-0.1-0.3
			C5.5,20.6,6,20.7,6.4,20.8z"/>
		<path fill="#FFFFFF" d="M21.6,4.3c0.1,0.4,0.2,0.8,0.3,1.2c-0.1,0-0.1,0-0.2,0.1c-0.1-0.4-0.2-0.8-0.3-1.3
			C21.4,4.3,21.5,4.3,21.6,4.3z"/>
		<path fill="#FFFFFF" d="M7.7,33.3c-0.4,0.2-0.8,0.3-1.2,0.5c0-0.1-0.1-0.1-0.1-0.2c0.4-0.2,0.8-0.3,1.2-0.5
			C7.6,33.1,7.7,33.2,7.7,33.3z"/>
		<path fill="#FFFFFF" d="M19.8,6.1c-0.1,0-0.1,0-0.2,0.1c-0.1-0.4-0.3-0.7-0.4-1.1c0,0,0.1-0.1,0.1-0.2c0,0,0,0,0.1,0
			C19.5,5.3,19.7,5.7,19.8,6.1z"/>
		<path fill="#FFFFFF" d="M46.5,29.6c-0.4-0.1-0.8-0.2-1.2-0.3c0-0.1,0-0.1,0-0.2c0.4,0.1,0.8,0.2,1.2,0.2
			C46.5,29.4,46.6,29.5,46.5,29.6C46.6,29.5,46.6,29.6,46.5,29.6z"/>
		<path fill="#FFFFFF" d="M7.7,16.9c0,0.1-0.1,0.1-0.1,0.2c-0.4-0.2-0.8-0.3-1.2-0.5c0-0.1,0.1-0.1,0.1-0.2
			C6.9,16.5,7.3,16.7,7.7,16.9z"/>
		<path fill="#FFFFFF" d="M19.6,44c0.1,0,0.1,0,0.2,0.1c0,0,0,0,0,0.1c-0.1,0.4-0.2,0.7-0.3,1c0,0-0.1,0.1-0.2,0.1
			c0-0.1-0.1-0.1-0.1-0.2C19.3,44.7,19.5,44.4,19.6,44z"/>
		<path fill="#FFFFFF" d="M17.1,5.7c0.1,0,0.1-0.1,0.2-0.1c0.2,0.4,0.3,0.8,0.5,1.2c-0.1,0-0.1,0.1-0.2,0.1
			C17.5,6.5,17.3,6.1,17.1,5.7z"/>
		<path fill="#FFFFFF" d="M37.6,9c-0.1,0-0.1-0.1-0.2-0.1c0.3-0.4,0.5-0.7,0.8-1c0.1,0,0.1,0.1,0.2,0.1C38.1,8.3,37.9,8.7,37.6,9z"
			/>
		<path fill="#FFFFFF" d="M34.4,5.7c0.1,0,0.1,0.1,0.2,0.1c-0.2,0.4-0.3,0.8-0.5,1.2c-0.1,0-0.1-0.1-0.2-0.1
			C34,6.4,34.2,6.1,34.4,5.7z"/>
		<path fill="#FFFFFF" d="M29.9,44.6c0.1,0,0.1,0,0.2,0c0.1,0.4,0.2,0.8,0.3,1.2c-0.1,0.1-0.2,0.1-0.3-0.1
			C30,45.3,29.9,44.9,29.9,44.6z"/>
	</g>
</g>
</svg>
