<?xml version="1.0" encoding="utf-8"?>
<!-- Generator: Adobe Illustrator 18.1.0, SVG Export Plug-In . SVG Version: 6.00 Build 0)  -->
<svg version="1.1" id="Layer_1" xmlns="http://www.w3.org/2000/svg" xmlns:xlink="http://www.w3.org/1999/xlink" x="0px" y="0px"
	 viewBox="-90 90 792 612" enable-background="new -90 90 792 612" xml:space="preserve">
<g>
	<path fill="#FFFFFF" d="M313.3,212.1v13c125.1,0,245.7,57,358.7,169.4c-14.1,15.3-46.8,48.5-94,81.3c-37.4,26-76.5,46.6-116.1,61.5
		c-49.3,18.4-99.7,27.8-149.8,27.8c-125.2,0-249.8-57.7-370.6-171.4c15.2-15.3,49.8-47.5,98.7-79.7c39.3-25.8,79.9-46.4,120.8-61.2
		c50.8-18.3,102.1-27.7,152.4-27.7L313.3,212.1 M313.3,212.1C86.1,212.1-77,394-77,394C65.7,532,198.5,578,312.1,578
		c227.2,0,377.7-184,377.7-184C556.5,257.6,426.9,212.1,313.3,212.1L313.3,212.1z"/>
</g>
<ellipse fill="#FFFFFF" stroke="#FFFFFF" stroke-width="0.3" stroke-miterlimit="10" cx="311.5" cy="395.5" rx="154" ry="153.5"/>
<circle fill="#FFFFFF" stroke="#FFFFFF" stroke-width="0.3" stroke-miterlimit="10" cx="308.8" cy="394" r="80"/>
<circle fill="#FFFFFF" stroke="#FFFFFF" stroke-width="0.3" stroke-miterlimit="10" cx="336.8" cy="369.5" r="29"/>
</svg>
