<?xml version="1.0" encoding="utf-8"?>
<!-- Generator: Adobe Illustrator 18.1.0, SVG Export Plug-In . SVG Version: 6.00 Build 0)  -->
<svg version="1.1" id="Layer_1" xmlns="http://www.w3.org/2000/svg" xmlns:xlink="http://www.w3.org/1999/xlink" x="0px" y="0px"
	 viewBox="-194 -104 1000 1000" enable-background="new -194 -104 1000 1000" xml:space="preserve">
<g>
	<path fill="#FFFFFF" d="M308.8,864.1c-63.6,0-125.2-12.4-183.2-37C69.5,803.4,19.2,769.5-24.1,726.2
		C-67.3,683-101.2,632.6-125,576.6c-24.5-58-37-119.7-37-183.2c0-63.6,12.4-125.2,37-183.2c23.7-56.1,57.7-106.4,100.9-149.6
		C19.2,17.2,69.5-16.7,125.6-40.4c58-24.5,119.7-37,183.2-37c63.6,0,125.2,12.4,183.2,37c56.1,23.7,106.4,57.7,149.6,100.9
		c43.2,43.2,77.2,93.6,100.9,149.6c24.5,58,37,119.7,37,183.2c0,63.6-12.4,125.2-37,183.2c-23.7,56.1-57.7,106.4-100.9,149.6
		c-43.2,43.2-93.6,77.2-149.6,100.9C434,851.7,372.4,864.1,308.8,864.1z"/>
	<path fill="#F05B6E" d="M308.8-64.9c61.9,0,121.9,12.1,178.4,36c54.6,23.1,103.6,56.1,145.7,98.2c42.1,42.1,75.1,91.1,98.2,145.7
		c23.9,56.5,36,116.5,36,178.4s-12.1,121.9-36,178.4c-23.1,54.6-56.1,103.6-98.2,145.7c-42.1,42.1-91.1,75.1-145.7,98.2
		c-56.5,23.9-116.5,36-178.4,36s-121.9-12.1-178.4-36c-54.6-23.1-103.6-56.1-145.7-98.2c-42.1-42.1-75.1-91.1-98.2-145.7
		c-23.9-56.5-36-116.5-36-178.4s12.1-121.9,36-178.4c23.1-54.6,56.1-103.6,98.2-145.7C26.9,27.2,75.9-5.8,130.4-28.9
		C186.9-52.8,246.9-64.9,308.8-64.9 M308.8-89.9c-266.9,0-483.2,216.4-483.2,483.2S41.9,876.6,308.8,876.6s483.2-216.4,483.2-483.2
		S575.7-89.9,308.8-89.9L308.8-89.9z"/>
</g>
<g>
	
		<path fill="#FFFFFF" stroke="#F05B6E" stroke-width="25" stroke-linecap="round" stroke-linejoin="round" stroke-miterlimit="10" d="
		M312.9,203.1v13.7c131.9,0,259.1,60.1,378.3,178.6c-14.9,16.1-49.4,51.1-99.1,85.7c-39.4,27.4-80.7,49.1-122.4,64.9
		c-52,19.4-105.1,29.3-158,29.3c-132,0-263.4-60.8-390.8-180.8c16-16.1,52.5-50.1,104.1-84c41.4-27.2,84.3-48.9,127.4-64.5
		c53.6-19.3,107.7-29.2,160.7-29.2L312.9,203.1 M312.9,203.1c-239.6,0-411.6,191.8-411.6,191.8C51.8,540.5,191.9,589,311.7,589
		c239.6,0,398.3-194,398.3-194C569.4,251.1,432.7,203.1,312.9,203.1L312.9,203.1z"/>
</g>
<ellipse fill="#F05B6E" stroke="#F05B6E" stroke-width="25" stroke-linecap="round" stroke-linejoin="round" stroke-miterlimit="10" cx="311" cy="396.5" rx="162.4" ry="161.9"/>
<circle fill="#F05B6E" stroke="#F05B6E" stroke-width="25" stroke-linecap="round" stroke-linejoin="round" stroke-miterlimit="10" cx="308.2" cy="394.9" r="84.4"/>
<circle fill="#FFFFFF" stroke="#FFFFFF" stroke-width="25" stroke-linecap="round" stroke-linejoin="round" stroke-miterlimit="10" cx="337.7" cy="369.1" r="30.6"/>
</svg>
