<?xml version="1.0" encoding="utf-8"?>
<!-- Generator: Adobe Illustrator 18.1.0, SVG Export Plug-In . SVG Version: 6.00 Build 0)  -->
<svg version="1.1" id="Layer_1" xmlns="http://www.w3.org/2000/svg" xmlns:xlink="http://www.w3.org/1999/xlink" x="0px" y="0px"
	 viewBox="0 0 963.1 129" enable-background="new 0 0 963.1 129" xml:space="preserve">
<path fill="#3EB8EA" d="M963.9,109.5h-0.8V129H0V99h0.5L0,65.2c9.8,1,23.4-25.2,23.4-25.2c19-27,42.3-8.6,42.3-8.6
	c-22.3-6.1-27.2,9.5-25.2,21.2c1.9,11,17.1,12.6,18.7,12.7v-0.1c9.8,1,23.4-23.6,23.4-23.6c17.7-25.3,42.3-8.1,42.3-8.1
	c-22.3-5.7-27.2,9-25.2,19.8c2,10.4,17.5,11.8,18.8,11.9v0c9.8,1,23.4-25.2,23.4-25.2c19-27,42.3-8.6,42.3-8.6
	c-22.3-6.1-27.2,9.6-25.2,21.2c1.9,11,17,12.6,18.7,12.7v-0.1c9.8,1,23.4-23.6,23.4-23.6c17.6-25.3,42.3-8.1,42.3-8.1
	c-22.3-5.7-27.2,9-25.2,19.9c1.9,10.1,16.6,11.7,18.6,11.9c0.1,0,0.1,0,0.2,0c9.8,0.6,23.2-25.2,23.2-25.2c19-27,42.3-8.6,42.3-8.6
	c-22.3-6.1-27.2,9.6-25.2,21.2c1.9,11,17,12.6,18.7,12.7v0c9.8,1,23.4-23.6,23.4-23.6c17.7-25.3,42.3-8.1,42.3-8.1
	c-22.3-5.7-27.2,9-25.2,19.9c1.9,10.4,17.5,11.8,18.8,11.9v0c9.8,1,23.4-25.2,23.4-25.2c19-27,42.3-8.6,42.3-8.6
	C398.8,25.4,394,41,396,52.7c1.9,11,17,12.6,18.7,12.7l0-0.1c9.8,1,23.4-23.6,23.4-23.6c17.6-25.3,42.3-8.1,42.3-8.1
	c-22.3-5.7-27.2,9-25.2,19.9c2,10.6,18.1,11.8,18.8,11.9v0c9.8,1,23.4-25.2,23.4-25.2c19-27,42.3-8.6,42.3-8.6
	c-22.3-6.1-27.2,9.5-25.2,21.2c1.9,11,17,12.6,18.7,12.7v0c9.8,1,23.4-23.6,23.4-23.6c17.6-25.3,42.3-8.1,42.3-8.1
	c-22.3-5.7-27.2,9-25.2,19.8c1.9,10.4,17.5,11.8,18.8,11.9v0c9.8,1,23.4-25.2,23.4-25.2c19-27,42.3-8.6,42.3-8.6
	c-22.3-6.1-27.2,9.6-25.2,21.2c1.9,11,17,12.6,18.7,12.7v-0.1c9.8,1,23.4-23.6,23.4-23.6c17.7-25.3,42.3-8.1,42.3-8.1
	c-22.3-5.7-27.2,9-25.2,19.8c1.9,10.2,16.6,11.7,18.6,11.9c0.1,0,0.1,0,0.2,0c9.8,0.6,23.2-25.2,23.2-25.2c19-27,42.3-8.6,42.3-8.6
	c-22.3-6.1-27.2,9.5-25.2,21.2c1.9,11,17,12.6,18.7,12.7v0c9.8,0.9,23.4-23.6,23.4-23.6c17.6-25.3,42.3-8.1,42.3-8.1
	c-22.3-5.7-27.2,9-25.2,19.8c2,10.5,17.5,11.8,18.8,11.9v0c9.8,1,23.4-25.2,23.4-25.2c19-27,42.3-8.6,42.3-8.6
	c-22.3-6.1-27.2,9.6-25.2,21.2c1.9,11,17.1,12.6,18.7,12.7v-0.1c9.8,1,23.4-23.6,23.4-23.6c17.6-25.3,42.3-8.1,42.3-8.1
	c-22.3-5.7-27.2,9-25.2,19.8c2,10.9,18.8,11.9,18.8,11.9s5.8,1.9,15.1,0.8L963.9,109.5z"/>
</svg>
