<?xml version="1.0" encoding="utf-8"?>
<!-- Generator: Adobe Illustrator 18.1.0, SVG Export Plug-In . SVG Version: 6.00 Build 0)  -->
<svg version="1.1" id="Layer_1" xmlns="http://www.w3.org/2000/svg" xmlns:xlink="http://www.w3.org/1999/xlink" x="0px" y="0px"
	 viewBox="0 0 792 612" enable-background="new 0 0 792 612" xml:space="preserve">
<g id="h3hEbN.tif_1_">
	<g>
		<g>
			<path fill="#F05B6E" d="M393.1,99c4.6-6.8,8.9-13.3,13.6-19.8c20-26.5,44.4-47.8,74.7-62c17-8.1,34.8-13.3,53.6-15.2
				c34.6-3.7,67.6,1.2,98.7,16.6c44.4,22.2,73.7,57.7,87.6,105.5c4.9,16.6,6.8,33.6,6.8,51.2c0,16.4-1,32.4-2.8,48.8
				c-5.5,48.1-22.9,91.6-53,129.5c-16.4,20.7-34.6,39.8-53.6,57.7c-25.5,24.3-52.4,47.2-79.3,70.3c-49.5,42.6-98.2,85.8-145.4,130.5
				c-0.4,0.4-0.6,0.4-1,0.6c-0.4-0.4-1-0.6-1.2-1C345.8,568,298,525.9,249.9,484.4c-29.9-25.9-59.9-51.4-88.2-78.7
				c-19.1-18.5-37.6-37.9-53.4-59.5C86,316,71.2,282.4,64.2,245.6c-4.9-26.5-7.1-53.4-5.9-80.2C59.9,126,73.1,90.5,98.7,60.2
				c21.9-25.9,49.6-43.1,82.4-52.8C200.5,2,219.9-0.2,240,0.6c35.4,1.8,67.6,13.9,96.2,34.8c22.2,16.4,40.1,36.7,54.9,59.9
				C391.5,97.1,392.1,98,393.1,99z"/>
		</g>
	</g>
</g>
<g id="PEVfCh.tif_3_">
	<g>
		<path fill="#FCE32D" d="M437.7,166.5c-3.9,2.8-7.6,5.7-11.7,8.6c-4.5,3.3-8.6,6.6-13.1,9.7c-1.2,0.9-1.5,1.6-1,2.8
			c3.3,9.7,6.4,19.3,9.4,29.7c-2.1-1.5-3.7-2.7-5.1-3.7c-6.4-4.8-13.1-9.7-19.4-14.5c-1.2-1-2.2-1-3.5,0
			c-7.3,5.5-14.8,11.1-22.1,16.4c-0.6,0.4-1.2,0.9-2.4,1.6c2.4-7.3,4.5-14.2,6.6-20.8c1-2.8,1.8-5.7,2.8-8.6c0.6-1.6,0.2-2.4-1-3.3
			c-7.6-5.5-15.4-11.2-23-17c-0.6-0.4-1-0.9-2.1-1.6c2.7,0,4.8,0,6.7,0c7.9,0,16,0,24,0c1.6,0,2.2-0.6,2.8-2.1
			c2.8-9.3,6-18.5,8.6-27.5c0.2-0.6,0.4-1,0.9-2.1c1.8,6,3.7,11.5,5.5,17c1.2,4.2,2.7,8.2,3.9,12.5c0.6,1.8,1.5,2.2,3.3,2.2
			c9-0.2,18.5,0,27.5,0c0.9,0,1.5,0,2.2,0C437.7,166.2,437.7,166.3,437.7,166.5z"/>
	</g>
</g>
<g>
	<path fill="#FFFFFF" d="M219.9,331.8v-1.5h8c0.3,15.4,5.2,18.4,14.2,18.4c8.2,0,13.1-3.9,13.1-20.5c0-12.2-3.3-21-14.4-21.9v-7.3
		c10.9-0.5,14.4-5.5,14.4-19.1c0-13-4.6-17.2-13-17.2c-8.6,0-13.6,5.1-14.2,18.6h-8.1v-1.4c0-12.3,5.7-24.1,22.5-24.1
		c15.7,0,21.4,11.7,21.4,24.2c0,13.1-6,20.7-13.2,22.9c5.7,2.3,13.2,7.9,13.2,25.2c0,15.9-5.8,27.5-22.4,27.5
		C225.5,355.6,219.9,343.9,219.9,331.8z"/>
	<path fill="#FFFFFF" d="M276,326v-40.6c0-16.4,5.6-29.6,23-29.6c17.5,0,23,13.2,23,29.6V326c0,16.3-5.1,29.6-23,29.6
		C281.2,355.6,276,342.3,276,326z M313.5,327.9v-44.4c0-11.5-3.2-20.8-14.5-20.8c-11.3,0-14.5,9.3-14.5,20.8v44.4
		c0,11.5,3.2,20.8,14.5,20.8C310.3,348.7,313.5,339.4,313.5,327.9z"/>
	<path fill="#FFFFFF" d="M355.4,354.1v-96.9h21.8c18.8,0,24.7,12.8,24.7,28.9v39.4c0,15.7-5.5,28.6-24.7,28.6H355.4z M364,347.2
		h13.2c12.6,0,16.2-9,16.2-19.8v-43.3c0-11.2-3.5-20.1-16.2-20.1H364V347.2z"/>
	<path fill="#FFFFFF" d="M419.4,354.1h-8.6c9.1-44.9,10.1-51.9,19.1-96.9h11.2l19.1,96.9h-8.7l-4.8-25.2h-22.4L419.4,354.1z
		 M425.3,323.2h20.3l-10.2-57.1L425.3,323.2z"/>
	<path fill="#FFFFFF" d="M481.8,354.1V324l-21.2-66.8h9.5l15.9,58.1c6.9-25.1,8.9-33,15.9-58.1h9L490.3,324v30.1H481.8z"/>
	<path fill="#FFFFFF" d="M515.3,330.7l7.5-2.2c1.2,10.2,5.8,20.2,17.3,20.2c8.8,0,13.8-5.1,13.8-14c0-8.2-6-15.3-13-22.7l-15.1-15.9
		c-5.7-6-10.2-12.1-10.2-19.4c0-12.8,9.4-20.9,22.3-20.9c12.8,0,20.5,7.4,23,21l0.2,0.9l-7.2,2.3l-0.1-0.8
		c-1.4-9.1-6.6-16.5-15.9-16.5c-8.2,0-14,4.2-14,12.9c0,5.5,3.3,10.4,7.9,15.4l14.2,15.5c7.6,8.3,16.1,16.3,16.1,27.5
		c0,14.3-9.9,21.6-22.9,21.6C525,355.6,517.3,344.1,515.3,330.7z"/>
</g>
</svg>
