<?xml version="1.0" encoding="utf-8"?>
<!-- Generator: Adobe Illustrator 18.1.0, SVG Export Plug-In . SVG Version: 6.00 Build 0)  -->
<svg version="1.1" id="Layer_1" xmlns="http://www.w3.org/2000/svg" xmlns:xlink="http://www.w3.org/1999/xlink" x="0px" y="0px"
	 viewBox="108.8 327.6 364 96" enable-background="new 108.8 327.6 364 96" xml:space="preserve">
<rect x="108.8" y="327.6" fill="#D1D3D4" width="364" height="96.1"/>
<g id="PEVfCh.tif_1_">
	<g>
		<path fill="#FFFFFF" d="M186.9,388.9c-5.2,3.9-10.5,7.7-15.9,11.7c0.1-0.5,0.1-0.7,0.2-0.9c1.8-5.8,3.7-11.5,5.5-17.2
			c0.3-0.8,0.1-1.1-0.5-1.6c-4.7-3.4-9.4-6.9-14-10.3c-0.4-0.3-0.8-0.6-1.4-1.1c0.7,0,1,0,1.4,0c5.8,0,11.7,0,17.5,0
			c0.9,0,1.3-0.3,1.5-1.1c1.9-6,3.8-11.9,5.8-17.9c0.6,1.7,1.1,3.5,1.7,5.2c1.4,4.3,2.7,8.6,4.1,12.8c0.2,0.7,0.6,1,1.4,1
			c5.8,0,11.8,0,17.6,0c0.4,0,0.7,0,1.1,0c0,0.1,0,0.1,0.1,0.2c-2.5,1.8-4.9,3.6-7.4,5.5c-2.6,1.9-5.2,3.9-7.8,5.7
			c-0.7,0.5-0.8,1-0.5,1.7c1.9,5.8,3.8,11.6,5.5,17.3c0,0.1,0.1,0.3,0.2,0.8C197.5,396.6,192.2,392.8,186.9,388.9z M187,352.8
			c-0.2,0.4-0.3,0.5-0.3,0.7c-1.6,5.2-3.3,10.3-4.8,15.5c-0.3,0.9-0.6,1.2-1.6,1.2c-5.1-0.1-10.4,0-15.5,0c-0.4,0-0.7,0-1.1,0
			c0.2,0.5,0.6,0.7,0.9,1c4.2,3.1,8.5,6.3,12.7,9.4c0.6,0.4,0.8,0.8,0.5,1.5c-1.2,3.7-2.4,7.4-3.6,11.1c-0.5,1.7-1.1,3.3-1.7,5.3
			c5-3.7,9.8-7.2,14.5-10.6c4.8,3.5,9.5,7,14.5,10.7c-1.9-6-3.8-11.7-5.5-17.4c4.8-3.6,9.7-7.1,14.4-10.7c0-0.1,0-0.2-0.1-0.3
			c-0.4,0-0.8,0-1.2,0c-5.1,0-10.2,0-15.3,0c-1.1,0-1.5-0.3-1.8-1.3c-0.4-1.6-1-3.1-1.5-4.7C189.5,360.5,188.3,356.7,187,352.8z"/>
		<path fill="#FFFFFF" d="M187,352.8c1.3,3.9,2.5,7.7,3.7,11.4c0.5,1.5,1,3.1,1.5,4.7c0.3,1,0.7,1.3,1.8,1.3c5.1-0.1,10.2,0,15.3,0
			c0.4,0,0.8,0,1.2,0c0,0.1,0,0.2,0.1,0.3c-4.8,3.6-9.6,7.1-14.4,10.7c1.8,5.7,3.7,11.4,5.5,17.4c-5-3.7-9.7-7.1-14.5-10.7
			c-4.7,3.5-9.5,6.9-14.5,10.6c0.6-2,1.1-3.7,1.7-5.3c1.2-3.7,2.4-7.4,3.6-11.1c0.2-0.7,0.1-1.1-0.5-1.5c-4.2-3.1-8.5-6.3-12.7-9.4
			c-0.3-0.2-0.7-0.5-0.9-1c0.4,0,0.7,0,1.1,0c5.1,0,10.4,0,15.5,0c1,0,1.3-0.3,1.6-1.2c1.6-5.2,3.3-10.3,4.8-15.5
			C186.8,353.3,186.9,353.1,187,352.8z M207.8,371.3c0-0.1-0.1-0.2-0.1-0.2c-0.4,0-0.7,0-1.1,0c-4.4,0-9,0-13.4,0
			c-0.9,0-1.4-0.2-1.6-1.1c-0.6-2-1.3-4.1-1.9-6.1c-0.9-2.7-1.7-5.4-2.7-8.3c-0.2,0.5-0.3,0.7-0.4,1c-1.4,4.5-2.9,9-4.2,13.5
			c-0.2,0.7-0.6,1-1.4,1c-4,0-7.8,0-11.8,0c-1,0-2.1,0-3.4,0c0.5,0.4,0.7,0.6,1,0.8c3.8,2.8,7.5,5.6,11.3,8.3
			c0.6,0.5,0.8,0.9,0.5,1.6c-0.5,1.4-0.9,2.8-1.4,4.2c-1.1,3.3-2.1,6.6-3.3,10.2c0.6-0.4,0.9-0.6,1.2-0.8c3.7-2.7,7.3-5.3,10.9-8
			c0.6-0.5,1.1-0.5,1.7,0c3.2,2.4,6.4,4.7,9.6,7.1c0.8,0.5,1.5,1.1,2.5,1.8c-1.6-5.1-3.2-9.8-4.6-14.6c-0.2-0.7-0.1-1,0.5-1.4
			c2.2-1.5,4.2-3.1,6.4-4.7C204.1,374.1,206,372.7,207.8,371.3z"/>
		<path fill="#FFFFFF" d="M207.8,371.3c-1.9,1.4-3.8,2.8-5.7,4.2c-2.2,1.6-4.2,3.2-6.4,4.7c-0.6,0.4-0.7,0.8-0.5,1.4
			c1.6,4.7,3.1,9.5,4.6,14.6c-1-0.7-1.8-1.3-2.5-1.8c-3.2-2.3-6.4-4.7-9.6-7.1c-0.6-0.5-1.1-0.5-1.7,0c-3.7,2.7-7.2,5.4-10.9,8
			c-0.3,0.2-0.6,0.4-1.2,0.8c1.2-3.6,2.2-6.9,3.3-10.2c0.5-1.4,0.9-2.8,1.4-4.2c0.3-0.8,0.1-1.2-0.5-1.6c-3.8-2.7-7.5-5.5-11.3-8.3
			c-0.3-0.2-0.5-0.4-1-0.8c1.3,0,2.3,0,3.4,0c4,0,7.8,0,11.8,0c0.8,0,1.1-0.3,1.4-1c1.4-4.5,2.9-9,4.2-13.5c0.1-0.3,0.2-0.5,0.4-1
			c0.9,2.9,1.8,5.6,2.7,8.3c0.6,2,1.3,4,1.9,6.1c0.3,0.9,0.7,1.1,1.6,1.1c4.4-0.1,9,0,13.4,0c0.4,0,0.7,0,1.1,0
			C207.8,371.1,207.8,371.2,207.8,371.3z"/>
	</g>
</g>
<text transform="matrix(0.9888 0 0 1 294.4721 407.1162)" fill="#FFFFFF" font-family="'Lobster1.4'" font-size="84.5816">Free</text>
</svg>
