<?xml version="1.0" encoding="utf-8"?>
<!-- Generator: Adobe Illustrator 18.1.0, SVG Export Plug-In . SVG Version: 6.00 Build 0)  -->
<svg version="1.1" id="Layer_1" xmlns="http://www.w3.org/2000/svg" xmlns:xlink="http://www.w3.org/1999/xlink" x="0px" y="0px"
	 viewBox="0 330 612 130" enable-background="new 0 330 612 130" xml:space="preserve">
<g>
	<rect x="11.9" y="345.9" fill="#5FCBEB" width="586.8" height="100.6"/>
	<path fill="#FFFFFF" d="M596.4,348.2v96H14.2v-96H596.4 M601,343.6H9.6v105.2H601L601,343.6L601,343.6z"/>
</g>
<g enable-background="new    ">
	<path fill="#FFFFFF" d="M55.9,394.4H45.4l0.2,14.4h-3.8v-31.5h15.4v3.4l-11.7-0.1l-0.2,10.6l10.5,0V394.4z"/>
	<path fill="#FFFFFF" d="M68.1,391.2l0.2,17.6l-3.8,0l0.2-14.4l-0.2-17.1h3.8L68.1,391.2z"/>
	<path fill="#FFFFFF" d="M77.8,377.3h5.3l12.6,27.9h0.2l-0.7-27.9H99v31.5h-5.3l-12.5-27.9h-0.2l0.6,27.9h-3.7V377.3z"/>
	<path fill="#FFFFFF" d="M108.5,377.3c4-0.4,7-0.5,9.1-0.5c2.1,0,3.7,0.3,5.1,0.9c1.3,0.6,2.4,1.3,3.2,2.3c0.8,1,1.5,2.1,2,3.6
		c0.8,2.4,1.2,5.4,1.2,9.2c0,11.1-3.9,16.7-11.6,16.7l-8.9-0.6V377.3z M116.9,406c2.7,0,4.5-0.4,5.4-1.3c1.7-1.7,2.5-5.7,2.5-12.1
		c0-6.4-0.8-10.3-2.4-11.7c-0.7-0.6-2.2-0.9-4.4-0.9l-5.7,0.3l0,25.2C114.2,405.8,115.7,406,116.9,406z"/>
	<path fill="#FFFFFF" d="M151.8,408.8l0.1-11.7l-9.2-19.7h4.3l6.7,16.6h0.2l6.8-16.6h4.3l-9.3,19.8l0.1,11.7H151.8z"/>
	<path fill="#FFFFFF" d="M184.9,408.6c-1.3,0.5-2.8,0.7-4.5,0.7s-3.2-0.2-4.5-0.7c-1.3-0.5-2.5-1.3-3.6-2.5
		c-2.3-2.4-3.4-6.8-3.4-13.2c0-6.4,1.1-10.7,3.4-13.1c1.1-1.1,2.3-2,3.6-2.4c1.3-0.5,2.8-0.7,4.5-0.7s3.2,0.2,4.5,0.7
		c1.3,0.5,2.5,1.3,3.6,2.4c2.3,2.4,3.4,6.7,3.4,13.1c0,6.4-1.1,10.8-3.4,13.2C187.4,407.3,186.2,408.1,184.9,408.6z M176,381
		c-1,0.6-1.8,1.8-2.3,3.7c-0.5,1.9-0.8,4.5-0.8,7.7c0,3.3,0.1,5.7,0.4,7.4c0.3,1.7,0.7,3,1.4,3.9c0.7,0.9,1.4,1.5,2.3,1.7
		c0.8,0.3,2.1,0.4,3.8,0.4s3-0.3,4-0.8c2.1-1.2,3.2-5.2,3.2-11.9c0-6.8-1.1-10.9-3.2-12.1c-1-0.6-2.5-0.9-4.4-0.9
		C178.5,380.1,177,380.4,176,381z"/>
	<path fill="#FFFFFF" d="M216.6,377.3h3.8v17.4c0,5.5-0.8,9.3-2.5,11.5c-1.7,2.1-4.2,3.2-7.7,3.2c-3.5,0-6.1-1-7.7-3.1
		c-1.7-2.1-2.5-5.8-2.5-11.1v-17.8h3.8v16.6c0,3.7,0.2,6.3,0.5,8c0.4,1.6,1,2.7,1.8,3.3s2,0.8,3.5,0.8c1.5,0,2.6-0.1,3.3-0.2
		c0.7-0.2,1.3-0.5,1.8-0.9s0.9-1.1,1.1-2.1c0.5-1.9,0.7-4.9,0.7-8.8V377.3z"/>
	<path fill="#FFFFFF" d="M233.8,408.8h-3.8l0.2-14.9l-0.1-16.6c2.9-0.4,6.3-0.6,10-0.6c6.7,0,10,3.3,10,9.8c0,5.2-2.2,8.3-6.7,9.3
		v0.2l7.1,12.8h-4.5l-6.5-12.5l-5.7-0.2V408.8z M233.7,392.6c2.8,0.3,5.2,0.5,7.1,0.5c1.9,0,3.2-0.5,4-1.5c0.8-1,1.2-2.7,1.2-5.1
		c0-3.4-0.6-5.5-1.8-6.2c-0.7-0.4-2-0.6-3.9-0.6c-1.9,0-4.1,0.2-6.6,0.5L233.7,392.6z"/>
	<path fill="#FFFFFF" d="M268.8,408.8v-31.5h3.8l-0.2,28.1l11.4-0.1v3.5H268.8z"/>
	<path fill="#FFFFFF" d="M302.7,408.6c-1.3,0.5-2.8,0.7-4.5,0.7s-3.2-0.2-4.5-0.7c-1.3-0.5-2.5-1.3-3.6-2.5
		c-2.3-2.4-3.4-6.8-3.4-13.2c0-6.4,1.1-10.7,3.4-13.1c1.1-1.1,2.3-2,3.6-2.4c1.3-0.5,2.8-0.7,4.5-0.7s3.2,0.2,4.5,0.7
		c1.3,0.5,2.5,1.3,3.6,2.4c2.3,2.4,3.4,6.7,3.4,13.1c0,6.4-1.1,10.8-3.4,13.2C305.2,407.3,304,408.1,302.7,408.6z M293.8,381
		c-1,0.6-1.8,1.8-2.3,3.7c-0.5,1.9-0.8,4.5-0.8,7.7c0,3.3,0.1,5.7,0.4,7.4c0.3,1.7,0.7,3,1.4,3.9c0.7,0.9,1.4,1.5,2.3,1.7
		c0.8,0.3,2.1,0.4,3.8,0.4s3-0.3,4-0.8c2.1-1.2,3.2-5.2,3.2-11.9c0-6.8-1.1-10.9-3.2-12.1c-1-0.6-2.5-0.9-4.4-0.9
		C296.3,380.1,294.8,380.4,293.8,381z"/>
	<path fill="#FFFFFF" d="M327.3,376.7c5.9,0,8.9,2.8,8.9,8.4c0,1.2-0.2,2.3-0.5,3.3c-0.3,1-0.8,1.7-1.3,2.2c-1,0.9-1.9,1.5-2.7,1.6
		l-0.5,0.1v0.1c1.1,0.1,2.3,0.5,3.6,1.4c0.7,0.5,1.2,1.2,1.7,2.2c0.4,1,0.7,2.3,0.7,3.9c0,1.6-0.3,3.1-0.8,4.4
		c-0.5,1.3-1.3,2.3-2.2,3c-1.7,1.3-3.8,1.9-6.4,1.9c-2.6,0-5.9-0.2-9.9-0.7l0.2-14.5l-0.2-16.9C321.3,376.9,324.5,376.7,327.3,376.7
		z M321.6,390.9c2.1,0,4,0,5.9,0s3.1-0.4,3.8-1.3s1-2.3,1-4.4c0-2.1-0.4-3.6-1.2-4.4c-0.8-0.8-2.1-1.3-3.9-1.3
		c-1.8,0-3.6,0.1-5.6,0.4V390.9z M321.7,405.9c2.4,0.3,4.5,0.5,6.4,0.5s3.2-0.5,3.9-1.5c0.7-1,1-2.7,1-4.9c0-2.3-0.5-3.9-1.5-4.8
		c-1-0.9-2.4-1.3-4.3-1.3h-5.6L321.7,405.9z"/>
	<path fill="#FFFFFF" d="M342.5,406.4l1.4-3.1c1.2,0.6,2.6,1.2,4.4,1.7c1.7,0.5,3.2,0.8,4.5,0.8s2.2-0.2,2.9-0.6
		c1.3-0.9,1.9-2.4,1.9-4.6c0-1.5-0.5-2.8-1.4-3.7c-0.9-0.9-2.1-1.7-3.5-2.2c-1.4-0.6-2.3-1-2.8-1.2c-0.5-0.2-1.1-0.5-2-1
		c-0.9-0.5-1.5-0.9-1.9-1.3c-0.4-0.4-0.8-0.9-1.2-1.5c-0.8-1.1-1.3-2.8-1.3-5c0-2.2,0.8-4.1,2.4-5.7c1.6-1.6,3.9-2.3,6.9-2.3
		c2.3,0,4.8,0.3,7.4,1l-0.6,3.3c-2.5-0.5-4.7-0.8-6.6-0.8c-1.9,0-3.2,0.2-3.8,0.6c-1.1,0.6-1.6,1.9-1.6,3.9c0,1.3,0.4,2.5,1.3,3.5
		c0.6,0.7,1.7,1.4,3.3,2.1c0.4,0.2,1.1,0.5,2.1,0.9c1,0.4,1.9,0.8,2.6,1.2c0.7,0.4,1.4,0.9,2.2,1.6c1.6,1.4,2.4,3.5,2.4,6.2
		c0,2.7-0.9,5-2.6,6.7c-1.8,1.7-4,2.5-6.8,2.5c-1.5,0-3-0.2-4.6-0.7s-2.8-1-3.6-1.4L342.5,406.4z"/>
	<path fill="#FFFFFF" d="M364.1,377.3h21.3v3.4l-8.8-0.1l0.1,28.1h-3.8l0.1-28.1l-8.9,0.1V377.3z"/>
	<path fill="#FFFFFF" d="M390.2,408.8v-31.5h15.4v3.4l-11.6-0.1l-0.2,10.6h10.8v3.2h-10.8l0.2,11.1l11.6-0.1v3.4H390.2z"/>
	<path fill="#FFFFFF" d="M417.3,408.8h-3.8l0.2-14.9l-0.1-16.6c2.9-0.4,6.3-0.6,10-0.6c6.7,0,10,3.3,10,9.8c0,5.2-2.2,8.3-6.7,9.3
		v0.2l7.1,12.8h-4.5l-6.5-12.5l-5.7-0.2V408.8z M417.2,392.6c2.8,0.3,5.2,0.5,7.1,0.5c1.9,0,3.2-0.5,4-1.5c0.8-1,1.2-2.7,1.2-5.1
		c0-3.4-0.6-5.5-1.8-6.2c-0.7-0.4-2-0.6-3.9-0.6s-4.1,0.2-6.6,0.5L417.2,392.6z"/>
	<path fill="#FFFFFF" d="M447.7,377.3h21.3v3.4l-8.8-0.1l0.1,28.1h-3.8l0.1-28.1l-8.9,0.1V377.3z"/>
	<path fill="#FFFFFF" d="M488.4,408.6c-1.3,0.5-2.8,0.7-4.5,0.7c-1.7,0-3.2-0.2-4.5-0.7c-1.3-0.5-2.5-1.3-3.6-2.5
		c-2.3-2.4-3.4-6.8-3.4-13.2c0-6.4,1.1-10.7,3.4-13.1c1.1-1.1,2.3-2,3.6-2.4c1.3-0.5,2.8-0.7,4.5-0.7c1.7,0,3.2,0.2,4.5,0.7
		c1.3,0.5,2.5,1.3,3.6,2.4c2.3,2.4,3.4,6.7,3.4,13.1c0,6.4-1.1,10.8-3.4,13.2C490.9,407.3,489.7,408.1,488.4,408.6z M479.5,381
		c-1,0.6-1.8,1.8-2.3,3.7c-0.5,1.9-0.8,4.5-0.8,7.7c0,3.3,0.1,5.7,0.4,7.4c0.3,1.7,0.7,3,1.4,3.9c0.7,0.9,1.4,1.5,2.3,1.7
		s2.1,0.4,3.8,0.4s3-0.3,4-0.8c2.1-1.2,3.2-5.2,3.2-11.9c0-6.8-1.1-10.9-3.2-12.1c-1-0.6-2.5-0.9-4.4-0.9
		C482,380.1,480.5,380.4,479.5,381z"/>
	<path fill="#FFFFFF" d="M503.5,377.3c4-0.4,7-0.5,9.1-0.5c2.1,0,3.7,0.3,5.1,0.9c1.3,0.6,2.4,1.3,3.2,2.3c0.8,1,1.5,2.1,2,3.6
		c0.8,2.4,1.2,5.4,1.2,9.2c0,11.1-3.9,16.7-11.6,16.7l-8.9-0.6V377.3z M511.9,406c2.7,0,4.5-0.4,5.4-1.3c1.7-1.7,2.5-5.7,2.5-12.1
		c0-6.4-0.8-10.3-2.4-11.7c-0.7-0.6-2.2-0.9-4.4-0.9l-5.7,0.3l0,25.2C509.2,405.8,510.7,406,511.9,406z"/>
	<path fill="#FFFFFF" d="M531.5,408.8h-4l8.9-31.5h4.8l8.9,31.5h-4.1l-2.2-8.4h-10L531.5,408.8z M543,397.2l-4.2-16.8h-0.3
		l-4.2,16.8H543z"/>
	<path fill="#FFFFFF" d="M559.1,408.8l0.1-11.7l-9.2-19.7h4.3l6.7,16.6h0.2l6.8-16.6h4.3l-9.3,19.8l0.1,11.7H559.1z"/>
</g>
</svg>
