<?xml version="1.0" encoding="utf-8"?>
<!-- Generator: Adobe Illustrator 18.1.0, SVG Export Plug-In . SVG Version: 6.00 Build 0)  -->
<svg version="1.1" id="Layer_1" xmlns="http://www.w3.org/2000/svg" xmlns:xlink="http://www.w3.org/1999/xlink" x="0px" y="0px"
	 viewBox="0 0 813 549.6" enable-background="new 0 0 813 549.6" xml:space="preserve">
<rect fill="#5FCBEB" width="813" height="549.7"/>
<g id="oDy92v.tif">
	<g>
		<path fill="#F15C6F" d="M651.3,94.3c-10.6-35.7-32.3-62.2-65.6-78.8c-23.3-11.6-48-15.3-73.8-12.5c-14,1.5-27.4,5.4-40.2,11.4
			c-22.6,10.6-40.9,26.4-55.8,46.3c-3.5,4.7-6.7,9.7-10.2,14.7c-0.5-0.8-0.9-1.5-1.4-2.3c-10.9-17.5-24.3-32.6-41-44.8
			c-21.4-15.7-45.3-24.7-71.9-26.1c-15-0.8-29.7,0.8-44.2,5c-24.4,7.1-45.1,20.1-61.6,39.5c-19.2,22.7-29.1,49.1-30.3,78.6
			c-0.8,20.1,0.6,40.1,4.4,59.9c5.3,27.6,16.4,52.7,33,75.3c11.9,16.1,25.5,30.6,39.9,44.5c21.3,20.5,43.7,39.6,66,58.9
			c31.4,27.1,62.5,54.5,92.8,82.8c1.7,1.6,3.3,3.1,5,4.7c-1-3.8-2-7.6-3.3-11.3c0,0,0-0.1,0-0.1c-1.9-1.8-3.9-3.6-5.8-5.4
			c-0.3-0.3-0.5-0.5-0.8-0.8c-27.3-25.2-55.3-49.8-83.4-74.1c-21.5-18.6-43.1-37-63.6-56.7c-13.9-13.3-27-27.3-38.4-42.8
			c-16-21.8-26.7-45.9-31.8-72.4c-3.6-19-5.1-38.3-4.3-57.7c1.2-28.4,10.7-53.8,29.2-75.6c15.9-18.7,35.8-31.2,59.3-38
			c13.9-4,28.1-5.6,42.5-4.8c25.6,1.3,48.6,9.9,69.2,25.1c16,11.7,29,26.3,39.5,43.1c0.4,0.7,0.9,1.4,1.4,2.2
			c3.3-4.8,6.4-9.6,9.8-14.1c14.4-19.1,32-34.3,53.8-44.6c12.3-5.8,25.2-9.5,38.7-11c24.8-2.7,48.7,0.9,71.1,12.1
			c32.1,16,53,41.5,63.2,75.8c3.5,12,5,24.3,5,36.8c0,11.7-0.6,23.4-2,35c-4,34.7-16.6,65.8-38.2,93.3
			c-11.8,14.9-24.9,28.6-38.8,41.6c-18.5,17.4-37.8,34-57,50.6c-31.1,26.8-62,53.9-92,81.9c-1.6,1.5-3.3,3.1-4.9,4.6
			c-0.3,1-0.6,2-0.8,3c-0.6,2.2-1.1,4.5-1.6,6.7c1.5-1.5,3.1-2.9,4.7-4.4c32-30,65-59,98.3-87.7c20-17.3,40-34.5,59.2-52.6
			c14.3-13.6,28-27.7,40.3-43.3c22.5-28.6,35.5-61,39.7-97c1.4-12.1,2-24.3,2.1-36.4C656.5,119.6,655,106.8,651.3,94.3z"/>
	</g>
</g>
<path fill="#F15C6F" d="M389.2,440.1c-2.2-2.1-4.4-4.1-6.6-6.2C384.7,436.1,387,438.1,389.2,440.1
	C389.2,440.1,389.2,440.1,389.2,440.1z"/>
<g>
	<path fill="#F15C6F" d="M1245.8,597.5c-1.8,3.3-5.8,4.8-7.1,8.5c-0.1-0.6-0.1-1-0.1-1.3c-5.9,3-12,6.2-18.3,9.4c0,0.2,0,0.4,0,0.6
		c0.1,0,0.2,0.1,0.2,0.1c-0.1,0.2-0.2,0.5-0.3,0.8c0-0.3,0-0.6,0-0.9c-0.3-0.1-0.5-0.3-0.8-0.4c-3.3,0.8-6.6,1.9-9.9,2.3
		c-4.9,0.6-9.9,1-14.8,1.3c-0.1-1.4-0.3-2.9-0.4-4.3v0c2.7-5.8,7.6-15.2,14.8-21.9c2.5,1.5,5.3,2.4,8.5,2.6
		c10.2,0.8,18.1-2.8,24.6-11.1c9.4-12.1,10.9-25.3,6.9-39.4c-2.5-8.9-7.5-16.4-15.2-22c-5.6-4.1-12.2-6-16.8-6.2
		c4.2,5.7,6.2,11.7,6.8,18.2c0.7,7.1-0.3,13.8-5.8,18.9c-2.5,2.3-5.3,4.5-8.2,6.2c-0.8,0.5-1.6,0.9-2.3,1.5
		c-0.6-1.3-1.2-2.8-1.6-4.4c-1.3-4.8,0.8-8.4,2.1-12.4c-0.3-0.2-0.6-0.4-0.9-0.6c-1.5,1.9-3.3,3.5-4.4,5.6
		c-1.8,3.3-3.5,6.8-4.7,10.4c-1.6,4.7-0.4,8.9,2,12.8c-0.6,3.4-0.1,7,1.2,10.7c-0.8,0.3-1.6,0.7-2.4,1.2c-5.7,3.5-10,8.2-11,14.1
		c-0.5-0.6-1-1.3-1.5-1.9c-2.2-2.6-4.6-5.1-7.1-7.4c-1.2-0.6-2.2-1.6-3-2.7c-0.2-0.2-0.4-0.4-0.5-0.6c-0.2-0.1-0.3-0.2-0.5-0.4
		c-1.4-1.3-2.8-2.6-4.2-3.9c-0.6,0.6-1.2,1.3-1.9,1.9c-0.7,0.8-1.4,1.4-2.2,2.1c-0.8,0.8-1.3,1.9-2.3,2.5c0,0,0,0.1,0,0.1
		c-2.1,2.2-4.3,4.5-6.6,6.6c-1.3,1.3-2.5,2.7-3.5,4.1c-0.4-6.8-5.1-12.1-11.4-15.9c-0.8-0.5-1.6-0.9-2.4-1.1
		c1.3-3.7,1.8-7.3,1.2-10.7c2.4-3.9,3.5-8.1,1.9-12.8c-1.2-3.6-2.9-7.1-4.8-10.4c-1.1-2-2.9-3.7-4.4-5.6c-0.3,0.2-0.6,0.4-0.9,0.6
		c1.3,4,3.4,7.6,2.2,12.4c-0.4,1.6-0.9,3.1-1.6,4.4c-0.7-0.5-1.5-1-2.3-1.4c-3-1.7-5.7-3.8-8.3-6.1c-5.6-5.1-6.5-11.7-5.9-18.8
		c0.6-6.5,2.5-12.5,6.7-18.2c-4.7,0.2-11.2,2.2-16.8,6.3c-7.7,5.7-12.6,13.3-15,22.1c-3.9,14.1-2.3,27.3,7.2,39.3
		c6.5,8.3,14.5,11.8,24.7,11c3.2-0.3,6-1.2,8.5-2.6c7.6,7,12.8,17,15.4,22.7c-0.2,0.9-0.4,1.7-0.5,2.6c-0.3-0.1-0.7-0.2-1.1-0.2
		c-5.5-0.3-11.1-0.6-16.6-1.3c-3.4-0.4-6.6-1.5-10-2.2c-0.3,0.1-0.5,0.3-0.8,0.4c0-0.2,0-0.4,0-0.6c-6.3-3.2-12.4-6.3-18.4-9.3
		c0,0.3-0.1,0.7-0.1,1.3c-1.3-3.7-5.3-5.2-7.1-8.4l-0.9,0.8c2.6,3.1,5.3,6.2,7.9,9.3v0c0,0.2,0,0.4-0.1,0.6
		c6.1,3.6,12.3,7.2,18.9,11c-0.1-1.6-0.1-2.7-0.2-3.8c0.5,1.6,0.8,3.5,1.9,4c2.9,1.4,6.3,1.9,9.5,2.7c1.5,0.4,3.1,0.8,4.6,0.9
		c3.8,0.4,7.6,0.9,11.4,0.8c-0.4,2.7-0.6,5.5-0.8,8.2c-6.1-1.2-12.3-2.1-18.5-3.3c-1.3-0.2-2.5-0.9-3.2,0.5
		c-0.1-1.5-1.1-1.8-3.8-2.7c-1-0.3-2.1-0.5-2.9-1c-3.9-2.3-7.8-4.7-11.7-7c-0.1,0.3-0.2,0.6-0.3,1c-0.4-4-4.7-5.1-5.9-8.4
		c-0.3,0.2-0.5,0.3-0.7,0.5c2.1,2.9,4.3,5.8,6.4,8.8c-0.1,0.2-0.1,0.4-0.2,0.6c5.6,5.1,11.7,9.1,18.7,12c0.1-0.3,0.1-0.6,0.2-0.9
		c0.2,0.8,0.9,1.4,2.1,1.7c4.7,1.2,9.5,2.6,14.2,3.6c1.8,0.4,3.6,0.6,5.5,0.7c0,2.5,0,5,0.1,7.6c-4.1-0.5-8.2-0.9-12.4-1.4
		c-0.2-0.9-1.1-1.2-3.2-2.2c-3.8-1.7-7.3-4-11-6c-0.7-0.4-1.6-0.6-2.5-0.9c-0.9-3.4-4.3-4.5-7.1-6.1c2.2,2.4,4.3,4.8,6.5,7.2
		c0.1-0.1,0.2-0.1,0.3-0.2c1.9,4.3,10.4,10,16.5,11.2c0.1-0.4,0.2-0.7,0.3-1c0.2,1.4,1.4,2.3,3.3,2.8c2.9,0.8,5.8,1.8,8.8,2.3
		c0.4,0.1,0.8,0.1,1.2,0.2c0.3,2,0.9,4,1.8,5.9c-3.1-0.4-6.1-1-9.2-1.4c0,0.1-0.1,0.2-0.1,0.3c-4.6-2.1-8.8-4-13.2-6
		c0,0,0,0,0.1-0.1c0-3.2-3.7-3.3-5.6-4.8c1.6,1.9,3.1,3.7,4.7,5.6c0.1-0.1,0.3-0.2,0.4-0.4c0.7,0.9,1.4,1.9,2.3,2.5
		c2.7,1.8,5.6,3.2,8.5,4.7c1,0.5,1.7,0.7,2.2,0.6c0,0.8,0.4,1.4,1.7,1.6c3.4,0.7,6.8,1.8,10.3,2.3l0,0.1c0,0.5,0,1.1,0.1,1.6
		c1.5,3.5,3,7,4.5,10.4c-0.9-0.3-2.1-0.7-3.4-1c-1,4.1,2,11.3,6.5,14.5c-1.9-0.3-3.2-0.5-4.4-0.8c-0.6,5.6,0.5,10.3,6.7,12.6
		c-0.3,0.3-0.6,0.6-0.9,0.9c-1.5-0.5-3-1.1-4.5-1.6c-0.1,5.3,2.6,8.7,6.7,11.6c-1.2-0.3-2.3-0.6-4.2-1c0.8,2.3,1.1,4.3,2.1,6
		c1,1.7,2.5,3,3.8,4.5c-0.4,0-1.1,0.1-1.9,0.1c0.9,2.3,1.4,4.6,1.6,6.8c-0.9-1.2-2.1-2.1-3.6-2.7c-8.1-2.9-12.7-0.5-16.8,6.5
		c-1.3,2.1,0,6.7,2.3,8.1c2.2,1.4,4.8,0.8,6.1-0.9c3.2-4.2,7.2-5.2,11.8-4.6c-0.1,0.3-0.2,0.7-0.2,1c-2.5-0.4-4.7,0.1-6.9,1.4
		c-2.5,1.6-3,3.9-2.3,6.5c0.6,2.6,2.8,3.4,5,3.5c2.4,0,4.8-0.6,5.4-3.6c3.2,3.6,10,4.5,14.3,2.2c1.5-0.8,2.5-1.7,3.2-2.7
		c0,0.2,0.1,0.3,0.1,0.5c0.6,3,3.1,3.7,5.5,3.6c2.2-0.1,4.4-1,4.9-3.6c0.5-2.5,0.1-4.7-2.3-6.3c-2.3-1.5-4.7-2-7.6-1.4
		c0-0.3-0.1-0.7-0.2-1c4.5-0.8,8.5,0.1,11.6,3.6c1.9,2.2,4,3.1,6.6,1.8c2.3-1.2,3.9-5.8,2.5-8c-2.2-3.2-4.1-6.8-8.7-7.6
		c-5.2-0.8-10.6,0.7-12.6,5c-0.1-2.8,0.3-5.6,2.2-8.4c-1.8,0.3-3,0.5-4.2,0.7c5.2-1.9,7.2-5.7,7.1-11c-1.3,0.3-2.5,0.6-3.7,0.9
		c4.1-2.9,6.9-6.3,6.6-11.4c-1.6,0.5-3.1,0.9-4.6,1.3c-0.2-0.3-0.5-0.6-0.7-1c6.3-2.2,7.1-7,6.6-12.5c-1.3,0.3-2.5,0.5-3.7,0.7
		c3.7-1.9,6.6-10.9,5.6-14.4c-1.3,0.3-2.5,0.6-4.4,1.1c2.9-3.4,4.9-6.7,5.5-10.3c2.1-0.5,4.3-1.1,6.4-1.6c1.3-0.3,1.7-0.9,1.7-1.7
		c0.5,0.1,1.2-0.1,2.2-0.6c2.8-1.5,5.8-3,8.5-4.8c0.9-0.6,1.6-1.6,2.3-2.5c0.1,0.1,0.3,0.2,0.4,0.3c1.6-1.9,3.1-3.7,4.7-5.6
		c-1.9,1.5-5.5,1.6-5.5,4.9c0,0,0,0,0.1,0.1c-4.3,2-8.5,4-13.1,6.1c0-0.1-0.1-0.2-0.1-0.3c-2.5,0.4-5,0.9-7.6,1.3
		c-0.1,0-0.2,0-0.3,0c0.1-0.1,0.2-0.2,0.3-0.4c1.1-1.6,2-3.5,2.5-5.7c2.6-0.5,5.1-1.4,7.6-2.1c1.9-0.5,3.1-1.4,3.3-2.8
		c0.1,0.3,0.2,0.6,0.3,1c6.1-1.2,14.5-7,16.4-11.3c0.1,0.1,0.2,0.1,0.3,0.2c2.1-2.4,4.3-4.8,6.4-7.2c-2.9,1.6-6.2,2.7-7.1,6.1
		c-0.9,0.3-1.8,0.5-2.5,0.9c-3.7,2-7.2,4.3-11,6.1c-2.1,1-3,1.3-3.2,2.2c-3.2,0.4-6.4,0.7-9.5,1.1c0.1-0.8,0.1-1.5,0-2.3
		c-0.1-1.7-0.3-3.5-0.4-5.2c1-0.1,2-0.3,3-0.5c4.8-1,9.5-2.4,14.2-3.7c1.2-0.3,1.8-0.9,2.1-1.7c0.1,0.3,0.1,0.6,0.2,0.9
		c7-2.9,13.1-6.9,18.6-12.1c-0.1-0.2-0.1-0.4-0.2-0.6c2.1-2.9,4.3-5.9,6.4-8.8c-0.2-0.2-0.5-0.3-0.7-0.5c-1.3,3.3-5.5,4.4-5.9,8.4
		c-0.1-0.3-0.2-0.6-0.3-1c-3.9,2.4-7.8,4.8-11.7,7.1c-0.9,0.5-1.9,0.7-2.9,1c-2.8,0.9-3.7,1.3-3.8,2.7c-0.7-1.4-1.9-0.7-3.2-0.5
		c-5.4,1-10.8,1.9-16.1,2.9c-0.2-2.6-0.4-5.2-0.7-7.8c3-0.1,5.9-0.5,8.9-0.8c1.6-0.2,3.1-0.6,4.6-0.9c3.2-0.8,6.6-1.3,9.5-2.8
		c1-0.5,1.4-2.4,1.8-4c0,1-0.1,2.2-0.2,3.8c6.6-3.9,12.8-7.6,18.9-11.2c0-0.2,0-0.4-0.1-0.6c2.6-3.1,5.2-6.2,7.9-9.3
		C1246.5,598,1246.1,597.7,1245.8,597.5z"/>
	<path fill="#F15C6F" d="M1185.2,522.7c0,0-8.8,15.7-2.7,72l5.5,3.2c0,0-4-50-1.9-72.4L1185.2,522.7z"/>
	<path fill="#F15C6F" d="M1150.4,521c0,0.1,3.9,5.4,3.9,5.5c6.2,23.8,4.7,46.4,1.1,70.4c1.8-1.8,3.9-3.3,6.1-4.6
		c3.1-15.4,2.5-31.1,0.3-46.7c-0.8-5.7-1.9-11.2-3.2-16.6c-0.9-3.7-1.9-7.3-3.1-10.8c0,0,0-0.1,0-0.1c-1.8-1.7-3.7-3.5-5.5-5.2
		c0,0,0,0,0,0.1C1151.5,516.8,1149.4,517.3,1150.4,521z"/>
</g>
<path fill="#F15C6F" d="M458.4,441c-1.2,2.3-4.1,3.4-5,6c0-0.4-0.1-0.7-0.1-0.9c-4.2,2.1-8.5,4.3-12.9,6.6c0,0.1,0,0.3,0,0.4
	c0.1,0,0.1,0.1,0.2,0.1c-0.1,0.2-0.1,0.3-0.2,0.5c0-0.2,0-0.4,0-0.6c-0.2-0.1-0.4-0.2-0.6-0.3c-2.3,0.6-4.6,1.3-7,1.6
	c-3.5,0.4-7,0.7-10.4,0.9c-0.1-1-0.2-2-0.3-3v0c1.9-4.1,5.4-10.7,10.5-15.4c1.7,1,3.8,1.7,6,1.8c7.2,0.6,12.8-2,17.4-7.8
	c6.6-8.5,7.7-17.8,4.9-27.7c-1.8-6.2-5.3-11.5-10.7-15.5c-3.9-2.9-8.6-4.2-11.9-4.4c3,4,4.4,8.2,4.8,12.8c0.5,5-0.2,9.7-4.1,13.3
	c-1.8,1.6-3.7,3.1-5.8,4.3c-0.6,0.3-1.1,0.7-1.6,1c-0.5-0.9-0.8-2-1.1-3.1c-0.9-3.4,0.6-5.9,1.5-8.8c-0.2-0.1-0.4-0.3-0.7-0.4
	c-1,1.3-2.3,2.5-3.1,3.9c-1.3,2.4-2.5,4.8-3.3,7.3c-1.1,3.3-0.3,6.3,1.4,9c-0.4,2.4-0.1,4.9,0.9,7.5c-0.6,0.2-1.2,0.5-1.7,0.8
	c-4,2.5-7,5.7-7.8,9.9c-0.3-0.5-0.7-0.9-1-1.3c-1.5-1.9-3.3-3.6-5-5.2c-0.9-0.4-1.5-1.1-2.1-1.9c-0.1-0.1-0.3-0.3-0.4-0.4
	c-0.1-0.1-0.2-0.2-0.3-0.3c-1-0.9-2-1.8-3-2.7c-0.5,0.6-1.1,1.1-1.6,1.7c0,0,0,0,0,0c-0.3,0.5-0.8,0.9-1.2,1.4
	c-0.4,0.4-0.8,0.9-1.3,1.3c-0.1,0.1-0.3,0.3-0.5,0.4c0,0.1-0.1,0.1-0.1,0.2c-1.4,1.5-2.9,3-4.4,4.4c-0.9,0.9-1.8,1.9-2.5,2.9
	c-0.3-4.8-3.6-8.5-8-11.2c-0.6-0.3-1.1-0.6-1.7-0.8c1-2.6,1.3-5.1,0.8-7.5c1.7-2.7,2.5-5.7,1.4-9c-0.9-2.5-2.1-5-3.3-7.3
	c-0.8-1.4-2.1-2.6-3.1-3.9c-0.2,0.2-0.4,0.3-0.6,0.4c0.9,2.8,2.4,5.4,1.5,8.8c-0.3,1.1-0.7,2.2-1.1,3.1c-0.5-0.4-1-0.7-1.6-1
	c-2.1-1.2-4-2.7-5.8-4.3c-3.9-3.6-4.6-8.3-4.1-13.3c0.4-4.6,1.8-8.8,4.7-12.8c-3.3,0.2-7.9,1.5-11.8,4.4c-5.4,4-8.9,9.3-10.6,15.6
	c-2.8,9.9-1.6,19.2,5,27.7c4.6,5.9,10.2,8.3,17.4,7.7c2.2-0.2,4.3-0.8,6-1.9c5.4,5,9,12,10.8,16c-0.1,0.6-0.3,1.2-0.4,1.9
	c-0.2-0.1-0.5-0.1-0.8-0.1c-3.9-0.2-7.8-0.4-11.7-0.9c-2.4-0.3-4.7-1-7-1.6c-0.2,0.1-0.4,0.2-0.6,0.3c0-0.1,0-0.3,0-0.4
	c-4.5-2.3-8.8-4.4-12.9-6.5c0,0.2,0,0.5-0.1,0.9c-0.9-2.6-3.8-3.6-5-6l-0.7,0.5c1.9,2.2,3.7,4.4,5.6,6.6v0c0,0.1,0,0.3,0,0.4
	c4.3,2.5,8.7,5.1,13.3,7.8c-0.1-1.1-0.1-1.9-0.1-2.7c0.4,1.1,0.6,2.5,1.3,2.8c2.1,1,4.5,1.3,6.7,1.9c1.1,0.3,2.2,0.5,3.3,0.6
	c2.7,0.3,5.4,0.6,8,0.5c-0.3,1.9-0.4,3.8-0.6,5.8c-4.3-0.8-8.7-1.5-13-2.3c-0.9-0.2-1.8-0.7-2.3,0.3c0-1.1-0.7-1.3-2.7-1.9
	c-0.7-0.2-1.4-0.4-2.1-0.7c-2.8-1.6-5.5-3.3-8.3-5c-0.1,0.2-0.1,0.4-0.2,0.7c-0.3-2.8-3.3-3.6-4.2-5.9c-0.2,0.1-0.3,0.2-0.5,0.3
	c1.5,2.1,3,4.1,4.5,6.2c0,0.2-0.1,0.3-0.1,0.5c3.9,3.6,8.2,6.4,13.1,8.4c0-0.2,0.1-0.4,0.1-0.6c0.2,0.6,0.6,1,1.5,1.2
	c3.3,0.9,6.7,1.8,10,2.5c1.2,0.3,2.5,0.4,3.8,0.5c0,1.8,0,3.5,0,5.3c-2.9-0.3-5.8-0.6-8.8-1c-0.1-0.6-0.8-0.8-2.3-1.5
	c-2.7-1.2-5.2-2.8-7.8-4.2c-0.5-0.3-1.1-0.4-1.8-0.6c-0.6-2.4-3-3.2-5-4.3c1.5,1.7,3,3.4,4.6,5.1c0.1,0,0.1-0.1,0.2-0.1
	c1.3,3,7.3,7.1,11.6,7.9c0.1-0.3,0.1-0.5,0.2-0.7c0.1,1,1,1.6,2.3,2c2.1,0.5,4.1,1.3,6.2,1.6c0.3,0,0.6,0.1,0.8,0.1
	c0.2,1.4,0.6,2.8,1.3,4.1c-2.2-0.3-4.3-0.7-6.5-1c0,0.1-0.1,0.1-0.1,0.2c-3.3-1.5-6.2-2.9-9.3-4.3c0,0,0,0,0,0
	c0-2.3-2.6-2.3-3.9-3.4c1.1,1.3,2.2,2.6,3.3,3.9c0.1-0.1,0.2-0.2,0.3-0.2c0.5,0.6,1,1.3,1.6,1.8c1.9,1.2,4,2.3,6,3.3
	c0.7,0.4,1.2,0.5,1.6,0.4c0,0.5,0.3,1,1.2,1.2c2.4,0.5,4.8,1.3,7.2,1.6v0c0,0.4,0,0.8,0.1,1.1c1,2.5,2.1,4.9,3.1,7.3
	c-0.6-0.2-1.5-0.5-2.4-0.7c-0.7,2.9,1.4,8,4.6,10.2c-1.4-0.2-2.2-0.4-3.1-0.5c-0.4,3.9,0.4,7.2,4.7,8.9c-0.2,0.2-0.4,0.4-0.6,0.6
	c-1.1-0.4-2.1-0.8-3.2-1.1c-0.1,3.7,1.8,6.2,4.7,8.2c-0.8-0.2-1.6-0.4-3-0.7c0.5,1.7,0.8,3.1,1.4,4.2c0.7,1.2,1.8,2.1,2.6,3.2
	c-0.3,0-0.8,0-1.3,0.1c0.6,1.7,1,3.2,1.1,4.8c-0.6-0.8-1.5-1.5-2.6-1.9c-5.7-2-8.9-0.4-11.9,4.5c-0.9,1.5,0,4.7,1.6,5.7
	c1.6,1,3.4,0.6,4.3-0.6c2.3-3,5.1-3.7,8.3-3.3c-0.1,0.2-0.1,0.5-0.2,0.7c-1.8-0.3-3.3,0-4.9,1c-1.8,1.1-2.1,2.7-1.7,4.6
	c0.4,1.8,2,2.4,3.5,2.4c1.7,0,3.4-0.4,3.8-2.5c2.2,2.5,7,3.2,10.1,1.5c1-0.6,1.8-1.2,2.3-1.9c0,0.1,0,0.2,0.1,0.3
	c0.4,2.1,2.2,2.6,3.9,2.5c1.6-0.1,3.1-0.7,3.5-2.5c0.4-1.8,0.1-3.3-1.6-4.4c-1.6-1.1-3.3-1.4-5.4-1c0-0.2-0.1-0.5-0.1-0.7
	c3.2-0.6,6,0.1,8.1,2.6c1.4,1.6,2.8,2.2,4.7,1.3c1.7-0.8,2.8-4.1,1.8-5.6c-1.5-2.3-2.9-4.8-6.1-5.3c-3.7-0.6-7.5,0.5-8.9,3.5
	c-0.1-2,0.2-3.9,1.5-5.9c-1.3,0.2-2.1,0.4-3,0.5c3.7-1.3,5-4,5-7.7c-0.9,0.2-1.8,0.4-2.6,0.6c2.9-2.1,4.9-4.4,4.6-8
	c-1.1,0.3-2.2,0.6-3.2,0.9c-0.2-0.2-0.3-0.5-0.5-0.7c4.5-1.6,5-4.9,4.6-8.8c-0.9,0.2-1.8,0.3-2.6,0.5c2.6-1.3,4.7-7.7,4-10.1
	c-0.9,0.2-1.8,0.4-3.1,0.8c2.1-2.4,3.5-4.7,3.9-7.3c1.5-0.4,3-0.8,4.5-1.1c0.9-0.2,1.2-0.6,1.2-1.2c0.4,0.1,0.9,0,1.6-0.4
	c2-1.1,4.1-2.1,6-3.4c0.7-0.4,1.1-1.1,1.6-1.8c0.1,0.1,0.2,0.2,0.3,0.2c1.1-1.3,2.2-2.6,3.3-3.9c-1.3,1.1-3.9,1.1-3.9,3.4
	c0,0,0,0,0,0c-3,1.4-6,2.8-9.3,4.3c0-0.1,0-0.1-0.1-0.2c-1.8,0.3-3.6,0.6-5.3,0.9c-0.1,0-0.2,0-0.2,0c0.1-0.1,0.1-0.2,0.2-0.3
	c0.8-1.1,1.4-2.5,1.8-4c1.8-0.4,3.6-1,5.4-1.5c1.3-0.4,2.2-1,2.3-2c0.1,0.2,0.1,0.4,0.2,0.7c4.3-0.8,10.3-4.9,11.6-8
	c0.1,0,0.1,0.1,0.2,0.1c1.5-1.7,3-3.4,4.5-5.1c-2,1.1-4.4,1.9-5,4.3c-0.6,0.2-1.2,0.3-1.8,0.6c-2.6,1.4-5.1,3-7.7,4.3
	c-1.5,0.7-2.1,0.9-2.2,1.5c-2.3,0.3-4.5,0.5-6.7,0.8c0-0.5,0-1.1,0-1.6c-0.1-1.2-0.2-2.4-0.3-3.7c0.7-0.1,1.4-0.2,2.1-0.3
	c3.4-0.7,6.7-1.7,10-2.6c0.9-0.2,1.3-0.6,1.5-1.2c0,0.2,0.1,0.4,0.1,0.6c4.9-2,9.2-4.9,13.1-8.5c0-0.2-0.1-0.3-0.1-0.5
	c1.5-2.1,3-4.1,4.5-6.2c-0.2-0.1-0.3-0.2-0.5-0.3c-0.9,2.3-3.9,3.1-4.1,5.9c-0.1-0.2-0.1-0.5-0.2-0.7c-2.7,1.7-5.5,3.4-8.2,5
	c-0.6,0.4-1.4,0.5-2.1,0.7c-2,0.6-2.6,0.9-2.7,1.9c-0.5-1-1.4-0.5-2.3-0.3c-3.8,0.7-7.6,1.4-11.4,2.1c-0.2-1.8-0.3-3.6-0.5-5.5
	c2.1-0.1,4.2-0.4,6.3-0.6c1.1-0.1,2.2-0.4,3.3-0.7c2.3-0.6,4.6-0.9,6.7-1.9c0.7-0.3,1-1.7,1.3-2.8c0,0.7-0.1,1.5-0.1,2.7
	c4.7-2.7,9-5.3,13.3-7.9c0-0.1,0-0.3,0-0.4c1.9-2.2,3.7-4.4,5.6-6.6C458.9,441.4,458.7,441.2,458.4,441z"/>
</svg>
