<?xml version="1.0" encoding="utf-8"?>
<!-- Generator: Adobe Illustrator 18.1.0, SVG Export Plug-In . SVG Version: 6.00 Build 0)  -->
<svg version="1.1" id="Layer_1" xmlns="http://www.w3.org/2000/svg" xmlns:xlink="http://www.w3.org/1999/xlink" x="0px" y="0px"
	 viewBox="0 0 473.2 319.9" enable-background="new 0 0 473.2 319.9" xml:space="preserve">
<rect x="0" y="0" fill="#5FCBEB" width="473.2" height="319.9"/>
<rect x="1416.1" y="189" fill="#5FCBEB" width="813" height="549.7"/>
<g id="oDy92v.tif">
	<g>
		<path fill="#F15C6F" d="M2067.4,283.3c-10.6-35.7-32.3-62.2-65.6-78.8c-23.3-11.6-48-15.3-73.8-12.5c-14,1.5-27.4,5.4-40.2,11.4
			c-22.6,10.6-40.9,26.4-55.8,46.3c-3.5,4.7-6.7,9.7-10.2,14.7c-0.5-0.8-0.9-1.5-1.4-2.3c-10.9-17.5-24.3-32.6-41-44.8
			c-21.4-15.7-45.3-24.7-71.9-26.1c-15-0.8-29.7,0.8-44.2,5c-24.4,7.1-45.1,20.1-61.6,39.5c-19.2,22.7-29.1,49.1-30.3,78.6
			c-0.8,20.1,0.6,40.1,4.4,59.9c5.3,27.6,16.4,52.7,33,75.3c11.9,16.1,25.5,30.6,39.9,44.5c21.3,20.5,43.7,39.6,66,58.9
			c31.4,27.1,62.5,54.5,92.8,82.8c1.7,1.6,3.3,3.1,5,4.7c-1-3.8-2-7.6-3.3-11.3c0,0,0-0.1,0-0.1c-1.9-1.8-3.9-3.6-5.8-5.4
			c-0.3-0.3-0.5-0.5-0.8-0.8c-27.3-25.2-55.3-49.8-83.4-74.1c-21.5-18.6-43.1-37-63.6-56.7c-13.9-13.3-27-27.3-38.4-42.8
			c-16-21.8-26.7-45.9-31.8-72.4c-3.6-19-5.1-38.3-4.3-57.7c1.2-28.4,10.7-53.8,29.2-75.6c15.9-18.7,35.8-31.2,59.3-38
			c13.9-4,28.1-5.6,42.5-4.8c25.6,1.3,48.6,9.9,69.2,25.1c16,11.7,29,26.3,39.5,43.1c0.4,0.7,0.9,1.4,1.4,2.2
			c3.3-4.8,6.4-9.6,9.8-14.1c14.4-19.1,32-34.3,53.8-44.6c12.3-5.8,25.2-9.5,38.7-11c24.8-2.7,48.7,0.9,71.1,12.1
			c32.1,16,53,41.5,63.2,75.8c3.6,12,5,24.3,5,36.8c0,11.7-0.6,23.4-2,35c-4,34.7-16.6,65.8-38.2,93.3
			c-11.8,14.9-24.9,28.6-38.8,41.6c-18.5,17.4-37.8,34-57,50.6c-31.1,26.8-62,53.9-92,81.9c-1.6,1.5-3.3,3.1-4.9,4.6
			c-0.3,1-0.6,2-0.8,3c-0.6,2.2-1.1,4.5-1.6,6.7c1.5-1.5,3.1-2.9,4.7-4.4c32-30,65-59,98.3-87.7c20-17.3,40-34.5,59.2-52.6
			c14.3-13.6,28-27.7,40.3-43.3c22.5-28.6,35.5-61,39.7-97c1.4-12.1,2-24.3,2.1-36.4C2072.6,308.6,2071.1,295.8,2067.4,283.3z"/>
	</g>
</g>
<path fill="#F15C6F" d="M1805.3,629.1c-2.2-2.1-4.4-4.1-6.6-6.2C1800.8,625.1,1803.1,627.1,1805.3,629.1
	C1805.4,629.2,1805.3,629.1,1805.3,629.1z"/>
<g>
	<path fill="#F15C6F" d="M1245.8,597.5c-1.8,3.3-5.8,4.8-7.1,8.5c-0.1-0.6-0.1-1-0.1-1.3c-5.9,3-12,6.2-18.3,9.4c0,0.2,0,0.4,0,0.6
		c0.1,0,0.2,0.1,0.2,0.1c-0.1,0.2-0.2,0.5-0.3,0.8c0-0.3,0-0.6,0-0.9c-0.3-0.1-0.5-0.3-0.8-0.4c-3.3,0.8-6.6,1.9-9.9,2.3
		c-4.9,0.6-9.9,1-14.8,1.3c-0.1-1.4-0.3-2.9-0.4-4.3v0c2.7-5.8,7.6-15.2,14.8-21.9c2.5,1.5,5.3,2.4,8.5,2.6
		c10.2,0.8,18.1-2.8,24.6-11.1c9.4-12.1,10.9-25.3,6.9-39.4c-2.5-8.9-7.5-16.4-15.2-22c-5.6-4.1-12.2-6-16.8-6.2
		c4.2,5.7,6.2,11.7,6.8,18.2c0.7,7.1-0.3,13.8-5.8,18.9c-2.5,2.3-5.3,4.5-8.2,6.2c-0.8,0.5-1.6,0.9-2.3,1.5
		c-0.6-1.3-1.2-2.8-1.6-4.4c-1.3-4.8,0.8-8.4,2.1-12.4c-0.3-0.2-0.6-0.4-0.9-0.6c-1.5,1.9-3.3,3.5-4.4,5.6
		c-1.8,3.3-3.5,6.8-4.7,10.4c-1.6,4.7-0.4,8.9,2,12.8c-0.6,3.4-0.1,7,1.2,10.7c-0.8,0.3-1.6,0.7-2.4,1.2c-5.7,3.5-10,8.2-11,14.1
		c-0.5-0.6-1-1.3-1.5-1.9c-2.2-2.6-4.6-5.1-7.1-7.4c-1.2-0.6-2.2-1.6-3-2.7c-0.2-0.2-0.4-0.4-0.5-0.6c-0.2-0.1-0.3-0.2-0.5-0.4
		c-1.4-1.3-2.8-2.6-4.2-3.9c-0.6,0.6-1.2,1.3-1.9,1.9c-0.7,0.8-1.4,1.4-2.2,2.1c-0.8,0.8-1.3,1.9-2.3,2.5c0,0,0,0.1,0,0.1
		c-2.1,2.2-4.3,4.5-6.6,6.6c-1.3,1.3-2.5,2.7-3.5,4.1c-0.4-6.8-5.1-12.1-11.4-15.9c-0.8-0.5-1.6-0.9-2.4-1.1
		c1.3-3.7,1.8-7.3,1.2-10.7c2.4-3.9,3.5-8.1,1.9-12.8c-1.2-3.6-2.9-7.1-4.8-10.4c-1.1-2-2.9-3.7-4.4-5.6c-0.3,0.2-0.6,0.4-0.9,0.6
		c1.3,4,3.4,7.6,2.2,12.4c-0.4,1.6-0.9,3.1-1.6,4.4c-0.7-0.5-1.5-1-2.3-1.4c-3-1.7-5.7-3.8-8.3-6.1c-5.6-5.1-6.5-11.7-5.9-18.8
		c0.6-6.5,2.5-12.5,6.7-18.2c-4.7,0.2-11.2,2.2-16.8,6.3c-7.7,5.7-12.6,13.3-15,22.1c-3.9,14.1-2.3,27.3,7.2,39.3
		c6.5,8.3,14.5,11.8,24.7,11c3.2-0.3,6-1.2,8.5-2.6c7.6,7,12.8,17,15.4,22.7c-0.2,0.9-0.4,1.7-0.5,2.6c-0.3-0.1-0.7-0.2-1.1-0.2
		c-5.5-0.3-11.1-0.6-16.6-1.3c-3.4-0.4-6.6-1.5-10-2.2c-0.3,0.1-0.5,0.3-0.8,0.4c0-0.2,0-0.4,0-0.6c-6.3-3.2-12.4-6.3-18.4-9.3
		c0,0.3-0.1,0.7-0.1,1.3c-1.3-3.7-5.3-5.2-7.1-8.4l-0.9,0.8c2.6,3.1,5.3,6.2,7.9,9.3v0c0,0.2,0,0.4-0.1,0.6
		c6.1,3.6,12.3,7.2,18.9,11c-0.1-1.6-0.1-2.7-0.2-3.8c0.5,1.6,0.8,3.5,1.9,4c2.9,1.4,6.3,1.9,9.5,2.7c1.5,0.4,3.1,0.8,4.6,0.9
		c3.8,0.4,7.6,0.9,11.4,0.8c-0.4,2.7-0.6,5.5-0.8,8.2c-6.1-1.2-12.3-2.1-18.5-3.3c-1.3-0.2-2.5-0.9-3.2,0.5
		c-0.1-1.5-1.1-1.8-3.8-2.7c-1-0.3-2.1-0.5-2.9-1c-3.9-2.3-7.8-4.7-11.7-7c-0.1,0.3-0.2,0.6-0.3,1c-0.4-4-4.7-5.1-5.9-8.4
		c-0.3,0.2-0.5,0.3-0.7,0.5c2.1,2.9,4.3,5.8,6.4,8.8c-0.1,0.2-0.1,0.4-0.2,0.6c5.6,5.1,11.7,9.1,18.7,12c0.1-0.3,0.1-0.6,0.2-0.9
		c0.2,0.8,0.9,1.4,2.1,1.7c4.7,1.2,9.5,2.6,14.2,3.6c1.8,0.4,3.6,0.6,5.5,0.7c0,2.5,0,5,0.1,7.6c-4.1-0.5-8.2-0.9-12.4-1.4
		c-0.2-0.9-1.1-1.2-3.2-2.2c-3.8-1.7-7.3-4-11-6c-0.7-0.4-1.6-0.6-2.5-0.9c-0.9-3.4-4.3-4.5-7.1-6.1c2.2,2.4,4.3,4.8,6.5,7.2
		c0.1-0.1,0.2-0.1,0.3-0.2c1.9,4.3,10.4,10,16.5,11.2c0.1-0.4,0.2-0.7,0.3-1c0.2,1.4,1.4,2.3,3.3,2.8c2.9,0.8,5.8,1.8,8.8,2.3
		c0.4,0.1,0.8,0.1,1.2,0.2c0.3,2,0.9,4,1.8,5.9c-3.1-0.4-6.1-1-9.2-1.4c0,0.1-0.1,0.2-0.1,0.3c-4.6-2.1-8.8-4-13.2-6
		c0,0,0,0,0.1-0.1c0-3.2-3.7-3.3-5.6-4.8c1.6,1.9,3.1,3.7,4.7,5.6c0.1-0.1,0.3-0.2,0.4-0.4c0.7,0.9,1.4,1.9,2.3,2.5
		c2.7,1.8,5.6,3.2,8.5,4.7c1,0.5,1.7,0.7,2.2,0.6c0,0.8,0.4,1.4,1.7,1.6c3.4,0.7,6.8,1.8,10.3,2.3l0,0.1c0,0.5,0,1.1,0.1,1.6
		c1.5,3.5,3,7,4.5,10.4c-0.9-0.3-2.1-0.7-3.4-1c-1,4.1,2,11.3,6.5,14.5c-1.9-0.3-3.2-0.5-4.4-0.8c-0.6,5.6,0.5,10.3,6.7,12.6
		c-0.3,0.3-0.6,0.6-0.9,0.9c-1.5-0.5-3-1.1-4.5-1.6c-0.1,5.3,2.6,8.7,6.7,11.6c-1.2-0.3-2.3-0.6-4.2-1c0.8,2.3,1.1,4.3,2.1,6
		c1,1.7,2.5,3,3.8,4.5c-0.4,0-1.1,0.1-1.9,0.1c0.9,2.3,1.4,4.6,1.6,6.8c-0.9-1.2-2.1-2.1-3.6-2.7c-8.1-2.9-12.7-0.5-16.8,6.5
		c-1.3,2.1,0,6.7,2.3,8.1c2.2,1.4,4.8,0.8,6.1-0.9c3.2-4.2,7.2-5.2,11.8-4.6c-0.1,0.3-0.2,0.7-0.2,1c-2.5-0.4-4.7,0.1-6.9,1.4
		c-2.5,1.6-3,3.9-2.3,6.5c0.6,2.6,2.8,3.4,5,3.5c2.4,0,4.8-0.6,5.4-3.6c3.2,3.6,10,4.5,14.3,2.2c1.5-0.8,2.5-1.7,3.2-2.7
		c0,0.2,0.1,0.3,0.1,0.5c0.6,3,3.1,3.7,5.5,3.6c2.2-0.1,4.4-1,4.9-3.6c0.5-2.5,0.1-4.7-2.3-6.3c-2.3-1.5-4.7-2-7.6-1.4
		c0-0.3-0.1-0.7-0.2-1c4.5-0.8,8.5,0.1,11.6,3.6c1.9,2.2,4,3.1,6.6,1.8c2.3-1.2,3.9-5.8,2.5-8c-2.2-3.2-4.1-6.8-8.7-7.6
		c-5.2-0.8-10.6,0.7-12.6,5c-0.1-2.8,0.3-5.6,2.2-8.4c-1.8,0.3-3,0.5-4.2,0.7c5.2-1.9,7.2-5.7,7.1-11c-1.3,0.3-2.5,0.6-3.7,0.9
		c4.1-2.9,6.9-6.3,6.6-11.4c-1.6,0.5-3.1,0.9-4.6,1.3c-0.2-0.3-0.5-0.6-0.7-1c6.3-2.2,7.1-7,6.6-12.5c-1.3,0.3-2.5,0.5-3.7,0.7
		c3.7-1.9,6.6-10.9,5.6-14.4c-1.3,0.3-2.5,0.6-4.4,1.1c2.9-3.4,4.9-6.7,5.5-10.3c2.1-0.5,4.3-1.1,6.4-1.6c1.3-0.3,1.7-0.9,1.7-1.7
		c0.5,0.1,1.2-0.1,2.2-0.6c2.8-1.5,5.8-3,8.5-4.8c0.9-0.6,1.6-1.6,2.3-2.5c0.1,0.1,0.3,0.2,0.4,0.3c1.6-1.9,3.1-3.7,4.7-5.6
		c-1.9,1.5-5.5,1.6-5.5,4.9c0,0,0,0,0.1,0.1c-4.3,2-8.5,4-13.1,6.1c0-0.1-0.1-0.2-0.1-0.3c-2.5,0.4-5,0.9-7.6,1.3
		c-0.1,0-0.2,0-0.3,0c0.1-0.1,0.2-0.2,0.3-0.4c1.1-1.6,2-3.5,2.5-5.7c2.6-0.5,5.1-1.4,7.6-2.1c1.9-0.5,3.1-1.4,3.3-2.8
		c0.1,0.3,0.2,0.6,0.3,1c6.1-1.2,14.5-7,16.4-11.3c0.1,0.1,0.2,0.1,0.3,0.2c2.1-2.4,4.3-4.8,6.4-7.2c-2.9,1.6-6.2,2.7-7.1,6.1
		c-0.9,0.3-1.8,0.5-2.5,0.9c-3.7,2-7.2,4.3-11,6.1c-2.1,1-3,1.3-3.2,2.2c-3.2,0.4-6.4,0.7-9.5,1.1c0.1-0.8,0.1-1.5,0-2.3
		c-0.1-1.7-0.3-3.5-0.4-5.2c1-0.1,2-0.3,3-0.5c4.8-1,9.5-2.4,14.2-3.7c1.2-0.3,1.8-0.9,2.1-1.7c0.1,0.3,0.1,0.6,0.2,0.9
		c7-2.9,13.1-6.9,18.6-12.1c-0.1-0.2-0.1-0.4-0.2-0.6c2.1-2.9,4.3-5.9,6.4-8.8c-0.2-0.2-0.5-0.3-0.7-0.5c-1.3,3.3-5.5,4.4-5.9,8.4
		c-0.1-0.3-0.2-0.6-0.3-1c-3.9,2.4-7.8,4.8-11.7,7.1c-0.9,0.5-1.9,0.7-2.9,1c-2.8,0.9-3.7,1.3-3.8,2.7c-0.7-1.4-1.9-0.7-3.2-0.5
		c-5.4,1-10.8,1.9-16.1,2.9c-0.2-2.6-0.4-5.2-0.7-7.8c3-0.1,5.9-0.5,8.9-0.8c1.6-0.2,3.1-0.6,4.6-0.9c3.2-0.8,6.6-1.3,9.5-2.8
		c1-0.5,1.4-2.4,1.8-4c0,1-0.1,2.2-0.2,3.8c6.6-3.9,12.8-7.6,18.9-11.2c0-0.2,0-0.4-0.1-0.6c2.6-3.1,5.2-6.2,7.9-9.3
		C1246.5,598,1246.1,597.7,1245.8,597.5z"/>
	<path fill="#F15C6F" d="M1185.2,522.7c0,0-8.8,15.7-2.7,72l5.5,3.2c0,0-4-50-1.9-72.4L1185.2,522.7z"/>
	<path fill="#F15C6F" d="M1150.4,521c0,0.1,3.9,5.4,3.9,5.5c6.2,23.8,4.7,46.4,1.1,70.4c1.8-1.8,3.9-3.3,6.1-4.6
		c3.1-15.4,2.5-31.1,0.3-46.7c-0.8-5.7-1.9-11.2-3.2-16.6c-0.9-3.7-1.9-7.3-3.1-10.8c0,0,0-0.1,0-0.1c-1.8-1.7-3.7-3.5-5.5-5.2
		c0,0,0,0,0,0.1C1151.5,516.8,1149.4,517.3,1150.4,521z"/>
</g>
<path fill="#F15C6F" d="M1874.6,630.1c-1.2,2.3-4.1,3.4-5,6c0-0.4-0.1-0.7-0.1-0.9c-4.2,2.1-8.5,4.3-12.9,6.6c0,0.1,0,0.3,0,0.4
	c0.1,0,0.1,0.1,0.2,0.1c-0.1,0.2-0.1,0.3-0.2,0.5c0-0.2,0-0.4,0-0.6c-0.2-0.1-0.4-0.2-0.6-0.3c-2.3,0.6-4.6,1.3-7,1.6
	c-3.5,0.4-7,0.7-10.4,0.9c-0.1-1-0.2-2-0.3-3v0c1.9-4.1,5.4-10.7,10.5-15.4c1.7,1,3.8,1.7,6,1.8c7.2,0.6,12.8-2,17.4-7.8
	c6.6-8.5,7.7-17.8,4.9-27.7c-1.8-6.2-5.3-11.5-10.7-15.5c-3.9-2.9-8.6-4.2-11.9-4.4c3,4,4.4,8.2,4.8,12.8c0.5,5-0.2,9.7-4.1,13.3
	c-1.8,1.6-3.7,3.1-5.8,4.3c-0.6,0.3-1.1,0.7-1.6,1c-0.5-0.9-0.8-2-1.1-3.1c-0.9-3.4,0.6-5.9,1.5-8.8c-0.2-0.1-0.4-0.3-0.7-0.4
	c-1,1.3-2.3,2.5-3.1,3.9c-1.3,2.4-2.5,4.8-3.3,7.3c-1.1,3.3-0.3,6.3,1.4,9c-0.4,2.4-0.1,4.9,0.9,7.5c-0.6,0.2-1.2,0.5-1.7,0.8
	c-4,2.5-7,5.7-7.8,9.9c-0.3-0.5-0.7-0.9-1-1.3c-1.5-1.9-3.3-3.6-5-5.2c-0.9-0.4-1.5-1.1-2.1-1.9c-0.1-0.1-0.3-0.3-0.4-0.4
	c-0.1-0.1-0.2-0.2-0.3-0.3c-1-0.9-2-1.8-3-2.7c-0.5,0.6-1.1,1.1-1.6,1.7c0,0,0,0,0,0c-0.3,0.5-0.8,0.9-1.2,1.4
	c-0.4,0.4-0.8,0.9-1.3,1.3c-0.1,0.1-0.3,0.3-0.5,0.4c0,0.1-0.1,0.1-0.1,0.2c-1.4,1.5-2.9,3-4.4,4.4c-0.9,0.9-1.8,1.9-2.5,2.9
	c-0.3-4.8-3.6-8.5-8-11.2c-0.6-0.3-1.1-0.6-1.7-0.8c1-2.6,1.3-5.1,0.8-7.5c1.7-2.7,2.5-5.7,1.4-9c-0.9-2.5-2.1-5-3.3-7.3
	c-0.8-1.4-2.1-2.6-3.1-3.9c-0.2,0.2-0.4,0.3-0.6,0.4c0.9,2.8,2.4,5.4,1.5,8.8c-0.3,1.1-0.7,2.2-1.1,3.1c-0.5-0.4-1-0.7-1.6-1
	c-2.1-1.2-4-2.7-5.8-4.3c-3.9-3.6-4.6-8.3-4.1-13.3c0.4-4.6,1.8-8.8,4.7-12.8c-3.3,0.2-7.9,1.5-11.8,4.4c-5.4,4-8.9,9.3-10.6,15.6
	c-2.8,9.9-1.6,19.2,5,27.7c4.6,5.9,10.2,8.3,17.4,7.7c2.2-0.2,4.3-0.8,6-1.9c5.4,5,9,12,10.8,16c-0.1,0.6-0.3,1.2-0.4,1.9
	c-0.2-0.1-0.5-0.1-0.8-0.1c-3.9-0.2-7.8-0.4-11.7-0.9c-2.4-0.3-4.7-1-7-1.6c-0.2,0.1-0.4,0.2-0.6,0.3c0-0.1,0-0.3,0-0.4
	c-4.5-2.3-8.8-4.4-12.9-6.5c0,0.2,0,0.5-0.1,0.9c-0.9-2.6-3.8-3.6-5-6l-0.7,0.5c1.9,2.2,3.7,4.4,5.6,6.6v0c0,0.1,0,0.3,0,0.4
	c4.3,2.5,8.7,5.1,13.3,7.8c-0.1-1.1-0.1-1.9-0.1-2.7c0.4,1.1,0.6,2.5,1.3,2.8c2.1,1,4.5,1.3,6.7,1.9c1.1,0.3,2.2,0.5,3.3,0.6
	c2.7,0.3,5.4,0.6,8,0.5c-0.3,1.9-0.4,3.8-0.6,5.8c-4.3-0.8-8.7-1.5-13-2.3c-0.9-0.2-1.8-0.7-2.3,0.3c0-1.1-0.7-1.3-2.7-1.9
	c-0.7-0.2-1.4-0.4-2.1-0.7c-2.8-1.6-5.5-3.3-8.3-5c-0.1,0.2-0.1,0.4-0.2,0.7c-0.3-2.8-3.3-3.6-4.2-5.9c-0.2,0.1-0.3,0.2-0.5,0.3
	c1.5,2.1,3,4.1,4.5,6.2c0,0.2-0.1,0.3-0.1,0.5c3.9,3.6,8.2,6.4,13.1,8.4c0-0.2,0.1-0.4,0.1-0.6c0.2,0.6,0.6,1,1.5,1.2
	c3.3,0.9,6.7,1.8,10,2.5c1.2,0.3,2.5,0.4,3.8,0.5c0,1.8,0,3.5,0,5.3c-2.9-0.3-5.8-0.6-8.8-1c-0.1-0.6-0.8-0.8-2.3-1.5
	c-2.7-1.2-5.2-2.8-7.8-4.2c-0.5-0.3-1.1-0.4-1.8-0.6c-0.6-2.4-3-3.2-5-4.3c1.5,1.7,3,3.4,4.6,5.1c0.1,0,0.1-0.1,0.2-0.1
	c1.3,3,7.3,7.1,11.6,7.9c0.1-0.3,0.1-0.5,0.2-0.7c0.1,1,1,1.6,2.3,2c2.1,0.5,4.1,1.3,6.2,1.6c0.3,0,0.6,0.1,0.8,0.1
	c0.2,1.4,0.6,2.8,1.3,4.1c-2.2-0.3-4.3-0.7-6.5-1c0,0.1-0.1,0.1-0.1,0.2c-3.3-1.5-6.2-2.9-9.3-4.3c0,0,0,0,0,0
	c0-2.3-2.6-2.3-3.9-3.4c1.1,1.3,2.2,2.6,3.3,3.9c0.1-0.1,0.2-0.2,0.3-0.2c0.5,0.6,1,1.3,1.6,1.8c1.9,1.2,4,2.3,6,3.3
	c0.7,0.4,1.2,0.5,1.6,0.4c0,0.5,0.3,1,1.2,1.2c2.4,0.5,4.8,1.3,7.2,1.6v0c0,0.4,0,0.8,0.1,1.1c1,2.5,2.1,4.9,3.1,7.3
	c-0.6-0.2-1.5-0.5-2.4-0.7c-0.7,2.9,1.4,8,4.6,10.2c-1.4-0.2-2.2-0.4-3.1-0.5c-0.4,3.9,0.4,7.2,4.7,8.9c-0.2,0.2-0.4,0.4-0.6,0.6
	c-1.1-0.4-2.1-0.8-3.2-1.1c-0.1,3.7,1.8,6.2,4.7,8.2c-0.8-0.2-1.6-0.4-2.9-0.7c0.5,1.7,0.8,3.1,1.4,4.2c0.7,1.2,1.8,2.1,2.6,3.2
	c-0.3,0-0.8,0-1.3,0.1c0.6,1.7,1,3.2,1.1,4.8c-0.6-0.8-1.5-1.5-2.6-1.9c-5.7-2-8.9-0.4-11.9,4.5c-0.9,1.5,0,4.7,1.6,5.7
	c1.6,1,3.4,0.6,4.3-0.6c2.3-3,5.1-3.7,8.3-3.3c-0.1,0.2-0.1,0.5-0.2,0.7c-1.8-0.3-3.3,0-4.9,1c-1.8,1.1-2.1,2.7-1.7,4.6
	c0.4,1.8,2,2.4,3.5,2.4c1.7,0,3.4-0.4,3.8-2.5c2.2,2.5,7,3.2,10.1,1.5c1-0.6,1.8-1.2,2.3-1.9c0,0.1,0,0.2,0.1,0.3
	c0.4,2.1,2.2,2.6,3.9,2.5c1.6-0.1,3.1-0.7,3.5-2.5c0.4-1.8,0.1-3.3-1.6-4.4c-1.6-1.1-3.3-1.4-5.4-1c0-0.2-0.1-0.5-0.1-0.7
	c3.2-0.6,6,0.1,8.1,2.6c1.4,1.6,2.8,2.2,4.7,1.3c1.7-0.8,2.8-4.1,1.8-5.6c-1.5-2.3-2.9-4.8-6.1-5.3c-3.7-0.6-7.5,0.5-8.9,3.5
	c-0.1-2,0.2-3.9,1.5-5.9c-1.3,0.2-2.1,0.4-3,0.5c3.7-1.3,5-4,5-7.7c-0.9,0.2-1.8,0.4-2.6,0.6c2.9-2.1,4.9-4.4,4.6-8
	c-1.1,0.3-2.2,0.6-3.2,0.9c-0.2-0.2-0.3-0.5-0.5-0.7c4.5-1.6,5-4.9,4.6-8.8c-0.9,0.2-1.8,0.3-2.6,0.5c2.6-1.3,4.7-7.7,4-10.1
	c-0.9,0.2-1.8,0.4-3.1,0.8c2.1-2.4,3.5-4.7,3.9-7.3c1.5-0.4,3-0.8,4.5-1.1c0.9-0.2,1.2-0.6,1.2-1.2c0.4,0.1,0.9,0,1.6-0.4
	c2-1.1,4.1-2.1,6-3.4c0.7-0.4,1.1-1.1,1.6-1.8c0.1,0.1,0.2,0.2,0.3,0.2c1.1-1.3,2.2-2.6,3.3-3.9c-1.3,1.1-3.9,1.1-3.9,3.4
	c0,0,0,0,0,0c-3,1.4-6,2.8-9.3,4.3c0-0.1,0-0.1-0.1-0.2c-1.8,0.3-3.6,0.6-5.3,0.9c-0.1,0-0.2,0-0.2,0c0.1-0.1,0.1-0.2,0.2-0.3
	c0.8-1.1,1.4-2.5,1.8-4c1.8-0.4,3.6-1,5.4-1.5c1.3-0.4,2.2-1,2.3-2c0.1,0.2,0.1,0.4,0.2,0.7c4.3-0.8,10.3-4.9,11.6-8
	c0.1,0,0.1,0.1,0.2,0.1c1.5-1.7,3-3.4,4.5-5.1c-2,1.1-4.4,1.9-5,4.3c-0.6,0.2-1.2,0.3-1.8,0.6c-2.6,1.4-5.1,3-7.7,4.3
	c-1.5,0.7-2.1,0.9-2.2,1.5c-2.3,0.3-4.5,0.5-6.7,0.8c0-0.5,0-1.1,0-1.6c-0.1-1.2-0.2-2.4-0.3-3.7c0.7-0.1,1.4-0.2,2.1-0.3
	c3.4-0.7,6.7-1.7,10-2.6c0.9-0.2,1.3-0.6,1.5-1.2c0,0.2,0.1,0.4,0.1,0.6c4.9-2,9.2-4.9,13.1-8.5c0-0.2-0.1-0.3-0.1-0.5
	c1.5-2.1,3-4.1,4.5-6.2c-0.2-0.1-0.3-0.2-0.5-0.3c-0.9,2.3-3.9,3.1-4.1,5.9c-0.1-0.2-0.1-0.5-0.2-0.7c-2.7,1.7-5.5,3.4-8.2,5
	c-0.6,0.4-1.4,0.5-2.1,0.7c-2,0.6-2.6,0.9-2.7,1.9c-0.5-1-1.4-0.5-2.3-0.3c-3.8,0.7-7.6,1.4-11.4,2.1c-0.2-1.8-0.3-3.6-0.5-5.5
	c2.1-0.1,4.2-0.4,6.3-0.6c1.1-0.1,2.2-0.4,3.3-0.7c2.3-0.6,4.6-0.9,6.7-1.9c0.7-0.3,1-1.7,1.3-2.8c0,0.7-0.1,1.5-0.1,2.7
	c4.7-2.7,9-5.3,13.3-7.9c0-0.1,0-0.3,0-0.4c1.9-2.2,3.7-4.4,5.6-6.6C1875,630.4,1874.8,630.2,1874.6,630.1z"/>
<g id="_x32_nwTzQ_1_">
	<g>
		<path fill="#F15C6F" stroke="#F15C6F" stroke-miterlimit="10" d="M-1166.2,1630.7c-1.3,5-4.1,5.1-8.8,3.8
			c-11.8-3.3-23-7.6-32-16.3c-11.4-11-19.7-24.3-26.1-38.6c-4.4-10-8.5-20.3-10.7-31c-2.7-13.2-1.8-26.8,1.1-40.1
			c0.6-2.8,0.7-4.2-2.4-5.2c-6.9-2.3-12.3-6.2-21.3-2.6c-13.4,5.3-27.6,1.9-40.9-4.4c-3.1-1.5-8-0.2-11.7,1
			c-10.4,3.4-20.6,1.8-30.9,0c-1-0.2-2.5-0.4-3.2,0.1c-9,6.1-18.5,9.6-29.6,6.9c-3.2-0.8-6.6-0.5-9.7-0.6c-4.8,8.3-13.1,9.2-21,10.3
			c-5.4,0.7-10.9,0.1-14.9,0.1c-5.2,3.4-9.3,6.6-13.9,9c-4.6,2.4-9.7,3.8-15.6,6c3,4,6.3,7.7,8.8,11.8c9.9,15.9,19.3,31.9,15.8,52
			c-1.9,10.9-7.3,19-16.5,24.9c-9.8,6.3-20.1,11.1-32.1,10.1c-7.4-0.6-15.2,0.2-22-2.1c-7.7-2.6-14.6-7.8-21.7-12.3
			c-3.3-2-6-4.9-8.6-7c-8.2-0.5-16.6-0.2-24.8-1.7c-13.7-2.4-24.4-16.4-24.2-30.2c0.1-4,0.2-7.9,0.7-11.8c0.4-3.1-1.3-4-3.6-5
			c-6.1-2.8-12-5.6-14.4-12.8c-4.7-13.8-3.9-26.8,4.7-38.9c2.4-3.3,2.9-6,0-9.3c-8.8-9.7-9.3-21.2-6.8-33.3
			c2.4-11.8,10.7-16.9,21.4-20.3c18.3-5.7,36.1-4.5,53.3,3.5c3,1.4,5.2,4.6,7.8,7c1.1,1,2.2,2.8,3.3,2.8c1.6-0.1,4-1,4.7-2.3
			c6.5-11,16.4-17.6,27.9-22.2c2.7-1.1,6-2.5,8.6-1.9c4.7,1,6.5-1.4,8.6-4.6c1.8-2.8,3.9-5.4,6.1-7.9c7.6-9.2,17.3-12,28.6-8.7
			c2.9,0.9,4.6,0.3,6.4-1.9c12-15.7,27.7-19.3,46.2-14.2c1.2,0.3,2.9-0.5,4.1-1.3c5.2-3.6,10.1-7.6,15.4-10.9c8-5,16.1-4.4,23.9,0.9
			c3.9,2.7,7.7,5.6,11.8,8.6c24.1-14.5,38.5-14,56.9,2.7c6.2-4.7,13.6-6.1,21.3-6.3c3.4-0.1,4.7-1.8,5.3-5.2
			c2.5-13.7,10.4-24.2,22.2-31c6.6-3.8,14.3-5.8,21.7-8.3c2.1-0.7,4.7-0.1,7.1-0.1c0.3,0.6,0.6,1.2,0.9,1.7
			c-4.1,3.9-8.3,7.7-12.4,11.5c-7.6,7-14.8,14.3-19.1,23.9c-0.4,0.9-0.6,1.8-0.9,2.7c8.1,2.2,10.4,0.7,14.2-9.2
			c6.6-17,29.4-31.7,47.6-30.7c0.9,0.1,1.8,0.4,2.7,0.6c-0.2,2.3-0.3,4.3-0.5,6.6c-8.2,1.3-28.1,21-31.7,33c2.1-0.7,4.2-0.7,4.7-1.7
			c8.9-15.4,23.1-23.2,39.5-27.9c3.3-1,6.8-1.5,10.3-1.8c3-0.3,4.2,1.4,2.1,4c-2.1,2.6-4.6,5-7,7.4c-5.4,5.3-10.9,10.5-16.1,16
			c-1.2,1.3-1.4,3.6-2.1,5.6c3,1.7,4.4,0.9,6.1-1.7c12.6-18.4,30.3-25.4,52.2-22.8c1.2,0.1,2.4,0.7,5.3,1.7
			c-4.9,3.9-8.2,7.5-12.4,9.7c-8.1,4.2-14.7,10-20.6,17.2c0.7,0.4,1.2,0.8,1.8,0.9c9.9,2.1,19.7,4.4,29.6,6.2c2,0.4,4.2-0.9,6.3-1.4
			c0.1,0,0.2-0.2,0.4-0.3c10.4-5,15.1-13.7,17.1-24.8c1.7-9.5,10-14.6,17.4-19.7c13.2-9,28.4-12.4,43.6-16.3c17.2-4.5,33.6-1.5,50,3
			c15.1,4.1,30.3,7.7,45.3,12c11.3,3.2,21.3,9.2,30.8,16c3.5,2.5,7.4,4.5,10.7,7.3c4.5,3.6,8.7,7.6,12.7,11.8
			c1.3,1.3,1.2,3.9,1.7,5.9c-2,0.4-4,0.9-6,1.2c-1.5,0.3-3,0.5-4.5,0.5c-1.4,0-2.9,0.1-4-0.5c-2.7-1.5-5.3-3.4-7.4-4.8
			c-2.6,1.7-5,4.5-7.2,4.3c-2.3-0.1-4.4-3.1-6.5-4.8c-5.4,4.1-5.4,4.1-15.2-2.8c-0.8,1.6-1.7,3.4-2.7,5.5c-3.5-2.6-5.8-4.4-8.4-6.4
			c-1.6,1.9-3.1,3.6-4.3,5c-3.6-1-6.9-2-10.3-2.5c-0.3,0-1.1,3.3-1.5,4.5c3.6,1.2,6.3,2.1,10.1,3.4c2-1.5,4.8-1.8,7.6,1.8
			c0.5,0.7,3.4-0.4,5.2-1.3c3,1.3,5.5,4.7,9.9,2.4c0.7-0.3,2.7,1.2,3.6,2.3c2.2,2.9,4.4,2.4,6.7,0.4c5-4.3,5-4.3,8,1.5
			c0.4,0.7,0.9,1.3,1.4,1.9c6.6-4.1,6.6-4.1,11.1,2.8c1.1-1.5,2-3,3.2-4.2c1.2-1.2,2.7-2,4-3c0.8,1.5,2.2,2.9,2.5,4.5
			c1.8,12.6-4.8,20.1-18.3,20.1c-18.9,0-37.9-0.2-56.7-1.4c-5.4-0.3-10.6-4.3-16-6.3c-2.3-0.8-5.5-2.1-7.2-1.2
			c-9.6,5.5-20.3,4.6-30.6,5.7c-11.6,1.3-22.9-0.9-33.8-4.3c-10.4-3.2-20.6-7.1-30.9-10.7c-1.7-0.6-3.4-1-5.2-1.4
			c-0.9,2-1.7,3.5-2.6,5.4c32.3,18.8,61.2,43.1,96.1,58.4c-4.3,7.2-10.3,12.1-17.6,14.8c-18.1,6.9-36.6,13-54.7,20
			c-6.1,2.3-11.5,6.3-17.3,9.5c-3.3,1.8-6.7,3.5-11.3,5.8c3.7,3.1,6.3,6.6,9.9,8.1c13.3,5.6,26.8,10.7,40.3,15.8
			c3.1,1.2,5.6,0.3,7.7-2.6c5.7-7.8,13.4-12.9,23-14.6c21.4-3.8,42.8-5.8,64.5-3.5c4.6,0.5,8.9,2.5,13.5,3.4c2.3,0.4,5.3,0.8,7-0.3
			c13.7-8.9,28.9-9.4,44.3-8.1c10,0.8,20.1,2.2,30,4.1c10.4,2,18.8,7.6,25.6,17.3c-2.2,0.1-3.6,0.1-4.9,0.4
			c-1.6,0.3-4.1,0.3-4.5,1.2c-2.3,5.2-5.6,3.2-9.1,1.4c0,0.6-0.1,1.1-0.1,1.7c-2.1,0-4.2,0.4-6.2-0.1c-2.2-0.5-3.7-1.5-5.3,1.4
			c-0.6,1.1-3.9,0.7-6.5,1c-0.4,4.8-3.8,5-8.1,3.4c0.2,0.6,0.4,1.1,0.6,1.7c-5.4,1.6-10.8,3.3-17.1,5.1c0-0.3,0,0.7-0.1,1.3
			c-2.5,0.7-6.7,1.2-6.9,2.1c-0.3,2.6,1.1,5.4,2.4,9.8c5-9.2,9.2-3.6,13.4-3c2-0.3,4.1-0.6,6.1-1c1-0.2,2.8-0.7,2.9-1.3
			c1.1-7,5.1-4.3,9-2.3c2.3-5.8,6.1-4.6,10.2-2c0.8-1.5,1.5-2.7,2.4-4.4c1.8,1,3.4,2,5.4,3.1c1.7-1.8,3.3-5,6.2-1.1
			c0.4,0.6,3,0.4,3.8-0.3c2-1.9,4.1-4.1,5.3-6.5c1.6-3.2,3.4-3,5.9-1.8c-1.8,9.9-3.2,19.8-5.4,29.5c-2.5,11.2-8.7,20.1-17.5,27.5
			c-8.9,7.4-18.8,13-28.8,18.5c-19.5,10.8-40.7,14.4-62.6,13.8c-10.7-0.3-21.4-2.8-31.9-5.1c-10.9-2.3-21.9-4.7-32.2-8.6
			c-13.3-5.1-28-7.9-37.5-20.1c-1.2-1.6-2.8-3.1-3.4-4.9c-1.9-6.1-6.9-8-12.3-9.7c-19.2-5.9-37.8-13.6-53.2-26.3
			c-11.3-9.4-24.1-18-30.2-32.6c-2.7-6.4-7.1-2-12.1-2.1c2.6,4.2,4.5,7.4,6.5,10.6c11.7,18.8,27.8,33.7,43.6,48.9
			c8.7,8.4,18,16.2,26.8,24.5c1.4,1.3,2.8,4.7,2.1,5.6c-1.2,1.7-4.4,3.7-6.1,3.2c-5.3-1.5-10.8-3.5-15.5-6.5
			c-17.6-11.1-30.4-27.2-43.9-42.5c-6.5-7.3-12.8-14.9-18.9-22.5c-3.4-4.3-6.8-8.7-9.2-13.6c-3.2-6.6-8.4-8.6-16.4-8.4
			c1.9,4.5,3.3,8.7,5.5,12.6c11.4,21.1,25.3,40.5,41.4,58.3c7.2,8,14.5,15.9,22,23.6c3.2,3.3,3.5,6.1,0.3,9.6
			c-11.6-3.2-22.4-7.9-31.3-16.5c-22.7-22-40.6-47.4-53.4-76.4c-1-2.3-2.3-4.5-2.8-6.9c-1.3-5.7-4.9-6.3-10.7-5
			c0.5,3.4,0.3,6.9,1.5,10c6.1,16.3,14.4,31.4,24.1,45.7c8.9,13.2,18.2,26,27.3,39.1c1.4,2.1,2.4,4.5,4,7.6
			c-15.2-2.5-26.1-10.2-35.4-20.3c-18.9-20.4-32.8-43.8-41.2-70.4c-1.4-4.4-3.1-8.9-3.1-13.3c0-4.3-1.9-5.4-5.2-6
			c-1.6-0.3-3.2-0.7-5.8-1.3c-0.5,3.1-0.9,6.1-1.4,9.2c-2.7,18.4,1.3,36,8.5,52.4c4.5,10.4,12.7,19.3,19.9,28.3
			c5,6.2,11.2,11.3,16.8,17c1.8,1.8,3,4.3,4.8,6.1C-1170.8,1628.1-1168.6,1629.1-1166.2,1630.7z M-820.6,1535.4
			c4.2-7.9,4.2-8-2.2-12.2c-1.6-1.1-3.4-2.1-5.3-2.7c-14.5-4.9-29.6-5.9-44.8-5.8c-11.1,0.1-21.2,3.6-30.6,9.5
			c-2.7,1.7-5.2,2-8.7,0.4c-5.3-2.5-11.3-4.3-17.1-4.8c-19.1-1.7-38.2-0.5-57,4c-8.6,2.1-16.4,5.5-22,12.7c-5,6.5-9.5,7.9-17.5,4.8
			c-8.9-3.5-18-6.8-26.8-10.6c-7.9-3.4-16-6.6-21.5-13.8c-2.2-2.9-2.9-5.2,1.5-6.7c2.4-0.8,4.5-2.1,6.8-3.2
			c14.9-7,29.6-14.3,44.7-20.8c9-3.8,18.7-6,27.8-9.5c6-2.3,12.4-4.8,15.7-11.5c-3.3-1.5-6.4-2.6-9.2-4.4
			c-11-6.8-21.8-13.9-32.7-20.9c-13.7-8.9-27.4-17.9-41.2-26.8c-2.5-1.6-5-3.3-7.8-4.4c-7.7-3-15.5-6-23.4-8.4
			c-8.1-2.5-16.3-4.5-24.6-6.2c-8.4-1.7-17-3-25.5-4.2c-8.5-1.2-17.1-2.3-25.7-3.1c-5.5-0.5-11.1-0.2-16.6-0.3
			c-6.3-0.2-12.7-1.2-18.9-0.7c-7.6,0.5-15.1,2.2-22.6,3.3c-5.2,0.7-10.5,1.8-15.7,1.6c-17.6-0.8-30.2,7.9-38.2,22.1
			c-6.1,10.8-9,23.3-6.9,36.4c2.7,17.1,9.6,31.8,25.4,40.1c14.1,7.5,28.9,13.8,43.6,20.1c12.4,5.3,25.5,7.8,39,8.5
			c14.8,0.8,29.5,2,44.3,2.8c3.2,0.2,6.4-0.5,10.7-0.9c-1.9-1-2.5-1.3-4.2-2.2c3.3,0,5.6,0.5,7.5-0.1c4.3-1.4,6.3,0.4,8.1,4.1
			c4.2,8.6,9.4,16.4,17.2,22.3c2.7,2,5,4.4,7.4,6.7c16.4,15.8,36.3,25.3,58,31.5c6.1,1.7,11.8,3.4,14.5,10.5c3,8,9.7,12.9,17.4,16.2
			c21.6,9.2,43.9,16,67,20.4c20.5,3.8,40.6,2.5,59.9-4.6c12.5-4.6,24.2-11.5,35.6-18.6c14.6-9.1,24.8-21.8,27.2-39.6
			c0.5-3.8,1.1-7.6,1.8-12.5c-6.3,4.2-11.5,6.7-18,3.2c-3,6.8-6.4,0.2-9.8,0.2c-2.7,5.4-2.8,5.4-9.1,2.2c-1.6,1.9-3,5.2-4.6,5.2
			c-4.1,0.1-7.8,3.6-12.3,0.6c-1.6-1-4.7,0.4-7.2,0.6c-1.6,0.1-4.3,0.5-4.8-0.3c-2.3-3.6-4.1-7.5-5.6-11.4c-0.4-1,0.6-3.3,1.6-3.8
			c3.2-1.5,6.6-2.3,9.9-3.5c0.8-0.3,1.5-1.1,2.3-1.4c3.7-1.6,8.3-0.8,11.3-4.5c0.3-0.3,1.9,0.3,2.8,0.6c1,0.3,2,0.6,3.1,0.9
			c0.5-5.3,0.5-5.3,6.1-5.8c0.7-0.1,1.4-0.8,2.1-1c1.6-0.4,3.3-0.8,5-0.9c2.4-0.3,4.9-0.3,7.3-0.5c0-0.5,0-0.9,0.1-1.4
			C-824.4,1533.4-822.6,1534.3-820.6,1535.4z M-868,1382.9c0.2-0.4,0.5-0.8,0.7-1.2c-2.8-2.5-5.3-5.4-8.4-7.5
			c-6.1-4.2-12.9-7.6-18.8-12c-13.7-10.3-29.6-14.7-45.9-18.3c-10.5-2.3-21.1-4.6-31.5-7.4c-9.6-2.6-19.2-4.1-29.1-2.1
			c-8,1.6-15.9,3.6-23.8,5.6c-14.2,3.7-26.9,9.8-37.5,20.5c-5.2,5.3-7.4,11.5-7.8,18.3c-0.3,5.8-2.8,9.2-7.4,11.9
			c-3,1.8-5.7,4.2-9.6,7.2c4.9,1.8,8.2,3.1,11.6,4.4c2.2,0.8,3.9,0.9,5.4-1.6c2.9-4.9,7-5.1,12-3c9.2,3.8,18.4,7.8,27.9,10.3
			c12.3,3.3,24.7,6.9,37.7,4.5c10.2-1.9,21-0.4,30.4-6.6c1.1-0.7,3.9,0.6,5.6,1.4c3,1.4,5.6,3.6,8.7,4.7c15.6,5.9,31.9,4.8,48.1,4.7
			c7.9-0.1,15.9-1.1,23.8-2.5c5-0.9,6.6-4.1,5.8-9.3c-4.4,2.4-7.9,1.1-9.9-2c-2.8,0.3-5.1,1.3-6.7,0.6c-1.8-0.9-3-3.2-4.4-4.9
			c-6.3,4.4-6.4,4-12.6,1.2c-3.6-1.6-8.3-3.2-11.9-2.3c-5.2,1.2-9.4-4.9-14.4-1.1c-0.1,0.1-1.2-1.4-1.9-2c-0.9-0.7-1.8-1.5-2.8-1.8
			c-3.3-0.8-6.7-1.4-9.8-2c0.8-1.6,1.5-2.6,1.9-3.6c1.1-2.9,1.6-6,3.1-8.7c1.7-3.1,4.4-4,7.3-1c1.1,1.1,2.4,2,2.7,2.4
			c2.9-1.9,5.3-4.7,7.1-4.4c2.5,0.4,4.5,3.2,7.1,5.3c6.9-11.4,8.7,1.7,12.5,2.5c2.7-1.8,5-4.5,7-4.3c2.3,0.2,4.4,3,6.9,4.8
			c1-1.4,1.6-2.9,2.8-3.7c1.2-0.8,3.9-1.5,4.3-1c3.3,4.2,6.9,6.1,12.1,3.6C-869.4,1382.4-868.7,1382.8-868,1382.9z M-1438.1,1583.3
			c-0.3-0.1-0.7-0.1-1-0.2c-0.3-3.3-0.1-6.7-0.9-9.9c-0.7-3.4-2-6.7-3.5-9.8c-1.2-2.5-3.1-4.6-4.5-7c-3-5.3-5.4-11.1-9-16.1
			c-4.5-6.3-8.6-13.8-18.3-12.9c-1.5,0.1-3.2,0.2-4.4,1c-4.9,3.1-9.2,7.7-14.5,9.4c-6.9,2.3-7.8,5.6-7.8,12.4
			c-0.1,18.6-8.7,34-21.2,47.3c-5.4,5.8-5.3,6.9,1.2,11.6c10.1,7.3,21.8,10.1,33.8,12.4c10.5,2,20.1,0,28.9-6.1
			c1.7-1.2,3.8-1.8,5.6-3c2.6-1.6,6.9-1.6,5.7-6.7c-0.2-0.7,1.6-1.9,2.5-2.9c1.5-1.7,3.7-3.2,4.3-5.2
			C-1439.6,1593-1439,1588.1-1438.1,1583.3z M-1313.8,1491.2c-10.8-10.8-17.7-22.3-20.2-36.2c-0.9-4.7-1.9-9.4-2.5-14.2
			c-2-14.9-2.2-29.5,5.7-43.1c0.8-1.4,0.6-3.9,0-5.5c-2.2-5.6-10.7-10-17.8-9.6c-10.6,0.7-19.3,6-23.9,14.8
			c-4.7,9.1-7,19.5-9.8,29.5c-1.1,3.8-1.4,8-0.9,11.9c2.2,16.2,8.5,30.6,20,42.4c11,11.3,24,17,40,13.3
			C-1320.4,1493.9-1317.6,1492.5-1313.8,1491.2z M-1262.5,1495.4c0-0.5,0.1-0.9,0.1-1.4c-18.6-10-27.6-26.3-29.5-46.3
			c-1.8-19.9,4.1-37.6,19.6-51.8c-1-1.2-1.9-2.6-3.1-3.7c-8.7-7.6-18.5-9.3-29.6-6.2c-14.4,4-23.7,13.1-25.8,27.7
			c-1.3,9.2-0.4,18.8,0.2,28.1c0.8,12.9,3.8,25,11.7,35.9c10.7,14.7,24.5,22.6,42.9,21.2C-1271.5,1498.5-1267,1496.6-1262.5,1495.4z
			 M-1356.8,1494.3c-3.3-3.8-7.4-5.4-10.5-8.7c-6.3-6.6-11.1-13.7-14.9-21.9c-7.3-15.8-9.4-31.7-3.2-48.3c1.6-4.3,2.3-9,3.8-13.4
			c1.3-3.5,0-4.7-3.3-5.5c-16.5-4.1-33.7,4.7-40.8,20c-6.1,12.9-6.9,26.3-4.5,39.8c2.2,12.5,7.5,23.7,17.4,32.2
			c11.3,9.8,25.1,12.3,39.4,12.7C-1367.4,1501.4-1361.8,1498.9-1356.8,1494.3z M-1508.5,1543.2c-2,0.4-3.9,0.8-5.8,1
			c-11.5,1.2-22.6,0.3-32-7.4c-7.1-5.9-7.4-6-13.6,1.1c-0.5,0.6-1,1.3-1.6,1.9c-5.6,5.9-8.2,13.4-11.7,20.7
			c-5.7,12.1-2.3,25.8,5.6,32.8c10.6,9.4,24.9,10.6,37.3,3.6c8.8-5,12.6-13.4,16.6-21.8C-1509.1,1565.2-1506.3,1554.9-1508.5,1543.2
			z M-1474.6,1435c-1.4,0.2-3.2,0.2-4.9,0.7c-9.8,2.6-17.7,8.4-23.8,16.1c-5.6,7.1-8.3,15.8-6.8,24.7c1.6,9.4,4.9,18.4,7.6,27.6
			c0.5,1.5,1.4,3.2,2.7,4.1c7.8,6,14.8,12.6,25.2,14.7c12.4,2.5,23.7,1.9,34-5.7c1.6-1.2,2.8-3,4.7-5.1c-5.1-2.4-9.7-3.9-13.6-6.5
			c-15-9.7-21.4-24.4-23.2-41.4C-1473.7,1454.7-1473.9,1445.3-1474.6,1435z M-1397.1,1502.6c-1.1-0.6-1.5-0.9-1.9-1
			c-29.5-8.2-39.1-36.8-38-60.7c0.4-7.7,2.9-15.2,4.7-22.8c0.6-2.7,0.5-4.8-2.6-5.3c-5.5-0.9-11-1-15.6,2.9
			c-10.2,8.5-16.2,19.3-16.3,32.8c0,7.1,0.2,14.4,1.4,21.4c3.4,19.2,14.7,32.3,33.3,37.9
			C-1420.4,1511.3-1408.1,1511.9-1397.1,1502.6z M-1485.6,1525c-28.4-11.6-33.3-35-31.1-62c-4.6-1.3-8.5,0.3-11.8,3.4
			c-9.5,9-19.1,17.7-21.9,31.7c-1.2,5.8-4.3,11.4-2.1,17.2c1.9,5.1,4.8,9.9,7.9,14.4c5.4,7.6,13.6,9.8,22.4,10.4
			c3.3,0.2,7.2,0.8,9.7-0.7c3.9-2.2,7.4-3.2,12-3.6C-1494.3,1535.2-1489.2,1531.1-1485.6,1525z M-1521.5,1456.8
			c-3.1-2.2-5.5-4.4-8.3-5.6c-12-5.1-24.5-8.4-37.7-6.4c-6,0.9-12,2.6-17.5,5.1c-8.4,3.8-11.4,11.8-12.3,20.4
			c-0.9,8.8,1.4,16.9,8.8,22.6c1.3,1,4,1.1,5.7,0.6c8.8-2.7,17.4-5.7,26.1-8.7c1.6-0.6,3.8-1.1,4.6-2.3
			C-1544.8,1470.9-1535.3,1462-1521.5,1456.8z M-1596.6,1533.3c1,2.8,2.3,8.2,4.9,12.8c4,6.9,12.1,6.7,17.1,0.7
			c5.3-6.3,11.2-12,16.6-18.2c1-1.1,1.4-3.6,0.9-4.9c-3.5-7.4-4.4-14.9-1.9-22.7c0.6-1.9,1.3-3.8,1.9-5.7c1.1-3.9,0.1-4.9-3.8-4.1
			c-0.8,0.2-1.6,0.4-2.4,0.5C-1582.5,1496-1596.2,1509.6-1596.6,1533.3z M-1180.9,1627.5c0.3-0.5,0.6-1,0.8-1.5
			c-7.1-7.6-14.2-15.3-21.4-22.9c-14.3-15-21.8-33.4-25-53.4c-1.8-11-0.3-22.5-0.5-33.7c0-1.8-0.7-4.3-2-5.2
			c-2.5-1.8-5.6-2.6-8.6-3.9c-0.4,1.1-0.8,1.8-0.9,2.6c-0.9,9.6-2.2,19.1-2.3,28.7c-0.1,5.9,0.9,12,2.6,17.6
			c4.5,15,12,28.7,20.2,41.9c6.5,10.5,14.8,19.3,25.7,25.1C-1188.6,1624.7-1184.7,1626-1180.9,1627.5z M-1094.6,1619.6
			c-0.5-0.8-0.8-1.8-1.4-2.5c-7.4-8.3-14.6-16.7-22.3-24.7c-18-18.8-30.9-41.1-43-63.9c-3.5-6.5-3.4-6.8-11.5-4.7
			c0.6,1.7,1,3.5,1.8,5c6.4,12.2,12.6,24.4,19.4,36.4c8.9,15.7,20.6,29.2,33.6,41.6C-1111.5,1612.9-1103.8,1617.4-1094.6,1619.6z
			 M-1140.7,1617.1c0.2-0.4,0.5-0.7,0.7-1.1c-0.2-0.4-0.4-0.9-0.7-1.3c-12.3-17.5-24.8-34.9-36.9-52.6c-7-10.2-11.5-21.6-14.2-33.8
			c-1.9-8.7-1.9-8.7-10.9-9.4c-0.1,0-0.3,0.1-1,0.3c0.9,8.2,0.5,16.7,4.7,24.3c6.9,12.7,13.9,25.5,21.5,37.8
			c6.7,10.7,14.5,20.6,24.9,28.1C-1148.7,1612.2-1144.7,1614.6-1140.7,1617.1z M-1141,1524.5c1.7,3.1,3.1,6.4,5.1,9.1
			c7,9.2,13.9,18.6,21.4,27.3c12.7,14.7,25.1,29.7,40.8,41.4c5.1,3.8,11.2,6.4,16.9,9.5c0.5-0.7,1-1.4,1.5-2.1
			c-2.1-2.1-4.2-4.3-6.4-6.2c-25.5-22.2-49.5-45.8-67.5-74.8C-1132.2,1523.8-1135.6,1522.7-1141,1524.5z M-1147.2,1385
			c2.3,0.4,4.7,0.5,6.7,1.4c4.3,1.9,6.9,0,9.8-3c4.4-4.4,9.4-8.4,14.3-12.3c3.2-2.5,6.9-4.6,11.1-7.3
			C-1120.7,1360.1-1142.2,1371.3-1147.2,1385z M-1236.5,1383.8c8.3,1.3,7.7,1,10.8-5.7c2.8-5.9,6.4-11.5,10.7-16.4
			c4.6-5.2,10.4-9.4,16.2-14.5C-1217.7,1347.9-1235.2,1365.9-1236.5,1383.8z M-1179.1,1382c4.5,0.4,8.5,1,12.6,1.2
			c1,0,2.7-0.9,3.1-1.8c3.8-8.9,11.5-14.4,17.9-20.9c1.3-1.3,2.7-2.6,4.5-4.2C-1152.6,1355.2-1175.7,1370.7-1179.1,1382z
			 M-1166.3,1348c-0.1-0.4-0.3-0.9-0.4-1.3c-1.6,0.2-3.2,0.1-4.7,0.5c-16.7,4.3-25.9,16.9-33.6,30.9c-0.4,0.7,0.3,2.7,1.1,3.1
			c3.1,1.6,8-0.3,9.5-3.5c4.4-9.3,10.7-16.9,19.2-22.8C-1172.1,1352.9-1169.2,1350.4-1166.3,1348z"/>
		<path fill="#F15C6F" stroke="#F15C6F" stroke-miterlimit="10" d="M-820.6,1535.4c-2-1.1-3.8-2-5.5-2.9c0,0.5,0,0.9-0.1,1.4
			c-2.4,0.2-4.9,0.2-7.3,0.5c-1.7,0.2-3.3,0.5-5,0.9c-0.7,0.2-1.4,0.9-2.1,1c-5.6,0.5-5.6,0.5-6.1,5.8c-1.1-0.3-2.1-0.6-3.1-0.9
			c-1-0.2-2.5-0.9-2.8-0.6c-3,3.7-7.6,2.9-11.3,4.5c-0.8,0.4-1.5,1.1-2.3,1.4c-3.3,1.2-6.7,2-9.9,3.5c-1,0.5-2,2.8-1.6,3.8
			c1.5,4,3.4,7.9,5.6,11.4c0.5,0.8,3.2,0.4,4.8,0.3c2.4-0.2,5.6-1.6,7.2-0.6c4.5,3,8.3-0.6,12.3-0.6c1.5,0,3-3.3,4.6-5.2
			c6.3,3.3,6.4,3.2,9.1-2.2c3.4,0,6.8,6.6,9.8-0.2c6.5,3.5,11.7,1,18-3.2c-0.7,4.9-1.3,8.7-1.8,12.5c-2.4,17.8-12.6,30.6-27.2,39.6
			c-11.4,7-23.1,14-35.6,18.6c-19.2,7.1-39.4,8.4-59.9,4.6c-23.1-4.3-45.4-11.2-67-20.4c-7.7-3.3-14.5-8.2-17.4-16.2
			c-2.6-7.2-8.4-8.8-14.5-10.5c-21.7-6.2-41.6-15.7-58-31.5c-2.4-2.3-4.7-4.7-7.4-6.7c-7.8-5.8-13-13.7-17.2-22.3
			c-1.8-3.7-3.8-5.5-8.1-4.1c-1.9,0.6-4.2,0.1-7.5,0.1c1.7,0.9,2.3,1.2,4.2,2.2c-4.3,0.4-7.5,1.1-10.7,0.9
			c-14.8-0.8-29.5-2-44.3-2.8c-13.5-0.7-26.6-3.2-39-8.5c-14.7-6.3-29.5-12.6-43.6-20.1c-15.8-8.3-22.6-22.9-25.4-40.1
			c-2.1-13.1,0.8-25.6,6.9-36.4c8-14.2,20.7-22.8,38.2-22.1c5.2,0.2,10.5-0.8,15.7-1.6c7.6-1,15-2.8,22.6-3.3
			c6.3-0.4,12.6,0.5,18.9,0.7c5.5,0.2,11.1-0.1,16.6,0.3c8.6,0.8,17.2,1.9,25.7,3.1c8.5,1.2,17.1,2.5,25.5,4.2
			c8.3,1.7,16.5,3.7,24.6,6.2c7.9,2.4,15.6,5.4,23.4,8.4c2.8,1.1,5.3,2.8,7.8,4.4c13.7,8.9,27.4,17.9,41.2,26.8
			c10.9,7,21.7,14,32.7,20.9c2.8,1.7,6,2.8,9.2,4.4c-3.3,6.7-9.7,9.1-15.7,11.5c-9.1,3.5-18.8,5.7-27.8,9.5
			c-15.1,6.5-29.8,13.8-44.7,20.8c-2.3,1.1-4.4,2.4-6.8,3.2c-4.5,1.5-3.8,3.8-1.5,6.7c5.5,7.2,13.7,10.4,21.5,13.8
			c8.8,3.8,17.9,7.1,26.8,10.6c8,3.1,12.5,1.7,17.5-4.8c5.5-7.2,13.3-10.6,22-12.7c18.8-4.5,37.8-5.7,57-4
			c5.8,0.5,11.8,2.3,17.1,4.8c3.5,1.7,6,1.3,8.7-0.4c9.4-5.9,19.5-9.4,30.6-9.5c15.2-0.1,30.2,0.9,44.8,5.8c1.9,0.6,3.7,1.6,5.3,2.7
			C-816.4,1527.4-816.4,1527.5-820.6,1535.4z M-1087.9,1453.1c0,6,5,11.2,10.8,12.5c6.2,1.3,11.3-0.4,15.1-5
			c1.7-2.1,2.4-5.6,2.1-8.3c-0.7-5.5-5.9-7.2-9.9-9.6C-1077.8,1437.8-1087.9,1443.9-1087.9,1453.1z M-1083.8,1413
			c0.9,0.1,1.8,0.2,2.6,0.3c0-2.5,0-5.1,0-7.6c-0.7,0-1.3-0.1-2-0.1C-1083.3,1408.1-1083.6,1410.6-1083.8,1413z"/>
		<path fill="#F15C6F" stroke="#F15C6F" stroke-miterlimit="10" d="M-868,1382.9c-0.6-0.1-1.4-0.5-1.8-0.3
			c-5.2,2.6-8.8,0.6-12.1-3.6c-0.4-0.5-3.1,0.2-4.3,1c-1.1,0.7-1.8,2.3-2.8,3.7c-2.5-1.9-4.6-4.6-6.9-4.8c-2-0.2-4.2,2.5-7,4.3
			c-3.7-0.8-5.5-13.9-12.5-2.5c-2.6-2.1-4.7-4.9-7.1-5.3c-1.8-0.3-4.2,2.5-7.1,4.4c-0.4-0.3-1.7-1.3-2.7-2.4c-2.9-3-5.6-2.1-7.3,1
			c-1.5,2.6-2,5.8-3.1,8.7c-0.4,1.1-1.1,2.1-1.9,3.6c3.1,0.6,6.5,1.2,9.8,2c1,0.3,1.9,1.1,2.8,1.8c0.7,0.6,1.8,2.1,1.9,2
			c5-3.8,9.2,2.3,14.4,1.1c3.6-0.9,8.2,0.7,11.9,2.3c6.3,2.8,6.3,3.2,12.6-1.2c1.4,1.7,2.5,4,4.4,4.9c1.5,0.7,3.9-0.3,6.7-0.6
			c2.1,3.1,5.6,4.4,9.9,2c0.9,5.1-0.7,8.4-5.8,9.3c-7.8,1.3-15.8,2.4-23.8,2.5c-16.2,0.1-32.5,1.2-48.1-4.7
			c-3.1-1.1-5.7-3.3-8.7-4.7c-1.8-0.8-4.5-2.2-5.6-1.4c-9.4,6.1-20.2,4.6-30.4,6.6c-13,2.5-25.5-1.2-37.7-4.5
			c-9.5-2.6-18.7-6.5-27.9-10.3c-5.1-2.1-9.1-1.9-12,3c-1.5,2.5-3.2,2.4-5.4,1.6c-3.4-1.3-6.7-2.5-11.6-4.4c3.9-3,6.6-5.3,9.6-7.2
			c4.6-2.8,7.1-6.2,7.4-11.9c0.4-6.8,2.6-13,7.8-18.3c10.6-10.6,23.3-16.8,37.5-20.5c7.9-2.1,15.8-4,23.8-5.6
			c9.8-2,19.4-0.4,29.1,2.1c10.4,2.8,21,5,31.5,7.4c16.3,3.6,32.2,8,45.9,18.3c5.9,4.5,12.7,7.8,18.8,12c3.1,2.1,5.6,5,8.4,7.5
			C-867.6,1382.1-867.8,1382.5-868,1382.9z"/>
		<path fill="#F15C6F" stroke="#F15C6F" stroke-miterlimit="10" d="M-1438.1,1583.3c-0.9,4.8-1.5,9.7-2.9,14.4
			c-0.6,2-2.8,3.5-4.3,5.2c-0.9,1-2.7,2.2-2.5,2.9c1.2,5-3.2,5.1-5.7,6.7c-1.8,1.1-3.9,1.8-5.6,3c-8.8,6.2-18.4,8.1-28.9,6.1
			c-11.9-2.3-23.7-5-33.8-12.4c-6.4-4.7-6.6-5.8-1.2-11.6c12.5-13.4,21.1-28.7,21.2-47.3c0-6.8,0.9-10.1,7.8-12.4
			c5.3-1.8,9.6-6.3,14.5-9.4c1.2-0.8,2.9-0.8,4.4-1c9.7-0.9,13.8,6.5,18.3,12.9c3.5,5,5.9,10.7,9,16.1c1.4,2.4,3.3,4.5,4.5,7
			c1.5,3.1,2.8,6.4,3.5,9.8c0.7,3.2,0.6,6.6,0.9,9.9C-1438.8,1583.2-1438.4,1583.2-1438.1,1583.3z"/>
		<path fill="#F15C6F" stroke="#F15C6F" stroke-miterlimit="10" d="M-1313.8,1491.2c-3.7,1.3-6.5,2.7-9.5,3.3
			c-16,3.6-29.1-2-40-13.3c-11.4-11.8-17.8-26.3-20-42.4c-0.5-3.9-0.1-8.1,0.9-11.9c2.8-10,5.1-20.4,9.8-29.5
			c4.6-8.8,13.3-14.2,23.9-14.8c7.2-0.5,15.6,4,17.8,9.6c0.6,1.6,0.8,4.1,0,5.5c-7.9,13.6-7.7,28.3-5.7,43.1
			c0.6,4.8,1.7,9.5,2.5,14.2C-1331.5,1468.9-1324.6,1480.4-1313.8,1491.2z"/>
		<path fill="#F15C6F" stroke="#F15C6F" stroke-miterlimit="10" d="M-1262.5,1495.4c-4.5,1.2-9,3.2-13.5,3.5
			c-18.4,1.4-32.1-6.5-42.9-21.2c-7.9-10.8-10.9-23-11.7-35.9c-0.5-9.4-1.5-19-0.2-28.1c2.1-14.6,11.4-23.8,25.8-27.7
			c11-3,20.9-1.4,29.6,6.2c1.2,1,2.1,2.5,3.1,3.7c-15.5,14.2-21.4,31.9-19.6,51.8c1.8,20,10.9,36.3,29.5,46.3
			C-1262.5,1494.5-1262.5,1494.9-1262.5,1495.4z"/>
		<path fill="#F15C6F" stroke="#F15C6F" stroke-miterlimit="10" d="M-1356.8,1494.3c-5,4.6-10.6,7.1-16.6,6.9
			c-14.3-0.3-28-2.9-39.4-12.7c-9.9-8.5-15.2-19.7-17.4-32.2c-2.4-13.5-1.5-26.9,4.5-39.8c7.2-15.4,24.4-24.1,40.8-20
			c3.3,0.8,4.5,2,3.3,5.5c-1.5,4.4-2.2,9-3.8,13.4c-6.1,16.6-4.1,32.5,3.2,48.3c3.8,8.2,8.6,15.2,14.9,21.9
			C-1364.2,1488.9-1360.1,1490.5-1356.8,1494.3z"/>
		<path fill="#F15C6F" stroke="#F15C6F" stroke-miterlimit="10" d="M-1508.5,1543.2c2.3,11.7-0.5,22-5.2,31.9
			c-3.9,8.4-7.8,16.8-16.6,21.8c-12.4,7-26.7,5.7-37.3-3.6c-8-7.1-11.4-20.8-5.6-32.8c3.4-7.2,6.1-14.7,11.7-20.7
			c0.6-0.6,1-1.3,1.6-1.9c6.2-7,6.5-7,13.6-1.1c9.4,7.8,20.5,8.6,32,7.4C-1512.5,1544-1510.6,1543.5-1508.5,1543.2z"/>
		<path fill="#F15C6F" stroke="#F15C6F" stroke-miterlimit="10" d="M-1474.6,1435c0.7,10.3,1,19.7,1.9,29.1
			c1.8,17.1,8.2,31.8,23.2,41.4c4,2.6,8.5,4.1,13.6,6.5c-1.9,2.1-3.1,3.9-4.7,5.1c-10.3,7.7-21.6,8.2-34,5.7
			c-10.5-2.1-17.5-8.8-25.2-14.7c-1.2-0.9-2.2-2.6-2.7-4.1c-2.7-9.1-6-18.2-7.6-27.6c-1.5-8.9,1.2-17.6,6.8-24.7
			c6.1-7.7,14-13.5,23.8-16.1C-1477.8,1435.2-1476,1435.2-1474.6,1435z"/>
		<path fill="#F15C6F" stroke="#F15C6F" stroke-miterlimit="10" d="M-1397.1,1502.6c-11,9.3-23.3,8.7-35,5.2
			c-18.5-5.6-29.8-18.7-33.3-37.9c-1.3-7-1.4-14.2-1.4-21.4c0-13.5,6-24.3,16.3-32.8c4.6-3.9,10.1-3.8,15.6-2.9
			c3.1,0.5,3.2,2.6,2.6,5.3c-1.8,7.6-4.3,15.1-4.7,22.8c-1.2,23.9,8.5,52.5,38,60.7C-1398.6,1501.7-1398.2,1502-1397.1,1502.6z"/>
		<path fill="#F15C6F" stroke="#F15C6F" stroke-miterlimit="10" d="M-1485.6,1525c-3.6,6.1-8.7,10.1-14.8,10.7
			c-4.6,0.4-8.1,1.4-12,3.6c-2.6,1.4-6.5,0.9-9.7,0.7c-8.7-0.6-17-2.8-22.4-10.4c-3.2-4.4-6-9.3-7.9-14.4
			c-2.2-5.8,0.9-11.4,2.1-17.2c2.8-13.9,12.4-22.7,21.9-31.7c3.3-3.1,7.2-4.7,11.8-3.4C-1518.9,1490-1513.9,1513.4-1485.6,1525z"/>
		<path fill="#F15C6F" stroke="#F15C6F" stroke-miterlimit="10" d="M-1521.5,1456.8c-13.8,5.2-23.3,14.1-30.6,25.7
			c-0.8,1.2-2.9,1.7-4.6,2.3c-8.7,3-17.3,6-26.1,8.7c-1.7,0.5-4.4,0.4-5.7-0.6c-7.4-5.7-9.7-13.8-8.8-22.6
			c0.9-8.5,3.9-16.5,12.3-20.4c5.5-2.5,11.5-4.1,17.5-5.1c13.2-2.1,25.7,1.3,37.7,6.4C-1527,1452.4-1524.6,1454.6-1521.5,1456.8z"/>
		<path fill="#F15C6F" stroke="#F15C6F" stroke-miterlimit="10" d="M-1596.6,1533.3c0.5-23.6,14.2-37.3,33.3-41.5
			c0.8-0.2,1.6-0.4,2.4-0.5c3.9-0.8,4.9,0.2,3.8,4.1c-0.5,1.9-1.3,3.8-1.9,5.7c-2.5,7.8-1.6,15.3,1.9,22.7c0.6,1.3,0.1,3.8-0.9,4.9
			c-5.4,6.2-11.3,12-16.6,18.2c-5.1,6-13.1,6.2-17.1-0.7C-1594.4,1541.5-1595.6,1536-1596.6,1533.3z"/>
		<path fill="#F15C6F" stroke="#F15C6F" stroke-miterlimit="10" d="M-1180.9,1627.5c-3.8-1.5-7.7-2.8-11.3-4.7
			c-11-5.9-19.3-14.6-25.7-25.1c-8.2-13.3-15.7-26.9-20.2-41.9c-1.7-5.6-2.7-11.7-2.6-17.6c0.1-9.6,1.4-19.2,2.3-28.7
			c0.1-0.8,0.5-1.5,0.9-2.6c3.1,1.3,6.2,2.1,8.6,3.9c1.3,0.9,1.9,3.4,2,5.2c0.2,11.3-1.3,22.7,0.5,33.7c3.2,19.9,10.7,38.4,25,53.4
			c7.2,7.5,14.3,15.3,21.4,22.9C-1180.4,1626.5-1180.7,1627-1180.9,1627.5z"/>
		<path fill="#F15C6F" stroke="#F15C6F" stroke-miterlimit="10" d="M-1094.6,1619.6c-9.2-2.1-16.9-6.6-23.4-12.8
			c-13-12.4-24.8-25.9-33.6-41.6c-6.8-12-13-24.2-19.4-36.4c-0.8-1.6-1.2-3.3-1.8-5c8.1-2.1,8-1.8,11.5,4.7
			c12.1,22.8,25,45.1,43,63.9c7.7,8,14.9,16.4,22.3,24.7C-1095.4,1617.8-1095,1618.7-1094.6,1619.6z"/>
		<path fill="#F15C6F" stroke="#F15C6F" stroke-miterlimit="10" d="M-1140.7,1617.1c-3.9-2.5-8-4.8-11.8-7.6
			c-10.4-7.5-18.3-17.4-24.9-28.1c-7.7-12.3-14.6-25.1-21.5-37.8c-4.1-7.6-3.8-16.2-4.7-24.3c0.7-0.2,0.9-0.3,1-0.3
			c9,0.7,9,0.7,10.9,9.4c2.6,12.1,7.2,23.6,14.2,33.8c12,17.7,24.5,35,36.9,52.6c0.3,0.4,0.4,0.8,0.7,1.3
			C-1140.3,1616.4-1140.5,1616.7-1140.7,1617.1z"/>
		<path fill="#F15C6F" stroke="#F15C6F" stroke-miterlimit="10" d="M-1141,1524.5c5.4-1.8,8.8-0.7,11.9,4.2c18,29,42,52.5,67.5,74.8
			c2.2,2,4.3,4.1,6.4,6.2c-0.5,0.7-1,1.4-1.5,2.1c-5.7-3.1-11.8-5.7-16.9-9.5c-15.7-11.7-28.2-26.7-40.8-41.4
			c-7.5-8.8-14.4-18.1-21.4-27.3C-1137.9,1530.9-1139.3,1527.7-1141,1524.5z"/>
		<path fill="#F15C6F" stroke="#F15C6F" stroke-miterlimit="10" d="M-1147.2,1385c5-13.7,26.5-25,41.9-21.2
			c-4.2,2.7-7.8,4.8-11.1,7.3c-4.9,3.9-9.9,7.8-14.3,12.3c-3,3-5.5,4.9-9.8,3C-1142.5,1385.5-1144.9,1385.5-1147.2,1385z"/>
		<path fill="#F15C6F" stroke="#F15C6F" stroke-miterlimit="10" d="M-1236.5,1383.8c1.4-17.9,18.8-35.8,37.7-36.6
			c-5.8,5.1-11.6,9.3-16.2,14.5c-4.3,4.9-7.9,10.5-10.7,16.4C-1228.8,1384.8-1228.3,1385.1-1236.5,1383.8z"/>
		<path fill="#F15C6F" stroke="#F15C6F" stroke-miterlimit="10" d="M-1179.1,1382c3.5-11.3,26.5-26.8,38.2-25.7
			c-1.8,1.7-3.2,2.9-4.5,4.2c-6.5,6.5-14.2,12-17.9,20.9c-0.4,0.9-2.1,1.8-3.1,1.8C-1170.6,1383-1174.7,1382.5-1179.1,1382z"/>
		<path fill="#F15C6F" stroke="#F15C6F" stroke-miterlimit="10" d="M-1166.3,1348c-3,2.3-5.8,4.8-8.9,7
			c-8.4,5.9-14.8,13.5-19.2,22.8c-1.5,3.2-6.5,5.1-9.5,3.5c-0.7-0.4-1.5-2.4-1.1-3.1c7.7-14.1,16.8-26.7,33.6-30.9
			c1.5-0.4,3.1-0.3,4.7-0.5C-1166.5,1347.2-1166.4,1347.6-1166.3,1348z"/>
		<path fill="#F15C6F" stroke="#F15C6F" stroke-miterlimit="10" d="M-1087.9,1453.1c0-9.2,10.1-15.2,18-10.5c4,2.4,9.3,4.2,9.9,9.6
			c0.3,2.7-0.4,6.3-2.1,8.3c-3.7,4.6-8.9,6.4-15.1,5C-1082.9,1464.3-1087.9,1459-1087.9,1453.1z M-1073.3,1451.1
			c-0.1,0.6-0.2,1.2-0.3,1.8c2.8,0.7,5.6,1.4,8.9,2.1C-1065.9,1449-1068.6,1448.1-1073.3,1451.1z"/>
		<path fill="#F15C6F" stroke="#F15C6F" stroke-miterlimit="10" d="M-1083.8,1413c0.2-2.5,0.4-4.9,0.7-7.4c0.7,0,1.3,0.1,2,0.1
			c0,2.5,0,5.1,0,7.6C-1082,1413.2-1082.9,1413.1-1083.8,1413z"/>
		<path fill="#F15C6F" stroke="#F15C6F" stroke-miterlimit="10" d="M-1073.3,1451.1c4.7-3,7.4-2.1,8.6,3.9c-3.3-0.8-6.1-1.5-8.9-2.1
			C-1073.5,1452.3-1073.4,1451.7-1073.3,1451.1z"/>
	</g>
</g>
<g>
	<path fill="#F15C6F" d="M90.2,273.1c0,0-11.6-5.3-10-14.4c1.6-9.1,10.4-14.4,26-13.2c15.6,1.2,30,6.1,34.8,5.4l4.1,0.6
		c0,0-0.5,2.5-7,6.1c0,0,11.3,0.4,13.5,1.7c0,0-10.1-1.5-11.6-0.5c0,0,16.1,1.6,17.2,2c0,0-11-1.2-14.8,0.3c0,0,11.8,0.8,13.4,2.2
		c0,0-11.9-2.1-14.2-0.6l10.3,2c0,0-9-1.2-10.2-0.9c-1.1,0.4,3.2,1.4,3.2,1.4s0.4,2-8.4,4.7C127.5,272.4,110.7,280.3,90.2,273.1z"/>
	<path fill="#F15C6F" d="M115.2,274c0,0,3.8-4.1,10.9-2.2c0,0,2.1,1.2,1.3,3.2c0,0,9.5-2.6,14.8,3.4c0,0,12.3-6.8,26.6-4.7
		c0,0,15.7-8.4,24.8,1.4c0,0-12-0.7-18.8,5.9c0,0,9.9,5.1,19.8-4.5c0,0,5.4,16.9-29.4,21.3c0,0-22,4-24.8-9.1c0,0-10,5.3-17-10.4
		C123.3,278.3,115.7,279.2,115.2,274z"/>
	<path fill="#F15C6F" d="M121.7,248c0,0,2.5-7.4,11.1-5.7c0,0-4.1-15.2,29.8-14.1c0,0,20.3-0.4,21.1,13c0,0-7.4-5.9-18.9-1.7
		c0,0,6.7,6.7,18.4,4.2c0,0-6.1,8.3-25.6,3.2c0,0-9.2,4.6-24.1-1.2c0,0,0.1,3-3.2,6.1L121.7,248z"/>
	<ellipse fill="#191919" cx="128.1" cy="258.7" rx="2" ry="1.5"/>
	<polygon fill="#F15C6F" points="88.8,247.4 96.1,239.9 101.5,239.6 97.3,242.2 92.6,247.5 	"/>
	<path fill="#F15C6F" d="M94.8,247.4l4.2-0.1c0,0,3.9-7.1,10.8-6.7c0,0-2.2-2.2-8.3-0.7L94.8,247.4z"/>
	<path fill="#F15C6F" d="M102.3,245.9l3.8,0.2l7.7-4l1.7-0.1l2.7-1.2c0,0-4.1-1.8-8.1,0.1S102.3,245.9,102.3,245.9z"/>
	<path fill="#F15C6F" d="M108.5,246.3l5.5,0.2c0,0,6.9-4.4,9.8-2.7c0,0-1.3-2.6-4.6-2.8L108.5,246.3z"/>
	<path fill="none" stroke="#F15C6F" stroke-linecap="round" stroke-linejoin="round" stroke-miterlimit="10" d="M100.2,217.5"/>
	<path fill="#F15C6F" stroke="#F15C6F" stroke-linecap="round" stroke-linejoin="round" stroke-miterlimit="10" d="M89.2,272.6
		c0,0-0.4,27.8,16.9,27.4c0,0-11.9-5.5-14-27L89.2,272.6z"/>
	<path fill="#F15C6F" stroke="#F15C6F" stroke-linecap="round" stroke-linejoin="round" stroke-miterlimit="10" d="M98.9,274.2
		c0,0,8.1,23.5,16.9,25.2c0,0-7.6,2.5-13.9-9.7c-6.2-12.1-7.3-19.7-7.3-19.7L98.9,274.2z"/>
	<path fill="#F15C6F" stroke="#F15C6F" stroke-linecap="round" stroke-linejoin="round" stroke-miterlimit="10" d="M104,275.3l3,0.7
		c0,0,5.3,15.9,20.4,20.8c0,0-3.7,2.4-8.5,0.5C114,295.5,105,283.7,104,275.3z"/>
	<path fill="#F15C6F" stroke="#F15C6F" stroke-linecap="round" stroke-linejoin="round" stroke-miterlimit="10" d="M111.1,275.3
		l2.7,0.3c0,0,8.2,15.6,24.5,17.7c0,0-9.5,4.3-18.4-5.2S111.1,275.3,111.1,275.3z"/>
	<path fill="#F15C6F" d="M84.5,250.4c0,0-3.7-6.9-12-0.5c0,0-5.1-5-10.8-0.5c0,0-6.6-3.5-10.2,3.6c0,0-8.3-0.7-7.8,6.1
		c0,0-5.7-3.2-6.8,6.5c0,0-9-12.6-15.6-5.9c0,0-4.4,4.5-0.4,9.8c0,0-9,4.7,2.1,12.1c0,0-2.9,13.7,7.6,10.9c0,0,4,13.3,17.1,2.3
		c0,0,4-5.6-1.9-16.3c0,0,3.8,1.4,6.9-1.9c0,0,5.1,1.5,8.1-2.7c0,0,5.8,2.9,9.4-1.4c0,0,4.9,3.7,9.6-0.3c0,0,6,4.8,13-1.3
		L84.5,250.4z"/>
	<path fill="#F15C6F" d="M139.1,255.7c0,0,49.7-13.3,58.9-1.7c0,0-6.9-11.3-58.8,3L139.1,255.7z"/>
	<path fill="#F15C6F" d="M141.9,266.5c0,0,50.6,3.4,58.4-9.9c0,0-5.6,12.6-58.5,8.6L141.9,266.5z"/>
	<path fill="#F15C6F" d="M384,271.6c0,0,11.6-5.3,10-14.4c-1.6-9.1-10.4-14.4-26-13.2c-15.6,1.2-30,6.1-34.8,5.4l-4.1,0.6
		c0,0,0.5,2.5,7,6.1c0,0-11.3,0.4-13.5,1.7c0,0,10.1-1.5,11.6-0.5c0,0-16.1,1.6-17.2,2c0,0,11-1.2,14.8,0.3c0,0-11.8,0.8-13.4,2.2
		c0,0,11.9-2.1,14.2-0.6l-10.3,2c0,0,9-1.2,10.2-0.9c1.1,0.4-3.2,1.4-3.2,1.4s-0.4,2,8.4,4.7C346.7,271,363.5,278.9,384,271.6z"/>
	<path fill="#F15C6F" d="M359,272.5c0,0-3.8-4.1-10.9-2.2c0,0-2.1,1.2-1.3,3.2c0,0-9.5-2.6-14.8,3.4c0,0-12.3-6.8-26.6-4.7
		c0,0-15.7-8.4-24.8,1.4c0,0,12-0.7,18.8,5.9c0,0-9.9,5.1-19.8-4.5c0,0-5.4,16.9,29.4,21.3c0,0,22,4,24.8-9.1c0,0,10,5.3,17-10.4
		C350.9,276.9,358.5,277.8,359,272.5z"/>
	<path fill="#F15C6F" d="M352.5,246.5c0,0-2.5-7.4-11.1-5.7c0,0,4.1-15.2-29.8-14.1c0,0-20.3-0.4-21.1,13c0,0,7.4-5.9,18.9-1.7
		c0,0-6.7,6.7-18.4,4.2c0,0,6.1,8.3,25.6,3.2c0,0,9.2,4.6,24.1-1.2c0,0-0.1,3,3.2,6.1L352.5,246.5z"/>
	<ellipse fill="#191919" cx="346.1" cy="257.2" rx="2" ry="1.5"/>
	<polygon fill="#F15C6F" points="385.4,245.9 378.1,238.4 372.7,238.1 377,240.7 381.6,246.1 	"/>
	<path fill="#F15C6F" d="M379.4,245.9l-4.2-0.1c0,0-3.9-7.1-10.8-6.7c0,0,2.2-2.2,8.3-0.7L379.4,245.9z"/>
	<path fill="#F15C6F" d="M371.9,244.4l-3.8,0.2l-7.7-4l-1.7-0.1l-2.7-1.2c0,0,4.1-1.8,8.1,0.1S371.9,244.4,371.9,244.4z"/>
	<path fill="#F15C6F" d="M365.7,244.8l-5.5,0.2c0,0-6.9-4.4-9.8-2.7c0,0,1.3-2.6,4.6-2.8L365.7,244.8z"/>
	<path fill="none" stroke="#F15C6F" stroke-linecap="round" stroke-linejoin="round" stroke-miterlimit="10" d="M374,216.1"/>
	<path fill="#F15C6F" stroke="#F15C6F" stroke-linecap="round" stroke-linejoin="round" stroke-miterlimit="10" d="M385,271.1
		c0,0,0.4,27.8-16.9,27.4c0,0,11.9-5.5,14-27L385,271.1z"/>
	<path fill="#F15C6F" stroke="#F15C6F" stroke-linecap="round" stroke-linejoin="round" stroke-miterlimit="10" d="M375.3,272.7
		c0,0-8.1,23.5-16.9,25.2c0,0,7.6,2.5,13.9-9.7c6.2-12.1,7.3-19.7,7.3-19.7L375.3,272.7z"/>
	<path fill="#F15C6F" stroke="#F15C6F" stroke-linecap="round" stroke-linejoin="round" stroke-miterlimit="10" d="M370.2,273.8
		l-3,0.7c0,0-5.3,15.9-20.4,20.8c0,0,3.7,2.4,8.5,0.5S369.2,282.3,370.2,273.8z"/>
	<path fill="#F15C6F" stroke="#F15C6F" stroke-linecap="round" stroke-linejoin="round" stroke-miterlimit="10" d="M363.1,273.8
		l-2.7,0.3c0,0-8.2,15.6-24.5,17.7c0,0,9.5,4.3,18.4-5.2C363.3,277.1,363.1,273.8,363.1,273.8z"/>
	<path fill="#F15C6F" d="M389.7,249c0,0,3.7-6.9,12-0.5c0,0,5.1-5,10.8-0.5c0,0,6.6-3.5,10.2,3.6c0,0,8.3-0.7,7.8,6.1
		c0,0,5.7-3.2,6.8,6.5c0,0,9-12.6,15.6-5.9c0,0,4.4,4.5,0.4,9.8c0,0,9,4.7-2.1,12.1c0,0,2.9,13.7-7.6,10.9c0,0-4,13.3-17.1,2.3
		c0,0-4-5.6,1.9-16.3c0,0-3.8,1.4-6.9-1.9c0,0-5.1,1.5-8.1-2.7c0,0-5.8,2.9-9.4-1.4c0,0-4.9,3.7-9.6-0.3c0,0-6,4.8-13-1.3L389.7,249
		z"/>
	<path fill="#F15C6F" d="M335.1,254.2c0,0-46.5-13.3-55.1-1.7c0,0,6.4-11.3,55,3L335.1,254.2z"/>
	<path fill="#F15C6F" d="M332.5,265c0,0-47.4,3.4-54.6-9.9c0,0,5.2,12.6,54.7,8.6L332.5,265z"/>
	<g id="h6ePoI.tif">
		<g>
			
				<path fill="#F15C6F" stroke="#F15C6F" stroke-width="4" stroke-linecap="round" stroke-linejoin="round" stroke-miterlimit="10" d="
				M236.1,206.6c5.1-6.8,11.7-10.9,20.3-11.1c17-0.2,28.8,14.5,25.3,31.1c-1.7,8.2-6,14.8-11.8,20.4c-6.4,6.3-13.3,12-19.7,18.3
				c-5.1,5.1-9.5,10.7-14.6,16.4c-8.9-14.4-23.5-23.7-35.1-36c-5.9-6.2-9.5-13.4-10.5-22c-1.3-10.6,4.4-21.2,13.9-25.9
				c10-4.8,21.4-2.8,29.1,5.1C234.1,204.2,235,205.4,236.1,206.6z"/>
		</g>
	</g>
</g>
</svg>
