<?xml version="1.0" encoding="utf-8"?>
<!-- Generator: Adobe Illustrator 18.1.0, SVG Export Plug-In . SVG Version: 6.00 Build 0)  -->
<svg version="1.1" id="Layer_1" xmlns="http://www.w3.org/2000/svg" xmlns:xlink="http://www.w3.org/1999/xlink" x="0px" y="0px"
	 viewBox="-194 -104 1000 1000" enable-background="new -194 -104 1000 1000" xml:space="preserve">
<g>
	<path fill="#FFFFFF" d="M306.8,863c-63.6,0-125.2-12.4-183.2-37C67.5,802.3,17.1,768.4-26.1,725.1
		c-43.2-43.2-77.2-93.6-100.9-149.6c-24.5-58-37-119.7-37-183.2c0-63.6,12.4-125.2,37-183.2C-103.3,153-69.4,102.6-26.1,59.4
		C17.1,16.1,67.5-17.8,123.5-41.5c58-24.5,119.7-37,183.2-37c63.6,0,125.2,12.4,183.2,37C546-17.8,596.4,16.1,639.6,59.4
		c43.2,43.2,77.2,93.6,100.9,149.6c24.5,58,37,119.7,37,183.2c0,63.6-12.4,125.2-37,183.2c-23.7,56.1-57.7,106.4-100.9,149.6
		C596.4,768.4,546,802.3,490,826C432,850.6,370.3,863,306.8,863z"/>
	<path fill="#F05B6E" d="M306.8-66c61.9,0,121.9,12.1,178.4,36c54.6,23.1,103.6,56.1,145.7,98.2c42.1,42.1,75.1,91.1,98.2,145.7
		c23.9,56.5,36,116.5,36,178.4s-12.1,121.9-36,178.4c-23.1,54.6-56.1,103.6-98.2,145.7c-42.1,42.1-91.1,75.1-145.7,98.2
		c-56.5,23.9-116.5,36-178.4,36s-121.9-12.1-178.4-36c-54.6-23.1-103.6-56.1-145.7-98.2c-42.1-42.1-75.1-91.1-98.2-145.7
		c-23.9-56.5-36-116.5-36-178.4s12.1-121.9,36-178.4c23.1-54.6,56.1-103.6,98.2-145.7C24.8,26.1,73.8-6.9,128.4-30
		C184.9-53.9,244.9-66,306.8-66 M306.8-91C39.9-91-176.5,125.4-176.5,392.2S39.9,875.5,306.8,875.5S790,659.1,790,392.2
		S573.6-91,306.8-91L306.8-91z"/>
</g>
<g>
	<path fill="#F05B6E" d="M295,341.9c-41,0-74.4-37.2-74.4-83c0-45.8,33.4-83,74.4-83c41,0,74.4,37.2,74.4,83
		C369.4,304.7,336,341.9,295,341.9z"/>
	<path fill="#F05B6E" d="M295,188.4c34.1,0,61.9,31.6,61.9,70.5s-27.8,70.5-61.9,70.5s-61.9-31.6-61.9-70.5S260.9,188.4,295,188.4
		 M295,163.4c-48,0-86.9,42.7-86.9,95.5s38.9,95.5,86.9,95.5s86.9-42.7,86.9-95.5S343,163.4,295,163.4L295,163.4z"/>
</g>
<g>
	<path fill="#F05B6E" d="M173.8,503.2c-0.9-12.3-1.3-35.8,5.1-60.9c10.3-40.2,33.1-65.4,68-75c8.7,4.2,28.2,12.1,51.9,12.1
		c16.3,0,31.6-3.7,45.7-10.9c7,1.9,23,7.7,37.9,22.5c24.6,24.4,36.4,63.4,34.2,113.3L173.8,503.2z"/>
	<path fill="#F05B6E" d="M246,380.7c11.1,4.8,30.1,11.3,52.9,11.3c16.5,0,32.2-3.4,46.7-10c7,2.5,18.3,7.9,29.1,18.9
		c9.9,10.1,17.5,23.2,22.5,38.8c4.8,15.1,7.3,32.6,7.3,52.2l-218.6-1c-0.1-12.2,0.9-29.1,5.6-46.6c4.4-16.6,11.2-30.3,20.3-40.9
		C220.8,392.6,232.1,385.2,246,380.7 M248.5,354.1c-105.3,24.5-86.9,161.6-85.7,161.6l265.6,1.2c12.2-146.9-85.7-161.6-85.7-161.6
		c-15,8.7-30.2,11.7-43.9,11.7C270.3,366.9,248.5,354.1,248.5,354.1L248.5,354.1z"/>
</g>
<rect x="34.3" y="129.2" fill="none" stroke="#F05B6E" stroke-width="25" stroke-linecap="round" stroke-linejoin="round" stroke-miterlimit="10" width="531.2" height="527.5"/>
<rect x="34.3" y="539.2" fill="#F05B6E" stroke="#F05B6E" stroke-width="25" stroke-linecap="round" stroke-linejoin="round" stroke-miterlimit="10" width="526.3" height="121.2"/>
</svg>
