<?xml version="1.0" encoding="utf-8"?>
<!-- Generator: Adobe Illustrator 18.1.0, SVG Export Plug-In . SVG Version: 6.00 Build 0)  -->
<svg version="1.1" id="Layer_1" xmlns="http://www.w3.org/2000/svg" xmlns:xlink="http://www.w3.org/1999/xlink" x="0px" y="0px"
	 viewBox="0 0 792 124" enable-background="new 0 0 792 124" xml:space="preserve">
<rect y="-0.9" fill="#707071" stroke="#000000" stroke-miterlimit="10" width="792" height="124.9"/>
<path fill="#60CBEB" d="M792.6,108H792v16H0V99.3h0.4L0,71.5c8,0.8,19.3-20.7,19.3-20.7c15.7-22.3,34.8-7.1,34.8-7.1
	c-18.4-5-22.4,7.8-20.7,17.5c1.6,9.1,14.1,10.4,15.4,10.5v-0.1c8,0.8,19.3-19.4,19.3-19.4c14.5-20.8,34.8-6.6,34.8-6.6
	c-18.4-4.7-22.4,7.4-20.7,16.3c1.7,8.5,14.4,9.7,15.4,9.8l0,0c8,0.8,19.3-20.7,19.3-20.7c15.7-22.3,34.8-7.1,34.8-7.1
	c-18.4-5-22.4,7.9-20.7,17.5c1.6,9.1,14,10.4,15.4,10.5v-0.1c8,0.8,19.3-19.4,19.3-19.4c14.5-20.8,34.8-6.6,34.8-6.6
	c-18.4-4.7-22.4,7.4-20.7,16.3c1.6,8.3,13.6,9.6,15.3,9.8c0.1,0,0.1,0,0.1,0c8,0.5,19-20.7,19-20.7c15.7-22.3,34.8-7.1,34.8-7.1
	c-18.4-5-22.4,7.9-20.7,17.5c1.6,9.1,14,10.4,15.4,10.5l0,0c8,0.8,19.3-19.4,19.3-19.4c14.5-20.8,34.8-6.6,34.8-6.6
	c-18.4-4.7-22.4,7.4-20.7,16.3c1.6,8.5,14.4,9.7,15.4,9.8l0,0c8,0.8,19.3-20.7,19.3-20.7c15.7-22.3,34.8-7.1,34.8-7.1
	c-18.2-5.2-22.3,7.6-20.6,17.2c1.6,9.1,14,10.4,15.4,10.5v-0.1c8,0.8,19.3-19.4,19.3-19.4c14.5-20.8,34.8-6.6,34.8-6.6
	c-18.4-4.7-22.4,7.4-20.7,16.3c1.7,8.7,14.9,9.7,15.4,9.8l0,0c8,0.8,19.3-20.7,19.3-20.7c15.7-22.3,34.8-7.1,34.8-7.1
	c-18.4-5-22.4,7.8-20.7,17.5c1.6,9.1,14,10.4,15.4,10.5l0,0c8,0.8,19.3-19.4,19.3-19.4c14.5-20.8,34.8-6.6,34.8-6.6
	c-18.4-4.7-22.4,7.4-20.7,16.3c1.6,8.5,14.4,9.7,15.4,9.8l0,0c8,0.8,19.3-20.7,19.3-20.7c15.7-22.3,34.8-7.1,34.8-7.1
	c-18.4-5-22.4,7.9-20.7,17.5c1.6,9.1,14,10.4,15.4,10.5v-0.1c8,0.8,19.3-19.4,19.3-19.4c14.5-20.8,34.8-6.6,34.8-6.6
	c-18.4-4.7-22.4,7.4-20.7,16.3c1.6,8.4,13.6,9.6,15.3,9.8c0.1,0,0.1,0,0.1,0c8,0.5,19-20.7,19-20.7c15.7-22.3,34.8-7.1,34.8-7.1
	c-18.4-5-22.4,7.8-20.7,17.5c1.6,9.1,14,10.4,15.4,10.5l0,0c8,0.8,19.3-19.4,19.3-19.4c14.5-20.8,34.8-6.6,34.8-6.6
	c-18.4-4.7-22.4,7.4-20.7,16.3c1.7,8.7,14.4,9.7,15.4,9.8l0,0c8,0.8,19.3-20.7,19.3-20.7c15.7-22.3,34.8-7.1,34.8-7.1
	c-18.4-5-22.4,7.9-20.7,17.5c1.6,9.1,14.1,10.4,15.4,10.5v-0.1c8,0.8,19.3-19.4,19.3-19.4c14.5-20.8,34.8-6.6,34.8-6.6
	c-18.4-4.7-22.4,7.4-20.7,16.3c1.7,8.9,15.4,9.8,15.4,9.8s4.8,1.6,12.4,0.6V108z"/>
</svg>
