<?xml version="1.0" encoding="utf-8"?>
<!-- Generator: Adobe Illustrator 18.1.0, SVG Export Plug-In . SVG Version: 6.00 Build 0)  -->
<svg version="1.1" id="Layer_1" xmlns="http://www.w3.org/2000/svg" xmlns:xlink="http://www.w3.org/1999/xlink" x="0px" y="0px"
	 viewBox="0 0 612 792" enable-background="new 0 0 612 792" xml:space="preserve">
<path fill="#808285" d="M393.5,564.9c-0.3,0-0.6,0.1-0.9,0.1c0.2-0.4,0.6-0.7,0.8-1C393.3,564.3,393.5,564.6,393.5,564.9z"/>
<path fill="#808285" d="M195.4,521.7c0.7,0.8,1.3,1.7,2,2.5C196.5,523.4,195.8,522.6,195.4,521.7z"/>
<path fill="#808285" d="M195.4,521.7c0.7,0.8,1.3,1.7,2,2.5C196.5,523.4,195.8,522.6,195.4,521.7z"/>
<path fill="#808285" d="M468,450.7c-0.3,0.7-0.5,1.4-0.8,2.1c0-0.8,0-1.7,0.2-2.4C467.5,450.4,467.7,450.6,468,450.7z"/>
<path fill="#808285" d="M468,450.7c-0.3,0.7-0.5,1.4-0.8,2.1c0-0.8,0-1.7,0.2-2.4C467.5,450.4,467.7,450.6,468,450.7z"/>
<path fill="#808285" d="M458.2,169.5C458.2,169.5,458.3,169.6,458.2,169.5c-0.2,0.2-0.3,0.7-0.4,0.9c0,0,0,0-0.1-0.1
	C458,170.1,458.1,169.8,458.2,169.5z"/>
<path fill="#F05B6E" d="M393.1,20.1c-0.1-0.1-0.3,0-0.4-0.1c-6.7-0.5-14.1-0.2-21.7,1.5c-0.2,0-0.2,0-0.2,0l0,0
	C351,26.1,331.4,41,326.5,80.8c1-3.5,19.2-68.3,73.1-51.3c48.4,15.2,81.6,68.7,46.7,131.9c-0.1,0.1-0.2,0.2-0.2,0.4l0,0
	c-5,8.7-11.2,17.8-19,26.8l-91.6,96.9c0,0-5,9.6-9,20c0.1,15.4,1.6,28.9,3.9,39.6c-3.8-3.6-7.8-7.1-11.4-10.8
	c-2.1,2-4.2,4.3-6.3,6.4c2.1-9.5,3.4-19.3,3.9-29c-1.5-2.7-6.2-7.5-9.1-10.7c0,0,0,0.2,0,0.3l-6.2-7.3c-0.1-0.1-0.2-0.2-0.4-0.2
	l-4.7-5.5l-73.9-85.1c-12.6-16.1-21.3-32.2-26.6-47.8l0.1-0.1c0-0.2-0.1-0.4-0.1-0.4C176,96.4,203.1,46.4,247.2,34.6
	c53.5-14.5,74.7,42.4,76.5,47.3c-17.8-77.6-86.7-51.7-86.7-51.7c-62.2,41.5-62.4,90.2-49.8,125.7c1,2.5-0.9,3,0.1,5.3l2.8,2.1
	c10.5,24.6,26,41.4,26,41.4s69.8,79.4,83.6,99c3.4,4.9,5.2,11.8,5.8,19.8c-1,9.4-2.3,18.8-4,28.1c-5.8,6-11.8,11.9-17.8,17.7
	c-3.6,3.5-6.8,7.1-9.6,10.9c-1-18.3-13.5-32.8-30.2-43.2c-2.2-1.4-4.3-2.4-6.5-3.1c3.7-9.9,5.1-19.6,3.5-28.7
	c6.6-10.3,9.8-21.7,5.6-34.4c-3.2-9.7-7.7-19.1-12.5-28.1c-3-5.5-7.8-10-11.7-15.1c-0.9,0.6-1.7,1.1-2.6,1.6
	c3.3,10.9,9.1,20.7,5.5,33.6c-1.2,4.3-2.6,8.2-4.4,11.8c-1.9-1.4-3.9-2.7-6-4c-7.9-4.7-15.3-10.5-22.1-16.7
	c-14.9-13.8-17.2-31.8-15.3-50.8c1.4-14.1,5.2-27.3,12.6-40.2c-1.1-2.6-0.2-6.4-1.2-9.1c-11.2,1.9-26.6,8.2-38.4,16.9
	c-20.8,15.1-34.2,35.4-41.1,59.2c-11,37.8-7.1,73.4,18.2,106.2c17.4,22.5,38.7,32.2,66.3,30.3c8.5-0.6,16.3-3,23-6.8
	c20.4,19.2,33.9,46.2,40.8,61.7c-0.5,2.4-0.9,4.7-1.4,7.1c-0.9-0.2-2-0.4-3-0.6c-14.9-0.9-29.7-1.9-44.5-3.8
	c-8.9-1.2-17.8-4.1-26.8-6.4c-0.7,0.4-1.5,0.8-2.2,1c0-0.5,0-1,0-1.6c-16.9-8.8-33.3-17.3-49.2-25.5c0,0.8-0.2,1.9-0.4,3.5
	c-3.4-10-14.2-14.1-19-23c-0.8,0.7-1.7,1.3-2.7,2.1c7.1,8.4,14,16.8,21.1,25.2l0,0c0,0.5-0.1,1-0.2,1.6
	c16.3,9.8,32.9,19.8,50.7,30.3c-0.2-4.2-0.3-7.3-0.4-10.1c1.3,4.4,2.2,9.5,4.9,10.9c8,3.8,17,5.3,25.7,7.5c4.1,1.1,8.3,2.2,12.5,2.6
	c10.2,1.1,20.5,2.6,30.7,2.4c-1.1,7.3-1.8,14.7-2.4,22.1c-16.5-3.3-33.2-6.2-49.7-9.4c-3.5-0.7-6.8-2.6-8.7,1.1
	c-0.2-4-2.9-4.9-10.2-7.5c-2.7-0.9-5.4-1.4-7.8-2.7c-10.6-6.4-20.9-12.9-31.4-19.3c-0.2,0.9-0.6,1.7-0.8,2.6
	c-0.9-10.8-12.4-13.8-15.8-22.7c-0.6,0.5-1.4,0.8-2,1.3c5.7,8,11.4,15.9,17.1,23.8c-0.2,0.6-0.4,1.1-0.6,1.7
	c14.8,14,31.2,25,50,32.9c0.2-0.9,0.4-1.6,0.5-2.4c0.5,2.2,2.2,3.8,5.5,4.7c12.8,3.5,25.4,7.2,38.2,10c4.8,1,9.5,1.6,14.7,2.1
	c-0.2,6.7-0.2,13.5-0.1,20.4c-11-1.5-22-2.6-33.5-4.1c-0.4-2.3-2.9-3.2-8.6-6c-10.1-4.8-19.5-11.1-29.4-16.5c-2-1.1-4.2-1.7-6.8-2.4
	c-2.4-9.2-11.3-12.2-19.1-16.6c5.7,6.5,11.5,13,17.2,19.6c0.3-0.2,0.6-0.3,0.7-0.6c5,11.7,27.8,27.4,44.1,30.7
	c0.3-1,0.6-1.8,0.8-2.6c0.5,3.7,3.6,6.2,8.8,7.6c7.8,2.2,15.5,5,23.5,6.4c1.1,0.2,2.2,0.3,3.2,0.5c0.8,5.4,2.2,10.8,4.7,15.9
	c-8.2-1.3-16.4-2.9-24.7-4.2c-0.2,0.2-0.2,0.6-0.3,0.8c-12.5-5.8-23.8-11.1-35.4-16.7c0.1-0.1,0.1-0.1,0.2-0.2
	c0-8.7-9.8-9.1-14.8-13.2c4.2,5,8.3,10,12.6,15.1c0.4-0.3,0.7-0.6,1.1-0.9c1.7,2.4,3.6,5.1,6.2,6.8c7.1,4.8,15,8.8,22.7,13.1
	c2.6,1.5,4.6,1.9,5.9,1.7c-0.1,2,1.1,3.7,4.7,4.5c9.2,2.1,18.4,5,27.7,6.6l0,0.2c0,1.4-0.2,3,0.4,4.2c3.8,9.6,7.8,18.9,11.7,28.1
	c-2.3-0.7-5.8-1.8-9.1-3c-3,11.2,5,30.6,17.1,39.4c-5.2-0.9-8.6-1.5-11.9-2.2c-1.8,15,1.2,27.8,17.7,34.2c-0.9,0.8-1.6,1.5-2.4,2.4
	c-4-1.5-8-3-12.2-4.4c-0.6,14.1,6.7,23.6,17.5,31.5c-3.1-0.8-6.2-1.5-11.3-2.9c2,6.3,2.8,11.7,5.4,16.3c2.5,4.6,6.7,8.3,10,12.2
	c-1,0-2.9,0-5,0.1c2.3,6.4,3.7,12.5,4.2,18.4c-2.3-3.1-5.6-5.7-9.7-7.3c-21.9-7.9-34.2-1.7-45.6,17c-3.4,5.7-0.2,18.1,5.9,21.9
	c5.9,3.9,12.8,2.3,16.4-2.2c8.8-11.3,19.6-13.8,31.9-12.2c-0.2,0.9-0.4,1.8-0.7,2.6c-6.7-1.2-12.7,0-18.6,3.6
	c-6.9,4.2-8.2,10.3-6.6,17.4c1.6,6.9,7.5,9.3,13.4,9.5c6.5,0.2,12.9-1.6,14.6-9.5c8.4,9.9,26.8,12.5,38.4,6.2c4-2.1,6.9-4.5,8.7-7.3
	c0.1,0.4,0.1,0.9,0.2,1.3c1.4,8.2,8.1,10.1,14.8,9.7c5.9-0.2,11.8-2.6,13.4-9.6c1.6-6.8,0.4-12.7-6-16.9c-6.2-4.2-12.7-5.5-20.5-3.9
	c-0.1-0.9-0.2-1.8-0.4-2.8c12.1-2.2,22.8,0.5,31.1,10.1c5.2,6,10.7,8.4,17.7,5.1c6.4-3.1,10.9-15.6,6.9-21.5
	c-5.7-8.7-10.8-18.5-23.2-20.6c-14-2.4-28.7,1.5-34.1,13.1c-0.1-7.6,1.2-15.1,6.1-22.7c-4.9,0.8-8.1,1.3-11.4,2
	c14.1-4.9,19.4-15.1,19.5-29.3c-3.6,0.8-6.7,1.5-9.8,2.1c11-7.7,18.7-16.7,18-30.7c-4.3,1.2-8.4,2.3-12.4,3.4
	c-0.6-0.9-1.2-1.8-1.9-2.6c17.1-5.9,19.4-18.7,18.2-33.4c-3.6,0.6-6.8,1.1-9.9,1.7c10.1-4.9,18-29.1,15.6-38.5
	c-3.4,0.8-6.8,1.6-12,2.8c8-9.1,13.5-17.9,15-27.6c5.8-1.3,11.5-2.9,17.4-4.1c3.6-0.8,4.7-2.3,4.6-4.4c1.3,0.3,3.3-0.1,5.9-1.5
	c7.7-4.1,15.5-7.9,22.9-12.6c2.6-1.6,4.4-4.3,6.3-6.7c0.4,0.2,0.7,0.6,1.1,1c4.3-4.9,8.5-9.9,12.8-14.9c-5.1,4.1-15,4.3-15,13
	c0.1,0.1,0.1,0.1,0.2,0.2c-11.7,5.4-23.1,10.4-35.5,16.2c-0.2-0.3-0.1-0.6-0.3-0.9c-6.8,1.1-13.6,2.1-20.4,3.1
	c-0.3,0-0.6,0.1-0.9,0.1c0.2-0.4,0.6-0.7,0.7-0.9c3.1-4.3,5.5-9.3,6.9-15.2c7-1.4,13.8-3.7,20.7-5.5c5-1.2,8.2-3.6,8.8-7.4
	c0.2,0.8,0.5,1.7,0.7,2.7c16.4-3.1,39.4-18.5,44.6-30c0.2,0.2,0.4,0.4,0.7,0.6c5.9-6.3,11.7-12.9,17.6-19.3
	c-7.9,4.2-16.9,7-19.3,16.4c-2.5,0.8-4.7,1.3-6.8,2.4c-10,5.3-19.5,11.3-29.8,16c-5.8,2.7-8.2,3.5-8.6,5.8
	c-8.8,0.9-17.3,1.8-25.7,2.7c0.1-2.1,0.2-4.1,0.2-6.2c-0.2-4.7-0.6-9.4-0.9-14c2.7-0.3,5.4-0.7,7.9-1.3c12.9-2.6,25.7-6.2,38.4-9.4
	c3.3-0.8,5-2.3,5.6-4.5c0.2,0.8,0.2,1.5,0.4,2.3c18.9-7.6,35.4-18.3,50.4-31.9c-0.1-0.6-0.3-1.2-0.5-1.7
	c5.8-7.9,11.7-15.8,17.4-23.5c-0.7-0.5-1.3-0.8-2-1.4c-3.4,8.9-15.1,11.7-16.1,22.5c-0.3-0.9-0.5-1.7-0.7-2.7
	c-10.6,6.2-21,12.6-31.7,18.7c-2.4,1.4-5.2,1.8-8,2.6c-7.5,2.4-10.1,3.3-10.4,7.2c-1.9-3.7-5.2-1.9-8.7-1.4
	c-14.5,2.6-29,4.8-43.7,7.5c-0.5-7-1.1-13.9-1.6-20.9c8-0.2,16.1-1.2,24-2c4.2-0.4,8.3-1.4,12.5-2.3c8.7-2.2,17.8-3.4,25.8-7.2
	c2.7-1.3,3.6-6.6,5.2-10.9c-0.1,2.6-0.3,5.9-0.5,10.2c17.9-10.3,34.8-20.1,51.2-29.6c0-0.5-0.1-1.1-0.2-1.6
	c7.1-8.3,14.4-16.6,21.5-24.9c-0.9-0.7-1.7-1.4-2.6-2.1c-4.8,8.9-15.8,12.6-19.3,22.7c-0.1-1.4-0.2-2.7-0.4-3.5
	c-16.1,8-32.5,16.2-49.7,24.8c-0.1,0.6-0.1,1.2,0,1.7c0.2,0.2,0.4,0.2,0.7,0.3c-0.3,0.7-0.5,1.4-0.8,2.1c0-0.8,0-1.7,0.2-2.4
	c-0.6-0.4-1.4-0.7-2.2-1.1c-8.9,2-17.8,4.8-26.8,5.9c-13.2,1.5-26.6,2.3-40,3c-0.3-3.8-0.7-7.6-1-11.5l0,0
	c7.4-15.5,21.1-40.6,40.7-58.5c6.6,4,14.3,6.5,22.8,7.3c27.4,2.4,49-7,66.8-29.3c25.7-32.4,30.2-68,20-105.9
	c-6.5-24-19.6-44.4-40.2-59.9c-11.9-8.9-25.4-14.2-36.8-16.3c14.2-28.1,24-72.5-17.1-118.3C420.4,27.3,405,21.6,393.1,20.1z
	 M449.9,167.9c7.9,13.1,11.7,27,12.9,41.8c1.6,19-1.1,37.1-16.2,50.7c-6.8,6.2-14.3,11.9-22.3,16.4c-2.2,1.3-4.3,2.5-6.2,3.9
	c-1.8-3.7-3-7.7-4.2-12c-3.2-12.9,2.5-22.6,6-33.5c-0.8-0.7-1.6-1.2-2.5-1.7c-4.1,4.9-8.9,9.3-12,14.9c-5,8.9-9.6,18.2-12.9,28.1
	c-4.4,12.7-1.4,24.1,5,34.4c-1.7,9.1-0.5,18.9,3.1,28.8c-2.2,0.8-4.5,1.7-6.7,3.1c-15.3,9.2-27.1,21.7-30.2,37.6
	c-1.2-1.8-2.6-3.5-3.9-5.2c-5.9-7.3-12.4-14-19.2-20.5c-1-10.5-2.5-21.1-3.4-31.8c0-14.1,1.8-28.1,7.7-35.9
	c14.8-19.2,88.3-96.3,88.3-96.3s8.1-8.3,16.3-22C449.6,168.4,449.6,168,449.9,167.9C449.8,167.8,449.9,167.9,449.9,167.9z"/>
</svg>
