<?xml version="1.0" encoding="utf-8"?>
<!-- Generator: Adobe Illustrator 18.1.0, SVG Export Plug-In . SVG Version: 6.00 Build 0)  -->
<svg version="1.1" id="Layer_1" xmlns="http://www.w3.org/2000/svg" xmlns:xlink="http://www.w3.org/1999/xlink" x="0px" y="0px"
	 viewBox="0 0 536 404" enable-background="new 0 0 536 404" xml:space="preserve">
<path fill="#808285" d="M186,318.5c-0.1-0.2-0.3-0.3-0.4-0.5c0.3,0,0.6,0.1,0.9,0.1C186.3,318.2,186.2,318.4,186,318.5z"/>
<path fill="#808285" d="M137.9,186c-0.2,0.7-0.5,1.4-0.7,2.1C137.3,187.3,137.5,186.6,137.9,186z"/>
<path fill="#808285" d="M137.9,186c-0.2,0.7-0.5,1.4-0.7,2.1C137.3,187.3,137.5,186.6,137.9,186z"/>
<path fill="#808285" d="M280.8,319.9c-0.5,0.1-1,0.2-1.5,0.3c0.5-0.3,1-0.6,1.5-0.8C280.8,319.5,280.8,319.7,280.8,319.9z"/>
<path fill="#808285" d="M280.8,319.9c-0.5,0.1-1,0.2-1.5,0.3c0.5-0.3,1-0.6,1.5-0.8C280.8,319.5,280.8,319.7,280.8,319.9z"/>
<path fill="#808285" d="M233.2,348.9c-0.8,0.1-1.5-0.1-2.2-0.3C231.7,348.7,232.4,348.8,233.2,348.9z"/>
<path fill="#808285" d="M442.5,209.8C442.5,209.8,442.5,209.9,442.5,209.8c-0.2,0-0.5,0.1-0.7,0.1c0,0,0,0,0-0.1
	C442.1,209.9,442.3,209.8,442.5,209.8z"/>
<path fill="#808285" d="M506.2,116c0-0.1-0.1-0.2-0.1-0.3c-2.2-4.1-5.1-8.4-8.9-12.2c-0.1-0.1-0.1-0.1-0.1-0.1c0,0,0,0,0,0
	c-10.1-9.9-26.1-15.9-51.3-4c2.4-0.7,47.3-14.1,57.3,23.9c9,34.1-10.1,73.5-60.2,76.4c-0.1,0-0.2,0-0.3,0c0,0,0,0,0,0
	c-7,0.3-14.6,0-22.8-1.2l-91-17.9c0,0-7.5,0.6-15.1,2.1c-9,5.8-16.4,11.7-21.8,17c0.7-3.6,1.3-7.2,2.1-10.7c-2-0.5-4.1-0.9-6.1-1.3
	c6.4-2.3,12.6-5.2,18.5-8.5c1-1.9,2.1-6.4,2.9-9.3c0,0-0.1,0.1-0.2,0.1l2-6.4c0-0.1,0-0.2,0-0.3l1.5-4.8l22.6-75
	c4.8-13.4,11-24.5,18.2-33.4h0.1c0.1-0.1,0.2-0.2,0.2-0.2c27-33.2,66.5-35.8,89.8-14.3c28.4,26.1,2.8,59.7,0.6,62.5
	c39-39.3-1.8-70.2-1.8-70.2c-47.5-21.2-76.2-3.2-92.4,17.4c-1.1,1.5-2.1,0.6-3.1,2l-0.2,2.4C336,65,331.9,80.4,331.9,80.4
	s-20.8,70.5-27.2,85.9c-1.6,3.8-5,7.4-9.5,10.8c-5.9,2.9-11.9,5.6-18,8.1c-5.7-1.2-11.4-2.5-17-3.9c-3.4-0.8-6.7-1.4-10-1.6
	c10.4-7.4,14.3-20.1,14.2-33.8c0-1.8-0.2-3.4-0.6-5c7.2-1.5,13.4-4.3,18.2-8.6c8.5,0.1,16.4-2.3,22.3-9.5
	c4.5-5.5,8.4-11.6,11.9-17.8c2.1-3.8,3-8.3,4.5-12.5c-0.7-0.3-1.3-0.6-1.9-0.9c-5.2,6-8.8,13-17.7,15.7c-3,0.9-5.8,1.5-8.6,1.8
	c0.1-1.6,0.1-3.3,0.1-5c-0.2-6.4,0.5-12.9,1.6-19.2c2.6-13.9,12.3-21.9,24.2-27.9c8.8-4.4,18-7.1,28.3-7.5c1.1-1.6,3.7-2.5,4.9-4.1
	c-5.3-5.9-14.7-12.6-24.2-16.3c-16.6-6.6-33.5-7-50.1-2.2c-26.3,7.6-45.8,23.1-55.7,50.1c-6.8,18.6-4.6,34.7,6.8,50.2
	c3.5,4.8,7.8,8.5,12.5,11c-3.7,19.1-14.6,37.1-21.1,46.9c-1.6,0.6-3.1,1.2-4.7,1.8c-0.2-0.6-0.5-1.3-0.8-2
	c-5-9.1-9.9-18.2-14.3-27.6c-2.6-5.7-4.2-12-6.2-18.1c-0.5-0.3-1-0.6-1.4-0.9c0.3-0.2,0.6-0.4,0.9-0.6c-1.1-13.2-2.2-26-3.3-38.4
	c-0.5,0.3-1.2,0.6-2.2,1.1c4.6-5.7,3-13.6,6.5-19.7c-0.7-0.2-1.4-0.5-2.2-0.8c-2.3,7.3-4.7,14.5-7,21.8l0,0c-0.3,0.2-0.6,0.3-1,0.5
	c0.3,13.2,0.6,26.7,1,41.1c2.4-1.7,4.2-2.9,5.8-4c-2.1,2.4-4.8,4.8-4.6,6.9c0.7,6.1,3.2,12,5.1,17.9c0.9,2.8,1.8,5.7,3.1,8.3
	c3.1,6.4,6.1,13,10,18.9c-4.7,2.1-9.3,4.4-13.9,6.8c-4.2-10.9-8.7-21.8-12.9-32.7c-0.9-2.3-1-5-3.9-4.7c2.3-1.6,1.8-3.5,0.6-8.8
	c-0.5-1.9-1.2-3.7-1.3-5.6c-0.2-8.6-0.2-17.1-0.3-25.6c-0.6,0.2-1.2,0.3-1.8,0.5c6-4.5,3.5-12.4,7.5-17.7c-0.5-0.2-1-0.5-1.5-0.7
	c-2.6,6.3-5.1,12.6-7.6,18.9c-0.4,0.1-0.8,0.2-1.2,0.3c-2.7,13.9-3.1,27.6-0.8,41.6c0.6-0.2,1.1-0.4,1.6-0.6c-1.1,1.1-1.4,2.7-0.7,5
	c2.7,8.8,5.2,17.6,8.3,26.2c1.2,3.2,2.6,6.2,4.2,9.4c-4,2.4-8,4.9-12,7.5c-3.2-7-6.6-13.9-10-21.2c1.2-1.1,0.8-2.9,0.3-7.3
	c-0.9-7.7-0.7-15.6-1.2-23.4c-0.1-1.6-0.6-3.1-1.1-4.9c4.5-4.8,3-11.2,2.7-17.4c-1.7,5.8-3.4,11.6-5.1,17.4c0.2,0.1,0.4,0.2,0.6,0.2
	c-5,7.3-5.8,26.5-1.7,37.3c0.7-0.2,1.3-0.3,1.8-0.5c-2,1.7-2.3,4.4-1.2,8c1.6,5.4,2.8,11,5,16.2c0.3,0.7,0.6,1.4,0.9,2.1
	c-2.9,2.5-5.5,5.3-7.6,8.7c-2.3-5.3-4.4-10.7-6.7-16.1c-0.2,0-0.4,0.1-0.6,0.1c-1.2-9.5-2.3-18.1-3.3-27c0.1,0,0.1,0,0.2,0
	c5.1-3.2,1.7-9.1,2.3-13.6c-1.4,4.3-2.8,8.6-4.2,13c0.3,0.1,0.6,0.2,0.9,0.3c-0.8,1.9-1.7,4-1.7,6.2c-0.2,6,0.4,12.1,0.7,18.2
	c0.1,2.1,0.6,3.4,1.2,4.1c-1.2,0.7-1.8,2-0.9,4.4c2.2,6.2,3.9,12.7,6.4,18.7l-0.1,0.1c-0.8,0.5-1.8,1-2.3,1.8
	c-4.2,5.8-8.2,11.6-12.2,17.3c-0.4-1.6-1.1-4.1-1.6-6.5c-7.7,2.4-16.1,14.3-16.8,24.7c-1.4-3.4-2.3-5.6-3.1-7.8
	c-9.5,4.5-15.9,11-13.5,23.1c-0.8-0.2-1.5-0.4-2.3-0.5c-0.6-2.9-1.2-5.8-1.9-8.8c-8.5,4.9-11.4,12.7-12,22c-0.7-2.1-1.4-4.2-2.5-7.7
	c-3,3.5-5.8,6-7.6,9.2c-1.8,3.2-2.4,7-3.5,10.4c-0.4-0.6-1.1-1.7-1.9-2.9c-2.9,3.7-6,6.8-9.3,9.3c1-2.5,1.3-5.4,0.7-8.4
	c-3.5-15.8-11.7-20.7-26.9-20.5c-4.6,0.1-10.7,6.6-10.7,11.6c-0.1,4.9,3.4,8.4,7.4,8.8c9.9,1,15.4,6.4,19,14.2
	c-0.6,0.2-1.2,0.4-1.8,0.6c-1.8-4.4-4.7-7.5-9-9.6c-5-2.5-9.1-1-12.7,2.6c-3.5,3.5-2.7,7.9-0.6,11.4c2.3,3.9,5.7,7,11,5.1
	c-2.7,8.6,2.6,20.4,10.6,24.9c2.7,1.6,5.2,2.4,7.5,2.4c-0.2,0.2-0.5,0.4-0.7,0.6c-4.3,3.9-2.9,8.5-0.2,12.3c2.3,3.4,5.9,6,10.6,4.3
	c4.6-1.6,7.6-4.5,7.7-9.8c0.2-5.2-1.5-9.5-5.3-13.5c0.5-0.4,1-0.8,1.5-1.3c5.8,6.3,8.2,13.6,5.6,22c-1.6,5.3-1,9.4,3.6,12.3
	c4.2,2.6,13.2,0.6,15.2-3.9c3-6.6,6.9-13.2,3.5-21.3c-3.8-9.1-11.5-16.3-20.4-15.2c4.4-2.9,9.3-4.9,15.6-4.8c-2.3-2.6-3.8-4.3-5.4-6
	c8.1,6.5,16.1,5.8,24.5,0.6c-1.8-1.8-3.4-3.4-4.9-5c8.6,3.6,16.8,4.8,24.7-0.8c-2.3-2.1-4.5-4.1-6.6-6c0.3-0.7,0.6-1.4,0.8-2.1
	c9.8,7.9,18.2,4.5,26.4-1.7c-1.7-1.9-3.2-3.6-4.7-5.2c6.6,4.1,23.8-0.2,28.4-5.1c-1.7-1.7-3.5-3.4-6.1-6c8.3,1.3,15.5,1.3,21.8-1.4
	c2.9,2.9,6,5.7,8.9,8.7c1.8,1.8,3.1,1.9,4.3,1.1c0.3,0.9,1.3,1.9,3.1,2.9c5.3,3,10.4,6.2,15.9,8.8c1.9,0.9,4.2,1,6.3,1.2
	c0,0.3-0.1,0.6-0.2,1c4.5,0.7,9,1.3,13.5,2c-4.3-1.5-8.1-7.2-13.2-4c0,0.1,0,0.1,0,0.2c-7.5-4.9-14.7-9.7-22.7-14.9
	c0.1-0.2,0.3-0.3,0.4-0.5c-3.2-3.6-6.3-7.2-9.4-10.8c-0.1-0.2-0.3-0.3-0.4-0.5c0.3,0,0.6,0.1,0.8,0.1c3.7,0.2,7.5-0.2,11.5-1.6
	c3.4,3.6,7.3,6.7,10.9,10.1c2.6,2.5,5.2,3.5,7.6,2.4c-0.4,0.4-0.8,0.9-1.3,1.4c7.9,8.5,25.5,16.3,34.2,15.1c0,0.2-0.1,0.4-0.1,0.6
	c5.9,1.1,11.9,2.1,17.9,3.2c-5.4-3.1-10.4-7.3-16.8-5.3c-1.4-1.2-2.5-2.3-3.9-3.1c-6.8-3.9-13.9-7.3-20.5-11.6
	c-3.7-2.4-5.1-3.5-6.6-2.9c-3.8-4.8-7.5-9.5-11.1-14.1c1.3-0.7,2.5-1.4,3.7-2.2c2.7-1.9,5.3-3.8,7.9-5.7c1.2,1.5,2.4,2.9,3.7,4.2
	c6.3,6.6,13.2,12.8,19.8,19.1c1.7,1.6,3.2,2.1,4.7,1.6c-0.4,0.4-0.8,0.7-1.2,1.1c11.5,8.3,23.9,14,37.5,17.8
	c0.3-0.3,0.6-0.6,0.8-0.9c6.8,0.5,13.6,1,20.3,1.5c0-0.6,0-1.1,0.1-1.7c-6.5,1.3-12.5-4.5-19.2-1.1c0.4-0.5,0.8-0.9,1.3-1.4
	c-7.6-3.9-15.2-7.7-22.8-11.7c-1.7-0.9-3-2.4-4.5-3.7c-4.2-3.5-5.7-4.7-8.1-3.4c1.5-2.5-0.8-3.8-2.4-5.6
	c-6.9-7.6-13.6-15.3-20.6-22.9c3.9-2.9,7.8-5.8,11.7-8.7c3.1,4.6,6.7,9,10.1,13.4c1.8,2.3,3.9,4.4,6,6.5c4.5,4.3,8.6,9.2,13.8,12.5
	c1.8,1.1,5.2-0.3,8.3-1c-1.6,0.9-3.6,2-6.2,3.5c12.7,6.7,24.7,13,36.4,19.1c0.3-0.2,0.6-0.5,0.9-0.7c7.5,1.1,15.1,2.3,22.6,3.4
	c0.1-0.8,0.2-1.5,0.3-2.3c-7,0.5-13.3-4.6-20.5-2.9c0.8-0.6,1.5-1.1,1.9-1.5c-10.7-6.5-21.6-13.1-33-20c-0.4,0.2-0.7,0.4-1,0.6
	c0,0.2,0,0.3,0.1,0.5c-0.5,0.1-1,0.2-1.5,0.3c0.5-0.3,1-0.6,1.5-0.8c0-0.5-0.1-1.1-0.2-1.7c-4.5-4.5-9.4-8.7-13.4-13.6
	c-5.8-7.2-11.2-14.8-16.6-22.4c2.1-1.6,4.2-3.2,6.4-4.9h0c11.9-1.4,31.7-2.7,49.5,2.2c0.1,5.4,1.5,10.8,4.2,16.1
	c8.8,17,22.3,26.2,42,28.4c28.6,3.1,51.2-7.5,69.7-27.6c11.7-12.7,18.8-28,20.3-45.9c0.8-10.3-1.1-20.2-4.1-27.7
	c21.8-2.1,51.5-12.8,63.2-54C512.1,134.8,509.7,123.6,506.2,116z M440.4,204.3c-4.8,9.5-11.5,16.9-19.8,23.1
	c-10.6,8-22.2,13.1-35.8,9.3c-6.2-1.7-12.3-4-17.9-7c-1.6-0.8-3.1-1.6-4.6-2.2c1.5-2.4,3.4-4.6,5.5-6.9c6.4-6.7,14.2-6.9,21.9-8.9
	c0.1-0.7,0.1-1.4,0.1-2.1c-4.4-0.6-8.8-1.8-13.2-1.5c-7.1,0.4-14.3,1.1-21.3,2.8c-9.1,2.1-14.7,8.1-18.4,15.7
	c-6,2.4-11.3,6.7-15.8,12.5c-1.3-1-2.7-2-4.3-2.8c-11.1-5.6-22.8-7.9-33.3-3.8c0.6-1.4,1.1-2.8,1.6-4.2c2.1-6.2,3.6-12.5,4.9-18.9
	c5.8-4.5,11.5-9.3,17.4-13.8c8.3-5.2,17.2-9.4,24-8.8c16.8,1.6,89.4,16.2,89.4,16.2s7.9,1.7,19,1.4
	C440,204.3,440.2,204.2,440.4,204.3C440.4,204.2,440.4,204.3,440.4,204.3z"/>
<path fill="#808285" d="M317,164.5l-1.4,4.8c0.8-3.1,1.3-5,1.3-5L317,164.5z"/>
</svg>
