<?xml version="1.0" encoding="utf-8"?>
<!-- Generator: Adobe Illustrator 18.1.0, SVG Export Plug-In . SVG Version: 6.00 Build 0)  -->
<svg version="1.1" id="Layer_1" xmlns="http://www.w3.org/2000/svg" xmlns:xlink="http://www.w3.org/1999/xlink" x="0px" y="0px"
	 viewBox="9.2 100 784.8 308" enable-background="new 9.2 100 784.8 308" xml:space="preserve">
<g id="h3hEbN.tif_1_">
	<g>
		<g>
			<path fill="#F05C6E" d="M-63.5,2876.3c-0.2-0.2-0.4-0.3-0.6-0.5c-19-18.1-38.7-35.3-55.4-49.8l-3.5-3c-10.4-9-21.1-18.3-31.3-28
				c-9-8.6-15.8-16.2-21.4-23.9c-9.2-12.4-15.2-26.3-18.1-41.2c-2-10.7-2.8-21.6-2.4-32.4c0.7-16.7,6.4-31.5,16.9-43.9
				c9-10.7,20.6-18.1,34.4-22.1c6.6-1.9,13.6-2.9,20.6-2.9c1.3,0,2.7,0,4,0.1c14.5,0.8,28,5.6,40.1,14.5c7.4,5.4,14,12.2,19.6,20.2
				c0.5-0.8,1.1-1.5,1.7-2.3c8.5-11.4,18.9-20,30.9-25.6c7.2-3.4,14.8-5.5,22.4-6.4c3-0.3,6-0.5,8.9-0.5c11.4,0,22.3,2.5,32.2,7.5
				c18.4,9.2,30.7,24,36.7,44c2,6.6,2.9,13.6,2.9,21.3c0,6.9-0.4,13.3-1.1,19.6c-2.3,19.8-9.6,37.6-21.7,53
				c-5.9,7.4-12.7,14.8-21.5,23.1c-9.5,9-19.6,17.7-29.3,26.1l-1.8,1.6c-18.2,15.7-37.7,32.8-56.8,51c-0.1,0.1-0.2,0.2-0.4,0.3
				l-3,2.6L-63.5,2876.3z"/>
			<path fill="#FFFFFF" d="M-124.2,2633.2c1.3,0,2.5,0,3.8,0.1c13.9,0.7,26.4,5.4,37.6,13.6c8.7,6.4,15.7,14.3,21.4,23.5
				c0.2,0.4,0.5,0.8,0.7,1.2c1.8-2.6,3.5-5.2,5.3-7.7c7.8-10.4,17.4-18.7,29.2-24.2c6.7-3.1,13.7-5.2,21-6c2.8-0.3,5.6-0.5,8.4-0.5
				c10.5,0,20.6,2.2,30.2,7c17.4,8.7,28.8,22.6,34.3,41.3c1.9,6.5,2.7,13.2,2.7,20c0,6.4-0.3,12.7-1.1,19.1
				c-2.2,18.9-9,35.8-20.8,50.8c-6.4,8.1-13.6,15.5-21.1,22.6c-10,9.5-20.5,18.5-31,27.5c-19.3,16.7-38.5,33.5-56.9,51.1
				c-0.1,0.1-0.2,0.2-0.3,0.3c-0.2-0.1-0.3-0.3-0.5-0.4c-18.1-17.2-36.7-33.6-55.6-49.9c-11.7-10.1-23.4-20.1-34.6-30.8
				c-7.5-7.2-14.7-14.8-20.9-23.3c-8.7-11.8-14.5-24.9-17.3-39.4c-2-10.4-2.8-20.8-2.3-31.4c0.6-15.5,5.8-29.3,15.9-41.2
				c8.6-10.2,19.5-17,32.2-20.7C-137.2,2634.1-130.8,2633.2-124.2,2633.2 M-124.2,2624.2v9V2624.2c-7.4,0-14.8,1-21.8,3.1
				c-14.7,4.2-27,12.1-36.6,23.5c-11.2,13.2-17.2,28.9-18,46.6c-0.5,11.2,0.4,22.4,2.5,33.4c3,15.6,9.3,30.1,18.9,43
				c5.8,7.8,12.7,15.6,21.9,24.4c10.2,9.8,21,19.1,31.4,28.1l3.5,3c16.7,14.4,36.3,31.6,55.2,49.6c0.4,0.4,0.7,0.6,0.9,0.8l0,0
				l5.9,4.9l5.8-5.1l0.1-0.1c0.2-0.2,0.4-0.3,0.5-0.5c19.1-18.1,38.5-35.1,56.6-50.8l1.8-1.6c9.8-8.4,19.8-17.1,29.4-26.2
				c9-8.5,16-16,22-23.6c12.7-16.1,20.3-34.7,22.6-55.3c0.7-6.4,1.1-13.1,1.1-20.1c0-8.1-1-15.5-3.1-22.6c-6.3-21.3-19.4-37-39-46.8
				c-10.6-5.3-22.1-8-34.2-8c-3.1,0-6.2,0.2-9.4,0.5c-8.2,0.9-16.2,3.2-23.9,6.8c-11.8,5.5-22.1,13.8-30.7,24.5
				c-5-6.3-10.7-11.7-16.9-16.3c-12.8-9.4-27.1-14.6-42.5-15.4C-121.4,2624.3-122.8,2624.2-124.2,2624.2L-124.2,2624.2z"/>
		</g>
	</g>
</g>
<path fill="#E1667B" d="M168.9,2717.1c0,0,0-0.1,0-0.1c0,0,0.1,0.1,0.1,0.1C169,2717,169,2717,168.9,2717.1z"/>
<path fill="#E1667B" d="M174.9,2688.3c-0.1,0.1-0.2,0.2-0.4,0.3C174.7,2688.4,174.8,2688.3,174.9,2688.3z"/>
<path fill="#E1667B" d="M174.9,2688.3c-0.1,0.1-0.2,0.2-0.4,0.3C174.7,2688.4,174.8,2688.3,174.9,2688.3z"/>
<path fill="#E1667B" d="M185.6,2727.7c-0.1,0-0.2-0.1-0.3-0.1C185.4,2727.6,185.5,2727.6,185.6,2727.7
	C185.6,2727.6,185.6,2727.7,185.6,2727.7z"/>
<path fill="#E1667B" d="M185.6,2727.7c-0.1,0-0.2-0.1-0.3-0.1C185.4,2727.6,185.5,2727.6,185.6,2727.7
	C185.6,2727.6,185.6,2727.7,185.6,2727.7z"/>
<path fill="#E1667B" d="M173.9,2727.6c-0.1-0.1-0.3-0.2-0.4-0.3C173.7,2727.4,173.8,2727.5,173.9,2727.6z"/>
<text transform="matrix(1 0 0 1 106.3966 2798.6914)"><tspan x="0" y="0" fill="#FFFFFF" font-family="'Oswald'" font-size="136.9609" letter-spacing="2">FIN</tspan><tspan x="176.4" y="0" fill="#FFFFFF" font-family="'Oswald'" font-size="136.9609">D</tspan><tspan x="252.2" y="0" fill="#FFFFFF" font-family="'Oswald'" font-size="136.9609" letter-spacing="2"> YOUR</tspan><tspan x="594.1" y="0" fill="#FFFFFF" font-family="'Oswald'" font-size="136.9609"> </tspan><tspan x="617.5" y="0" fill="#FFFFFF" font-family="'Oswald'" font-size="136.9609" letter-spacing="2">LOBSTE</tspan><tspan x="1034.5" y="0" fill="#FFFFFF" font-family="'Oswald'" font-size="136.9609">R</tspan></text>
<g id="h3hEbN.tif_2_">
	<g>
		<g>
			<path fill="#F05C6E" d="M152.8,176.6c1.8-2.5,3.4-5,5.2-7.4c7.5-10,16.8-18,28.2-23.4c6.4-3,13.2-5,20.3-5.8
				c13-1.4,25.5,0.5,37.3,6.3c16.8,8.4,27.8,21.8,33.1,39.8c1.9,6.3,2.6,12.8,2.6,19.3c0,6.2-0.3,12.3-1,18.4
				c-2.1,18.2-8.7,34.6-20,49c-6.2,7.8-13.1,15-20.3,21.8c-9.7,9.2-19.8,17.9-29.9,26.6c-18.6,16.1-37.1,32.4-55,49.3
				c-0.1,0.1-0.2,0.2-0.3,0.3c-0.2-0.1-0.3-0.3-0.5-0.4C135,354,117,338.1,98.8,322.4c-11.3-9.7-22.6-19.4-33.3-29.8
				c-7.3-7-14.2-14.3-20.2-22.5c-8.4-11.4-14-24.1-16.7-38c-1.9-10-2.7-20.1-2.2-30.3C27,187,32,173.6,41.7,162.2
				c8.3-9.8,18.8-16.4,31.1-19.9c7.3-2.1,14.7-2.9,22.3-2.5c13.4,0.7,25.5,5.2,36.3,13.2c8.4,6.2,15.2,13.8,20.7,22.6
				C152.3,175.9,152.5,176.2,152.8,176.6z"/>
		</g>
	</g>
</g>
<path fill="#E1667B" d="M310.8,274C310.8,274,310.8,273.9,310.8,274C310.8,273.9,310.8,274,310.8,274C310.8,274,310.8,274,310.8,274
	z"/>
<path fill="#E1667B" d="M314.6,255.6c-0.1,0.1-0.2,0.1-0.2,0.2C314.5,255.7,314.6,255.6,314.6,255.6z"/>
<path fill="#E1667B" d="M314.6,255.6c-0.1,0.1-0.2,0.1-0.2,0.2C314.5,255.7,314.6,255.6,314.6,255.6z"/>
<path fill="#E1667B" d="M321.4,280.8c-0.1,0-0.1,0-0.2-0.1C321.3,280.7,321.4,280.8,321.4,280.8
	C321.5,280.8,321.5,280.8,321.4,280.8z"/>
<path fill="#E1667B" d="M321.4,280.8c-0.1,0-0.1,0-0.2-0.1C321.3,280.7,321.4,280.8,321.4,280.8
	C321.5,280.8,321.5,280.8,321.4,280.8z"/>
<path fill="#E1667B" d="M314,280.8c-0.1,0-0.2-0.1-0.2-0.2C313.8,280.6,313.9,280.7,314,280.8z"/>
<rect x="58" y="160" fill="none" width="856" height="360"/>
<text transform="matrix(1 0 0 1 295.6621 243.1934)"><tspan x="0" y="0" fill="#FFFFFF" font-family="'Oswald-Light'" font-size="99">FIND YOUR</tspan><tspan x="-1.5" y="113.6" fill="#FFFFFF" font-family="'Oswald-Light'" font-size="120">LOBSTER</tspan></text>
</svg>
