<?xml version="1.0" encoding="utf-8"?>
<!-- Generator: Adobe Illustrator 18.1.0, SVG Export Plug-In . SVG Version: 6.00 Build 0)  -->
<svg version="1.1" id="Layer_1" xmlns="http://www.w3.org/2000/svg" xmlns:xlink="http://www.w3.org/1999/xlink" x="0px" y="0px"
	 viewBox="-90 90 792 612" enable-background="new -90 90 792 612" xml:space="preserve">
<path fill="#F05B6E" d="M597,396.4c0,0.1,0,0.3,0,0.4c-0.1-0.1-0.3-0.3-0.4-0.3C596.7,396.4,596.8,396.4,597,396.4z"/>
<path fill="#F05B6E" d="M514.9,328.5c4,3.4,7.9,6.7,11.9,9.9c0.3,0,0.4,0,0.7,0c4.5,7.8,9.1,15.5,14,23.8c-2-0.1-3.5-0.1-4.8-0.1
	c2,0.6,4.5,1,5.1,2.3c1.8,3.7,2.5,8,3.5,12.1c0.4,1.9,1,4,1.2,5.9c0.4,3.8,0.9,7.5,1,11.3c3.2-0.3,6.6-0.6,9.8-0.9
	c-1.3-6.7-2.3-13.6-3.7-20.5c-0.3-1.6-1.2-3.2,0.6-4.1c-1.9-0.1-2.3-1.3-3.4-4.8c-0.4-1.2-0.6-2.6-1.3-3.7c-2.9-5-6-9.9-8.9-14.8
	c0.4-0.1,0.7-0.3,1.2-0.3c-5-0.4-6.4-5.9-10.5-7.5c0.1-0.3,0.4-0.6,0.6-0.9c3.7,2.6,7.5,5.4,11.1,8c0.3-0.1,0.6-0.1,0.9-0.3
	c6.4,7,11.6,14.8,15.2,23.6c-0.4,0.1-0.7,0.1-1.2,0.1c1,0.3,1.8,1,2.2,2.6c1.6,6,3.4,12,4.5,18c0.3,1.2,0.4,2.5,0.6,3.8
	c2.2-0.1,4.4-0.3,6.6-0.4c1,0,1.9,0,2.9,0c-0.4-4-0.9-7.9-1.3-12c-1.2-0.1-1.5-1.3-2.8-4.1c-2.2-4.8-5.1-9.2-7.6-13.9
	c-0.4-0.9-0.7-2-1.2-3.2c-4.4-1.2-5.7-5.4-7.8-9.1c3.1,2.8,6,5.4,9.1,8.2c-0.1,0.1-0.1,0.1-0.3,0.3c5.4,2.3,12.7,13.2,14.2,20.8
	c-0.4,0.1-0.9,0.3-1.2,0.4c1.8,0.3,2.9,1.8,3.5,4.1c0.9,3.2,1.9,6.4,2.6,9.7c2.8,0.7,5.1,1.8,7.2,3.2c0.1,0.1,0.3,0.3,0.4,0.3
	c0-0.1,0-0.3,0-0.4c-0.4-3.2-1-6.3-1.6-9.5c0.1,0,0.3-0.1,0.4-0.1c-2.6-5.9-5.1-11.1-7.8-16.7c0,0,0,0,0,0.1c-4.1,0-4.2-4.7-6.1-7
	c2.3,2,4.7,4,7,6c-0.1,0.1-0.3,0.3-0.4,0.4c1.2,0.9,2.3,1.8,3.2,2.9c2.2,3.4,4.1,7.2,6,10.7c0.7,1.3,0.9,2.2,0.7,2.8
	c0.9,0,1.8,0.4,2,2.2c0.6,2.8,1.3,5.4,2,8.2c4.7,0.7,8.8,3.2,13,7c-0.6-2.3-1-4-1.5-5.6c4.4-1.2,15.8,2.5,18.1,7.2
	c-0.3-1.5-0.6-2.9-0.9-4.7c6.9-0.7,12.9,0.3,15.8,8.3c0.4-0.3,0.9-0.6,1.2-0.9c-0.6-1.9-1-3.7-1.6-5.9c6.4-0.4,10.8,3.2,14.5,8.3
	c-0.3-1.5-0.7-2.9-1-4.7c6.7,0,11.6,2.5,13.9,9.1c-0.3-1.6-0.6-3.1-0.9-5.4c3.7,2.3,7.2,2.9,10.7,2.8c-5.6-2.5-7.3-9.4-6.3-15.9
	c0.9-5.9,5.6-8.2,9.7-11c2.6-1.9,8.6,0.1,10.1,3.2c1.6,3.2,0.6,5.9-2.3,8.3c-4.5,4-5.7,8.9-4.7,14.6c0.4,0,0.9-0.1,1.3-0.1
	c-0.7-3.7-0.1-6.7,1.8-9.7c2-3.1,4.7-3.5,7.9-2.9c3.4,0.7,4.4,3.5,4.5,6.3c0.1,3.1-0.7,6.3-4.5,7c-0.1,0-0.4,0.1-0.6,0.1
	c1.3,0.9,2.5,2.2,3.4,4.1c2.9,5.4,1.8,14-2.8,18c3.8,0.9,4.5,3.8,4.5,6.9c0,2.8-1.2,5.6-4.4,6.4c-3.4,0.7-6.1,0.3-8.2-3.1
	c-1.8-2.8-2.3-5.6-1.8-8.8c-0.4-0.1-0.9-0.1-1.3-0.3c-0.7,5.9,0.4,10.8,5.9,14.9c2.2,1.6,2.9,4.8,1.2,7.8c-1.8,2.8-7.6,4.4-10.2,2.8
	c-8.8-5.3-11.7-11-8-21.4c0.7-1.9,1.9-3.5,3.4-4.5c-2.8,0.3-5.6,0.9-8.6,2c0-1-0.1-1.9-0.1-2.3c-1.9,1.6-3.5,3.5-5.7,4.7
	c-2,1.2-4.7,1.6-7.6,2.6c0.6-2.3,0.9-3.8,1.3-5.3c-3.7,5.1-8,8.6-14.8,8.3c0.7-1.9,1.3-3.8,2-5.7c-0.4-0.4-0.7-0.7-1.2-1.2
	c-2.9,7.8-8.9,9.2-15.9,8.5c0.3-1.6,0.6-3.2,1-5.6c-4.1,5.7-13.2,9.5-18.4,8.2c0.4-1.6,1-3.2,1.3-4.2c-4.2,1.9-8.8,3.8-13.2,5.6
	c-0.6,0.3-1.3,0.1-2,0.1h-0.1c-0.7,4.4-2,8.6-2.9,13c-0.4,1.8-1.2,2.2-2,2.2c0.1,0.6-0.1,1.5-0.7,2.8c-1.9,3.7-3.8,7.3-6,10.7
	c-0.7,1.2-2,2-3.2,2.9c0.1,0.1,0.3,0.3,0.4,0.4c-2.3,2-4.7,4-7,6c1.9-2.3,2-7,6.1-7c0,0,0,0,0,0.1c2.5-5.6,5-10.8,7.8-16.7
	c-0.1,0-0.3-0.1-0.4-0.1c0.6-4,1.3-7.8,1.9-11.7c-2.3,1.2-4.8,1.9-7.5,2.3c0,0.4-0.1,1-0.1,1.5c-0.6,3.8-1.9,7.5-2.9,11.1
	c-0.6,2.3-1.8,4-3.5,4.1c0.4,0.1,0.7,0.3,1.2,0.4c-1.5,7.8-8.8,18.4-14.2,20.8c0.1,0.1,0.1,0.1,0.3,0.3c-3.1,2.8-6,5.4-9.1,8.2
	c2-3.7,3.4-7.9,7.8-9.1c0.3-1.2,0.6-2.2,1.2-3.2c2.5-4.7,5.4-9.1,7.6-13.9c1.3-2.6,1.6-3.8,2.8-4.1c0.6-5.4,1.2-10.5,1.8-15.7
	c-3.2,0.1-6.4,0.1-9.5,0c-0.3,2.3-0.4,4.7-0.9,6.9c-1.3,6-3.1,12-4.5,18c-0.4,1.6-1.2,2.3-2.2,2.6c0.3,0,0.7,0.1,1.2,0.1
	c-3.7,8.8-8.8,16.5-15.2,23.6c-0.3-0.1-0.6-0.1-0.9-0.3c-3.7,2.6-7.5,5.4-11.1,8c-0.1-0.3-0.4-0.6-0.6-0.9c4.2-1.6,5.6-7,10.7-7.5
	c-0.4-0.1-0.9-0.3-1.2-0.3c2.9-5,6-9.8,8.9-14.8c0.6-1.2,0.9-2.5,1.3-3.7c1.2-3.5,1.6-4.8,3.5-4.8c-1.8-0.9-0.9-2.5-0.6-4.1
	c1.5-7.8,2.8-15.7,4.2-23.4c-3.5-0.3-6.9-0.6-10.4-1c0.1,4.8-0.4,9.7-1,14.5c-0.1,2-0.7,4-1.2,5.9c-1,4.1-1.6,8.3-3.4,12.1
	c-0.6,1.3-3.1,1.8-5.1,2.3c1.3,0,2.8-0.1,4.8-0.1c-5,8.3-9.5,16.2-14,23.8c-0.3,0-0.4,0-0.7,0l0,0c-4,3.4-7.9,6.7-11.9,9.9
	c-0.3-0.4-0.6-0.7-1-1.2c4.2-2.2,6-7.3,10.7-8.9c-0.7,0-1.2-0.1-1.6-0.1c3.8-7.5,7.8-15.2,11.9-23.3c0.3,0,0.4,0,0.7,0
	c-0.1-0.3-0.3-0.7-0.4-1c1-4.2,2.3-8.3,2.9-12.6c0.9-6.9,1.3-13.9,1.6-20.9c0-0.6,0.1-1,0.3-1.5c-1.2-0.1-2.2-0.4-3.4-0.6
	c-7.2,3.2-19.9,9.8-28.8,19.5c1.9,3.1,2.9,6.7,3.4,10.8c1,12.9-3.5,23-14,31.2c-15.2,12-32,13.9-49.7,8.9
	c-11.3-3.1-20.8-9.4-27.9-19.2c-5.3-7-7.6-15.4-7.9-21.4c7.2,5.3,14.8,7.8,23,8.5c8.9,0.9,17.4-0.4,23.8-7.5
	c2.9-3.2,5.6-6.7,7.8-10.4c0.6-1,1.2-1.9,1.9-2.9c-1.8-0.9-3.5-1.5-5.6-2c-6-1.6-10.7,1.2-15.8,2.6c-0.3-0.4-0.6-0.7-0.7-1.2
	c2.3-1.9,4.4-4.2,7-5.6c4.2-2.3,8.6-4.4,13.2-6c6-2,11.3-0.6,16.1,2.5c4.2-0.7,8.9-0.1,13.5,1.5c0.3-1,0.9-2,1.5-3.1
	c4.8-7.9,11.6-13.8,20.2-14.3c-1.8-1.3-3.5-2.8-5.1-4.5c-2.8-2.8-5.6-5.6-8.3-8.3c-19.9-3.2-39.9-4.2-59.6,0.9
	c-9.1,2.3-17.6,7-25.9,11.4c-9.4,5-17.1,12.1-23.1,21.2c-0.4,0.7-1.3,1.3-2,1.9c15.7-25.3,39.9-36.7,68-40.8
	c12.4-1.8,25-2.2,37.3,0.3c-1-1-2-1.9-3.1-2.9c1.8-1.8,3.4-3.5,5-5.4c-12.4,2.9-33.7,3.2-55.5-2.6c-21.9-5.9-39.5-18-52.2-36.7
	c0.4-0.6,1-1,1.5-1.6c0.3,1,0.4,2,1,2.9c6.9,9.9,16.1,17.3,26.6,23.3c19.3,11,40.1,13.9,61.7,12.3c7.2-0.6,14.2-1.6,21.4-2.3
	c3.1-3.2,6.1-6.3,9.5-9.1c0.7-0.6,1.6-1.3,2.5-1.9c-7.5-1.5-13.3-6.9-17.7-14c-0.6-1-1.2-2-1.5-3.1c-4.7,1.8-9.2,2.3-13.5,1.5
	c-4.8,3.1-10.2,4.5-16.2,2.5c-4.5-1.6-8.9-3.7-13.2-6c-2.6-1.5-4.7-3.7-7-5.6c0.3-0.4,0.6-0.7,0.7-1.2c5.1,1.6,9.7,4.2,15.8,2.6
	c2-0.6,4-1.2,5.6-2c-0.6-0.9-1.3-1.9-1.9-2.9c-2.2-3.7-4.8-7.2-7.8-10.4c-6.4-7-14.9-8.2-23.8-7.5c-8.2,0.7-15.8,3.2-23,8.5
	c0.3-6,2.6-14.2,7.9-21.4c7.2-9.7,16.7-15.9,27.9-19.2c17.9-5,34.5-3.1,49.7,8.9c10.5,8.2,14.9,18.3,14,31.2
	c-0.3,4-1.5,7.6-3.4,10.8c8.5,9.2,20.3,15.5,27.7,18.9l0,0c1.8-0.1,3.7-0.3,5.4-0.6c-0.3-6.3-0.7-12.6-1.6-18.7
	c-0.6-4.2-1.9-8.3-2.9-12.6c0.1-0.3,0.3-0.7,0.4-1c0.3,0,0.7,0,1.2,0c-0.3-0.1-0.7-0.3-1-0.3c0,0.1-0.1,0.1-0.1,0.3
	c-0.3,0-0.6,0-0.7,0c-4.1-8-8-15.7-11.9-23.3c0.4,0,0.9-0.1,1.6-0.1c-4.7-1.6-6.6-6.7-10.7-8.9C514.3,329.4,514.6,329,514.9,328.5z"
	/>
<path fill="#F05B6E" d="M577.3,489.6c0.4-0.3,0.7-0.6,1.2-1C578.2,489.1,577.9,489.3,577.3,489.6z"/>
<path fill="#F05B6E" d="M577.3,489.6c0.4-0.3,0.7-0.6,1.2-1C578.2,489.1,577.9,489.3,577.3,489.6z"/>
<path fill="#F05B6E" d="M543,361.9c0.3,0.1,0.6,0.3,1,0.3c-0.4,0-0.7,0-1.2,0C543,362.1,543,361.9,543,361.9z"/>
<path fill="#F05B6E" d="M543,361.9c0.3,0.1,0.6,0.3,1,0.3c-0.4,0-0.7,0-1.2,0C543,362.1,543,361.9,543,361.9z"/>
<path fill="#F05B6E" d="M580.7,362.2c0.4,0.3,0.9,0.6,1.2,1C581.4,362.8,581.2,362.5,580.7,362.2z"/>
<g id="h3hEbN.tif">
	<g>
		<path fill="#F05B6E" d="M304,379.5c1-1.5,1.9-2.9,2.9-4.2c4.4-5.9,9.8-10.5,16.4-13.6c3.8-1.8,7.6-2.9,11.9-3.4
			c7.6-0.9,14.9,0.3,21.7,3.7c9.8,4.8,16.2,12.7,19.3,23.1c1,3.7,1.5,7.5,1.5,11.3c0,3.5-0.1,7.2-0.6,10.7
			c-1.2,10.5-5.1,20-11.7,28.5c-3.7,4.5-7.6,8.8-11.9,12.7c-5.7,5.3-11.6,10.4-17.4,15.5c-10.8,9.4-21.7,18.9-32,28.7l-0.1,0.1
			c-0.1-0.1-0.1-0.1-0.3-0.3c-10.1-9.7-20.6-18.9-31.2-27.9c-6.6-5.7-13.2-11.3-19.5-17.3c-4.2-4.1-8.2-8.3-11.7-13
			c-4.8-6.6-8.2-14-9.7-22.1c-1.2-5.9-1.6-11.7-1.3-17.6c0.3-8.6,3.2-16.4,8.9-23.1c4.8-5.7,11-9.5,18.1-11.6
			c4.2-1.2,8.6-1.8,13-1.5c7.8,0.4,14.8,3.1,21.1,7.6c4.8,3.7,8.8,8,12,13.2C303.7,379,303.9,379.2,304,379.5z"/>
	</g>
</g>
<path fill="#F05B6E" d="M4.8,454.1c0-0.1,0-0.3,0-0.4c0.1,0.1,0.3,0.3,0.4,0.3C5.1,454.1,5,454.1,4.8,454.1z"/>
<path fill="#F05B6E" d="M95.5,522c-4-3.4-7.9-6.7-11.9-9.9c-0.3,0-0.4,0-0.7,0c-4.5-7.8-9.1-15.5-14-23.8c2,0.1,3.5,0.1,4.8,0.1
	c-2-0.6-4.5-1-5.1-2.3c-1.8-3.7-2.5-8-3.5-12.1c-0.4-1.9-1-4-1.2-5.9c-0.4-3.8-0.9-7.5-1-11.3c-3.2,0.3-6.6,0.6-9.8,0.9
	c1.3,6.7,2.3,13.6,3.7,20.5c0.3,1.6,1.2,3.2-0.6,4.1c1.9,0.1,2.3,1.3,3.4,4.8c0.4,1.2,0.6,2.6,1.3,3.7c2.9,5,6,9.9,8.9,14.8
	c-0.4,0.1-0.7,0.3-1.2,0.3c5,0.4,6.4,5.9,10.5,7.5c-0.1,0.3-0.4,0.6-0.6,0.9c-3.7-2.6-7.5-5.4-11.1-8c-0.3,0.1-0.6,0.1-0.9,0.3
	c-6.4-7-11.6-14.8-15.2-23.6c0.4-0.1,0.7-0.1,1.2-0.1c-1-0.3-1.8-1-2.2-2.6c-1.6-6-3.4-12-4.5-18c-0.3-1.2-0.4-2.5-0.6-3.8
	c-2.2,0.1-4.4,0.3-6.6,0.4c-1,0-1.9,0-2.9,0c0.4,4,0.9,7.9,1.3,12c1.2,0.1,1.5,1.3,2.8,4.1c2.2,4.8,5.1,9.2,7.6,13.9
	c0.4,0.9,0.7,2,1.2,3.2c4.4,1.2,5.7,5.4,7.8,9.1c-3.1-2.8-6-5.4-9.1-8.2c0.1-0.1,0.1-0.1,0.3-0.3c-5.4-2.3-12.7-13.2-14.2-20.8
	c0.4-0.1,0.9-0.3,1.2-0.4c-1.8-0.3-2.9-1.8-3.5-4.1c-0.9-3.2-1.9-6.4-2.6-9.7c-2.8-0.7-5.1-1.8-7.2-3.2c-0.1-0.1-0.3-0.3-0.4-0.3
	c0,0.1,0,0.3,0,0.4c0.4,3.2,1,6.3,1.6,9.5c-0.1,0-0.3,0.1-0.4,0.1c2.6,5.9,5.1,11.1,7.8,16.7c0,0,0,0,0-0.1c4.1,0,4.2,4.7,6.1,7
	c-2.3-2-4.7-4-7-6c0.1-0.1,0.3-0.3,0.4-0.4c-1.2-0.9-2.3-1.8-3.2-2.9c-2.2-3.4-4.1-7.2-6-10.7c-0.7-1.3-0.9-2.2-0.7-2.8
	c-0.9,0-1.8-0.4-2-2.2c-0.6-2.8-1.3-5.4-2-8.2c-4.7-0.7-8.8-3.2-13-7c0.6,2.3,1,4,1.5,5.6c-4.4,1.2-15.8-2.5-18.1-7.2
	c0.3,1.5,0.6,2.9,0.9,4.7c-6.9,0.7-12.9-0.3-15.8-8.3c-0.4,0.3-0.9,0.6-1.2,0.9c0.6,1.9,1,3.7,1.6,5.9c-6.4,0.4-10.8-3.2-14.5-8.3
	c0.3,1.5,0.7,2.9,1,4.7c-6.7,0-11.6-2.5-13.9-9.1c0.3,1.6,0.6,3.1,0.9,5.4c-3.7-2.3-7.2-2.9-10.7-2.8c5.6,2.5,7.3,9.4,6.3,15.9
	c-0.9,5.9-5.6,8.2-9.7,11c-2.6,1.9-8.6-0.1-10.1-3.2c-1.6-3.2-0.6-5.9,2.3-8.3c4.5-4,5.7-8.9,4.7-14.6c-0.4,0-0.9,0.1-1.3,0.1
	c0.7,3.7,0.1,6.7-1.8,9.7c-2,3.1-4.7,3.5-7.9,2.9c-3.4-0.7-4.4-3.5-4.5-6.3c-0.1-3.1,0.7-6.3,4.5-7c0.1,0,0.4-0.1,0.6-0.1
	c-1.3-0.9-2.5-2.2-3.4-4.1c-2.9-5.4-1.8-14,2.8-18c-3.8-0.9-4.5-3.8-4.5-6.9c0-2.8,1.2-5.6,4.4-6.4c3.4-0.7,6.1-0.3,8.2,3.1
	c1.8,2.8,2.3,5.6,1.8,8.8c0.4,0.1,0.9,0.1,1.3,0.3c0.7-5.9-0.4-10.8-5.9-14.9c-2.2-1.6-2.9-4.8-1.2-7.8c1.8-2.8,7.6-4.4,10.2-2.8
	c8.8,5.3,11.7,11,8,21.4c-0.7,1.9-1.9,3.5-3.4,4.5c2.8-0.3,5.6-0.9,8.6-2c0,1,0.1,1.9,0.1,2.3c1.9-1.6,3.5-3.5,5.7-4.7
	c2-1.2,4.7-1.6,7.6-2.6c-0.6,2.3-0.9,3.8-1.3,5.3c3.7-5.1,8-8.6,14.8-8.3c-0.7,1.9-1.3,3.8-2,5.7c0.4,0.4,0.7,0.7,1.2,1.2
	c2.9-7.8,8.9-9.2,15.9-8.5c-0.3,1.6-0.6,3.2-1,5.6c4.1-5.7,13.2-9.5,18.4-8.2c-0.4,1.6-1,3.2-1.3,4.2c4.2-1.9,8.8-3.8,13.2-5.6
	c0.6-0.3,1.3-0.1,2-0.1h0.1c0.7-4.4,2-8.6,2.9-13c0.4-1.8,1.2-2.2,2-2.2c-0.1-0.6,0.1-1.5,0.7-2.8c1.9-3.7,3.8-7.3,6-10.7
	c0.7-1.2,2-2,3.2-2.9c-0.1-0.1-0.3-0.3-0.4-0.4c2.3-2,4.7-4,7-6c-1.9,2.3-2,7-6.1,7c0,0,0,0,0-0.1c-2.5,5.6-5,10.8-7.8,16.7
	c0.1,0,0.3,0.1,0.4,0.1c-0.6,4-1.3,7.8-1.9,11.7c2.3-1.2,4.8-1.9,7.5-2.3c0-0.4,0.1-1,0.1-1.5c0.6-3.8,1.9-7.5,2.9-11.1
	c0.6-2.3,1.8-4,3.5-4.1c-0.4-0.1-0.7-0.3-1.2-0.4c1.5-7.8,8.8-18.4,14.2-20.8c-0.1-0.1-0.1-0.1-0.3-0.3c3.1-2.8,6-5.4,9.1-8.2
	c-2,3.7-3.4,7.9-7.8,9.1c-0.3,1.2-0.6,2.2-1.2,3.2c-2.5,4.7-5.4,9.1-7.6,13.9c-1.3,2.6-1.6,3.8-2.8,4.1c-0.6,5.4-1.2,10.5-1.8,15.7
	c3.2-0.1,6.4-0.1,9.5,0c0.3-2.3,0.4-4.7,0.9-6.9c1.3-6,3.1-12,4.5-18c0.4-1.6,1.2-2.3,2.2-2.6c-0.3,0-0.7-0.1-1.2-0.1
	c3.7-8.8,8.8-16.5,15.2-23.6c0.3,0.1,0.6,0.1,0.9,0.3c3.7-2.6,7.5-5.4,11.1-8c0.1,0.3,0.4,0.6,0.6,0.9c-4.2,1.6-5.6,7-10.7,7.5
	c0.4,0.1,0.9,0.3,1.2,0.3c-2.9,5-6,9.8-8.9,14.8c-0.6,1.2-0.9,2.5-1.3,3.7c-1.2,3.5-1.6,4.8-3.5,4.8c1.8,0.9,0.9,2.5,0.6,4.1
	c-1.5,7.8-2.8,15.7-4.2,23.4c3.5,0.3,6.9,0.6,10.4,1c-0.1-4.8,0.4-9.7,1-14.5c0.1-2,0.7-4,1.2-5.9c1-4.1,1.6-8.3,3.4-12.1
	c0.6-1.3,3.1-1.8,5.1-2.3c-1.3,0-2.8,0.1-4.8,0.1c5-8.3,9.5-16.2,14-23.8c0.3,0,0.4,0,0.7,0l0,0c4-3.4,7.9-6.7,11.9-9.9
	c0.3,0.4,0.6,0.7,1,1.2c-4.2,2.2-6,7.3-10.7,8.9c0.7,0,1.2,0.1,1.6,0.1c-3.8,7.5-7.8,15.2-11.9,23.3c-0.3,0-0.4,0-0.7,0
	c0.1,0.3,0.3,0.7,0.4,1c-1,4.2-2.3,8.3-2.9,12.6c-0.9,6.9-1.3,13.9-1.6,20.9c0,0.6-0.1,1-0.3,1.5c1.2,0.1,2.2,0.4,3.4,0.6
	c7.2-3.2,19.9-9.8,28.8-19.5c-1.9-3.1-2.9-6.7-3.4-10.8c-1-12.9,3.5-23,14-31.2c15.2-12,32-13.9,49.7-8.9
	c11.3,3.1,20.8,9.4,27.9,19.2c5.3,7,7.6,15.4,7.9,21.4c-7.2-5.3-14.8-7.8-23-8.5c-8.9-0.9-17.4,0.4-23.8,7.5
	c-2.9,3.2-5.6,6.7-7.8,10.4c-0.6,1-1.2,1.9-1.9,2.9c1.8,0.9,3.5,1.5,5.6,2c6,1.6,10.7-1.2,15.8-2.6c0.3,0.4,0.6,0.7,0.7,1.2
	c-2.3,1.9-4.4,4.2-7,5.6c-4.2,2.3-8.6,4.4-13.2,6c-6,2-11.3,0.6-16.1-2.5c-4.2,0.7-8.9,0.1-13.5-1.5c-0.3,1-0.9,2-1.5,3.1
	c-4.8,7.9-11.6,13.8-20.2,14.3c1.8,1.3,3.5,2.8,5.1,4.5c2.8,2.8,5.6,5.6,8.3,8.3c19.9,3.2,39.9,4.2,59.6-0.9
	c9.1-2.3,17.6-7,25.9-11.4c9.4-5,17.1-12.1,23.1-21.2c0.4-0.7,1.3-1.3,2-1.9c-15.7,25.3-39.9,36.7-68,40.8
	c-12.4,1.8-25,2.2-37.3-0.3c1,1,2,1.9,3.1,2.9c-1.8,1.8-3.4,3.5-5,5.4c12.4-2.9,33.7-3.2,55.5,2.6c21.9,5.9,39.5,18,52.2,36.7
	c-0.4,0.6-1,1-1.5,1.6c-0.3-1-0.4-2-1-2.9c-6.9-9.9-16.1-17.3-26.6-23.3c-19.3-11-40.1-13.9-61.7-12.3c-7.2,0.6-14.2,1.6-21.4,2.3
	c-3.1,3.2-6.1,6.3-9.5,9.1c-0.7,0.6-1.6,1.3-2.5,1.9c7.5,1.5,13.3,6.9,17.7,14c0.6,1,1.2,2,1.5,3.1c4.7-1.8,9.2-2.3,13.5-1.5
	c4.8-3.1,10.2-4.5,16.2-2.5c4.5,1.6,8.9,3.7,13.2,6c2.6,1.5,4.7,3.7,7,5.6c-0.3,0.4-0.6,0.7-0.7,1.2c-5.1-1.6-9.7-4.2-15.8-2.6
	c-2,0.6-4,1.2-5.6,2c0.6,0.9,1.3,1.9,1.9,2.9c2.2,3.7,4.8,7.2,7.8,10.4c6.4,7,14.9,8.2,23.8,7.5c8.2-0.7,15.8-3.2,23-8.5
	c-0.3,6-2.6,14.2-7.9,21.4c-7.2,9.7-16.7,15.9-27.9,19.2c-17.9,5-34.5,3.1-49.7-8.9c-10.5-8.2-14.9-18.3-14-31.2
	c0.3-4,1.5-7.6,3.4-10.8c-8.5-9.2-20.3-15.5-27.7-18.9l0,0c-1.8,0.1-3.7,0.3-5.4,0.6c0.3,6.3,0.7,12.6,1.6,18.7
	c0.6,4.2,1.9,8.3,2.9,12.6c-0.1,0.3-0.3,0.7-0.4,1c-0.3,0-0.7,0-1.2,0c0.3,0.1,0.7,0.3,1,0.3c0-0.1,0.1-0.1,0.1-0.3
	c0.3,0,0.6,0,0.7,0c4.1,8,8,15.7,11.9,23.3c-0.4,0-0.9,0.1-1.6,0.1c4.7,1.6,6.6,6.7,10.7,8.9C96.1,521.1,95.8,521.5,95.5,522z"/>
<path fill="#F05B6E" d="M24.3,360.9c-0.4,0.3-0.7,0.6-1.2,1C23.5,361.5,23.8,361.2,24.3,360.9z"/>
<path fill="#F05B6E" d="M24.3,360.9c-0.4,0.3-0.7,0.6-1.2,1C23.5,361.5,23.8,361.2,24.3,360.9z"/>
<path fill="#F05B6E" d="M58.7,488.6c-0.3-0.1-0.6-0.3-1-0.3c0.4,0,0.7,0,1.2,0C58.8,488.5,58.8,488.6,58.7,488.6z"/>
<path fill="#F05B6E" d="M58.7,488.6c-0.3-0.1-0.6-0.3-1-0.3c0.4,0,0.7,0,1.2,0C58.8,488.5,58.8,488.6,58.7,488.6z"/>
<path fill="#F05B6E" d="M21.1,488.3c-0.4-0.3-0.9-0.6-1.2-1C20.3,487.7,20.6,488,21.1,488.3z"/>
</svg>
