<?xml version="1.0" encoding="utf-8"?>
<!-- Generator: Adobe Illustrator 18.1.0, SVG Export Plug-In . SVG Version: 6.00 Build 0)  -->
<svg version="1.1" id="Layer_1" xmlns="http://www.w3.org/2000/svg" xmlns:xlink="http://www.w3.org/1999/xlink" x="0px" y="0px"
	 viewBox="0 0 792 612" enable-background="new 0 0 792 612" xml:space="preserve">
<g id="h3hEbN.tif_1_">
	<g>
		<g>
			<path fill="#F05C6E" d="M-64.2,3052.4c-0.2-0.2-0.4-0.3-0.6-0.5c-19.2-18.3-39.1-35.6-55.9-50.3l-3.5-3
				c-10.5-9.1-21.3-18.5-31.6-28.3c-9.1-8.7-15.9-16.3-21.6-24.1c-9.3-12.5-15.3-26.5-18.3-41.6c-2-10.8-2.8-21.8-2.4-32.7
				c0.7-16.9,6.5-31.8,17.1-44.3c9.1-10.8,20.8-18.3,34.7-22.3c6.7-1.9,13.7-2.9,20.8-2.9c1.3,0,2.7,0,4,0.1
				c14.6,0.8,28.3,5.7,40.5,14.6c7.5,5.4,14.1,12.3,19.8,20.4c0.5-0.8,1.1-1.5,1.7-2.3c8.6-11.5,19.1-20.2,31.2-25.8
				c7.3-3.4,14.9-5.6,22.6-6.5c3-0.3,6.1-0.5,9-0.5c11.5,0,22.5,2.5,32.5,7.6c18.6,9.3,31,24.2,37,44.4c2,6.7,2.9,13.7,2.9,21.5
				c0,7-0.4,13.4-1.1,19.8c-2.3,20-9.7,37.9-21.9,53.5c-6,7.5-12.8,14.9-21.7,23.3c-9.6,9.1-19.8,17.9-29.6,26.3l-1.8,1.6
				c-18.4,15.8-38,33.1-57.3,51.5c-0.1,0.1-0.2,0.2-0.4,0.3l-3,2.6L-64.2,3052.4z"/>
			<path fill="#FFFFFF" d="M-125.4,2807c1.3,0,2.5,0,3.8,0.1c14,0.7,26.6,5.4,37.9,13.7c8.8,6.5,15.8,14.4,21.6,23.7
				c0.2,0.4,0.5,0.8,0.7,1.2c1.8-2.6,3.5-5.2,5.3-7.8c7.9-10.5,17.6-18.9,29.5-24.4c6.8-3.1,13.8-5.2,21.2-6.1
				c2.8-0.3,5.7-0.5,8.5-0.5c10.6,0,20.8,2.2,30.5,7.1c17.6,8.8,29.1,22.8,34.6,41.7c1.9,6.6,2.7,13.3,2.7,20.2
				c0,6.5-0.3,12.8-1.1,19.3c-2.2,19.1-9.1,36.1-21,51.3c-6.5,8.2-13.7,15.6-21.3,22.8c-10.1,9.6-20.7,18.7-31.3,27.8
				c-19.5,16.9-38.9,33.8-57.4,51.6c-0.1,0.1-0.2,0.2-0.3,0.3c-0.2-0.1-0.3-0.3-0.5-0.4c-18.3-17.4-37-33.9-56.1-50.4
				c-11.8-10.2-23.6-20.3-34.9-31.1c-7.6-7.3-14.8-14.9-21.1-23.5c-8.8-11.9-14.6-25.1-17.5-39.8c-2-10.5-2.8-21-2.3-31.7
				c0.6-15.6,5.9-29.6,16-41.6c8.7-10.3,19.7-17.2,32.5-20.9C-138.5,2807.9-132.1,2807-125.4,2807 M-125.4,2797.9v9.1V2797.9
				c-7.5,0-14.9,1-22,3.1c-14.8,4.2-27.2,12.2-36.9,23.7c-11.3,13.3-17.4,29.2-18.2,47c-0.5,11.3,0.4,22.6,2.5,33.7
				c3,15.7,9.4,30.4,19.1,43.4c5.9,7.9,12.8,15.7,22.1,24.6c10.3,9.9,21.2,19.3,31.7,28.4l3.5,3c16.9,14.5,36.6,31.9,55.7,50.1
				c0.4,0.4,0.7,0.6,0.9,0.8l0,0l6,4.9l5.9-5.1l0.1-0.1c0.2-0.2,0.4-0.3,0.5-0.5c19.3-18.3,38.9-35.4,57.1-51.3l1.8-1.6
				c9.9-8.5,20-17.3,29.7-26.4c9.1-8.6,16.1-16.1,22.2-23.8c12.8-16.2,20.5-35,22.8-55.8c0.7-6.5,1.1-13.2,1.1-20.3
				c0-8.2-1-15.6-3.1-22.8c-6.4-21.5-19.6-37.3-39.4-47.2c-10.7-5.3-22.3-8.1-34.5-8.1c-3.1,0-6.3,0.2-9.5,0.5
				c-8.3,0.9-16.3,3.2-24.1,6.9c-11.9,5.6-22.3,13.9-31,24.7c-5-6.4-10.8-11.8-17.1-16.4c-12.9-9.5-27.3-14.7-42.9-15.5
				C-122.6,2798-124,2797.9-125.4,2797.9L-125.4,2797.9z"/>
		</g>
	</g>
</g>
<path fill="#E1667B" d="M170.4,2891.7v-0.1l0.1,0.1C170.5,2891.6,170.5,2891.6,170.4,2891.7z"/>
<path fill="#E1667B" d="M176.4,2862.6c-0.1,0.1-0.2,0.2-0.4,0.3C176.2,2862.7,176.3,2862.6,176.4,2862.6z"/>
<path fill="#E1667B" d="M176.4,2862.6c-0.1,0.1-0.2,0.2-0.4,0.3C176.2,2862.7,176.3,2862.6,176.4,2862.6z"/>
<path fill="#E1667B" d="M187.2,2902.4c-0.1,0-0.2-0.1-0.3-0.1C187,2902.3,187.1,2902.3,187.2,2902.4
	C187.2,2902.3,187.2,2902.4,187.2,2902.4z"/>
<path fill="#E1667B" d="M187.2,2902.4c-0.1,0-0.2-0.1-0.3-0.1C187,2902.3,187.1,2902.3,187.2,2902.4
	C187.2,2902.3,187.2,2902.4,187.2,2902.4z"/>
<path fill="#E1667B" d="M175.4,2902.3c-0.1-0.1-0.3-0.2-0.4-0.3C175.2,2902.1,175.3,2902.2,175.4,2902.3z"/>
<text transform="matrix(1 0 0 1 107.2886 2974.0371)" fill="#FFFFFF" font-family="'Oswald'" font-size="138.2174" letter-spacing="1">FIN</text>
<text transform="matrix(1 0 0 1 285.3066 2974.0371)" fill="#FFFFFF" font-family="'Oswald'" font-size="138.2174">D</text>
<text transform="matrix(1 0 0 1 361.8022 2974.0371)" fill="#FFFFFF" font-family="'Oswald'" font-size="138.2174" letter-spacing="1"> YOUR</text>
<text transform="matrix(1 0 0 1 706.8389 2974.0371)" fill="#FFFFFF" font-family="'Oswald'" font-size="138.2174"> </text>
<text transform="matrix(1 0 0 1 730.4541 2974.0371)" fill="#FFFFFF" font-family="'Oswald'" font-size="138.2174" letter-spacing="1">LOBSTE</text>
<text transform="matrix(1 0 0 1 1151.2793 2974.0371)" fill="#FFFFFF" font-family="'Oswald'" font-size="138.2174">R</text>
<g id="h3hEbN.tif_2_">
	<g>
		<g>
			<path fill="#F05C6E" d="M186.1,182.9c1.8-2.5,3.4-5,5.2-7.5c7.6-10.1,17-18.2,28.5-23.6c6.5-3,13.3-5,20.5-5.9
				c13.1-1.4,25.7,0.5,37.6,6.4c17,8.5,28.1,22,33.4,40.2c1.9,6.4,2.6,12.9,2.6,19.5c0,6.3-0.3,12.4-1,18.6
				c-2.1,18.4-8.8,34.9-20.2,49.4c-6.3,7.9-13.2,15.1-20.5,22c-9.8,9.3-20,18.1-30.2,26.8c-18.8,16.2-37.4,32.7-55.5,49.8
				c-0.1,0.1-0.2,0.2-0.3,0.3c-0.2-0.1-0.3-0.3-0.5-0.4c-17.7-16.6-35.8-32.6-54.2-48.4c-11.4-9.8-22.8-19.6-33.6-30.1
				c-7.4-7.1-14.3-14.4-20.4-22.7c-8.5-11.5-14.1-24.3-16.9-38.3c-1.9-10.1-2.7-20.3-2.2-30.6c0.6-14.9,5.7-28.5,15.4-40
				c8.4-9.9,19-16.6,31.4-20.1c7.4-2.1,14.8-2.9,22.5-2.5c13.5,0.7,25.7,5.2,36.6,13.3c8.5,6.3,15.3,13.9,20.9,22.8
				C185.6,182.2,185.8,182.5,186.1,182.9z"/>
		</g>
	</g>
</g>
<path fill="#E1667B" d="M345.6,281.2C345.6,281.2,345.6,281.1,345.6,281.2C345.6,281.1,345.6,281.2,345.6,281.2L345.6,281.2z"/>
<path fill="#E1667B" d="M349.4,262.6c-0.1,0.1-0.2,0.1-0.2,0.2C349.3,262.7,349.4,262.6,349.4,262.6z"/>
<path fill="#E1667B" d="M349.4,262.6c-0.1,0.1-0.2,0.1-0.2,0.2C349.3,262.7,349.4,262.6,349.4,262.6z"/>
<path fill="#E1667B" d="M356.3,288c-0.1,0-0.1,0-0.2-0.1C356.2,287.9,356.3,288,356.3,288C356.4,288,356.4,288,356.3,288z"/>
<path fill="#E1667B" d="M356.3,288c-0.1,0-0.1,0-0.2-0.1C356.2,287.9,356.3,288,356.3,288C356.4,288,356.4,288,356.3,288z"/>
<path fill="#E1667B" d="M348.8,288c-0.1,0-0.2-0.1-0.2-0.2C348.6,287.8,348.7,287.9,348.8,288z"/>
<g enable-background="new    ">
	<path fill="#FFFFFF" d="M337.4,250.1v-84h29.3v6h-21.9v31.8h15.6v5.6h-15.6v40.6H337.4z"/>
	<path fill="#FFFFFF" d="M372.1,250.1v-84h7.4v84H372.1z"/>
	<path fill="#FFFFFF" d="M393.8,250.1v-84h5.7l26.6,66.5v-66.5h6.3v84h-5.6L400.2,185v65.1H393.8z"/>
	<path fill="#FFFFFF" d="M446.6,250.1v-84h18.9c16.3,0,21.4,11.1,21.4,25v34.1c0,13.6-4.7,24.8-21.4,24.8H446.6z M454.1,244.1h11.5
		c10.9,0,14-7.8,14-17.2v-37.5c0-9.7-3.1-17.4-14-17.4h-11.5V244.1z"/>
	<path fill="#FFFFFF" d="M527.3,250.1v-26l-18.3-57.9h8.2l13.8,50.3c6-21.8,7.7-28.6,13.8-50.3h7.8L534.7,224v26H527.3z"/>
	<path fill="#FFFFFF" d="M557.8,225.8v-35.2c0-14.2,5.1-25.6,21.4-25.6c16.3,0,21.4,11.4,21.4,25.6v35.2c0,14.1-4.7,25.7-21.4,25.7
		S557.8,239.9,557.8,225.8z M593.2,227.4v-38.5c0-10-3.1-18-14-18c-10.9,0-14,8-14,18v38.5c0,10,3.1,18,14,18
		C590.2,245.5,593.2,237.4,593.2,227.4z"/>
	<path fill="#FFFFFF" d="M612.9,229.5v-63.3h7.4v65c0,9.2,3.6,14.3,14.3,14.3c10.1,0,13.6-5.2,13.6-14.3v-65h7.4v63.3
		c0,11.8-4.4,22-20.9,22C617.4,251.4,612.9,241.3,612.9,229.5z"/>
	<path fill="#FFFFFF" d="M669.1,250.1v-84h22.4c14.6,0,18,10,18,21.7c0,8.6-2.5,17-11.7,20.3l13,41.9h-7.9l-12.2-41h-14.1v41H669.1z
		 M676.5,203.2h14.9c8.9,0,10.6-7.7,10.6-15.6c0-8.3-2-15.5-10.6-15.5h-14.9V203.2z"/>
</g>
<g enable-background="new    ">
	<path fill="#FFFFFF" d="M337.4,364.7V263h9v94.5h28.4v7.2H337.4z"/>
	<path fill="#FFFFFF" d="M382.1,335.2v-42.6c0-17.2,6.2-31,26-31c19.7,0,26,13.8,26,31v42.6c0,17.1-5.7,31.1-26,31.1
		C387.8,366.3,382.1,352.3,382.1,335.2z M425,337.2v-46.7c0-12.1-3.7-21.8-17-21.8s-17,9.8-17,21.8v46.7c0,12.1,3.7,21.9,17,21.9
		S425,349.3,425,337.2z"/>
	<path fill="#FFFFFF" d="M449.7,364.7V263h21.9c18.2,0,23,13.1,23,25.8c0,7.7-3.7,17.4-11,20.8c10.1,4.1,13.1,16.2,13.1,24.8
		c0,16.1-3.4,30.3-23.3,30.3H449.7z M458.7,306.7h14.4c9.1,0,11.8-8.6,11.8-17.7c0-10.5-3.3-19.2-14.5-19.2h-11.7V306.7z
		 M458.7,357.9h16.1c10.6,0,12.9-10.9,12.9-23.5c0-11.1-2.1-20.8-12.9-20.8h-16.1V357.9z"/>
	<path fill="#FFFFFF" d="M506.8,340.2l7.9-2.3c1.2,10.7,6.1,21.2,18.2,21.2c9.3,0,14.5-5.4,14.5-14.7c0-8.6-6.3-16-13.7-23.8
		l-15.9-16.7c-6-6.3-10.8-12.7-10.8-20.3c0-13.5,9.9-21.9,23.4-21.9c13.4,0,21.5,7.8,24.2,22.1l0.2,0.9l-7.6,2.4l-0.1-0.8
		c-1.5-9.5-7-17.3-16.7-17.3c-8.6,0-14.7,4.4-14.7,13.5c0,5.7,3.4,10.9,8.3,16.2l15,16.3c8,8.8,16.9,17.1,16.9,28.9
		c0,15-10.4,22.7-24.1,22.7C516.9,366.3,508.9,354.2,506.8,340.2z"/>
	<path fill="#FFFFFF" d="M578.1,364.7v-94.5h-19.8V263H607v7.2h-20v94.5H578.1z"/>
	<path fill="#FFFFFF" d="M613.6,364.7V263h35.5v7.2h-26.5v38.6h18.9v6.8h-18.9v42h26.5v7.2H613.6z"/>
	<path fill="#FFFFFF" d="M661.3,364.7V263h27.1c17.7,0,21.8,12.2,21.8,26.3c0,10.4-3,20.6-14.2,24.7l15.7,50.8h-9.6l-14.8-49.7
		h-17.1v49.7H661.3z M670.3,307.9h18.1c10.8,0,12.9-9.3,12.9-18.9c0-10.1-2.4-18.8-12.9-18.8h-18.1V307.9z"/>
</g>
</svg>
