<?xml version="1.0" encoding="utf-8"?>
<!-- Generator: Adobe Illustrator 18.1.0, SVG Export Plug-In . SVG Version: 6.00 Build 0)  -->
<svg version="1.1" id="Layer_1" xmlns="http://www.w3.org/2000/svg" xmlns:xlink="http://www.w3.org/1999/xlink" x="0px" y="0px"
	 viewBox="0 0 612 186" enable-background="new 0 0 612 186" xml:space="preserve">
<path fill="#808285" d="M504.1,79.3c0,0.1,0,0.2,0,0.3c-0.1-0.1-0.2-0.2-0.3-0.2C503.9,79.3,504,79.3,504.1,79.3z"/>
<path fill="#808285" d="M448,32.9c2.7,2.3,5.4,4.6,8.1,6.8c0.2,0,0.3,0,0.5,0c3.1,5.3,6.2,10.6,9.6,16.3c-1.4-0.1-2.4-0.1-3.3-0.1
	c1.4,0.4,3.1,0.7,3.5,1.6c1.2,2.5,1.7,5.5,2.4,8.3c0.3,1.3,0.7,2.7,0.8,4c0.3,2.6,0.6,5.1,0.7,7.7c2.2-0.2,4.5-0.4,6.7-0.6
	c-0.9-4.6-1.6-9.3-2.5-14c-0.2-1.1-0.8-2.2,0.4-2.8c-1.3-0.1-1.6-0.9-2.3-3.3c-0.3-0.8-0.4-1.8-0.9-2.5c-2-3.4-4.1-6.8-6.1-10.1
	c0.3-0.1,0.5-0.2,0.8-0.2c-3.4-0.3-4.4-4-7.2-5.1c0.1-0.2,0.3-0.4,0.4-0.6c2.5,1.8,5.1,3.7,7.6,5.5c0.2-0.1,0.4-0.1,0.6-0.2
	c4.4,4.8,7.9,10.1,10.4,16.1c-0.3,0.1-0.5,0.1-0.8,0.1c0.7,0.2,1.2,0.7,1.5,1.8c1.1,4.1,2.3,8.2,3.1,12.3c0.2,0.8,0.3,1.7,0.4,2.6
	c1.5-0.1,3-0.2,4.5-0.3c0.7,0,1.3,0,2,0c-0.3-2.7-0.6-5.4-0.9-8.2c-0.8-0.1-1-0.9-1.9-2.8c-1.5-3.3-3.5-6.3-5.2-9.5
	c-0.3-0.6-0.5-1.4-0.8-2.2c-3-0.8-3.9-3.7-5.3-6.2c2.1,1.9,4.1,3.7,6.2,5.6c-0.1,0.1-0.1,0.1-0.2,0.2c3.7,1.6,8.7,9,9.7,14.2
	c-0.3,0.1-0.6,0.2-0.8,0.3c1.2,0.2,2,1.2,2.4,2.8c0.6,2.2,1.3,4.4,1.8,6.6c1.9,0.5,3.5,1.2,4.9,2.2c0.1,0.1,0.2,0.2,0.3,0.2
	c0-0.1,0-0.2,0-0.3c-0.3-2.2-0.7-4.3-1.1-6.5c0.1,0,0.2-0.1,0.3-0.1c-1.8-4-3.5-7.6-5.3-11.4c0,0,0,0,0,0.1c-2.8,0-2.9-3.2-4.2-4.8
	c1.6,1.4,3.2,2.7,4.8,4.1c-0.1,0.1-0.2,0.2-0.3,0.3c0.8,0.6,1.6,1.2,2.2,2c1.5,2.3,2.8,4.9,4.1,7.3c0.5,0.9,0.6,1.5,0.5,1.9
	c0.6,0,1.2,0.3,1.4,1.5c0.4,1.9,0.9,3.7,1.4,5.6c3.2,0.5,6,2.2,8.9,4.8c-0.4-1.6-0.7-2.7-1-3.8c3-0.8,10.8,1.7,12.4,4.9
	c-0.2-1-0.4-2-0.6-3.2c4.7-0.5,8.8,0.2,10.8,5.7c0.3-0.2,0.6-0.4,0.8-0.6c-0.4-1.3-0.7-2.5-1.1-4c4.4-0.3,7.4,2.2,9.9,5.7
	c-0.2-1-0.5-2-0.7-3.2c4.6,0,7.9,1.7,9.5,6.2c-0.2-1.1-0.4-2.1-0.6-3.7c2.5,1.6,4.9,2,7.3,1.9c-3.8-1.7-5-6.4-4.3-10.9
	c0.6-4,3.8-5.6,6.6-7.5c1.8-1.3,5.9,0.1,6.9,2.2c1.1,2.2,0.4,4-1.6,5.7c-3.1,2.7-3.9,6.1-3.2,10c0.3,0,0.6-0.1,0.9-0.1
	c-0.5-2.5-0.1-4.6,1.2-6.6c1.4-2.1,3.2-2.4,5.4-2c2.3,0.5,3,2.4,3.1,4.3c0.1,2.1-0.5,4.3-3.1,4.8c-0.1,0-0.3,0.1-0.4,0.1
	c0.9,0.6,1.7,1.5,2.3,2.8c2,3.7,1.2,9.6-1.9,12.3c2.6,0.6,3.1,2.6,3.1,4.7c0,1.9-0.8,3.8-3,4.4c-2.3,0.5-4.2,0.2-5.6-2.1
	c-1.2-1.9-1.6-3.8-1.2-6c-0.3-0.1-0.6-0.1-0.9-0.2c-0.5,4,0.3,7.4,4,10.2c1.5,1.1,2,3.3,0.8,5.3c-1.2,1.9-5.2,3-7,1.9
	c-6-3.6-8-7.5-5.5-14.6c0.5-1.3,1.3-2.4,2.3-3.1c-1.9,0.2-3.8,0.6-5.9,1.4c0-0.7-0.1-1.3-0.1-1.6c-1.3,1.1-2.4,2.4-3.9,3.2
	c-1.4,0.8-3.2,1.1-5.2,1.8c0.4-1.6,0.6-2.6,0.9-3.6c-2.5,3.5-5.5,5.9-10.1,5.7c0.5-1.3,0.9-2.6,1.4-3.9c-0.3-0.3-0.5-0.5-0.8-0.8
	c-2,5.3-6.1,6.3-10.9,5.8c0.2-1.1,0.4-2.2,0.7-3.8c-2.8,3.9-9,6.5-12.6,5.6c0.3-1.1,0.7-2.2,0.9-2.9c-2.9,1.3-6,2.6-9,3.8
	c-0.4,0.2-0.9,0.1-1.4,0.1h-0.1c-0.5,3-1.4,5.9-2,8.9c-0.3,1.2-0.8,1.5-1.4,1.5c0.1,0.4-0.1,1-0.5,1.9c-1.3,2.5-2.6,5-4.1,7.3
	c-0.5,0.8-1.4,1.4-2.2,2c0.1,0.1,0.2,0.2,0.3,0.3c-1.6,1.4-3.2,2.7-4.8,4.1c1.3-1.6,1.4-4.8,4.2-4.8c0,0,0,0,0,0.1
	c1.7-3.8,3.4-7.4,5.3-11.4c-0.1,0-0.2-0.1-0.3-0.1c0.4-2.7,0.9-5.3,1.3-8c-1.6,0.8-3.3,1.3-5.1,1.6c0,0.3-0.1,0.7-0.1,1
	c-0.4,2.6-1.3,5.1-2,7.6c-0.4,1.6-1.2,2.7-2.4,2.8c0.3,0.1,0.5,0.2,0.8,0.3c-1,5.3-6,12.6-9.7,14.2c0.1,0.1,0.1,0.1,0.2,0.2
	c-2.1,1.9-4.1,3.7-6.2,5.6c1.4-2.5,2.3-5.4,5.3-6.2c0.2-0.8,0.4-1.5,0.8-2.2c1.7-3.2,3.7-6.2,5.2-9.5c0.9-1.8,1.1-2.6,1.9-2.8
	c0.4-3.7,0.8-7.2,1.2-10.7c-2.2,0.1-4.4,0.1-6.5,0c-0.2,1.6-0.3,3.2-0.6,4.7c-0.9,4.1-2.1,8.2-3.1,12.3c-0.3,1.1-0.8,1.6-1.5,1.8
	c0.2,0,0.5,0.1,0.8,0.1c-2.5,6-6,11.3-10.4,16.1c-0.2-0.1-0.4-0.1-0.6-0.2c-2.5,1.8-5.1,3.7-7.6,5.5c-0.1-0.2-0.3-0.4-0.4-0.6
	c2.9-1.1,3.8-4.8,7.3-5.1c-0.3-0.1-0.6-0.2-0.8-0.2c2-3.4,4.1-6.7,6.1-10.1c0.4-0.8,0.6-1.7,0.9-2.5c0.8-2.4,1.1-3.3,2.4-3.3
	c-1.2-0.6-0.6-1.7-0.4-2.8c1-5.3,1.9-10.7,2.9-16c-2.4-0.2-4.7-0.4-7.1-0.7c0.1,3.3-0.3,6.6-0.7,9.9c-0.1,1.4-0.5,2.7-0.8,4
	c-0.7,2.8-1.1,5.7-2.3,8.3c-0.4,0.9-2.1,1.2-3.5,1.6c0.9,0,1.9-0.1,3.3-0.1c-3.4,5.7-6.5,11.1-9.6,16.3c-0.2,0-0.3,0-0.5,0h0
	c-2.7,2.3-5.4,4.6-8.1,6.8c-0.2-0.3-0.4-0.5-0.7-0.8c2.9-1.5,4.1-5,7.3-6.1c-0.5,0-0.8-0.1-1.1-0.1c2.6-5.1,5.3-10.4,8.1-15.9
	c0.2,0,0.3,0,0.5,0c-0.1-0.2-0.2-0.5-0.3-0.7c0.7-2.9,1.6-5.7,2-8.6c0.6-4.7,0.9-9.5,1.1-14.3c0-0.4,0.1-0.7,0.2-1
	c-0.8-0.1-1.5-0.3-2.3-0.4c-4.9,2.2-13.6,6.7-19.7,13.3c1.3,2.1,2,4.6,2.3,7.4c0.7,8.8-2.4,15.7-9.6,21.3c-10.4,8.2-21.9,9.5-34,6.1
	c-7.7-2.1-14.2-6.4-19.1-13.1c-3.6-4.8-5.2-10.5-5.4-14.6c4.9,3.6,10.1,5.3,15.7,5.8c6.1,0.6,11.9-0.3,16.3-5.1
	c2-2.2,3.8-4.6,5.3-7.1c0.4-0.7,0.8-1.3,1.3-2c-1.2-0.6-2.4-1-3.8-1.4c-4.1-1.1-7.3,0.8-10.8,1.8c-0.2-0.3-0.4-0.5-0.5-0.8
	c1.6-1.3,3-2.9,4.8-3.8c2.9-1.6,5.9-3,9-4.1c4.1-1.4,7.7-0.4,11,1.7c2.9-0.5,6.1-0.1,9.2,1c0.2-0.7,0.6-1.4,1-2.1
	c3.3-5.4,7.9-9.4,13.8-9.8c-1.2-0.9-2.4-1.9-3.5-3.1c-1.9-1.9-3.8-3.8-5.7-5.7c-13.6-2.2-27.3-2.9-40.7,0.6
	c-6.2,1.6-12,4.8-17.7,7.8c-6.4,3.4-11.7,8.3-15.8,14.5c-0.3,0.5-0.9,0.9-1.4,1.3c10.7-17.3,27.3-25.1,46.5-27.9
	c8.5-1.2,17.1-1.5,25.5,0.2c-0.7-0.7-1.4-1.3-2.1-2c1.2-1.2,2.3-2.4,3.4-3.7c-8.5,2-23,2.2-37.9-1.8c-15-4-27-12.3-35.7-25.1
	c0.3-0.4,0.7-0.7,1-1.1c0.2,0.7,0.3,1.4,0.7,2c4.7,6.8,11,11.8,18.2,15.9c13.2,7.5,27.4,9.5,42.2,8.4c4.9-0.4,9.7-1.1,14.6-1.6
	c2.1-2.2,4.2-4.3,6.5-6.2c0.5-0.4,1.1-0.9,1.7-1.3c-5.1-1-9.1-4.7-12.1-9.6c-0.4-0.7-0.8-1.4-1-2.1c-3.2,1.2-6.3,1.6-9.2,1
	c-3.3,2.1-7,3.1-11.1,1.7c-3.1-1.1-6.1-2.5-9-4.1c-1.8-1-3.2-2.5-4.8-3.8c0.2-0.3,0.4-0.5,0.5-0.8c3.5,1.1,6.6,2.9,10.8,1.8
	c1.4-0.4,2.7-0.8,3.8-1.4c-0.4-0.6-0.9-1.3-1.3-2c-1.5-2.5-3.3-4.9-5.3-7.1c-4.4-4.8-10.2-5.6-16.3-5.1c-5.6,0.5-10.8,2.2-15.7,5.8
	c0.2-4.1,1.8-9.7,5.4-14.6c4.9-6.6,11.4-10.9,19.1-13.1c12.2-3.4,23.6-2.1,34,6.1c7.2,5.6,10.2,12.5,9.6,21.3
	c-0.2,2.7-1,5.2-2.3,7.4c5.8,6.3,13.9,10.6,18.9,12.9h0c1.2-0.1,2.5-0.2,3.7-0.4c-0.2-4.3-0.5-8.6-1.1-12.8c-0.4-2.9-1.3-5.7-2-8.6
	c0.1-0.2,0.2-0.5,0.3-0.7c0.2,0,0.5,0,0.8,0c-0.2-0.1-0.5-0.2-0.7-0.2c0,0.1-0.1,0.1-0.1,0.2c-0.2,0-0.4,0-0.5,0
	c-2.8-5.5-5.5-10.7-8.1-15.9c0.3,0,0.6-0.1,1.1-0.1c-3.2-1.1-4.5-4.6-7.3-6.1C447.6,33.5,447.8,33.2,448,32.9z"/>
<path fill="#808285" d="M490.7,143c0.3-0.2,0.5-0.4,0.8-0.7C491.3,142.6,491.1,142.8,490.7,143z"/>
<path fill="#808285" d="M490.7,143c0.3-0.2,0.5-0.4,0.8-0.7C491.3,142.6,491.1,142.8,490.7,143z"/>
<path fill="#808285" d="M467.2,55.7c0.2,0.1,0.4,0.2,0.7,0.2c-0.3,0-0.5,0-0.8,0C467.2,55.8,467.2,55.7,467.2,55.7z"/>
<path fill="#808285" d="M467.2,55.7c0.2,0.1,0.4,0.2,0.7,0.2c-0.3,0-0.5,0-0.8,0C467.2,55.8,467.2,55.7,467.2,55.7z"/>
<path fill="#808285" d="M493,55.9c0.3,0.2,0.6,0.4,0.8,0.7C493.5,56.3,493.3,56.1,493,55.9z"/>
<g id="h3hEbN.tif">
	<g>
		<path fill="#808285" d="M303.9,67.7c0.7-1,1.3-2,2-2.9c3-4,6.7-7.2,11.2-9.3c2.6-1.2,5.2-2,8.1-2.3c5.2-0.6,10.2,0.2,14.8,2.5
			c6.7,3.3,11.1,8.7,13.2,15.8c0.7,2.5,1,5.1,1,7.7c0,2.4-0.1,4.9-0.4,7.3c-0.8,7.2-3.5,13.7-8,19.5c-2.5,3.1-5.2,6-8.1,8.7
			c-3.9,3.6-7.9,7.1-11.9,10.6c-7.4,6.4-14.8,12.9-21.9,19.6c0,0-0.1,0.1-0.1,0.1c-0.1-0.1-0.1-0.1-0.2-0.2
			c-6.9-6.6-14.1-12.9-21.3-19.1c-4.5-3.9-9-7.7-13.3-11.8c-2.9-2.8-5.6-5.7-8-8.9c-3.3-4.5-5.6-9.6-6.6-15.1c-0.8-4-1.1-8-0.9-12
			c0.2-5.9,2.2-11.2,6.1-15.8c3.3-3.9,7.5-6.5,12.4-7.9c2.9-0.8,5.9-1.2,8.9-1c5.3,0.3,10.1,2.1,14.4,5.2c3.3,2.5,6,5.5,8.2,9
			C303.7,67.4,303.8,67.5,303.9,67.7z"/>
	</g>
</g>
<path fill="#808285" d="M99.4,118.7c0-0.1,0-0.2,0-0.3c0.1,0.1,0.2,0.2,0.3,0.2C99.6,118.7,99.5,118.7,99.4,118.7z"/>
<path fill="#808285" d="M161.4,165.1c-2.7-2.3-5.4-4.6-8.1-6.8c-0.2,0-0.3,0-0.5,0c-3.1-5.3-6.2-10.6-9.6-16.3
	c1.4,0.1,2.4,0.1,3.3,0.1c-1.4-0.4-3.1-0.7-3.5-1.6c-1.2-2.5-1.7-5.5-2.4-8.3c-0.3-1.3-0.7-2.7-0.8-4c-0.3-2.6-0.6-5.1-0.7-7.7
	c-2.2,0.2-4.5,0.4-6.7,0.6c0.9,4.6,1.6,9.3,2.5,14c0.2,1.1,0.8,2.2-0.4,2.8c1.3,0.1,1.6,0.9,2.3,3.3c0.3,0.8,0.4,1.8,0.9,2.5
	c2,3.4,4.1,6.8,6.1,10.1c-0.3,0.1-0.5,0.2-0.8,0.2c3.4,0.3,4.4,4,7.2,5.1c-0.1,0.2-0.3,0.4-0.4,0.6c-2.5-1.8-5.1-3.7-7.6-5.5
	c-0.2,0.1-0.4,0.1-0.6,0.2c-4.4-4.8-7.9-10.1-10.4-16.1c0.3-0.1,0.5-0.1,0.8-0.1c-0.7-0.2-1.2-0.7-1.5-1.8
	c-1.1-4.1-2.3-8.2-3.1-12.3c-0.2-0.8-0.3-1.7-0.4-2.6c-1.5,0.1-3,0.2-4.5,0.3c-0.7,0-1.3,0-2,0c0.3,2.7,0.6,5.4,0.9,8.2
	c0.8,0.1,1,0.9,1.9,2.8c1.5,3.3,3.5,6.3,5.2,9.5c0.3,0.6,0.5,1.4,0.8,2.2c3,0.8,3.9,3.7,5.3,6.2c-2.1-1.9-4.1-3.7-6.2-5.6
	c0.1-0.1,0.1-0.1,0.2-0.2c-3.7-1.6-8.7-9-9.7-14.2c0.3-0.1,0.6-0.2,0.8-0.3c-1.2-0.2-2-1.2-2.4-2.8c-0.6-2.2-1.3-4.4-1.8-6.6
	c-1.9-0.5-3.5-1.2-4.9-2.2c-0.1-0.1-0.2-0.2-0.3-0.2c0,0.1,0,0.2,0,0.3c0.3,2.2,0.7,4.3,1.1,6.5c-0.1,0-0.2,0.1-0.3,0.1
	c1.8,4,3.5,7.6,5.3,11.4c0,0,0,0,0-0.1c2.8,0,2.9,3.2,4.2,4.8c-1.6-1.4-3.2-2.7-4.8-4.1c0.1-0.1,0.2-0.2,0.3-0.3
	c-0.8-0.6-1.6-1.2-2.2-2c-1.5-2.3-2.8-4.9-4.1-7.3c-0.5-0.9-0.6-1.5-0.5-1.9c-0.6,0-1.2-0.3-1.4-1.5c-0.4-1.9-0.9-3.7-1.4-5.6
	c-3.2-0.5-6-2.2-8.9-4.8c0.4,1.6,0.7,2.7,1,3.8c-3,0.8-10.8-1.7-12.4-4.9c0.2,1,0.4,2,0.6,3.2c-4.7,0.5-8.8-0.2-10.8-5.7
	c-0.3,0.2-0.6,0.4-0.8,0.6c0.4,1.3,0.7,2.5,1.1,4c-4.4,0.3-7.4-2.2-9.9-5.7c0.2,1,0.5,2,0.7,3.2c-4.6,0-7.9-1.7-9.5-6.2
	c0.2,1.1,0.4,2.1,0.6,3.7c-2.5-1.6-4.9-2-7.3-1.9c3.8,1.7,5,6.4,4.3,10.9c-0.6,4-3.8,5.6-6.6,7.5c-1.8,1.3-5.9-0.1-6.9-2.2
	c-1.1-2.2-0.4-4,1.6-5.7c3.1-2.7,3.9-6.1,3.2-10c-0.3,0-0.6,0.1-0.9,0.1c0.5,2.5,0.1,4.6-1.2,6.6c-1.4,2.1-3.2,2.4-5.4,2
	c-2.3-0.5-3-2.4-3.1-4.3c-0.1-2.1,0.5-4.3,3.1-4.8c0.1,0,0.3-0.1,0.4-0.1c-0.9-0.6-1.7-1.5-2.3-2.8c-2-3.7-1.2-9.6,1.9-12.3
	c-2.6-0.6-3.1-2.6-3.1-4.7c0-1.9,0.8-3.8,3-4.4c2.3-0.5,4.2-0.2,5.6,2.1c1.2,1.9,1.6,3.8,1.2,6c0.3,0.1,0.6,0.1,0.9,0.2
	c0.5-4-0.3-7.4-4-10.2c-1.5-1.1-2-3.3-0.8-5.3c1.2-1.9,5.2-3,7-1.9c6,3.6,8,7.5,5.5,14.6c-0.5,1.3-1.3,2.4-2.3,3.1
	c1.9-0.2,3.8-0.6,5.9-1.4c0,0.7,0.1,1.3,0.1,1.6c1.3-1.1,2.4-2.4,3.9-3.2c1.4-0.8,3.2-1.1,5.2-1.8c-0.4,1.6-0.6,2.6-0.9,3.6
	c2.5-3.5,5.5-5.9,10.1-5.7c-0.5,1.3-0.9,2.6-1.4,3.9c0.3,0.3,0.5,0.5,0.8,0.8c2-5.3,6.1-6.3,10.9-5.8c-0.2,1.1-0.4,2.2-0.7,3.8
	c2.8-3.9,9-6.5,12.6-5.6c-0.3,1.1-0.7,2.2-0.9,2.9c2.9-1.3,6-2.6,9-3.8c0.4-0.2,0.9-0.1,1.4-0.1h0.1c0.5-3,1.4-5.9,2-8.9
	c0.3-1.2,0.8-1.5,1.4-1.5c-0.1-0.4,0.1-1,0.5-1.9c1.3-2.5,2.6-5,4.1-7.3c0.5-0.8,1.4-1.4,2.2-2c-0.1-0.1-0.2-0.2-0.3-0.3
	c1.6-1.4,3.2-2.7,4.8-4.1c-1.3,1.6-1.4,4.8-4.2,4.8c0,0,0,0,0-0.1c-1.7,3.8-3.4,7.4-5.3,11.4c0.1,0,0.2,0.1,0.3,0.1
	c-0.4,2.7-0.9,5.3-1.3,8c1.6-0.8,3.3-1.3,5.1-1.6c0-0.3,0.1-0.7,0.1-1c0.4-2.6,1.3-5.1,2-7.6c0.4-1.6,1.2-2.7,2.4-2.8
	c-0.3-0.1-0.5-0.2-0.8-0.3c1-5.3,6-12.6,9.7-14.2c-0.1-0.1-0.1-0.1-0.2-0.2c2.1-1.9,4.1-3.7,6.2-5.6c-1.4,2.5-2.3,5.4-5.3,6.2
	c-0.2,0.8-0.4,1.5-0.8,2.2c-1.7,3.2-3.7,6.2-5.2,9.5c-0.9,1.8-1.1,2.6-1.9,2.8c-0.4,3.7-0.8,7.2-1.2,10.7c2.2-0.1,4.4-0.1,6.5,0
	c0.2-1.6,0.3-3.2,0.6-4.7c0.9-4.1,2.1-8.2,3.1-12.3c0.3-1.1,0.8-1.6,1.5-1.8c-0.2,0-0.5-0.1-0.8-0.1c2.5-6,6-11.3,10.4-16.1
	c0.2,0.1,0.4,0.1,0.6,0.2c2.5-1.8,5.1-3.7,7.6-5.5c0.1,0.2,0.3,0.4,0.4,0.6c-2.9,1.1-3.8,4.8-7.3,5.1c0.3,0.1,0.6,0.2,0.8,0.2
	c-2,3.4-4.1,6.7-6.1,10.1c-0.4,0.8-0.6,1.7-0.9,2.5c-0.8,2.4-1.1,3.3-2.4,3.3c1.2,0.6,0.6,1.7,0.4,2.8c-1,5.3-1.9,10.7-2.9,16
	c2.4,0.2,4.7,0.4,7.1,0.7c-0.1-3.3,0.3-6.6,0.7-9.9c0.1-1.4,0.5-2.7,0.8-4c0.7-2.8,1.1-5.7,2.3-8.3c0.4-0.9,2.1-1.2,3.5-1.6
	c-0.9,0-1.9,0.1-3.3,0.1c3.4-5.7,6.5-11.1,9.6-16.3c0.2,0,0.3,0,0.5,0h0c2.7-2.3,5.4-4.6,8.1-6.8c0.2,0.3,0.4,0.5,0.7,0.8
	c-2.9,1.5-4.1,5-7.3,6.1c0.5,0,0.8,0.1,1.1,0.1c-2.6,5.1-5.3,10.4-8.1,15.9c-0.2,0-0.3,0-0.5,0c0.1,0.2,0.2,0.5,0.3,0.7
	c-0.7,2.9-1.6,5.7-2,8.6c-0.6,4.7-0.9,9.5-1.1,14.3c0,0.4-0.1,0.7-0.2,1c0.8,0.1,1.5,0.3,2.3,0.4c4.9-2.2,13.6-6.7,19.7-13.3
	c-1.3-2.1-2-4.6-2.3-7.4c-0.7-8.8,2.4-15.7,9.6-21.3c10.4-8.2,21.9-9.5,34-6.1c7.7,2.1,14.2,6.4,19.1,13.1
	c3.6,4.8,5.2,10.5,5.4,14.6c-4.9-3.6-10.1-5.3-15.7-5.8c-6.1-0.6-11.9,0.3-16.3,5.1c-2,2.2-3.8,4.6-5.3,7.1c-0.4,0.7-0.8,1.3-1.3,2
	c1.2,0.6,2.4,1,3.8,1.4c4.1,1.1,7.3-0.8,10.8-1.8c0.2,0.3,0.4,0.5,0.5,0.8c-1.6,1.3-3,2.9-4.8,3.8c-2.9,1.6-5.9,3-9,4.1
	c-4.1,1.4-7.7,0.4-11-1.7c-2.9,0.5-6.1,0.1-9.2-1c-0.2,0.7-0.6,1.4-1,2.1c-3.3,5.4-7.9,9.4-13.8,9.8c1.2,0.9,2.4,1.9,3.5,3.1
	c1.9,1.9,3.8,3.8,5.7,5.7c13.6,2.2,27.3,2.9,40.7-0.6c6.2-1.6,12-4.8,17.7-7.8c6.4-3.4,11.7-8.3,15.8-14.5c0.3-0.5,0.9-0.9,1.4-1.3
	c-10.7,17.3-27.3,25.1-46.5,27.9c-8.5,1.2-17.1,1.5-25.5-0.2c0.7,0.7,1.4,1.3,2.1,2c-1.2,1.2-2.3,2.4-3.4,3.7c8.5-2,23-2.2,37.9,1.8
	c15,4,27,12.3,35.7,25.1c-0.3,0.4-0.7,0.7-1,1.1c-0.2-0.7-0.3-1.4-0.7-2c-4.7-6.8-11-11.8-18.2-15.9c-13.2-7.5-27.4-9.5-42.2-8.4
	c-4.9,0.4-9.7,1.1-14.6,1.6c-2.1,2.2-4.2,4.3-6.5,6.2c-0.5,0.4-1.1,0.9-1.7,1.3c5.1,1,9.1,4.7,12.1,9.6c0.4,0.7,0.8,1.4,1,2.1
	c3.2-1.2,6.3-1.6,9.2-1c3.3-2.1,7-3.1,11.1-1.7c3.1,1.1,6.1,2.5,9,4.1c1.8,1,3.2,2.5,4.8,3.8c-0.2,0.3-0.4,0.5-0.5,0.8
	c-3.5-1.1-6.6-2.9-10.8-1.8c-1.4,0.4-2.7,0.8-3.8,1.4c0.4,0.6,0.9,1.3,1.3,2c1.5,2.5,3.3,4.9,5.3,7.1c4.4,4.8,10.2,5.6,16.3,5.1
	c5.6-0.5,10.8-2.2,15.7-5.8c-0.2,4.1-1.8,9.7-5.4,14.6c-4.9,6.6-11.4,10.9-19.1,13.1c-12.2,3.4-23.6,2.1-34-6.1
	c-7.2-5.6-10.2-12.5-9.6-21.3c0.2-2.7,1-5.2,2.3-7.4c-5.8-6.3-13.9-10.6-18.9-12.9h0c-1.2,0.1-2.5,0.2-3.7,0.4
	c0.2,4.3,0.5,8.6,1.1,12.8c0.4,2.9,1.3,5.7,2,8.6c-0.1,0.2-0.2,0.5-0.3,0.7c-0.2,0-0.5,0-0.8,0c0.2,0.1,0.5,0.2,0.7,0.2
	c0-0.1,0.1-0.1,0.1-0.2c0.2,0,0.4,0,0.5,0c2.8,5.5,5.5,10.7,8.1,15.9c-0.3,0-0.6,0.1-1.1,0.1c3.2,1.1,4.5,4.6,7.3,6.1
	C161.8,164.5,161.6,164.8,161.4,165.1z"/>
<path fill="#808285" d="M112.7,55c-0.3,0.2-0.5,0.4-0.8,0.7C112.2,55.4,112.4,55.2,112.7,55z"/>
<path fill="#808285" d="M112.7,55c-0.3,0.2-0.5,0.4-0.8,0.7C112.2,55.4,112.4,55.2,112.7,55z"/>
<path fill="#808285" d="M136.2,142.3c-0.2-0.1-0.4-0.2-0.7-0.2c0.3,0,0.5,0,0.8,0C136.3,142.2,136.3,142.3,136.2,142.3z"/>
<path fill="#808285" d="M136.2,142.3c-0.2-0.1-0.4-0.2-0.7-0.2c0.3,0,0.5,0,0.8,0C136.3,142.2,136.3,142.3,136.2,142.3z"/>
<path fill="#808285" d="M110.5,142.1c-0.3-0.2-0.6-0.4-0.8-0.7C110,141.7,110.2,141.9,110.5,142.1z"/>
</svg>
