<?xml version="1.0" encoding="utf-8"?>
<!-- Generator: Adobe Illustrator 18.1.0, SVG Export Plug-In . SVG Version: 6.00 Build 0)  -->
<svg version="1.1" id="Layer_1" xmlns="http://www.w3.org/2000/svg" xmlns:xlink="http://www.w3.org/1999/xlink" x="0px" y="0px"
	 viewBox="0 285 612 178" enable-background="new 0 285 612 178" xml:space="preserve">
<path fill="#F05B6E" d="M531.2,354.3c0,0.1,0,0.2,0,0.3c-0.1-0.1-0.2-0.2-0.3-0.2C530.9,354.3,531,354.3,531.2,354.3z"/>
<path fill="#F05B6E" d="M467.7,301.8c3.1,2.6,6.1,5.2,9.2,7.6c0.2,0,0.3,0,0.5,0c3.5,6,7,12,10.8,18.4c-1.5-0.1-2.7-0.1-3.7-0.1
	c1.5,0.5,3.5,0.8,3.9,1.8c1.4,2.9,1.9,6.2,2.7,9.4c0.3,1.5,0.8,3.1,0.9,4.6c0.3,2.9,0.7,5.8,0.8,8.7c2.5-0.2,5.1-0.5,7.6-0.7
	c-1-5.2-1.8-10.5-2.9-15.8c-0.2-1.2-0.9-2.5,0.5-3.2c-1.5-0.1-1.8-1-2.6-3.7c-0.3-0.9-0.5-2-1-2.9c-2.2-3.9-4.6-7.6-6.9-11.4
	c0.3-0.1,0.5-0.2,0.9-0.2c-3.9-0.3-4.9-4.6-8.1-5.8c0.1-0.2,0.3-0.5,0.5-0.7c2.9,2,5.8,4.2,8.6,6.2c0.2-0.1,0.5-0.1,0.7-0.2
	c4.9,5.4,9,11.4,11.7,18.2c-0.3,0.1-0.5,0.1-0.9,0.1c0.8,0.2,1.4,0.8,1.7,2c1.2,4.6,2.6,9.3,3.5,13.9c0.2,0.9,0.3,1.9,0.5,2.9
	c1.7-0.1,3.4-0.2,5.1-0.3c0.8,0,1.5,0,2.2,0c-0.3-3.1-0.7-6.1-1-9.3c-0.9-0.1-1.2-1-2.2-3.2c-1.7-3.7-3.9-7.1-5.9-10.7
	c-0.3-0.7-0.5-1.5-0.9-2.5c-3.4-0.9-4.4-4.2-6-7c2.4,2.2,4.6,4.2,7,6.3c-0.1,0.1-0.1,0.1-0.2,0.2c4.2,1.8,9.8,10.2,11,16.1
	c-0.3,0.1-0.7,0.2-0.9,0.3c1.4,0.2,2.2,1.4,2.7,3.2c0.7,2.5,1.5,4.9,2,7.5c2.2,0.5,3.9,1.4,5.6,2.5c0.1,0.1,0.2,0.2,0.3,0.2
	c0-0.1,0-0.2,0-0.3c-0.3-2.5-0.8-4.9-1.2-7.3c0.1,0,0.2-0.1,0.3-0.1c-2-4.6-3.9-8.6-6-12.9c0,0,0,0,0,0.1c-3.2,0-3.2-3.6-4.7-5.4
	c1.8,1.5,3.6,3.1,5.4,4.6c-0.1,0.1-0.2,0.2-0.3,0.3c0.9,0.7,1.8,1.4,2.5,2.2c1.7,2.6,3.2,5.6,4.6,8.3c0.5,1,0.7,1.7,0.5,2.2
	c0.7,0,1.4,0.3,1.5,1.7c0.5,2.2,1,4.2,1.5,6.3c3.6,0.5,6.8,2.5,10,5.4c-0.5-1.8-0.8-3.1-1.2-4.3c3.4-0.9,12.2,1.9,14,5.6
	c-0.2-1.2-0.5-2.2-0.7-3.6c5.3-0.5,10,0.2,12.2,6.4c0.3-0.2,0.7-0.5,0.9-0.7c-0.5-1.5-0.8-2.9-1.2-4.6c4.9-0.3,8.3,2.5,11.2,6.4
	c-0.2-1.2-0.5-2.2-0.8-3.6c5.2,0,9,1.9,10.7,7c-0.2-1.2-0.5-2.4-0.7-4.2c2.9,1.8,5.6,2.2,8.3,2.2c-4.3-1.9-5.6-7.3-4.9-12.3
	c0.7-4.6,4.3-6.3,7.5-8.5c2-1.5,6.6,0.1,7.8,2.5c1.2,2.5,0.5,4.6-1.8,6.4c-3.5,3.1-4.4,6.9-3.6,11.3c0.3,0,0.7-0.1,1-0.1
	c-0.5-2.9-0.1-5.2,1.4-7.5c1.5-2.4,3.6-2.7,6.1-2.2c2.6,0.5,3.4,2.7,3.5,4.9c0.1,2.4-0.5,4.9-3.5,5.4c-0.1,0-0.3,0.1-0.5,0.1
	c1,0.7,1.9,1.7,2.6,3.2c2.2,4.2,1.4,10.8-2.2,13.9c2.9,0.7,3.5,2.9,3.5,5.3c0,2.2-0.9,4.3-3.4,4.9c-2.6,0.5-4.7,0.2-6.3-2.4
	c-1.4-2.2-1.8-4.3-1.4-6.8c-0.3-0.1-0.7-0.1-1-0.2c-0.5,4.6,0.3,8.3,4.6,11.5c1.7,1.2,2.2,3.7,0.9,6c-1.4,2.2-5.9,3.4-7.9,2.2
	c-6.8-4.1-9-8.5-6.2-16.5c0.5-1.5,1.5-2.7,2.6-3.5c-2.2,0.2-4.3,0.7-6.6,1.5c0-0.8-0.1-1.5-0.1-1.8c-1.5,1.2-2.7,2.7-4.4,3.6
	c-1.5,0.9-3.6,1.2-5.9,2c0.5-1.8,0.7-2.9,1-4.1c-2.9,3.9-6.2,6.6-11.4,6.4c0.5-1.5,1-2.9,1.5-4.4c-0.3-0.3-0.5-0.5-0.9-0.9
	c-2.2,6-6.9,7.1-12.3,6.6c0.2-1.2,0.5-2.5,0.8-4.3c-3.2,4.4-10.2,7.3-14.2,6.3c0.3-1.2,0.8-2.5,1-3.2c-3.2,1.5-6.8,2.9-10.2,4.3
	c-0.5,0.2-1,0.1-1.5,0.1h-0.1c-0.5,3.4-1.5,6.6-2.2,10c-0.3,1.4-0.9,1.7-1.5,1.7c0.1,0.5-0.1,1.2-0.5,2.2c-1.5,2.9-2.9,5.6-4.6,8.3
	c-0.5,0.9-1.5,1.5-2.5,2.2c0.1,0.1,0.2,0.2,0.3,0.3c-1.8,1.5-3.6,3.1-5.4,4.6c1.5-1.8,1.5-5.4,4.7-5.4c0,0,0,0,0,0.1
	c1.9-4.3,3.9-8.3,6-12.9c-0.1,0-0.2-0.1-0.3-0.1c0.5-3.1,1-6,1.5-9c-1.8,0.9-3.7,1.5-5.8,1.8c0,0.3-0.1,0.8-0.1,1.2
	c-0.5,2.9-1.5,5.8-2.2,8.6c-0.5,1.8-1.4,3.1-2.7,3.2c0.3,0.1,0.5,0.2,0.9,0.3c-1.2,6-6.8,14.2-11,16.1c0.1,0.1,0.1,0.1,0.2,0.2
	c-2.4,2.2-4.6,4.2-7,6.3c1.5-2.9,2.6-6.1,6-7c0.2-0.9,0.5-1.7,0.9-2.5c1.9-3.6,4.2-7,5.9-10.7c1-2,1.2-2.9,2.2-3.2
	c0.5-4.2,0.9-8.1,1.4-12.1c-2.5,0.1-4.9,0.1-7.3,0c-0.2,1.8-0.3,3.6-0.7,5.3c-1,4.6-2.4,9.3-3.5,13.9c-0.3,1.2-0.9,1.8-1.7,2
	c0.2,0,0.5,0.1,0.9,0.1c-2.9,6.8-6.8,12.8-11.7,18.2c-0.2-0.1-0.5-0.1-0.7-0.2c-2.9,2-5.8,4.2-8.6,6.2c-0.1-0.2-0.3-0.5-0.5-0.7
	c3.2-1.2,4.3-5.4,8.3-5.8c-0.3-0.1-0.7-0.2-0.9-0.2c2.2-3.9,4.6-7.6,6.9-11.4c0.5-0.9,0.7-1.9,1-2.9c0.9-2.7,1.2-3.7,2.7-3.7
	c-1.4-0.7-0.7-1.9-0.5-3.2c1.2-6,2.2-12.1,3.2-18.1c-2.7-0.2-5.3-0.5-8-0.8c0.1,3.7-0.3,7.5-0.8,11.2c-0.1,1.5-0.5,3.1-0.9,4.6
	c-0.8,3.2-1.2,6.4-2.6,9.4c-0.5,1-2.4,1.4-3.9,1.8c1,0,2.2-0.1,3.7-0.1c-3.9,6.4-7.3,12.5-10.8,18.4c-0.2,0-0.3,0-0.5,0l0,0
	c-3.1,2.6-6.1,5.2-9.2,7.6c-0.2-0.3-0.5-0.5-0.8-0.9c3.2-1.7,4.6-5.6,8.3-6.9c-0.5,0-0.9-0.1-1.2-0.1c2.9-5.8,6-11.7,9.2-18
	c0.2,0,0.3,0,0.5,0c-0.1-0.2-0.2-0.5-0.3-0.8c0.8-3.2,1.8-6.4,2.2-9.7c0.7-5.3,1-10.7,1.2-16.1c0-0.5,0.1-0.8,0.2-1.2
	c-0.9-0.1-1.7-0.3-2.6-0.5c-5.6,2.5-15.4,7.6-22.3,15.1c1.5,2.4,2.2,5.2,2.6,8.3c0.8,10-2.7,17.8-10.8,24.1
	c-11.7,9.3-24.7,10.7-38.4,6.9c-8.7-2.4-16.1-7.3-21.6-14.8c-4.1-5.4-5.9-11.9-6.1-16.5c5.6,4.1,11.4,6,17.8,6.6
	c6.9,0.7,13.4-0.3,18.4-5.8c2.2-2.5,4.3-5.2,6-8c0.5-0.8,0.9-1.5,1.5-2.2c-1.4-0.7-2.7-1.2-4.3-1.5c-4.6-1.2-8.3,0.9-12.2,2
	c-0.2-0.3-0.5-0.5-0.5-0.9c1.8-1.5,3.4-3.2,5.4-4.3c3.2-1.8,6.6-3.4,10.2-4.6c4.6-1.5,8.7-0.5,12.4,1.9c3.2-0.5,6.9-0.1,10.4,1.2
	c0.2-0.8,0.7-1.5,1.2-2.4c3.7-6.1,9-10.7,15.6-11c-1.4-1-2.7-2.2-3.9-3.5c-2.2-2.2-4.3-4.3-6.4-6.4c-15.4-2.5-30.8-3.2-46.1,0.7
	c-7,1.8-13.6,5.4-20,8.8c-7.3,3.9-13.2,9.4-17.9,16.4c-0.3,0.5-1,1-1.5,1.5c12.1-19.5,30.8-28.4,52.5-31.5
	c9.6-1.4,19.3-1.7,28.8,0.2c-0.8-0.8-1.5-1.5-2.4-2.2c1.4-1.4,2.6-2.7,3.9-4.2c-9.6,2.2-26,2.5-42.9-2
	c-16.9-4.6-30.5-13.9-40.3-28.4c0.3-0.5,0.8-0.8,1.2-1.2c0.2,0.8,0.3,1.5,0.8,2.2c5.3,7.6,12.4,13.4,20.6,18
	c14.9,8.5,31,10.7,47.7,9.5c5.6-0.5,11-1.2,16.5-1.8c2.4-2.5,4.7-4.9,7.3-7c0.5-0.5,1.2-1,1.9-1.5c-5.8-1.2-10.3-5.3-13.7-10.8
	c-0.5-0.8-0.9-1.5-1.2-2.4c-3.6,1.4-7.1,1.8-10.4,1.2c-3.7,2.4-7.9,3.5-12.5,1.9c-3.5-1.2-6.9-2.9-10.2-4.6c-2-1.2-3.6-2.9-5.4-4.3
	c0.2-0.3,0.5-0.5,0.5-0.9c3.9,1.2,7.5,3.2,12.2,2c1.5-0.5,3.1-0.9,4.3-1.5c-0.5-0.7-1-1.5-1.5-2.2c-1.7-2.9-3.7-5.6-6-8
	c-4.9-5.4-11.5-6.3-18.4-5.8c-6.3,0.5-12.2,2.5-17.8,6.6c0.2-4.6,2-11,6.1-16.5c5.6-7.5,12.9-12.3,21.6-14.8
	c13.8-3.9,26.7-2.4,38.4,6.9c8.1,6.3,11.5,14.1,10.8,24.1c-0.2,3.1-1.2,5.9-2.6,8.3c6.6,7.1,15.7,12,21.4,14.6l0,0
	c1.4-0.1,2.9-0.2,4.2-0.5c-0.2-4.9-0.5-9.7-1.2-14.5c-0.5-3.2-1.5-6.4-2.2-9.7c0.1-0.2,0.2-0.5,0.3-0.8c0.2,0,0.5,0,0.9,0
	c-0.2-0.1-0.5-0.2-0.8-0.2c0,0.1-0.1,0.1-0.1,0.2c-0.2,0-0.5,0-0.5,0c-3.2-6.2-6.2-12.1-9.2-18c0.3,0,0.7-0.1,1.2-0.1
	c-3.6-1.2-5.1-5.2-8.3-6.9C467.3,302.5,467.5,302.2,467.7,301.8z"/>
<path fill="#F05B6E" d="M515.9,426.3c0.3-0.2,0.5-0.5,0.9-0.8C516.6,425.9,516.4,426.1,515.9,426.3z"/>
<path fill="#F05B6E" d="M515.9,426.3c0.3-0.2,0.5-0.5,0.9-0.8C516.6,425.9,516.4,426.1,515.9,426.3z"/>
<path fill="#F05B6E" d="M489.4,327.6c0.2,0.1,0.5,0.2,0.8,0.2c-0.3,0-0.5,0-0.9,0C489.4,327.8,489.4,327.6,489.4,327.6z"/>
<path fill="#F05B6E" d="M489.4,327.6c0.2,0.1,0.5,0.2,0.8,0.2c-0.3,0-0.5,0-0.9,0C489.4,327.8,489.4,327.6,489.4,327.6z"/>
<path fill="#F05B6E" d="M518.6,327.9c0.3,0.2,0.7,0.5,0.9,0.8C519.1,328.3,519,328.1,518.6,327.9z"/>
<g id="h3hEbN.tif">
	<g>
		<path fill="#F05B6E" d="M304.8,341.2c0.8-1.2,1.5-2.2,2.2-3.2c3.4-4.6,7.6-8.1,12.7-10.5c2.9-1.4,5.9-2.2,9.2-2.6
			c5.9-0.7,11.5,0.2,16.8,2.9c7.6,3.7,12.5,9.8,14.9,17.9c0.8,2.9,1.2,5.8,1.2,8.7c0,2.7-0.1,5.6-0.5,8.3c-0.9,8.1-3.9,15.5-9,22
			c-2.9,3.5-5.9,6.8-9.2,9.8c-4.4,4.1-9,8-13.4,12c-8.3,7.3-16.8,14.6-24.7,22.2l-0.1,0.1c-0.1-0.1-0.1-0.1-0.2-0.2
			c-7.8-7.5-15.9-14.6-24.1-21.6c-5.1-4.4-10.2-8.7-15.1-13.4c-3.2-3.2-6.3-6.4-9-10c-3.7-5.1-6.3-10.8-7.5-17.1
			c-0.9-4.6-1.2-9-1-13.6c0.2-6.6,2.5-12.7,6.9-17.9c3.7-4.4,8.5-7.3,14-9c3.2-0.9,6.6-1.4,10-1.2c6,0.3,11.4,2.4,16.3,5.9
			c3.7,2.9,6.8,6.2,9.3,10.2C304.5,340.9,304.7,341,304.8,341.2z"/>
	</g>
</g>
<path fill="#F05B6E" d="M73.6,398.9c0-0.1,0-0.2,0-0.3c0.1,0.1,0.2,0.2,0.3,0.2C73.8,398.9,73.7,398.9,73.6,398.9z"/>
<path fill="#F05B6E" d="M143.6,451.4c-3.1-2.6-6.1-5.2-9.2-7.7c-0.2,0-0.3,0-0.5,0c-3.5-6-7-12-10.8-18.4c1.5,0.1,2.7,0.1,3.7,0.1
	c-1.5-0.5-3.5-0.8-3.9-1.8c-1.4-2.9-1.9-6.2-2.7-9.4c-0.3-1.5-0.8-3.1-0.9-4.6c-0.3-2.9-0.7-5.8-0.8-8.7c-2.5,0.2-5.1,0.5-7.6,0.7
	c1,5.2,1.8,10.5,2.9,15.8c0.2,1.2,0.9,2.5-0.5,3.2c1.5,0.1,1.8,1,2.6,3.7c0.3,0.9,0.5,2,1,2.9c2.2,3.9,4.6,7.6,6.9,11.4
	c-0.3,0.1-0.5,0.2-0.9,0.2c3.9,0.3,4.9,4.6,8.1,5.8c-0.1,0.2-0.3,0.5-0.5,0.7c-2.9-2-5.8-4.2-8.6-6.2c-0.2,0.1-0.5,0.1-0.7,0.2
	c-4.9-5.4-9-11.4-11.7-18.2c0.3-0.1,0.5-0.1,0.9-0.1c-0.8-0.2-1.4-0.8-1.7-2c-1.2-4.6-2.6-9.3-3.5-13.9c-0.2-0.9-0.3-1.9-0.5-2.9
	c-1.7,0.1-3.4,0.2-5.1,0.3c-0.8,0-1.5,0-2.2,0c0.3,3.1,0.7,6.1,1,9.3c0.9,0.1,1.2,1,2.2,3.2c1.7,3.7,3.9,7.1,5.9,10.7
	c0.3,0.7,0.5,1.5,0.9,2.5c3.4,0.9,4.4,4.2,6,7c-2.4-2.2-4.6-4.2-7-6.3c0.1-0.1,0.1-0.1,0.2-0.2c-4.2-1.8-9.8-10.2-11-16.1
	c0.3-0.1,0.7-0.2,0.9-0.3c-1.4-0.2-2.2-1.4-2.7-3.2c-0.7-2.5-1.5-4.9-2-7.5c-2.2-0.5-3.9-1.4-5.6-2.5c-0.1-0.1-0.2-0.2-0.3-0.2
	c0,0.1,0,0.2,0,0.3c0.3,2.5,0.8,4.9,1.2,7.3c-0.1,0-0.2,0.1-0.3,0.1c2,4.6,3.9,8.6,6,12.9c0,0,0,0,0-0.1c3.2,0,3.2,3.6,4.7,5.4
	c-1.8-1.5-3.6-3.1-5.4-4.6c0.1-0.1,0.2-0.2,0.3-0.3c-0.9-0.7-1.8-1.4-2.5-2.2c-1.7-2.6-3.2-5.6-4.6-8.3c-0.5-1-0.7-1.7-0.5-2.2
	c-0.7,0-1.4-0.3-1.5-1.7c-0.5-2.2-1-4.2-1.5-6.3c-3.6-0.5-6.8-2.5-10-5.4c0.5,1.8,0.8,3.1,1.2,4.3c-3.4,0.9-12.2-1.9-14-5.6
	c0.2,1.2,0.5,2.2,0.7,3.6c-5.3,0.5-10-0.2-12.2-6.4c-0.3,0.2-0.7,0.5-0.9,0.7c0.5,1.5,0.8,2.9,1.2,4.6c-4.9,0.3-8.3-2.5-11.2-6.4
	c0.2,1.2,0.5,2.2,0.8,3.6c-5.2,0-9-1.9-10.7-7c0.2,1.2,0.5,2.4,0.7,4.2c-2.9-1.8-5.6-2.2-8.3-2.2c4.3,1.9,5.6,7.3,4.9,12.3
	c-0.7,4.6-4.3,6.3-7.5,8.5c-2,1.5-6.6-0.1-7.8-2.5c-1.2-2.5-0.5-4.6,1.8-6.4c3.5-3.1,4.4-6.9,3.6-11.3c-0.3,0-0.7,0.1-1,0.1
	c0.5,2.9,0.1,5.2-1.4,7.5c-1.5,2.4-3.6,2.7-6.1,2.2c-2.6-0.5-3.4-2.7-3.5-4.9c-0.1-2.4,0.5-4.9,3.5-5.4c0.1,0,0.3-0.1,0.5-0.1
	c-1-0.7-1.9-1.7-2.6-3.2c-2.2-4.2-1.4-10.8,2.2-13.9C2.5,369.6,2,367.4,2,365c0-2.2,0.9-4.3,3.4-4.9c2.6-0.5,4.7-0.2,6.3,2.4
	c1.4,2.2,1.8,4.3,1.4,6.8c0.3,0.1,0.7,0.1,1,0.2c0.5-4.6-0.3-8.3-4.6-11.5c-1.7-1.2-2.2-3.7-0.9-6c1.4-2.2,5.9-3.4,7.9-2.2
	c6.8,4.1,9,8.5,6.2,16.5c-0.5,1.5-1.5,2.7-2.6,3.5c2.2-0.2,4.3-0.7,6.6-1.5c0,0.8,0.1,1.5,0.1,1.8c1.5-1.2,2.7-2.7,4.4-3.6
	c1.5-0.9,3.6-1.2,5.9-2c-0.5,1.8-0.7,2.9-1,4.1c2.9-3.9,6.2-6.6,11.4-6.4c-0.5,1.5-1,2.9-1.5,4.4c0.3,0.3,0.5,0.5,0.9,0.9
	c2.2-6,6.9-7.1,12.3-6.6c-0.2,1.2-0.5,2.5-0.8,4.3c3.2-4.4,10.2-7.3,14.2-6.3c-0.3,1.2-0.8,2.5-1,3.2c3.2-1.5,6.8-2.9,10.2-4.3
	c0.5-0.2,1-0.1,1.5-0.1h0.1c0.5-3.4,1.5-6.6,2.2-10c0.3-1.4,0.9-1.7,1.5-1.7c-0.1-0.5,0.1-1.2,0.5-2.2c1.5-2.9,2.9-5.6,4.6-8.3
	c0.5-0.9,1.5-1.5,2.5-2.2c-0.1-0.1-0.2-0.2-0.3-0.3c1.8-1.5,3.6-3.1,5.4-4.6c-1.5,1.8-1.5,5.4-4.7,5.4c0,0,0,0,0-0.1
	c-1.9,4.3-3.9,8.3-6,12.9c0.1,0,0.2,0.1,0.3,0.1c-0.5,3.1-1,6-1.5,9c1.8-0.9,3.7-1.5,5.8-1.8c0-0.3,0.1-0.8,0.1-1.2
	c0.5-2.9,1.5-5.8,2.2-8.6c0.5-1.8,1.4-3.1,2.7-3.2c-0.3-0.1-0.5-0.2-0.9-0.3c1.2-6,6.8-14.2,11-16.1c-0.1-0.1-0.1-0.1-0.2-0.2
	c2.4-2.2,4.6-4.2,7-6.3c-1.5,2.9-2.6,6.1-6,7c-0.2,0.9-0.5,1.7-0.9,2.5c-1.9,3.6-4.2,7-5.9,10.7c-1,2-1.2,2.9-2.2,3.2
	c-0.5,4.2-0.9,8.1-1.4,12.1c2.5-0.1,4.9-0.1,7.3,0c0.2-1.8,0.3-3.6,0.7-5.3c1-4.6,2.4-9.3,3.5-13.9c0.3-1.2,0.9-1.8,1.7-2
	c-0.2,0-0.5-0.1-0.9-0.1c2.9-6.8,6.8-12.8,11.7-18.2c0.2,0.1,0.5,0.1,0.7,0.2c2.9-2,5.8-4.2,8.6-6.2c0.1,0.2,0.3,0.5,0.5,0.7
	c-3.2,1.2-4.3,5.4-8.3,5.8c0.3,0.1,0.7,0.2,0.9,0.2c-2.2,3.9-4.6,7.6-6.9,11.4c-0.5,0.9-0.7,1.9-1,2.9c-0.9,2.7-1.2,3.7-2.7,3.7
	c1.4,0.7,0.7,1.9,0.5,3.2c-1.2,6-2.2,12.1-3.2,18.1c2.7,0.2,5.3,0.5,8,0.8c-0.1-3.7,0.3-7.5,0.8-11.2c0.1-1.5,0.5-3.1,0.9-4.6
	c0.8-3.2,1.2-6.4,2.6-9.4c0.5-1,2.4-1.4,3.9-1.8c-1,0-2.2,0.1-3.7,0.1c3.9-6.4,7.3-12.5,10.8-18.4c0.2,0,0.3,0,0.5,0l0,0
	c3.1-2.6,6.1-5.2,9.2-7.6c0.2,0.3,0.5,0.5,0.8,0.9c-3.2,1.7-4.6,5.6-8.3,6.9c0.5,0,0.9,0.1,1.2,0.1c-2.9,5.8-6,11.7-9.2,18
	c-0.2,0-0.3,0-0.5,0c0.1,0.2,0.2,0.5,0.3,0.8c-0.8,3.2-1.8,6.4-2.2,9.7c-0.7,5.3-1,10.7-1.2,16.1c0,0.5-0.1,0.8-0.2,1.2
	c0.9,0.1,1.7,0.3,2.6,0.5c5.6-2.5,15.4-7.6,22.3-15.1c-1.5-2.4-2.2-5.2-2.6-8.3c-0.8-10,2.7-17.8,10.8-24.1
	c11.7-9.3,24.7-10.7,38.4-6.9c8.7,2.4,16.1,7.3,21.6,14.8c4.1,5.4,5.9,11.9,6.1,16.5c-5.6-4.1-11.4-6-17.8-6.6
	c-6.9-0.7-13.4,0.3-18.4,5.8c-2.2,2.5-4.3,5.2-6,8c-0.5,0.8-0.9,1.5-1.5,2.2c1.4,0.7,2.7,1.2,4.3,1.5c4.6,1.2,8.3-0.9,12.2-2
	c0.2,0.3,0.5,0.5,0.5,0.9c-1.8,1.5-3.4,3.2-5.4,4.3c-3.2,1.8-6.6,3.4-10.2,4.6c-4.6,1.5-8.7,0.5-12.4-1.9c-3.2,0.5-6.9,0.1-10.4-1.2
	c-0.2,0.8-0.7,1.5-1.2,2.4c-3.7,6.1-9,10.7-15.6,11c1.4,1,2.7,2.2,3.9,3.5c2.2,2.2,4.3,4.3,6.4,6.4c15.4,2.5,30.8,3.2,46.1-0.7
	c7-1.8,13.6-5.4,20-8.8c7.3-3.9,13.2-9.3,17.9-16.4c0.3-0.5,1-1,1.5-1.5c-12.1,19.5-30.8,28.4-52.5,31.5c-9.6,1.4-19.3,1.7-28.8-0.2
	c0.8,0.8,1.5,1.5,2.4,2.2c-1.4,1.4-2.6,2.7-3.9,4.2c9.6-2.2,26-2.5,42.9,2c16.9,4.6,30.5,13.9,40.3,28.4c-0.3,0.5-0.8,0.8-1.2,1.2
	c-0.2-0.8-0.3-1.5-0.8-2.2c-5.3-7.6-12.4-13.4-20.6-18c-14.9-8.5-31-10.7-47.7-9.5c-5.6,0.5-11,1.2-16.5,1.8c-2.4,2.5-4.7,4.9-7.3,7
	c-0.5,0.5-1.2,1-1.9,1.5c5.8,1.2,10.3,5.3,13.7,10.8c0.5,0.8,0.9,1.5,1.2,2.4c3.6-1.4,7.1-1.8,10.4-1.2c3.7-2.4,7.9-3.5,12.5-1.9
	c3.5,1.2,6.9,2.9,10.2,4.6c2,1.2,3.6,2.9,5.4,4.3c-0.2,0.3-0.5,0.5-0.5,0.9c-3.9-1.2-7.5-3.2-12.2-2c-1.5,0.5-3.1,0.9-4.3,1.5
	c0.5,0.7,1,1.5,1.5,2.2c1.7,2.9,3.7,5.6,6,8c4.9,5.4,11.5,6.3,18.4,5.8c6.3-0.5,12.2-2.5,17.8-6.6c-0.2,4.6-2,11-6.1,16.5
	c-5.6,7.5-12.9,12.3-21.6,14.8c-13.8,3.9-26.7,2.4-38.4-6.9c-8.1-6.3-11.5-14.1-10.8-24.1c0.2-3.1,1.2-5.9,2.6-8.3
	c-6.6-7.1-15.7-12-21.4-14.6l0,0c-1.4,0.1-2.9,0.2-4.2,0.5c0.2,4.9,0.5,9.7,1.2,14.5c0.5,3.2,1.5,6.4,2.2,9.7
	c-0.1,0.2-0.2,0.5-0.3,0.8c-0.2,0-0.5,0-0.9,0c0.2,0.1,0.5,0.2,0.8,0.2c0-0.1,0.1-0.1,0.1-0.2c0.2,0,0.5,0,0.5,0
	c3.2,6.2,6.2,12.1,9.2,18c-0.3,0-0.7,0.1-1.2,0.1c3.6,1.2,5.1,5.2,8.3,6.9C144.1,450.7,143.9,451,143.6,451.4z"/>
<path fill="#F05B6E" d="M88.6,326.9c-0.3,0.2-0.5,0.5-0.9,0.8C88,327.3,88.2,327.1,88.6,326.9z"/>
<path fill="#F05B6E" d="M88.6,326.9c-0.3,0.2-0.5,0.5-0.9,0.8C88,327.3,88.2,327.1,88.6,326.9z"/>
<path fill="#F05B6E" d="M115.2,425.6c-0.2-0.1-0.5-0.2-0.8-0.2c0.3,0,0.5,0,0.9,0C115.3,425.5,115.3,425.6,115.2,425.6z"/>
<path fill="#F05B6E" d="M115.2,425.6c-0.2-0.1-0.5-0.2-0.8-0.2c0.3,0,0.5,0,0.9,0C115.3,425.5,115.3,425.6,115.2,425.6z"/>
<path fill="#F05B6E" d="M86.2,425.3c-0.3-0.2-0.7-0.5-0.9-0.8C85.5,424.9,85.8,425.1,86.2,425.3z"/>
</svg>
