<?xml version="1.0" encoding="utf-8"?>
<!-- Generator: Adobe Illustrator 18.1.0, SVG Export Plug-In . SVG Version: 6.00 Build 0)  -->
<svg version="1.1" id="Layer_1" xmlns="http://www.w3.org/2000/svg" xmlns:xlink="http://www.w3.org/1999/xlink" x="0px" y="0px"
	 viewBox="-194 -104 1000 1000" enable-background="new -194 -104 1000 1000" xml:space="preserve">
<g>
	<path fill="#FFFFFF" d="M303.8,866c-63.6,0-125.2-12.4-183.2-37C64.5,805.3,14.1,771.4-29.1,728.1
		c-43.2-43.2-77.2-93.6-100.9-149.6c-24.5-58-37-119.7-37-183.2c0-63.6,12.4-125.2,37-183.2C-106.3,156-72.4,105.6-29.1,62.4
		C14.1,19.1,64.5-14.8,120.5-38.5c58-24.5,119.7-37,183.2-37c63.6,0,125.2,12.4,183.2,37C543-14.8,593.4,19.1,636.6,62.4
		c43.2,43.2,77.2,93.6,100.9,149.6c24.5,58,37,119.7,37,183.2c0,63.6-12.4,125.2-37,183.2c-23.7,56.1-57.7,106.4-100.9,149.6
		C593.4,771.4,543,805.3,487,829C429,853.6,367.3,866,303.8,866z"/>
	<path fill="#F05B6E" d="M303.8-63c61.9,0,121.9,12.1,178.4,36c54.6,23.1,103.6,56.1,145.7,98.2c42.1,42.1,75.1,91.1,98.2,145.7
		c23.9,56.5,36,116.5,36,178.4s-12.1,121.9-36,178.4c-23.1,54.6-56.1,103.6-98.2,145.7c-42.1,42.1-91.1,75.1-145.7,98.2
		c-56.5,23.9-116.5,36-178.4,36s-121.9-12.1-178.4-36c-54.6-23.1-103.6-56.1-145.7-98.2c-42.1-42.1-75.1-91.1-98.2-145.7
		c-23.9-56.5-36-116.5-36-178.4s12.1-121.9,36-178.4c23.1-54.6,56.1-103.6,98.2-145.7C21.8,29.1,70.8-3.9,125.4-27
		C181.9-50.9,241.9-63,303.8-63 M303.8-88C36.9-88-179.5,128.4-179.5,395.2S36.9,878.5,303.8,878.5S787,662.1,787,395.2
		S570.6-88,303.8-88L303.8-88z"/>
</g>
<g id="VHMmf9.tif">
	<g>
		<g>
			<path fill="#F05B6E" d="M205.3,625.9c-6.7-8.4-13.3-16.9-19.8-25.2c-10.6-13.6-21.5-27.6-32.6-41.2
				c-17.1-21.4-34.1-42.8-50.6-63.5c-3.2-4-6.4-8.1-9.7-12.1c27.9,17.1,56.1,34.3,84.6,51.3c2,1.2,4.2,1.8,6.4,1.8
				c3.2,0,6.4-1.3,8.8-3.7c1.4-1.4,4.3-4.3,5.5-9.1c35.4-53.5,72.3-103.3,112.7-152.1C362,310.4,413,257.3,466.3,210.5
				c-24.5,28.4-47.7,57.4-69.9,87.5c-51.1,69.9-92.6,135.6-127,201C248.7,536.2,228.2,576.9,205.3,625.9z"/>
			<path fill="#F05B6E" d="M339.2,357.8c-30.7,46-57.4,90.7-80.9,135.2c-18.1,32.7-36.1,68-55.7,109.2c-2.4-3.1-4.8-6.2-7.2-9.3
				c-10.6-13.6-21.6-27.7-32.7-41.4c-5.4-6.8-10.9-13.6-16.3-20.4c8.1,4.9,16.2,9.8,24.4,14.7c4,2.4,8.4,3.6,12.9,3.6
				c6.5,0,12.9-2.5,17.7-7.3c1.7-1.7,5.8-5.8,8.2-12.6c34.8-52.6,71.1-101.5,110.9-149.4C326.6,372.6,332.9,365.1,339.2,357.8
				 M571.6,116.9L571.6,116.9L571.6,116.9z M571.6,116.9c-1.2,0-1.2,1.2-2.4,1.2c-33,19.6-63.6,42.8-93,67.3
				c-63.6,53.9-121.2,113.8-175,178.7c-41.6,50.2-79.6,101.6-115.1,155.4c0,2.4-1.2,3.7-2.4,4.9c-49-29.4-96.7-58.8-144.4-88.1
				c1.2,1.2,1.2,2.4,2.4,3.7c34.3,42.8,67.3,84.5,101.6,127.3c22,26.9,42.8,55.1,64.9,82h0.5c0,0-0.1,0-0.5,0c1.2,0,1.2-1.2,1.2-2.4
				c22-47.7,45.3-95.5,71-142c36.7-69.8,79.6-135.9,126.1-199.5c49-66.1,102.8-127.3,161.6-184.8
				C569.2,119.4,570.4,118.2,571.6,116.9L571.6,116.9z"/>
		</g>
	</g>
</g>
</svg>
