<?xml version="1.0" encoding="utf-8"?>
<!-- Generator: Adobe Illustrator 18.1.0, SVG Export Plug-In . SVG Version: 6.00 Build 0)  -->
<svg version="1.1" id="Layer_1" xmlns="http://www.w3.org/2000/svg" xmlns:xlink="http://www.w3.org/1999/xlink" x="0px" y="0px"
	 viewBox="0 0 50 50" enable-background="new 0 0 50 50" xml:space="preserve">
<g id="VHMmf9.tif">
	<g>
		<path fill="#FFFFFF" d="M17,45.7c-1.8-2.2-3.5-4.5-5.3-6.7c-2.8-3.5-5.5-6.9-8.3-10.4c-0.1-0.1-0.1-0.2-0.2-0.3
			c3.9,2.4,7.8,4.8,11.8,7.2c0.1-0.1,0.2-0.2,0.2-0.4c2.9-4.4,6-8.6,9.4-12.7c4.4-5.3,9.1-10.2,14.3-14.6c2.4-2,4.9-3.9,7.6-5.5
			c0.1,0,0.1-0.1,0.2-0.1c-0.1,0.1-0.2,0.2-0.3,0.3c-4.8,4.7-9.2,9.7-13.2,15.1c-3.8,5.2-7.3,10.6-10.3,16.3
			c-2.1,3.8-4,7.7-5.8,11.6C17.1,45.6,17.1,45.7,17,45.7C17.1,45.7,17,45.7,17,45.7z"/>
	</g>
</g>
</svg>
