<?xml version="1.0" encoding="utf-8"?>
<!-- Generator: Adobe Illustrator 18.1.0, SVG Export Plug-In . SVG Version: 6.00 Build 0)  -->
<svg version="1.1" id="Layer_1" xmlns="http://www.w3.org/2000/svg" xmlns:xlink="http://www.w3.org/1999/xlink" x="0px" y="0px"
	 viewBox="0 0 50 50" enable-background="new 0 0 50 50" xml:space="preserve">
<path fill="#BCBEC0" stroke="#BCBEC0" stroke-miterlimit="10" d="M25.8,17.4L25.8,17.4L25.8,17.4L25.8,17.4z"/>
<path fill="#BCBEC0" stroke="#BCBEC0" stroke-miterlimit="10" d="M25.8,17.4L25.8,17.4L25.8,17.4L25.8,17.4z"/>
<path fill="#BCBEC0" stroke="#BCBEC0" stroke-miterlimit="10" d="M25.8,17.4L25.8,17.4L25.8,17.4L25.8,17.4z"/>
<g id="ZatBA8.tif">
	<g>
		<path fill="#727272" stroke="#727272" stroke-miterlimit="10" d="M32.6,5.7c0.5,1,0.6,2.2,0.5,3.3c-0.2,1.5-0.4,3-0.8,4.5
			c-0.5,1.8-1.6,2.5-3.4,2.6c-0.7,0-1.3,0-2,0c-1.8-0.1-2.7,0.5-3.3,2.2c-0.6,1.7-0.7,3.4-0.7,5.2c0,2.2,0.1,4.4,0.9,6.5
			c0.7,1.9,1.6,2.4,3.6,2.2c0.7-0.1,1.5-0.1,2.2-0.1c1.5,0,2.6,0.8,3.1,2.1c0.8,2.1,1.2,4.3,1.1,6.5c0,0.5-0.2,1-0.4,1.5
			c-0.1,0.1-0.2,0.2-0.3,0.3c-0.7,0.5-1.5,0.6-2.3,0.6c-0.5,0-1,0-1.5,0c-3.2,0.1-5.8-1.1-8-3.3c-2.2-2.2-3.3-5-4-8
			c-0.8-3.4-1-6.9-0.9-10.4c0.2-3.7,0.7-7.3,2.5-10.6c2.8-5.2,7.5-6.8,12.9-5.8C32.1,5.3,32.3,5.5,32.6,5.7z"/>
	</g>
</g>
</svg>
