<?xml version="1.0" encoding="utf-8"?>
<!-- Generator: Adobe Illustrator 18.1.0, SVG Export Plug-In . SVG Version: 6.00 Build 0)  -->
<svg version="1.1" id="Layer_1" xmlns="http://www.w3.org/2000/svg" xmlns:xlink="http://www.w3.org/1999/xlink" x="0px" y="0px"
	 viewBox="0 0 612 792" enable-background="new 0 0 612 792" xml:space="preserve">
<path fill="#BCBEC0" stroke="#BCBEC0" stroke-miterlimit="10" d="M315.8,303L315.8,303L315.8,303L315.8,303z"/>
<path fill="#BCBEC0" stroke="#BCBEC0" stroke-miterlimit="10" d="M315.8,303L315.8,303L315.8,303L315.8,303z"/>
<path fill="#BCBEC0" stroke="#BCBEC0" stroke-miterlimit="10" d="M315.8,303L315.8,303L315.8,303L315.8,303z"/>
<g id="ZatBA8.tif">
	<g>
		<path fill="#FFFFFF" stroke="#FFFFFF" stroke-miterlimit="10" d="M399,159.8c6.1,12.2,7.3,26.9,6.1,40.4
			c-2.4,18.4-4.9,36.7-9.8,55.1c-6.1,22-19.6,30.6-41.6,31.8c-8.6,0-15.9,0-24.5,0c-22-1.2-33,6.1-40.4,26.9
			c-7.3,20.8-8.6,41.6-8.6,63.6c0,26.9,1.2,53.9,11,79.6c8.6,23.3,19.6,29.4,44.1,26.9c8.6-1.2,18.4-1.2,26.9-1.2
			c18.4,0,31.8,9.8,37.9,25.7c9.8,25.7,14.7,52.6,13.5,79.6c0,6.1-2.4,12.2-4.9,18.4c-1.2,1.2-2.4,2.4-3.7,3.7
			c-8.6,6.1-18.4,7.3-28.2,7.3c-6.1,0-12.2,0-18.4,0c-39.2,1.2-71-13.5-97.9-40.4c-26.9-26.9-40.4-61.2-49-97.9
			c-9.8-41.6-12.2-84.5-11-127.3c2.4-45.3,8.6-89.4,30.6-129.7c34.3-63.6,91.8-83.2,157.9-71C392.9,154.9,395.4,157.3,399,159.8z"/>
	</g>
</g>
</svg>
