<?xml version="1.0" encoding="utf-8"?>
<!-- Generator: Adobe Illustrator 18.1.0, SVG Export Plug-In . SVG Version: 6.00 Build 0)  -->
<svg version="1.1" id="Layer_1" xmlns="http://www.w3.org/2000/svg" xmlns:xlink="http://www.w3.org/1999/xlink" x="0px" y="0px"
	 viewBox="0 0 612 792" enable-background="new 0 0 612 792" xml:space="preserve">
<path fill="#BCBEC0" stroke="#BCBEC0" stroke-miterlimit="10" d="M318.1,275.5v0.3l0,0V275.5z"/>
<path fill="#BCBEC0" stroke="#BCBEC0" stroke-miterlimit="10" d="M318.1,275.5v0.3l0,0V275.5z"/>
<path fill="#BCBEC0" stroke="#BCBEC0" stroke-miterlimit="10" d="M318.1,275.5v0.3l0,0V275.5z"/>
<g id="ZatBA8.tif">
	<g>
		<path fill="#BCBEC0" stroke="#BCBEC0" stroke-miterlimit="10" d="M426.2,89.8c8.4,16.6,9.9,34.3,7.2,52.3
			c-3.5,23.9-6.2,48.2-12.6,71.4c-7.7,28-25.6,39.8-54.5,40.8c-10.5,0.4-21.1,0.5-31.6-0.1c-28.1-1.5-42.5,7.7-52,34.3
			c-9.5,26.6-10.8,54.3-10.6,82.2c0.2,34.9,1.2,69.7,13.7,103c11.1,29.6,25.4,38,56.5,35.1c11.5-1.1,23.2-1.3,34.8-1.3
			c24.2,0,41.1,12.2,49.8,34c13.1,33,18.7,67.7,18.2,103.2c-0.1,8.1-3.8,16.1-5.9,24.2c-1.3,1.6-2.7,3.2-4,4.9
			c-11,8-23.6,10.1-36.8,10.2c-8.1,0.1-16.2,0.4-24.3,0.7c-50.2,1.7-92.1-17.1-126.3-52.8c-34.1-35.5-51.7-79.8-62.8-126.9
			c-12.8-54.2-15.8-109.3-13.5-164.6c2.5-58.3,11.2-115.4,39.7-167.7c44.7-82,118.7-107.2,203.7-92.3
			C418.6,83.5,422.4,86.7,426.2,89.8z"/>
	</g>
</g>
</svg>
