<?xml version="1.0" encoding="utf-8"?>
<!-- Generator: Adobe Illustrator 18.1.0, SVG Export Plug-In . SVG Version: 6.00 Build 0)  -->
<svg version="1.1" id="Layer_1" xmlns="http://www.w3.org/2000/svg" xmlns:xlink="http://www.w3.org/1999/xlink" x="0px" y="0px"
	 viewBox="0 0 792 612" enable-background="new 0 0 792 612" xml:space="preserve">
<rect x="0.7" fill="#84D3EA" width="790.8" height="554.2"/>
<g>
	<g>
		<path fill="#7B7B7B" d="M363.4,267.4c0,0-49.8,95.4-145.3,91.2S64.9,327.2,64.9,327.2s61,9.4,135.4-0.1L202,59.4l12.5,265.7
			C264.1,317.3,318.1,300.7,363.4,267.4z"/>
	</g>
	<polygon fill="#F05B6E" points="199.1,55.1 197.8,78 142.1,73.6 	"/>
	<path fill="#F05B6E" d="M196,94.1l-4.4,211.9l-64.1-3.8C127.4,302.4,172.5,286.3,196,94.1z"/>
	<path fill="#F05B6E" d="M208.6,82.7c0,0,53.5,110.4,12.3,231.7c0,0,127-10.8,120.5-98.5C334.8,128.3,208.6,82.7,208.6,82.7z"/>
</g>
<path fill="#24B5E1" d="M791.4,373.6v180.7H0.7V389.5H0v-24.6h0.4L0,337.1c8,0.8,19.2-20.7,19.2-20.7c15.6-22.2,34.7-7.1,34.7-7.1
	c-18.3-5-22.3,7.8-20.7,17.4c1.6,9,14,10.3,15.4,10.4v-0.1c8,0.8,19.2-19.4,19.2-19.4c14.5-20.8,34.7-6.7,34.7-6.7
	c-18.3-4.7-22.3,7.4-20.7,16.3c1.6,8.5,14.4,9.7,15.4,9.8l0,0c8,0.8,19.2-20.7,19.2-20.7c15.6-22.2,34.7-7.1,34.7-7.1
	c-18.3-5-22.3,7.8-20.7,17.4c1.6,9,14,10.3,15.4,10.4v-0.1c8,0.8,19.2-19.4,19.2-19.4c14.5-20.8,34.7-6.7,34.7-6.7
	c-18.3-4.7-22.3,7.4-20.7,16.3c1.6,8.3,13.6,9.6,15.3,9.8c0.1,0,0.1,0,0.2,0c8,0.5,19.1-20.7,19.1-20.7c15.6-22.2,34.7-7.1,34.7-7.1
	c-18.3-5-22.3,7.8-20.7,17.4c1.6,9,14,10.3,15.4,10.4l0,0c8,0.7,19.2-19.4,19.2-19.4c14.5-20.8,34.7-6.7,34.7-6.7
	c-18.3-4.7-22.3,7.4-20.7,16.3c1.6,8.5,14.4,9.7,15.4,9.8l0,0c8,0.8,19.2-20.7,19.2-20.7c15.6-22.2,34.7-7.1,34.7-7.1
	c-18.3-5-22.3,7.8-20.7,17.4c1.6,9,14,10.3,15.4,10.4v-0.1c8,0.8,19.2-19.4,19.2-19.4c14.5-20.8,34.7-6.7,34.7-6.7
	c-18.3-4.7-22.3,7.4-20.7,16.3c1.6,8.7,14.9,9.7,15.4,9.8l0,0c8,0.8,19.2-20.7,19.2-20.7c15.6-22.2,34.7-7.1,34.7-7.1
	c-18.3-5-22.3,7.8-20.7,17.4c1.6,9,14,10.3,15.4,10.4l0,0c8,0.8,19.2-19.4,19.2-19.4c14.5-20.8,34.7-6.7,34.7-6.7
	c-18.3-4.7-22.3,7.4-20.7,16.3c1.6,8.5,14.4,9.7,15.4,9.8l0,0c8,0.8,19.2-20.7,19.2-20.7c15.6-22.2,34.7-7.1,34.7-7.1
	c-18.3-5-22.3,7.9-20.7,17.4c1.6,9,14,10.3,15.4,10.4v-0.1c8,0.8,19.2-19.4,19.2-19.4c14.5-20.8,34.7-6.7,34.7-6.7
	c-18.3-4.7-22.3,7.4-20.7,16.3c1.6,8.4,13.6,9.6,15.3,9.8c0.1,0,0.1,0,0.2,0c8,0.5,19.1-20.7,19.1-20.7c15.6-22.2,34.7-7.1,34.7-7.1
	c-18.3-5-22.3,7.8-20.7,17.4c1.6,9,14,10.3,15.4,10.4v-0.1c8,0.8,19.2-19.4,19.2-19.4c14.5-20.8,34.7-6.7,34.7-6.7
	c-18.3-4.7-22.3,7.4-20.7,16.3c1.6,8.6,14.4,9.7,15.4,9.8l0,0c8,0.8,19.2-20.7,19.2-20.7c15.6-22.2,34.7-7.1,34.7-7.1
	c-18.3-5-22.3,7.8-20.7,17.4c1.6,9,14,10.3,15.4,10.4v-0.1c8,0.8,19.2-19.4,19.2-19.4c14.5-20.8,34.7-6.7,34.7-6.7
	c-18.3-4.7-22.3,7.4-20.7,16.3c1.6,9,15.4,9.8,15.4,9.8s4.8,1.6,12.4,0.7l0.6,34.9L791.4,373.6z"/>
<path fill="#3EB8EA" d="M791.4,373v0.6V373z"/>
<rect x="0.7" y="536.2" fill="#24B5E1" stroke="#24B5E1" stroke-miterlimit="10" width="790.8" height="75.5"/>
</svg>
