<?xml version="1.0" encoding="utf-8"?>
<!-- Generator: Adobe Illustrator 18.1.0, SVG Export Plug-In . SVG Version: 6.00 Build 0)  -->
<svg version="1.1" id="Layer_1" xmlns="http://www.w3.org/2000/svg" xmlns:xlink="http://www.w3.org/1999/xlink" x="0px" y="0px"
	 viewBox="0 0 963 674.9" enable-background="new 0 0 963 674.9" xml:space="preserve">
<rect x="0" y="0" fill="#84D3EA" width="963" height="674.9"/>
<g>
	<g>
		<path fill="#7B7B7B" d="M441.7,323.6c0,0-60.6,116.2-177,111.1c-116.4-5.1-186.5-38.3-186.5-38.3s74.3,11.4,164.9-0.1l2.1-326
			l15.2,323.6C320.8,384.4,386.6,364.2,441.7,323.6z"/>
	</g>
	<polygon fill="#F05B6E" points="241.6,65.1 240.1,93 172.3,87.6 	"/>
	<path fill="#F05B6E" d="M237.9,112.6l-5.4,258.1l-78.1-4.6C154.4,366.2,209.3,346.7,237.9,112.6z"/>
	<path fill="#F05B6E" d="M253.2,98.7c0,0,65.1,134.4,15,282.1c0,0,154.7-13.2,146.7-119.9S253.2,98.7,253.2,98.7z"/>
</g>
<path fill="#24B5E1" d="M963,454.9v220H0V474.3h-0.8v-30h0.5l-0.5-33.8c9.8,1,23.4-25.2,23.4-25.2c19-27,42.3-8.6,42.3-8.6
	c-22.3-6.1-27.2,9.5-25.2,21.2c1.9,11,17.1,12.6,18.7,12.7v-0.1c9.8,1,23.4-23.6,23.4-23.6c17.7-25.3,42.3-8.1,42.3-8.1
	c-22.3-5.7-27.2,9-25.2,19.8c2,10.4,17.5,11.8,18.8,11.9v0c9.8,1,23.4-25.2,23.4-25.2c19-27,42.3-8.6,42.3-8.6
	c-22.3-6.1-27.2,9.5-25.2,21.2c1.9,11,17,12.6,18.7,12.7v-0.1c9.8,1,23.4-23.6,23.4-23.6c17.6-25.3,42.3-8.1,42.3-8.1
	c-22.3-5.7-27.2,9-25.2,19.9c1.9,10.1,16.6,11.7,18.6,11.9c0.1,0,0.1,0,0.2,0c9.8,0.6,23.2-25.2,23.2-25.2c19-27,42.3-8.6,42.3-8.6
	c-22.3-6.1-27.2,9.5-25.2,21.2c1.9,11,17,12.6,18.7,12.7v0c9.8,0.9,23.4-23.6,23.4-23.6c17.7-25.3,42.3-8.1,42.3-8.1
	c-22.3-5.7-27.2,9-25.2,19.8c1.9,10.4,17.5,11.8,18.8,11.9v0c9.8,1,23.4-25.2,23.4-25.2c19-27,42.3-8.6,42.3-8.6
	c-22.3-6.1-27.2,9.5-25.2,21.2c1.9,11,17,12.6,18.7,12.7l0-0.1c9.8,1,23.4-23.6,23.4-23.6c17.6-25.3,42.3-8.1,42.3-8.1
	c-22.3-5.7-27.2,9-25.2,19.9c2,10.6,18.1,11.8,18.8,11.9v0c9.8,1,23.4-25.2,23.4-25.2c19-27,42.3-8.6,42.3-8.6
	c-22.3-6.1-27.2,9.5-25.2,21.2c1.9,11,17,12.6,18.7,12.7v0c9.8,1,23.4-23.6,23.4-23.6c17.6-25.3,42.3-8.1,42.3-8.1
	c-22.3-5.7-27.2,9-25.2,19.9c1.9,10.4,17.5,11.8,18.8,11.9v0c9.8,1,23.4-25.2,23.4-25.2c19-27,42.3-8.6,42.3-8.6
	c-22.3-6.1-27.2,9.6-25.2,21.2c1.9,11,17,12.6,18.7,12.7v-0.1c9.8,1,23.4-23.6,23.4-23.6c17.7-25.3,42.3-8.1,42.3-8.1
	c-22.3-5.7-27.2,9-25.2,19.8c1.9,10.2,16.6,11.7,18.6,11.9c0.1,0,0.1,0,0.2,0c9.8,0.6,23.2-25.2,23.2-25.2c19-27,42.3-8.6,42.3-8.6
	c-22.3-6.1-27.2,9.5-25.2,21.2c1.9,11,17,12.6,18.7,12.7v-0.1c9.8,1,23.4-23.6,23.4-23.6c17.6-25.3,42.3-8.1,42.3-8.1
	c-22.3-5.7-27.2,9-25.2,19.8c2,10.5,17.5,11.8,18.8,11.9v0c9.8,1,23.4-25.2,23.4-25.2c19-27,42.3-8.6,42.3-8.6
	c-22.3-6.1-27.2,9.5-25.2,21.2c1.9,11,17.1,12.6,18.7,12.7v-0.1c9.8,1,23.4-23.6,23.4-23.6c17.6-25.3,42.3-8.1,42.3-8.1
	c-22.3-5.7-27.2,9-25.2,19.8c2,10.9,18.8,11.9,18.8,11.9s5.8,1.9,15.1,0.8l0.7,42.5L963,454.9z"/>
<polygon fill="#3EB8EA" points="963,454.2 963,454.9 963,454.2 "/>
<g>
	<g>
		<path fill="#FFFFFF" d="M1487.7,817.3h-136.3c-2.4,0-4.4-2-4.4-4.4V563c0-2.4,2-4.4,4.4-4.4h136.3c2.4,0,4.4,2,4.4,4.4v249.8
			C1492.2,815.3,1490.2,817.3,1487.7,817.3z"/>
		<path fill="#5FCBEB" d="M1478.2,780.9h-117.9c-2.4,0-4.4-2-4.4-4.4V592.2c0-2.4,2-4.4,4.4-4.4h117.9c2.4,0,4.4,2,4.4,4.4v184.3
			C1482.6,778.9,1480.6,780.9,1478.2,780.9z"/>
		<circle fill="#5FCBEB" cx="1421.5" cy="799.7" r="12"/>
		<path fill="#5FCBEB" stroke="#FFFFFF" stroke-miterlimit="10" d="M1424,806.6h-5.3c-2.4,0-4.4-2-4.4-4.4v-5c0-2.4,2-4.4,4.4-4.4
			h5.3c2.4,0,4.4,2,4.4,4.4v5C1428.5,804.7,1426.5,806.6,1424,806.6z"/>
		
			<line fill="#5FCBEB" stroke="#5FCBEB" stroke-width="2" stroke-linecap="round" stroke-linejoin="round" stroke-miterlimit="10" x1="1399.3" y1="573" x2="1441.5" y2="573"/>
		<g id="h3hEbN.tif_1_">
			<g>
				<path fill="#F05B6E" d="M1421,655c0.6-0.8,1.1-1.6,1.6-2.4c2.4-3.2,5.3-5.7,9-7.4c2-1,4.2-1.6,6.4-1.8c4.1-0.4,8.1,0.1,11.8,2
					c5.3,2.7,8.8,6.9,10.5,12.6c0.6,2,0.8,4,0.8,6.1c0,2-0.1,3.9-0.3,5.8c-0.7,5.8-2.7,11-6.4,15.5c-2,2.5-4.1,4.8-6.4,6.9
					c-3.1,2.9-6.3,5.7-9.5,8.4c-5.9,5.1-11.8,10.3-17.4,15.6c0,0-0.1,0-0.1,0.1c0,0-0.1-0.1-0.1-0.1c-5.5-5.3-11.2-10.3-17-15.3
					c-3.6-3.1-7.2-6.2-10.6-9.4c-2.3-2.2-4.5-4.5-6.4-7.1c-2.7-3.6-4.4-7.7-5.3-12.1c-0.6-3.2-0.9-6.4-0.7-9.6
					c0.2-4.7,1.8-9,4.8-12.6c2.6-3.1,6-5.2,9.9-6.3c2.3-0.7,4.7-0.9,7.1-0.8c4.3,0.2,8.1,1.7,11.5,4.2c2.7,2,4.8,4.4,6.6,7.2
					C1420.8,654.8,1420.9,654.9,1421,655z"/>
			</g>
		</g>
		<circle fill="#5FCBEB" stroke="#5FCBEB" stroke-miterlimit="10" cx="1418.9" cy="566.3" r="3.1"/>
	</g>
	<circle fill="#5FCBEB" stroke="#5FCBEB" stroke-miterlimit="10" cx="1393.8" cy="572.8" r="1.5"/>
</g>
<text transform="matrix(1 0 0 1 536.4938 171.9647)" fill="#FFFFFF" font-family="'Oswald-Light'" font-size="76.5">THANK YOU.</text>
<text transform="matrix(1 0 0 1 543.947 216.1933)" fill="#FFFFFF" font-family="'Oswald-Light'" font-size="29.0925">You will receive an email shortly</text>
</svg>
