<?xml version="1.0" encoding="utf-8"?>
<!-- Generator: Adobe Illustrator 18.1.0, SVG Export Plug-In . SVG Version: 6.00 Build 0)  -->
<svg version="1.1" id="Layer_1" xmlns="http://www.w3.org/2000/svg" xmlns:xlink="http://www.w3.org/1999/xlink" x="0px" y="0px"
	 viewBox="0 0 963 1458.4" enable-background="new 0 0 963 1458.4" xml:space="preserve">
<rect x="0" y="0" fill="#84D3EA" width="963" height="674.9"/>
<g>
	<g>
		<path fill="#7B7B7B" d="M441.7,325.6c0,0-60.6,116.2-177,111.1c-116.4-5.1-186.5-38.3-186.5-38.3s74.3,11.4,164.9-0.1l2.1-326
			l15.2,323.6C320.8,386.4,386.6,366.2,441.7,325.6z"/>
	</g>
	<polygon fill="#F05B6E" points="241.6,67.1 240.1,95 172.3,89.6 	"/>
	<path fill="#F05B6E" d="M237.9,114.6l-5.4,258.1l-78.1-4.6C154.4,368.2,209.3,348.7,237.9,114.6z"/>
	<path fill="#F05B6E" d="M253.2,100.7c0,0,65.1,134.4,15,282.1c0,0,154.7-13.2,146.7-119.9S253.2,100.7,253.2,100.7z"/>
</g>
<path fill="#24B5E1" d="M963,454.9v220H0V474.3h-0.8v-30h0.5l-0.5-33.8c9.8,1,23.4-25.2,23.4-25.2c19-27,42.3-8.6,42.3-8.6
	c-22.3-6.1-27.2,9.5-25.2,21.2c1.9,11,17.1,12.6,18.7,12.7v-0.1c9.8,1,23.4-23.6,23.4-23.6c17.7-25.3,42.3-8.1,42.3-8.1
	c-22.3-5.7-27.2,9-25.2,19.8c2,10.4,17.5,11.8,18.8,11.9v0c9.8,1,23.4-25.2,23.4-25.2c19-27,42.3-8.6,42.3-8.6
	c-22.3-6.1-27.2,9.5-25.2,21.2c1.9,11,17,12.6,18.7,12.7v-0.1c9.8,1,23.4-23.6,23.4-23.6c17.6-25.3,42.3-8.1,42.3-8.1
	c-22.3-5.7-27.2,9-25.2,19.9c1.9,10.1,16.6,11.7,18.6,11.9c0.1,0,0.1,0,0.2,0c9.8,0.6,23.2-25.2,23.2-25.2c19-27,42.3-8.6,42.3-8.6
	c-22.3-6.1-27.2,9.5-25.2,21.2c1.9,11,17,12.6,18.7,12.7v0c9.8,0.9,23.4-23.6,23.4-23.6c17.7-25.3,42.3-8.1,42.3-8.1
	c-22.3-5.7-27.2,9-25.2,19.8c1.9,10.4,17.5,11.8,18.8,11.9v0c9.8,1,23.4-25.2,23.4-25.2c19-27,42.3-8.6,42.3-8.6
	c-22.3-6.1-27.2,9.5-25.2,21.2c1.9,11,17,12.6,18.7,12.7l0-0.1c9.8,1,23.4-23.6,23.4-23.6c17.6-25.3,42.3-8.1,42.3-8.1
	c-22.3-5.7-27.2,9-25.2,19.9c2,10.6,18.1,11.8,18.8,11.9v0c9.8,1,23.4-25.2,23.4-25.2c19-27,42.3-8.6,42.3-8.6
	c-22.3-6.1-27.2,9.5-25.2,21.2c1.9,11,17,12.6,18.7,12.7v0c9.8,1,23.4-23.6,23.4-23.6c17.6-25.3,42.3-8.1,42.3-8.1
	c-22.3-5.7-27.2,9-25.2,19.9c1.9,10.4,17.5,11.8,18.8,11.9v0c9.8,1,23.4-25.2,23.4-25.2c19-27,42.3-8.6,42.3-8.6
	c-22.3-6.1-27.2,9.6-25.2,21.2c1.9,11,17,12.6,18.7,12.7v-0.1c9.8,1,23.4-23.6,23.4-23.6c17.7-25.3,42.3-8.1,42.3-8.1
	c-22.3-5.7-27.2,9-25.2,19.8c1.9,10.2,16.6,11.7,18.6,11.9c0.1,0,0.1,0,0.2,0c9.8,0.6,23.2-25.2,23.2-25.2c19-27,42.3-8.6,42.3-8.6
	c-22.3-6.1-27.2,9.5-25.2,21.2c1.9,11,17,12.6,18.7,12.7v-0.1c9.8,1,23.4-23.6,23.4-23.6c17.6-25.3,42.3-8.1,42.3-8.1
	c-22.3-5.7-27.2,9-25.2,19.8c2,10.5,17.5,11.8,18.8,11.9v0c9.8,1,23.4-25.2,23.4-25.2c19-27,42.3-8.6,42.3-8.6
	c-22.3-6.1-27.2,9.5-25.2,21.2c1.9,11,17.1,12.6,18.7,12.7v-0.1c9.8,1,23.4-23.6,23.4-23.6c17.6-25.3,42.3-8.1,42.3-8.1
	c-22.3-5.7-27.2,9-25.2,19.8c2,10.9,18.8,11.9,18.8,11.9s5.8,1.9,15.1,0.8l0.7,42.5L963,454.9z"/>
<polygon fill="#3EB8EA" points="963,454.2 963,454.9 963,454.2 "/>
<g>
	<g>
		<path fill="#FFFFFF" d="M1487.7,817.3h-136.3c-2.4,0-4.4-2-4.4-4.4V563c0-2.4,2-4.4,4.4-4.4h136.3c2.4,0,4.4,2,4.4,4.4v249.8
			C1492.2,815.3,1490.2,817.3,1487.7,817.3z"/>
		<path fill="#5FCBEB" d="M1478.2,780.9h-117.9c-2.4,0-4.4-2-4.4-4.4V592.2c0-2.4,2-4.4,4.4-4.4h117.9c2.4,0,4.4,2,4.4,4.4v184.3
			C1482.6,778.9,1480.6,780.9,1478.2,780.9z"/>
		<circle fill="#5FCBEB" cx="1421.5" cy="799.7" r="12"/>
		<path fill="#5FCBEB" stroke="#FFFFFF" stroke-miterlimit="10" d="M1424,806.6h-5.3c-2.4,0-4.4-2-4.4-4.4v-5c0-2.4,2-4.4,4.4-4.4
			h5.3c2.4,0,4.4,2,4.4,4.4v5C1428.5,804.7,1426.5,806.6,1424,806.6z"/>
		
			<line fill="#5FCBEB" stroke="#5FCBEB" stroke-width="2" stroke-linecap="round" stroke-linejoin="round" stroke-miterlimit="10" x1="1399.3" y1="573" x2="1441.5" y2="573"/>
		<g id="h3hEbN.tif_1_">
			<g>
				<path fill="#F05B6E" d="M1421,655c0.6-0.8,1.1-1.6,1.6-2.4c2.4-3.2,5.3-5.7,9-7.4c2-1,4.2-1.6,6.4-1.8c4.1-0.4,8.1,0.1,11.8,2
					c5.3,2.7,8.8,6.9,10.5,12.6c0.6,2,0.8,4,0.8,6.1c0,2-0.1,3.9-0.3,5.8c-0.7,5.8-2.7,11-6.4,15.5c-2,2.5-4.1,4.8-6.4,6.9
					c-3.1,2.9-6.3,5.7-9.5,8.4c-5.9,5.1-11.8,10.3-17.4,15.6c0,0-0.1,0-0.1,0.1c0,0-0.1-0.1-0.1-0.1c-5.5-5.3-11.2-10.3-17-15.3
					c-3.6-3.1-7.2-6.2-10.6-9.4c-2.3-2.2-4.5-4.5-6.4-7.1c-2.7-3.6-4.4-7.7-5.3-12.1c-0.6-3.2-0.9-6.4-0.7-9.6
					c0.2-4.7,1.8-9,4.8-12.6c2.6-3.1,6-5.2,9.9-6.3c2.3-0.7,4.7-0.9,7.1-0.8c4.3,0.2,8.1,1.7,11.5,4.2c2.7,2,4.8,4.4,6.6,7.2
					C1420.8,654.8,1420.9,654.9,1421,655z"/>
			</g>
		</g>
		<circle fill="#5FCBEB" stroke="#5FCBEB" stroke-miterlimit="10" cx="1418.9" cy="566.3" r="3.1"/>
	</g>
	<circle fill="#5FCBEB" stroke="#5FCBEB" stroke-miterlimit="10" cx="1393.8" cy="572.8" r="1.5"/>
</g>
<g>
	<path fill="#FFFFFF" d="M496.7,172v-59.7h-12.5v-4.6H515v4.6h-12.6V172H496.7z"/>
	<path fill="#FFFFFF" d="M519.2,172v-64.3h5.7v29.1h19.8v-29.1h5.7V172h-5.7v-31.2h-19.8V172H519.2z"/>
	<path fill="#FFFFFF" d="M563.4,172h-5.7c6-29.8,6.7-34.4,12.7-64.3h7.4l12.7,64.3h-5.8l-3.2-16.7h-14.8L563.4,172z M567.3,151.5
		h13.4l-6.8-37.9L567.3,151.5z"/>
	<path fill="#FFFFFF" d="M597.8,172v-64.3h4.4l20.4,50.9v-50.9h4.8V172h-4.3l-20.4-49.8V172H597.8z"/>
	<path fill="#FFFFFF" d="M638.3,172v-64.3h5.7v33.8l17.1-33.8h5.9l-13.3,26.5L670,172h-6l-13.7-34l-6.3,11.3V172H638.3z"/>
	<path fill="#FFFFFF" d="M697,172V152l-14-44.3h6.3l10.5,38.5c4.6-16.7,5.9-21.9,10.5-38.5h5.9L702.7,152V172H697z"/>
	<path fill="#FFFFFF" d="M720.4,153.3v-26.9c0-10.9,3.9-19.6,16.4-19.6c12.5,0,16.4,8.7,16.4,19.6v26.9c0,10.8-3.6,19.6-16.4,19.6
		C724,173,720.4,164.1,720.4,153.3z M747.5,154.6v-29.5c0-7.6-2.4-13.8-10.7-13.8s-10.7,6.2-10.7,13.8v29.5
		c0,7.6,2.4,13.8,10.7,13.8S747.5,162.2,747.5,154.6z"/>
	<path fill="#FFFFFF" d="M762.5,156.2v-48.5h5.7v49.8c0,7.1,2.7,10.9,10.9,10.9c7.8,0,10.4-4,10.4-10.9v-49.8h5.6v48.5
		c0,9-3.4,16.8-16,16.8C766,173,762.5,165.2,762.5,156.2z"/>
	<path fill="#FFFFFF" d="M804.4,172v-6.7h6.9v6.7H804.4z"/>
</g>
<g>
	<path fill="#FFFFFF" d="M498.3,216.2v-7.6l-5.3-16.9h2.4l4,14.7c1.7-6.3,2.2-8.3,4-14.7h2.3l-5.2,16.9v7.6H498.3z"/>
	<path fill="#FFFFFF" d="M506.2,208.1v-0.9c0-4,0-8.5,4.5-8.5c4.5,0,4.5,4.5,4.5,8.5v0.9c0,4.3,0,8.5-4.5,8.5
		C506.2,216.6,506.2,212.4,506.2,208.1z M508.3,207.2v0.9c0,5.1,0.4,7,2.4,7c2,0,2.4-1.9,2.4-7v-0.9c0-5-0.3-7-2.4-7
		C508.6,200.2,508.3,202.2,508.3,207.2z"/>
	<path fill="#FFFFFF" d="M518.6,212.5v-13.4h2.2v13.4c0,1.8,0.8,2.4,1.8,2.4c0.9,0,2-0.7,2.8-1.7v-14.1h2.1v17h-2.1v-1.6
		c-1,1.4-2.3,2-3.6,2C520.2,216.6,518.6,215.3,518.6,212.5z"/>
	<path fill="#FFFFFF" d="M537.6,216.2l-2.8-17h1.9l2.2,14.8l2.5-14.8h2.3l2.7,14.8l2-14.8h1.8l-2.8,17h-2.2l-2.6-14.6l-2.5,14.6
		H537.6z"/>
	<path fill="#FFFFFF" d="M552.9,195.3v-2.5h2.1v2.5H552.9z M552.9,216.2v-17h2.1v17H552.9z"/>
	<path fill="#FFFFFF" d="M558.9,216.2v-24.4h2.1v24.4H558.9z"/>
	<path fill="#FFFFFF" d="M565.2,216.2v-24.4h2.1v24.4H565.2z"/>
	<path fill="#FFFFFF" d="M575.8,216.2v-17h2.1v2.4c0.6-1.9,2.3-2.6,3.6-2.7h0v2.1c0,0-0.2-0.1-0.4-0.1c-1.6,0-3.3,0.5-3.3,2.5v12.7
		H575.8z"/>
	<path fill="#FFFFFF" d="M583.3,208.4l0-2.4c0-6.1,2-7.2,4.7-7.2c3.1,0,4.3,2.1,4.3,6.7c0,0.7,0,1.1,0,1.7h-6.8v2.6
		c0,4.6,1,5.3,2.5,5.3c1.1,0,2.2-0.8,2.3-4V211h2v0.1c-0.3,2.9-1,5.5-4.2,5.5C584.5,216.6,583.2,214.8,583.3,208.4z M585.4,206.2
		h4.7v0c0-2.6,0.3-6-2.1-6C585.4,200.2,585.4,202.3,585.4,206.2L585.4,206.2z"/>
	<path fill="#FFFFFF" d="M595.2,208.1v-0.9c0-4,0-8.5,4.6-8.5c3.4,0,4.1,2.7,4.3,5.8c0,0.1,0,0.1,0,0.2H602v-0.1
		c-0.1-3.1-0.6-4.4-2.2-4.4c-2.2,0-2.5,2-2.5,7v0.9c0,5.1,0.4,7,2.5,7c1.5,0,2-1.3,2.2-4.5v-0.1h2.1v0.1c-0.1,3.3-0.8,6-4.3,6
		C595.2,216.6,595.2,212.4,595.2,208.1z"/>
	<path fill="#FFFFFF" d="M607,208.4l0-2.4c0-6.1,2-7.2,4.7-7.2c3.1,0,4.3,2.1,4.3,6.7c0,0.7,0,1.1,0,1.7h-6.8v2.6
		c0,4.6,1,5.3,2.5,5.3c1.1,0,2.2-0.8,2.3-4V211h2v0.1c-0.3,2.9-1,5.5-4.2,5.5C608.3,216.6,607,214.8,607,208.4z M609.2,206.2h4.7v0
		c0-2.6,0.3-6-2.1-6C609.2,200.2,609.2,202.3,609.2,206.2L609.2,206.2z"/>
	<path fill="#FFFFFF" d="M619.3,195.3v-2.5h2.1v2.5H619.3z M619.3,216.2v-17h2.1v17H619.3z"/>
	<path fill="#FFFFFF" d="M627.3,216.2l-3.6-17h2.1l2.9,15.7l2.8-15.7h2l-3.4,17H627.3z"/>
	<path fill="#FFFFFF" d="M635.7,208.4l0-2.4c0-6.1,2-7.2,4.7-7.2c3.1,0,4.3,2.1,4.3,6.7c0,0.7,0,1.1,0,1.7h-6.8v2.6
		c0,4.6,1,5.3,2.5,5.3c1.1,0,2.2-0.8,2.3-4V211h2v0.1c-0.3,2.9-1,5.5-4.2,5.5C637,216.6,635.7,214.8,635.7,208.4z M637.9,206.2h4.7
		v0c0-2.6,0.3-6-2.1-6C637.9,200.2,637.9,202.3,637.9,206.2L637.9,206.2z"/>
	<path fill="#FFFFFF" d="M659.1,216.2l-0.3-2.1c-1,1.7-2.5,2.4-3.6,2.4c-1.6,0-3.4-1.4-3.4-3.8c0-2.2,0.1-4.3,6.8-7v-0.1
		c0-5-1.1-5.4-2.1-5.4c-0.8,0-2,0.3-2.2,3.2v0.1h-2.2c0.2-3,1.8-4.8,4.3-4.8c3.6,0,4.3,3,4.3,5.3v8.2c0,2,0.3,3.9,0.3,3.9H659.1z
		 M658.7,212.7v-6c-2.9,2-4.7,3.3-4.7,5.7c0,1.8,0.9,2.4,1.7,2.4C656.8,214.8,658.1,213.9,658.7,212.7z"/>
	<path fill="#FFFFFF" d="M664.4,216.2v-17h2.1v1.6c1-1.4,2.3-2,3.6-2c1.5,0,3.2,1.3,3.2,4v13.4h-2.2v-13.4c0-1.8-0.8-2.4-1.8-2.4
		c-0.9,0-2,0.7-2.8,1.7v14.1H664.4z"/>
	<path fill="#FFFFFF" d="M681.5,208.4l0-2.4c0-6.1,2-7.2,4.7-7.2c3.1,0,4.3,2.1,4.3,6.7c0,0.7,0,1.1,0,1.7h-6.8v2.6
		c0,4.6,1,5.3,2.5,5.3c1.1,0,2.2-0.8,2.3-4V211h2v0.1c-0.3,2.9-1,5.5-4.2,5.5C682.7,216.6,681.5,214.8,681.5,208.4z M683.7,206.2
		h4.7v0c0-2.6,0.3-6-2.1-6C683.7,200.2,683.7,202.3,683.7,206.2L683.7,206.2z"/>
	<path fill="#FFFFFF" d="M693.6,216.2v-17h2.1v1.6c1.2-1.4,2.6-2,3.9-2c1.2,0,2.5,0.8,2.9,1.9c1.2-1.3,2.7-1.9,3.8-1.9
		c1.7,0,3.4,1.3,3.4,3.2v14.2h-2.1v-13.8c0-1.5-0.9-2-1.8-2c-0.9,0-1.9,0.5-2.8,1.4v14.4h-2.1v-13.8c0-1.5-0.9-2-1.9-2
		c-1,0-2.2,0.7-3.1,1.7v14.1H693.6z"/>
	<path fill="#FFFFFF" d="M719.8,216.2l-0.3-2.1c-1,1.7-2.5,2.4-3.6,2.4c-1.6,0-3.4-1.4-3.4-3.8c0-2.2,0.1-4.3,6.8-7v-0.1
		c0-5-1.1-5.4-2.1-5.4c-0.8,0-2,0.3-2.2,3.2v0.1h-2.2c0.2-3,1.8-4.8,4.3-4.8c3.6,0,4.3,3,4.3,5.3v8.2c0,2,0.3,3.9,0.3,3.9H719.8z
		 M719.4,212.7v-6c-2.9,2-4.7,3.3-4.7,5.7c0,1.8,0.9,2.4,1.7,2.4C717.5,214.8,718.7,213.9,719.4,212.7z"/>
	<path fill="#FFFFFF" d="M725.3,195.3v-2.5h2.1v2.5H725.3z M725.3,216.2v-17h2.1v17H725.3z"/>
	<path fill="#FFFFFF" d="M731.3,216.2v-24.4h2.1v24.4H731.3z"/>
	<path fill="#FFFFFF" d="M740.9,211.9l1.6-0.6c0.5,1.5,1.6,3.7,3.3,3.7c1.5,0,2.2-1.1,2.2-2.5c0-1.4-1.5-2.9-2.9-4.2l-1.2-1.1
		c-1.5-1.3-2.8-2.6-2.8-4.4c0-2.6,1.7-4,4.3-4s3.8,2.1,4.4,4.3l-1.9,0.6c-0.2-1.4-1-3.4-2.6-3.4c-1.3,0-2.1,1-2.1,2.3
		c0,1.2,0.9,2.2,2.1,3.3l1.3,1.2c1.6,1.4,3.4,2.9,3.4,5.4c0,2.6-1.8,4.1-4.3,4.1C743.2,216.6,741.6,214.4,740.9,211.9z"/>
	<path fill="#FFFFFF" d="M752.7,216.2v-24.4h2.1v9c0.9-1.4,2.2-2,3.5-2c1.6,0,3.3,1.3,3.3,4v13.4h-2.2v-13.3c0-1.6-1-2.2-1.7-2.2
		c-0.9,0-2,0.6-2.9,1.4v14.1H752.7z"/>
	<path fill="#FFFFFF" d="M765,208.1v-0.9c0-4,0-8.5,4.5-8.5c4.5,0,4.5,4.5,4.5,8.5v0.9c0,4.3,0,8.5-4.5,8.5
		C765,216.6,765,212.4,765,208.1z M767.1,207.2v0.9c0,5.1,0.4,7,2.4,7c2,0,2.4-1.9,2.4-7v-0.9c0-5-0.3-7-2.4-7
		C767.4,200.2,767.1,202.2,767.1,207.2z"/>
	<path fill="#FFFFFF" d="M777.2,216.2v-17h2.1v2.4c0.6-1.9,2.3-2.6,3.6-2.7h0v2.1c0,0-0.2-0.1-0.4-0.1c-1.6,0-3.3,0.5-3.3,2.5v12.7
		H777.2z"/>
	<path fill="#FFFFFF" d="M786.1,212.2v-11.8h-2.3v-1.2h2.3v-6h2.1v6h2.7v1.2h-2.7v11.7c0,1.7,0.1,2.8,1.4,2.8c0.4,0,0.8,0,1.2-0.1
		v1.5c-0.7,0.2-1.3,0.2-1.8,0.2C786.4,216.4,786.1,214.3,786.1,212.2z"/>
	<path fill="#FFFFFF" d="M794.2,216.2v-24.4h2.1v24.4H794.2z"/>
	<path fill="#FFFFFF" d="M799.7,220.4v-1.7c2.3-0.2,3.3-0.8,3.3-1.8c0-0.5,0-1.3-0.2-2l-3.7-15.6h2.3l2.8,14.6l2.8-14.6h2.3
		l-4.3,18.2C804.5,219.7,802.7,220.4,799.7,220.4L799.7,220.4z"/>
</g>
<rect x="0" y="653" fill="#24B5E1" width="963" height="805.5"/>
</svg>
