<?xml version="1.0" encoding="utf-8"?>
<!-- Generator: Adobe Illustrator 18.1.0, SVG Export Plug-In . SVG Version: 6.00 Build 0)  -->
<svg version="1.1" id="Layer_1" xmlns="http://www.w3.org/2000/svg" xmlns:xlink="http://www.w3.org/1999/xlink" x="0px" y="0px"
	 viewBox="-194 -104 1000 1000" enable-background="new -194 -104 1000 1000" xml:space="preserve">
<g>
	<g>
		<path fill="#FFFFFF" d="M305.8,866c-63.6,0-125.2-12.4-183.2-37C66.5,805.3,16.1,771.4-27.1,728.1
			c-43.2-43.2-77.2-93.6-100.9-149.6c-24.5-58-37-119.7-37-183.2c0-63.6,12.4-125.2,37-183.2C-104.3,156-70.4,105.6-27.1,62.4
			C16.1,19.1,66.5-14.8,122.5-38.5c58-24.5,119.7-37,183.2-37c63.6,0,125.2,12.4,183.2,37C545-14.8,595.4,19.1,638.6,62.4
			c43.2,43.2,77.2,93.6,100.9,149.6c24.5,58,37,119.7,37,183.2c0,63.6-12.4,125.2-37,183.2c-23.7,56.1-57.7,106.4-100.9,149.6
			C595.4,771.4,545,805.3,489,829C431,853.6,369.3,866,305.8,866z"/>
		<path fill="#F05B6E" d="M305.8-63c61.9,0,121.9,12.1,178.4,36c54.6,23.1,103.6,56.1,145.7,98.2c42.1,42.1,75.1,91.1,98.2,145.7
			c23.9,56.5,36,116.5,36,178.4s-12.1,121.9-36,178.4c-23.1,54.6-56.1,103.6-98.2,145.7c-42.1,42.1-91.1,75.1-145.7,98.2
			c-56.5,23.9-116.5,36-178.4,36s-121.9-12.1-178.4-36c-54.6-23.1-103.6-56.1-145.7-98.2c-42.1-42.1-75.1-91.1-98.2-145.7
			c-23.9-56.5-36-116.5-36-178.4s12.1-121.9,36-178.4c23.1-54.6,56.1-103.6,98.2-145.7C23.8,29.1,72.8-3.9,127.4-27
			C183.9-50.9,243.9-63,305.8-63 M305.8-88C38.9-88-177.5,128.4-177.5,395.2S38.9,878.5,305.8,878.5S789,662.1,789,395.2
			S572.6-88,305.8-88L305.8-88z"/>
	</g>
	<g>
		<path fill="#F05B6E" d="M311.6,400c-74.7,0-135.5-66.6-135.5-148.4c0-81.9,60.8-148.4,135.5-148.4c74.7,0,135.5,66.6,135.5,148.4
			C447.1,333.4,386.3,400,311.6,400z"/>
		<path fill="#F05B6E" d="M311.6,107.6c34.8,0,67.6,14.9,92.4,41.9c24.9,27.2,38.6,63.5,38.6,102.1s-13.7,74.8-38.6,102.1
			c-24.7,27-57.5,41.9-92.4,41.9s-67.6-14.9-92.4-41.9c-24.9-27.2-38.6-63.5-38.6-102.1s13.7-74.8,38.6-102.1
			C243.9,122.5,276.7,107.6,311.6,107.6 M311.6,98.6c-77.3,0-140,68.5-140,152.9s62.7,152.9,140,152.9s140-68.5,140-152.9
			S388.9,98.6,311.6,98.6L311.6,98.6z"/>
	</g>
	<g>
		<path fill="#F05B6E" d="M102.6,668.2c-1.5-13.5-5.2-60.5,5.9-110.4c7.6-34.3,20.7-63.2,38.9-85.9c22.2-27.9,52.3-46.6,89.4-55.6
			c7.6,4.1,40.1,20.5,81.3,20.5c25.9,0,50.1-6.5,72-19.3c7.5,1.6,41.6,10.1,73.2,40.8c20.9,20.3,36.7,46.1,46.9,76.9
			c12.5,37.7,16.8,82.8,12.6,134.3L102.6,668.2z"/>
		<path fill="#F05B6E" d="M236.2,421.1c10.1,5.3,42.1,20.2,81.9,20.2c26.1,0,50.5-6.4,72.7-19.1c9.6,2.2,40.7,11.3,69.7,39.6
			c20.3,19.8,35.6,45,45.5,75.1c11.9,36,16.1,79,12.6,128l-411.9-1.1c-1.6-16.9-3.9-59.5,6.2-104.7c7.5-33.7,20.2-62,38-84.2
			C172.1,448.1,200.8,430.1,236.2,421.1 M237.5,411.5C66.9,451.5,98.6,672.7,98.6,672.7l428.2,1.2
			C548,437.4,389.2,412.7,389.2,412.7c-24.3,14.6-48.9,19.6-71.1,19.6C272.6,432.3,237.5,411.5,237.5,411.5L237.5,411.5z"/>
	</g>
	
		<text transform="matrix(1.1159 0 0 1 263.8716 314.4673)" fill="#FFFFFF" stroke="#FFFFFF" stroke-width="8" stroke-linecap="round" stroke-linejoin="round" stroke-miterlimit="10" font-family="'MuseoSans-100'" font-size="197.876">?</text>
</g>
</svg>
